<?xml version="1.0" encoding="utf-8"?>
<!-- Generator: Adobe Illustrator 19.0.0, SVG Export Plug-In . SVG Version: 6.00 Build 0)  -->
<svg version="1.1" id="Layer_1" xmlns="http://www.w3.org/2000/svg" xmlns:xlink="http://www.w3.org/1999/xlink" x="0px" y="0px"
	 viewBox="-293.5 384.5 25.1 25.1" style="enable-background:new -293.5 384.5 25.1 25.1;" xml:space="preserve">
<style type="text/css">
	.st0{fill:#1E1E1E;}
	.st1{fill:none;stroke:#009dda;stroke-width:2;}
</style>
<title>18+</title>
<desc>Created with Sketch.</desc>
<g id="Betfair-Footer-">
	<g id="_x32_.1---Footer---Mini---RG---Revised" transform="translate(-12.000000, -60.000000)">
		<g id="RG-logos" transform="translate(12.000000, 24.000000)">
			<g id="Logo_x2F_BF_x2F_18_x2B_-W" transform="translate(0.000000, 36.000000)">
				<g id="Bf-icon-18-White">
					<path id="Shape" class="st0" d="M-286.4,393.3h-1.3c-0.2,0.5-0.5,1-1,1.3c-0.4,0.3-0.8,0.6-1.3,0.8v1.4c0.8-0.2,1.4-0.6,2-1.2
						v5.8h1.6V393.3L-286.4,393.3z M-283.8,397.8c-0.2,0.4-0.3,0.8-0.3,1.2c0,0.7,0.3,1.4,0.9,1.9c0.5,0.4,1.2,0.6,1.9,0.6
						c0.7,0,1.4-0.2,1.9-0.7c0.5-0.5,0.7-1.1,0.7-1.8c0-0.4-0.1-0.8-0.4-1.2c-0.3-0.4-0.6-0.6-1-0.8c0.3-0.1,0.6-0.4,0.8-0.7
						c0.2-0.3,0.3-0.6,0.3-1c0-0.6-0.2-1.1-0.6-1.5c-1.1-0.8-2.5-0.8-3.6,0c-0.4,0.4-0.7,0.9-0.6,1.5c0,0.7,0.5,1.4,1.2,1.7
						C-283.1,397.2-283.5,397.5-283.8,397.8L-283.8,397.8z M-282.1,394.7c0.2-0.2,0.5-0.3,0.7-0.3c0.3,0,0.5,0.1,0.7,0.3
						c0.2,0.2,0.3,0.4,0.3,0.7c0,0.3-0.1,0.5-0.3,0.7c-0.4,0.3-1,0.3-1.4,0c-0.2-0.2-0.3-0.5-0.3-0.7
						C-282.4,395.2-282.3,394.9-282.1,394.7L-282.1,394.7z M-282.3,398c0.2-0.3,0.5-0.4,0.9-0.4c0.3,0,0.6,0.1,0.8,0.3
						c0.2,0.3,0.3,0.6,0.3,0.9c0,0.4-0.1,0.7-0.3,1c-0.2,0.2-0.5,0.4-0.8,0.3c-0.3,0-0.6-0.1-0.8-0.4
						C-282.6,399.4-282.7,398.6-282.3,398L-282.3,398z M-274.1,400.2v-2.1h2.1v-1.4h-2.1v-2.1h-1.4v2.1h-2.1v1.4h2.1v2.1H-274.1
						L-274.1,400.2z"/>
					<path id="Combined-Shape" class="st1" d="M-281,386c-6.1,0-11,4.9-11,11s4.9,11,11,11s11-4.9,11-11S-274.9,386-281,386z
						 M-281,385.5c6.4,0,11.5,5.1,11.5,11.5c0,6.4-5.1,11.5-11.5,11.5c-6.4,0-11.5-5.1-11.5-11.5
						C-292.5,390.6-287.4,385.5-281,385.5z"/>
				</g>
			</g>
		</g>
	</g>
</g>
</svg>
