<svg id="Accuracy" xmlns="http://www.w3.org/2000/svg" width="40.963" height="41.236" viewBox="0 0 41.94 42.22">
  <metadata><?xpacket begin="﻿" id="W5M0MpCehiHzreSzNTczkc9d"?>
<x:xmpmeta xmlns:x="adobe:ns:meta/" x:xmptk="Adobe XMP Core 5.6-c138 79.159824, 2016/09/14-01:09:01        ">
   <rdf:RDF xmlns:rdf="http://www.w3.org/1999/02/22-rdf-syntax-ns#">
      <rdf:Description rdf:about=""/>
   </rdf:RDF>
</x:xmpmeta>
                                                                                                    
                                                                                                    
                                                                                                    
                                                                                                    
                                                                                                    
                                                                                                    
                                                                                                    
                                                                                                    
                                                                                                    
                                                                                                    
                                                                                                    
                                                                                                    
                                                                                                    
                                                                                                    
                                                                                                    
                                                                                                    
                                                                                                    
                                                                                                    
                                                                                                    
                                                                                                    
                           
<?xpacket end="w"?></metadata>
<defs>
    <style>
      .cls-1 {
        fill: #004833;
        opacity: 0.5;
      }

      .cls-1, .cls-2 {
        fill-rule: evenodd;
      }

      .cls-2 {
        fill: #fff;
      }
    </style>
  </defs>
  <path id="Base_2_copy_6" data-name="Base 2 copy 6" class="cls-1" d="M1670.04,1015.29a19.221,19.221,0,0,1,13.86,5.45,21.448,21.448,0,0,1,7.07,15.72,21.211,21.211,0,0,1-7.06,15.85,19.913,19.913,0,0,1-14,5.19c-6.65,0-11.74-3.08-15.71-7.81a21.046,21.046,0,0,1-5.18-13.64,21.565,21.565,0,0,1,9.2-17.68C1661.73,1015.9,1665.42,1015.29,1670.04,1015.29Z" transform="translate(-1649.03 -1015.28)"/>
  <path id="Forma_1" data-name="Forma 1" class="cls-2" d="M1682.06,1029.22a14.529,14.529,0,0,0-5.28-5.28,14.629,14.629,0,0,0-14.56,0,14.529,14.529,0,0,0-5.28,5.28,14.629,14.629,0,0,0,0,14.56,14.529,14.529,0,0,0,5.28,5.28,14.629,14.629,0,0,0,14.56,0,14.529,14.529,0,0,0,5.28-5.28A14.629,14.629,0,0,0,1682.06,1029.22Zm-3.22,12.69a10.811,10.811,0,0,1-3.93,3.93,10.817,10.817,0,0,1-10.82,0,10.887,10.887,0,0,1-3.93-3.93,10.817,10.817,0,0,1,0-10.82,10.811,10.811,0,0,1,3.93-3.93,10.817,10.817,0,0,1,10.82,0,10.735,10.735,0,0,1,3.93,3.93A10.817,10.817,0,0,1,1678.84,1041.91Zm-9.34-10.9a5.5,5.5,0,1,0,3.88,1.61A5.285,5.285,0,0,0,1669.5,1031.01Z" transform="translate(-1649.03 -1015.28)"/>
</svg>
