<?xml version="1.0" encoding="utf-8"?>
<!-- Generator: Adobe Illustrator 19.0.0, SVG Export Plug-In . SVG Version: 6.00 Build 0)  -->
<svg version="1.1" id="Layer_1" xmlns="http://www.w3.org/2000/svg" xmlns:xlink="http://www.w3.org/1999/xlink" x="0px" y="0px"
	 viewBox="0 0 650 306" style="enable-background:new 0 0 650 306;" xml:space="preserve">
<style type="text/css">
	.st0{fill:#FFFFFF;}
	.st1{fill:#079CD9;}
	.st2{display:none;fill:#FFFFFF;}
</style>
<g id="XMLID_3_">
	<g id="Logo">
		<g id="Group" transform="translate(-322.000000, -522.000000)">
			<g id="Combined-Shape" transform="translate(322.253313, 522.450000)">
				<path id="XMLID_290_" class="st0" d="M85.7,145.4c7.2,0,11.3,4.4,11.5,11.6l-7.7,1.7c0-3.6-1.3-6.2-3.8-6.2
					c-2.1,0-3.4,1.4-3.4,3.7c0,6.4,15.1,8,15.1,20.3c0,7-5.3,11.7-12.3,11.7c-7.2,0-12.1-4.7-12.2-12.3l7.7-2.1
					c-0.1,4.4,1.7,7.3,4.5,7.3c2.2,0,3.6-1.4,3.6-3.8c0-6.9-15-8.2-15-20.1C73.6,150.2,78.6,145.4,85.7,145.4z M141.2,145.4
					c8.9,0,13.8,7.4,13.8,21.3s-4.9,21.3-13.8,21.3c-8.9,0-13.8-7.4-13.8-21.3S132.3,145.4,141.2,145.4z M224.2,145.4
					c7.2,0,11.3,4.4,11.5,11.6l-7.7,1.7c0-3.6-1.3-6.2-3.8-6.2c-2.1,0-3.4,1.4-3.4,3.7c0,6.4,15.1,8,15.1,20.3
					c0,7-5.3,11.7-12.3,11.7c-7.2,0-12.1-4.7-12.2-12.3l7.7-2.1c-0.1,4.4,1.7,7.3,4.5,7.3c2.2,0,3.6-1.4,3.6-3.8
					c0-6.9-15-8.2-15-20.1C212.1,150.2,217.1,145.4,224.2,145.4z M112.1,145.9c8.5,0,13,4.6,13,13.5c0,9-4.5,13.6-13,13.6h-2.6v14.5
					h-8.8v-41.6H112.1z M171.3,145.9c8.7,0,12.7,4.4,12.7,12.1c0,5.8-3.3,9.2-6.9,10v0.1c2.7,0.6,4.7,2.7,5.3,6.5l1.1,8.2
					c0.2,1.9,0.7,3.4,1.6,4.7h-9.4c-0.6-1.1-1-2.6-1.3-4.5l-0.9-7.7c-0.4-2.7-1.6-3.7-3.8-3.7h-2.3v15.9h-8.9v-41.6H171.3z
					 M210.7,145.9v7.4h-7.9v34.2h-9v-34.2H186v-7.4H210.7z M141.2,152.9c-3.3,0-4.6,4.3-4.6,13.8s1.2,13.8,4.6,13.8
					c3.3,0,4.6-4.3,4.6-13.8S144.5,152.9,141.2,152.9z M111.6,153.2h-2.1v12.8h2.1c3.2,0,4.6-1.9,4.6-6.4
					C116.2,155,114.9,153.2,111.6,153.2z M170.2,153.2h-2.7v11.7h2.7c3.6,0,4.6-2.1,4.6-5.9C174.9,155.2,173.9,153.2,170.2,153.2z
					 M225.5,27.7c9.4,0,10.2,10.8,3.5,25.2c-8.1,17-20,34.2-42.4,55.1c0.9,7.5,4.2,12.3,9.8,12.3c5.1,0,9.7-1.8,16.6-7.6
					c-0.2-7.7,2.3-17.8,7.5-29.1c10.1-22.1,27.4-39.4,38.8-39.4c7.8,0,8.5,10.5,2.3,23.8c-5.9,12.5-18.3,28.7-34.8,43
					c0.3,5.9,2.5,9.4,6.5,9.4c8.4,0,16.7-10.2,25.4-26.7c3.6-6.9,6.9-13.3,11.2-20.5c1-1.7,2.9-2.5,9.9-2.5c1.9,0,2.5,0.4,2.5,1.4
					c0,1-0.7,2.6-4.6,11.2c-3.7,8.1-6.8,14.7-9.7,20.9c-3.5,7.4-2.5,11,0.3,11c4.9,0,16.7-14.6,32.3-42.1c1-1.7,2.9-2.5,9.9-2.5
					c1.9,0,2.5,0.4,2.5,1.4c0,1-0.6,2.6-4.6,11.2c-4.2,9.2-8.8,18.9-13.5,28.8l-1.6,3.5c-7.1,15-14.3,30-20.5,42.7
					c-1.6,3.3-4.3,4.5-11.1,4.5c-1.7,0-2.7-0.7-2.7-1.9c0-0.1,0-0.1,0-0.2l0-0.1c0.1-0.6,0.3-1.5,1.5-4.3l0.2-0.4
					c0.8-1.8,2-4.5,3.7-8.2c4.8-10.4,10.2-22.1,15.7-33.7c-9.8,8.9-15.7,12.7-20.5,12.7c-5.8,0-8.5-5.6-8.2-12.5
					c-9.1,11-16.3,15-23.7,15c-7.2,0-11.8-3.6-13.7-9.8c-8.5,7.4-15.3,9.8-23.2,9.8c-8.7,0-14.5-5-17-13.2
					c-9.5,9.6-15.9,12.5-22.1,12.5c-6.5,0-10.8-3.9-11.7-9.2c-8.4,6.9-14.1,10-18.9,10c-10.1,0-12.7-13.3-6.5-26.7
					c9.4-20.2,28.3-32.4,42.3-32.4c7.4,0,11.4,3.7,11.4,7.5c0,3-2.6,5.8-6.5,5.8c-4,0-7.4-3.5-8.1-7.2c-8.7,0.9-17.3,10.8-23.8,24.5
					c-6.9,14.9-5.5,19.2-1.9,19.2c7.1,0,14-14,23.2-27.8c1.2-1.7,3.3-2.5,10.1-2.5c1.9,0,2.5,0.4,2.5,1.3c0,0.8-0.7,2.4-4.2,9.4
					l-0.4,0.8c-0.2,0.4-0.4,0.8-0.6,1.2c-4.3,8.7-5.5,11.2-5.5,13.7c0,2.2,1,3.5,3.3,3.5c3.7,0,8.2-2,16.1-9.7
					c-0.9-9.3,1.5-21.3,7.5-34.2C191.5,50.8,213.1,27.7,225.5,27.7z M99.9,24.8c30,0,42.4,17.7,34.5,34.6
					c-5,11.1-19.6,19.8-39.8,23.8c10.7,8.7,14.3,20.5,9.2,31.3c-4.3,9.4-13.8,14.7-26.2,14.7c-9.5,0-15.7-4.8-15.7-11.7
					c0-3.6,3-6.6,6.6-6.6c3.7,0,6.8,3.6,6.8,7.6c0,1.6-0.4,3.2-1,4.6c6.6,0.3,12.5-4.2,16.4-12.4c4.3-9.2,1-21.5-7.6-27.8
					c-1-0.7-1.3-1.4-1.3-2c0-0.9,0.6-1.6,2.5-1.9c14.6-2,30.1-12.4,35-23.2c6.5-13.8-3.2-24.2-25.8-24.2
					c-25.8,0-56.5,20.8-74.1,59.1c-9.8,20.8-8.5,39.2,4.5,39.2c24.1,0,27.3-87.7,71.7-87c1.4,0,1.7,2,0.4,2.5
					C62.3,57.3,65.9,137,25.8,137c-20.2,0-28.6-24.8-14.1-55.5C26.8,49.1,62,24.8,99.9,24.8z M257.3,51.2c-4.8,0-15.6,13.3-22.4,28
					c-3.9,8.7-6.5,16.7-7.5,23.5c9.8-9.5,22.6-27.1,27.7-37.9C259,56.3,260,51.2,257.3,51.2z M224.7,34.8
					c-6.5,0-22.5,19.8-30.9,37.9c-4.5,9.7-6.9,19.5-7.5,27.5c13.1-13.7,28.4-35,35.8-50.5C226.5,40.1,227.4,34.8,224.7,34.8z"/>
			</g>
		</g>
	</g>
</g>
<g id="XMLID_4_">
	<g id="XMLID_240_">
		<path id="XMLID_254_" class="st1" d="M32.8,279.4c-2.8,6.8-5,12-5.3,12.9v0.4H16.6H5.1v-0.4c0.4-0.8,2.7-6,18.3-41.1l23.1-52.3
			h3.1l22.9,52.3c15.4,35.1,17.6,40.3,18,41.1v0.4H79.1H65.9v-0.4c-0.2-0.8-2.4-6-5.1-12.9H32.8z M54.4,261.9v-0.2
			c-4.7-11.9-6.5-17.4-7.3-20.4H47c-0.8,3.1-2.7,8.5-7.6,20.4v0.2H54.4z"/>
		<path id="XMLID_251_" class="st1" d="M121.2,239.5v-38.4v-0.2c2-0.2,5.3-0.5,8.4-0.6c2.6-0.1,8.3-0.2,11.5-0.2
			c7.6,0,13.5,0.7,18.8,2.1c7.9,2.1,18.8,8.9,18.8,25.9c0,10.2-4.8,17.5-8.5,20.4c-2.1,1.9-4.6,3.7-6.1,4.3v0.4
			c0.8,1.2,2.4,3.7,19.8,29.4c2.5,3.7,6.1,9,6.7,9.9v0.2h-12.2h-8.7H166c-6.6-10.6-14.4-23.3-22-35.4h-2.1v5.8v29.4v0.2h-10.3h-10.4
			v-0.2v-41.1V239.5z M157.5,229.7c0-7.2-4.4-11.5-11.5-11.5c-2,0-3.1,0.1-4.1,0.2V242c0.8,0.1,2,0.1,3.1,0.1c3.1,0,5.8-0.9,7.8-2.4
			c2.1-1.4,4.7-4.8,4.7-9.9V229.7z"/>
		<path id="XMLID_249_" class="st1" d="M212.4,246.2c0-26,19.1-46.9,54.6-46.9c3.1,0,5.1,0.1,7.7,0.4c2.4,0.2,5.1,0.6,7,1.1
			c-0.2,5.9-0.4,10.9-0.7,19.6h-0.4c-1.4-0.4-2.8-0.6-4.7-0.9c-2.4-0.4-5.3-0.6-8.4-0.6c-19.4,0-31.5,11-31.5,27.5
			c0,16.8,11.1,28.1,29.2,28.1c3.9,0,7,0,10.3-0.6c1.8-0.2,3.4-0.6,5.4-1.2h0.2c0.1,3.8,0.6,15.1,0.7,19.1c-1.7,0.5-5.1,1.2-7.4,1.5
			c-4.6,0.6-7.3,0.7-11.2,0.7c-29.1,0-50.7-18.5-50.7-47.7V246.2z"/>
		<path id="XMLID_246_" class="st1" d="M336,279.4c-2.8,6.8-5,12-5.3,12.9v0.4h-10.9h-11.6v-0.4c0.4-0.8,2.7-6,18.3-41.1l23.1-52.3
			h3.1l22.9,52.3c15.4,35.1,17.6,40.3,18,41.1v0.4h-11.3h-13.2v-0.4c-0.2-0.8-2.4-6-5.1-12.9H336z M357.6,261.9v-0.2
			c-4.7-11.9-6.5-17.4-7.3-20.4h-0.1c-0.8,3.1-2.7,8.5-7.6,20.4v0.2H357.6z"/>
		<path id="XMLID_243_" class="st1" d="M500.4,244.8c0,17.6-7.6,31.4-20.9,40.2c-8.1,5.4-19,8-31.3,8c-5.9,0-11.6-0.1-15.4-0.2
			c-2.5-0.1-6-0.4-8.5-0.6V292v-40.7v-11.8v-37.6V201c2.4-0.2,5.3-0.6,10.7-0.8c5.7-0.2,10.2-0.4,14.5-0.4c14.1,0,24.3,2.8,32,7.6
			c14.3,8.9,18.8,23.9,18.8,37.3V244.8z M477.8,245.3c0-8.4-2.8-15.9-8.7-20.7c-4.1-3.2-9.7-5.1-16.8-5.1c-2.2,0-4.5,0.2-6,0.4v52.7
			c0,0.2,0.1,0.2,0.2,0.2c1.8,0.2,3.7,0.4,5.4,0.4c5.3,0,10.5-1.5,14.9-4.6c6.4-4.6,11-12.2,11-23.1V245.3z"/>
		<path id="XMLID_241_" class="st1" d="M534.6,239.5v-38.7v-0.2h25.7h23.3v18.3h-0.2h-14.3h-12.6v18.1h13.7h10h0.2v8.9v9.4h-0.2
			h-9.8h-13.9v16.7v2.4h18.7h9h0.2v18.4h-22.4h-27.3v-0.2v-41.1V239.5z"/>
	</g>
</g>
<g id="XMLID_30_">
	<path id="XMLID_26_" class="st0" d="M346.5,177.6c-1.4-0.6-2.6-1.3-3.9-1.8c-0.7-0.3-1.4-0.4-2.2-0.4c-1.8,0-2.6,1.6-1.6,3.3
		c0.3-0.5,0.5-0.9,0.8-1.3c0.8-1.1,1.4-1.3,2.6-0.7c1.1,0.5,2.1,1.2,3.1,1.8c0.4,0.2,0.7,0.5,0.9,0.9c0.4,0.5,0.4,1-0.2,1.3
		c-0.7,0.4-1.6,0.8-2.3,1.2c-0.3,0.1-0.6,0.3-0.9,0.5c0.7,0,0.9,0.5,1,1c0.2,0.9,0.4,1.8,0.6,2.8c0.1,0.5-0.1,0.9-0.7,1.1
		c-0.9,0.3-1.8,0.8-2.7,1.3c-0.3,0.1-0.5,0.4-0.6,0.8c0.7-0.3,1.4-0.7,2.1-0.9c1-0.3,2.1-0.6,3.2-0.6c1.7,0.1,3.2,2.2,2.9,3.9
		c-0.1,0.5-0.4,0.9-0.9,1.1c-0.5,0.1-1,0.3-1.5,0.4c-2,0.3-3.9,0.5-5.9,0.8c-0.4,0-0.9-0.1-1.3-0.2c-0.8-0.2-0.9-0.8-0.3-1.4
		c0.5-0.5,1.1-0.8,1.7-1.2c0.3-0.2,0.7-0.3,1.1-0.5c-1.4-0.4-3.3,0.9-4.1,2.8c-0.4-0.5-0.9-0.9-1.1-1.5c-0.2-0.5-0.1-1.1-0.1-1.7
		c-0.1,0-0.2,0-0.3,0c-0.2,0.5-0.3,1.1-0.5,1.7c-1.3-0.1-2.7-0.3-3.9-1c-1.1-0.7-1.7-1.8-1.5-3.1c0.1-0.6,0.2-1.3,0.5-1.8
		c1.4-2.9,2.8-5.8,4.3-8.7c1-1.8,2.4-3.2,4.5-4c1.3-0.5,2.3-1.6,3.2-2.7c2.8-3.4,5.1-7.1,6.7-11.2c1-2.5,2.6-4.6,4.4-6.5
		c1.7-1.7,3.4-3.2,5.2-4.8c3-2.7,5-5.9,6.5-9.6c0.6-1.3,1.4-2.5,2.5-3.3c1.4-1.1,2.9-1.4,4.6-0.5c-1.7-3.2-1.7-3.2-1.3-5.1
		c-0.5,0.5-0.9,0.9-1.3,1.3c-2.6,2.8-4.5,5.9-6.2,9.2c-1.1,2.1-2.4,4.2-4.2,5.8c-1.8,1.5-4.1,1-4.9-0.5c-0.4-0.8-0.7-1.7-0.7-2.6
		c0-1.4,0.1-2.7,0.5-4.1c0.6-2.2,1.4-4.3,2.2-6.5c1.2,2.2,2.8,3.3,5.4,2.7c-0.2-0.1-0.3-0.2-0.4-0.2c-2.7-0.9-3.8-3.1-3.7-5.7
		c0.1-4.1,1.1-8.1,2.3-12c0.8-2.3,1.8-4.6,3.1-6.7c1-1.5,2.2-2.8,3.6-3.9c2.5-2,4.9-4.1,6.8-6.6c0.6-0.7,1-1.5,1.4-2.4
		c0.5-1.2,0.1-2.1-1.3-2.3c-1.2-0.3-2.3,0.2-3.3,0.9c-1.8,1.3-3.1,3.1-4.3,5c-1.1,1.8-2.1,3.7-3.1,5.4c0-3.1,5.7-13.4,8.5-15.1
		c2.1,2.2,4.4,4.2,7.2,5.5c0.1-0.1,0.1-0.2,0.2-0.3c-0.2-0.1-0.4-0.2-0.6-0.3c-2.9-2-5.2-4.5-6.3-7.9c-0.3-1-0.5-2-0.2-3
		c0.3-1,0.9-1.6,2-1.4c0.9,0.1,1.8,0.4,2.6,0.8c4.6,3,9.7,3.1,14.9,2.7c1.1-0.1,2.2-0.3,3.3-0.4c0,0,0.1-0.1,0.2-0.2
		c-0.3,0-0.6-0.1-0.8-0.1c-3.8-0.1-7.6-0.5-11.3-1.7c-2.8-0.9-5.3-2.1-7.4-4.2c-1.3-1.3-2.1-2.8-2.6-4.5c-0.2-0.6-0.3-1.2,0.2-1.7
		c0.5-0.5,1.1-0.4,1.6-0.2c0.8,0.3,1.6,0.7,2.4,1.1c1.8,0.9,3.6,2,5.5,2.8c1.9,0.8,3.9,1.2,6.1,1c-0.7-0.2-1.4-0.4-2.1-0.5
		c-2.1-0.5-4.1-1.3-6-2.3c-3-1.6-5.8-3.5-8.4-5.6c-0.3-0.2-0.5-0.5-0.7-0.7c-0.7-0.9-0.7-1.9,0.2-2.6c0.7-0.5,1.5-0.9,2.3-1.4
		c0.1-3.2-5.2-7.2-8.7-6.1c0.4,0.1,0.6,0.2,0.8,0.2c0.8,0.3,1.7,0.5,2.4,0.9c1.1,0.6,1.3,1.4,0.6,2.4c-1,1.4-2.1,2.8-3.3,4.1
		c-1.9,2.2-3.8,4.3-5.7,6.5c-0.4,0.5-0.8,1.2-1,1.8c-0.5,1.5-1.6,2.4-2.9,3.2c-2.5,1.4-5.1,2.4-7.9,3.1c-3.4,0.9-6.9,1.8-10.4,2.6
		c-0.4,0.1-0.8,0-1.1-0.2c-3.7-2.5-7.7-3-12-2.1c-0.9,0.2-1.8,0.5-2.7,0.7c0,0.1,0,0.1,0.1,0.2c0.9-0.2,1.7-0.4,2.6-0.6
		c4-0.8,7.6-0.1,11,2.2c1.3,0.9,2.1,2.2,2.9,3.6c0.5,0.9,0.8,1.8,1.1,2.7c0.4,1,0.1,1.9-0.7,2.7c-1.1,1.1-2.3,1.9-3.7,2.3
		c-1.6,0.5-2.5,1.6-3.3,2.9c-0.1,0.2-0.2,0.4-0.4,0.7c-0.6-0.4-1.3-0.8-1.8-1.3c-0.1-0.1-0.1-0.5,0-0.7c0.6-1.2,1.3-2.3,1.9-3.5
		c0.9-1.6,1.7-3.3,2.5-5c0.5-1.2,0.7-2.6,0.5-3.9c0-0.3-0.2-0.5-0.2-0.8c-0.1,0-0.2,0-0.2,0c0,0.2-0.1,0.4-0.1,0.6
		c0.3,1.9-0.2,3.8-1.1,5.5c-1.2,2.3-2.5,4.6-3.7,6.8c-0.3,0.5-0.6,0.7-1.1,0.3c-0.1-0.1-0.2-0.1-0.2-0.1c-1.1-0.6-1.1-0.6-0.6-1.8
		c0.5-1.4,0.8-2.8,0.5-4.2c-0.7-2.6-1.5-5.2-2.2-7.8c-0.2-0.6-0.3-0.6-0.8-0.6c0.3,0.9,0.7,1.9,0.9,2.8c0.6,2,1.5,3.9,1.5,6
		c0,0.9,0,1.8-0.1,2.6c-0.2,1.4-1.1,1.7-2.1,0.9c-2.4-1.9-4.8-3.9-7.1-5.8c-0.4-0.4-0.7-0.9-1.1-1.3c-0.1,0-0.2,0.1-0.2,0.1
		c0.1,0.3,0.1,0.7,0.3,0.9c1.1,1.2,2.2,2.4,3.4,3.5c1.4,1.2,3,2.2,4.4,3.3c0.1,0.1,0.3,0.2,0.4,0.3c0.7,0.6,0.6,1.2-0.1,1.6
		c-1.6,0.8-3.2,1.2-5,1.3c-1.7,0.1-3.3-0.2-4.7-1.2c-0.2,0.6,0.1,1.1,0.6,1.3c0.6,0.2,1.2,0.4,1.8,0.5c2,0.3,4,0.2,5.9-0.3
		c1.1-0.3,2-0.8,2.6-1.8c0.1-0.1,0.3-0.3,0.4-0.3c0.5,0.3,1.1,0.7,1.5,1.1c0.4,0.4,0.1,0.8-0.1,1.2c-1.4,1.9-2.8,3.6-4.6,5.1
		c-0.7,0.5-1.5,0.9-2.3,1.4c0.1,0.4,0.5,0.6,1,0.3c0.6-0.3,1.1-0.6,1.6-1c1.9-1.8,3.6-3.7,5.1-5.9c0.2-0.4,0.5-0.6,0.9-0.3
		c0.3,0.2,0.6,0.3,0.8,0.4c0.4,0.3,0.5,0.7,0.3,1.1c-1.1,1.8-1.1,3.8-0.8,5.8c0.1,0.4,0.1,1,0.6,0.9c0.5-0.1,0.2-0.7,0.1-1
		c-0.6-1.8-0.1-3.5,0.5-5.1c0.2-0.6,0.8-0.7,1.4-0.4c0.6,0.3,1.1,0.7,1.7,1c0.7,0.3,1.5,0.7,2.2,0.9c0.3,0.1,0.6-0.1,1-0.2
		c-0.3-0.2-0.5-0.5-0.8-0.6c-1.3-0.6-2.6-1.1-3.9-1.7c-0.5-0.2-0.5-0.5-0.2-1c0.7-1.1,1.6-2,2.8-2.5c1-0.4,2-0.8,2.9-1.4
		c0.7-0.4,1.3-1.1,2-1.7c0.3,3.5-0.3,6.8-2.6,9.5c-3.5,4.1-8,5.5-13.2,4.5c-2.9-0.6-5.3-2-7.2-4.2c-2-2.2-2.7-4.9-2.9-7.9
		c-0.4,0.3-0.7,0.6-1.1,0.8c-0.3,0.1-0.8,0.2-0.9,0.1c-0.2-0.3-0.3-0.8-0.2-1c0.4-0.8,0.9-1.5,1.6-2.2c0.5-0.6,0.7-1.3,0.8-2
		c0-0.2-0.1-0.5-0.2-0.7c-0.2,0.1-0.5,0.1-0.6,0.2c-0.6,0.7-1.2,1.5-1.8,2.2c-0.3,0.3-0.5,0.7-0.9,0.9c-0.5,0.3-0.8,0.1-0.8-0.5
		c0-0.3,0.1-0.6,0.2-0.9c0.7-1.6,1.6-3,3-4c0.7-0.5,1.5-0.8,2.3-0.9c0.7-0.1,0.9-0.6,1.3-1.2c-0.5,0.1-0.9,0.2-1.3,0.2
		c-1.2,0-2.2,0.4-2.8,1.6c-0.2,0.4-0.6,0.8-1,1.1c-0.2,0.2-0.6,0.1-0.9,0.1c0-0.3-0.2-0.6-0.1-0.8c1.1-2.1,2.4-3.9,4.8-4.6
		c1.4-0.4,2.9-0.7,4.3-1c0.5-0.1,0.8-0.3,1-0.9c-0.9-0.2-1.8-0.4-2.1-1.3c-0.1-0.2,0-0.5,0-0.7c1,0,1.9-0.1,2.8,0
		c1.1,0.2,2.2,0.5,3.2,0.9c1,0.4,1.9,0.5,2.8-0.1c4.7-2.8,9.4-5.5,13.7-8.9c1.8-1.4,3.6-2.7,5.9-3.1c0.7-0.2,1.4-0.2,2.1-0.1
		c1.6,0.2,2.6,1.7,2,3.3c-0.3,0.8-0.8,1.4-1.2,2.2c1.5-0.4,3.1-1.4,4.8-0.7c0.4-0.6,0.8-1.1,1.2-1.7c-0.1,0-0.3,0.1-0.6,0.2
		c-0.6,0.2-1.3,0.5-1.9,0.5c-1.3,0.2-2.1-0.7-1.8-1.9c0.3-1,0.8-2,1.2-3c0.1-0.2,0.2-0.5,0.4-0.8c-1,0.4-1.9,0.8-2.8,1.1
		c0-0.1-0.1-0.1-0.1-0.2c0.6-0.5,1.1-0.9,1.7-1.4c0.6-0.5,1.2-1,1.7-1.5c0.4-0.5,0.8-1,1.1-1.6c1-2.2,2.6-3.9,4.5-5.3
		c0.4-0.3,0.7-0.7,0.8-1.2c0.7-2.9,1.8-5.7,3.6-8.1c1.5-1.9,3.3-3.3,5.7-3.6c1.5-0.2,2.5,0.5,3,1.8c0.7,1.8,0.6,3.6,0.4,5.5
		c0,0.5-0.1,0.9-0.1,1.4c0.1,0,0.1,0,0.2,0c0.2-0.6,0.3-1.1,0.5-1.7c0.4-1.6,0.6-3.2,0.4-4.9c-0.3-2.2-1.1-3.2-3.4-3.8
		c3.8-1.6,7.5-3.4,11.4-4.3c0.1,1.8,0.1,3.4,0.4,5c0.5,3.6,1.6,7,4.3,9.7c0.7,0.7,1.3,1,2.3,1c2.8-0.1,5.6,0,8.4,0
		c0.6,0,1.1,0.2,1.7,0.3c-0.3-0.8-0.7-1.5-0.8-2.2c-0.3-1.2-0.5-2.4-0.7-3.6c-0.1-1,0.2-2,0.7-3c1.1-2.1,1.4-4.3,1.3-6.7
		c0-0.1,0-0.1-0.1-0.3c-0.1,0.3-0.2,0.5-0.3,0.8c-0.7,1.9-1.4,3.9-2.7,5.6c-0.3,0.4-0.7,0.8-1.1,1.2c-0.5,0.4-1,0.8-1.7,0.5
		c-0.2-0.1-0.5,0-0.6,0.1c-0.7,0.5-1.5,0.3-2.3,0.1c-1.6-0.5-2.7-1.7-3.8-2.9c-0.7-0.8-1.3-1.7-2.1-2.7c-0.1,1.4,0.2,2.7,0.7,3.9
		c0.5,1.2,1.1,2.5,1.8,3.6c0.7,1.1,1.5,2.1,2.4,3.2c-2-1.5-3.5-3.4-4.6-5.6c-1.4-2.7-1.9-5.6-1.8-8.7c0-0.5-0.1-0.7-0.6-0.9
		c-2-0.7-3.3-2.7-3.3-5.2c0-0.5,0-0.9,0.2-1.4c0.2-0.6,0.5-0.8,1.1-0.4c0.6,0.4,1.2,1,1.7,1.5c0.2,0.2,0.3,0.3,0.6,0.4
		c-0.1-0.9-0.2-1.7-0.2-2.6c0.1-1.2,0.2-2.5,0.5-3.7c0.4-1.5,1.4-2.1,3-2c1.5,0.2,3,0.5,4.5,0.8c0.6,0.1,1.3,0.4,1.9,0.5
		c1.5,0.3,2.7-0.3,3.4-1.4c0.8-1.3,0.7-3-0.2-4.1c-0.9-1.2-2.3-1.7-3.6-2.2c-3.7-1.2-7.1-0.4-9.3,2.3c-1.6,1.9-2.3,4.1-2.4,6.6
		c0,0.2,0,0.5,0,0.7c-0.1,0-0.2,0-0.2,0c0-1.2-0.2-2.5-0.1-3.7c0.3-4.6,3.3-7.2,7.5-8.1c2.1-0.4,4.1-0.7,6.2-1
		c-0.5,0.4-1,0.9-1.6,1.5c2-0.1,3.6-0.9,5.1-2.1c-0.3,1.3-1.2,2-2.2,2.8c2.5-0.1,3.5,1.4,4.3,3.3c-0.6-0.1-1.1-0.1-1.6-0.2
		c0,0.1-0.1,0.1-0.1,0.2c1.2,1.1,1.9,2.4,2.2,4c0.2,1.5,0,3-0.5,4.6c-0.2-1.6,0.2-3.3-1.4-4.4c0.1,0.6,0.2,1.1,0.3,1.7
		c0.1,0.8,0.1,1.5,0.1,2.3c-0.1,0.8-0.4,1-1.1,0.8c-0.6-0.1-1.2,0-1.5,0.6c-0.5,0.8-1,1.8-1.1,2.7c-0.1,1.4,0.1,2.9,0.3,4.3
		c0,0.4,0.1,0.8,0.8,0.6c0.2-0.1,0.8,0.3,1,0.6c0.3,0.5,0.3,1.1,0.5,1.6c0.1,0.3,0.3,0.5,0.4,0.7c0.2-0.2,0.5-0.3,0.7-0.5
		c1.1-1.8,1.5-3.8,1.4-5.9c0-0.8-0.2-1.5-0.2-2.3c0-0.6,0.1-1.3,0.3-1.9c0.2-0.6,0.6-0.6,1-0.1c0.7,0.9,1,1.9,0.8,3
		c-0.3,1.1-0.6,2.3-1.2,3.3c-0.7,1.4-0.5,2.3,0.8,3.2c0.5,0.3,1,0.8,1.1,1.3c0.2,1.1,0.4,2.3,0.3,3.4c-0.2,2.7-1,5.2-2.4,7.6
		c-0.1,0.2-0.2,0.4-0.2,0.8c0.2-0.1,0.4-0.2,0.6-0.4c1.6-1.6,2.6-3.5,3.2-5.6c0.6-1.8,1-3.7,1.5-5.6c0.7,0.3,1.4,0.6,2.2,0.9
		c1,0.4,2,0.6,3,0.5c0.7-0.1,1.5,0.2,2.2,0.4c-0.2,1.6-0.2,1.6,1.3,1.9c1.4,0.3,2.8,0.7,4.1,1.4c2.7,1.4,3.9,3.8,3.5,7.1
		c-0.2,1.5-0.6,2.9-0.9,4.3c0,0.2-0.1,0.4-0.1,0.6c1-1.2,1.6-2.6,2.1-4.2c0.7,2.2,1,4.4,0.6,6.6c-0.5,2.2-0.1,4,1.4,5.7
		c1.1,1.2,1.2,2.8,1.3,4.4c0.3,4.2-0.2,8.3-0.8,12.5c-0.4,2.9-1,5.7-1.5,8.6c-0.3,1.9,0.9,4.3,2.7,5c1,0.4,1.6,1.2,1.8,2.2
		c0.3,1.5,0.5,3,0.6,4.4c0.1,0.5-0.1,1-0.7,1.3c-0.3,0.1-0.4,0.5-0.6,0.8c-0.6,0.8-1.2,1.3-2.2,1.4c-0.6,0.1-1.1,0.3-1.7,0.5
		c-0.4-0.3-0.4-0.7-0.1-1c0.9-0.9,1.8-1.8,2.7-2.7c0.1-0.1,0.4-0.2,0.6-0.3c-0.9-0.9-0.7-2.5-2-3.2c-0.2-0.1-0.3-0.3-0.5-0.4
		c-0.3-0.1-0.6-0.2-1-0.3c0,0.3-0.1,0.7,0,1c0.1,0.3,0.3,0.6,0.4,0.8c0.4,0.7,0.9,1.3,1.3,2c0.4,0.8-0.5,2.2-1.3,2.3
		c-0.2,0-0.6-0.3-0.7-0.5c-0.6-1.7-1.7-3.1-3.1-4.2c-1.6-1.2-2-3.1-1.3-4.9c1-2.7,0.7-5.4,0-8c-0.8-3.6-1.9-7.2-2.7-10.8
		c-0.4-2-0.5-4.2-0.7-6.3c0,0,0,0,0-0.1c0.1-0.6,0-1.4,0.7-1.7c0.8-0.3,1.4,0.3,1.9,0.8c1.1,1.1,1.5,2.6,1.5,4.1
		c0,1.3-0.3,2.6-0.3,3.9c0,1.9,0.4,3.7,1.1,5.5c0-0.2,0-0.3,0-0.5c0.1-1.7,0.1-3.4,0.3-5c0.1-0.8,0.3-1.7,0.7-2.4
		c1-1.9,1.3-3.9,1.2-6c-0.1-1.5-0.5-3.1-0.8-4.6c-0.1,0.4-0.1,0.9-0.2,1.3c-0.2,1.2-0.8,2.2-2.1,2.5c-1.1,0.3-2.2,0.2-3-0.8
		c-0.6-0.7-0.9-1.7-0.9-2.6c0-1,0-1.9,0.1-2.8c-0.7-0.1-1.4-0.2-2.1-0.4c-0.2-0.1-0.6-0.4-0.6-0.7c-0.3-2.6-0.5-5.2-0.6-7.8
		c-0.1-1.5,0-3.1,0-4.6c0-0.2,0-0.3-0.1-0.5c0,0.1-0.1,0.2-0.1,0.3c-0.4,4-0.7,8-0.3,12c0.1,1.1,0.4,2.3,0.8,3.3
		c0.3,0.7,0.8,1.4,1.4,1.9c0.5,0.5,0.6,1.1,0.6,1.7c-0.2,1.6-0.9,3.1-1.8,4.4c-1.3,1.9-2.8,3.7-4.2,5.6c-0.1,0.2-0.3,0.4-0.5,0.6
		c0.5,0,1-0.1,1.4,0c1.1,0.1,1.5,0.6,1.4,1.7c-0.3,2.3-1.5,4.2-3.1,5.8c-2.5,2.6-5.7,4.2-9,5.4c-3.7,1.4-7.5,2.2-11.4,2.8
		c-0.2,0-0.4,0.1-0.8,0.2c0.2,0.1,0.3,0.2,0.4,0.2c5.7,0,11.3-0.6,16.6-2.9c2-0.9,3.9-2,5.5-3.6c0.5-0.6,1-0.5,1.2,0.4
		c0.5,2.2,0.3,4.3-0.9,6.2c-1.3,2.2-3.3,3.4-5.7,4.1c-3.6,1.1-7.3,1.1-11.1,0.7c-1.1-0.1-2.2-0.3-3.3-0.4c-0.1,0-0.2,0-0.3,0.1
		c6.4,2.1,12.8,2,19-1c0.5,1.4,0.2,2.2-1.1,2.9c-1.4,0.7-2.8,1-4.3,1.1c-0.2,0-0.4,0.1-0.7,0.2c0.3,0.1,0.7,0.2,1,0.2
		c1.1,0.1,2.2,0.2,3.3,0.2c0.7,0,1.1,0.2,1.2,0.9c0.1,0.5,0.1,1.1,0,1.7c-0.4,2.4-1.3,4.6-2.6,6.7c-1.1,1.8-2.9,2.7-4.8,3.2
		c-3.7,1.1-7.5,1.2-11.3,0.7c-4-0.5-7.8-1.9-11.7-2.9c-2.3-0.6-4.7-1-7.1-1.4c-0.1,0-0.2,0-0.3,0c0,0.1,0,0.1-0.1,0.2
		c0.2,0.1,0.4,0.2,0.6,0.2c4,0.9,7.9,2,11.6,3.6c2.9,1.2,5.7,2.7,8.1,4.8c1.5,1.3,2.6,2.8,3.1,4.8c0.5,2.2,0.2,4.3-1,6.1
		c-2.7,4-6.2,7-10.7,8.8c-0.3,0.1-0.5,0.2-0.9,0.3c0.1-0.2,0.1-0.3,0.1-0.5c1.9-4.3,2-8.7,0.5-13.1c-1.6-4.7-4.5-8.3-8.1-11.6
		c-0.6-0.5-1.2-1-1.9-1.5c-0.4-0.3-0.8-0.5-1.2-0.6c-1.5-0.5-2.7-0.1-3.4,1.4c-0.7,1.4-0.9,2.9-0.9,4.4c0,2.1,0.1,4.3,0.3,6.4
		c0.1,0.8,0.4,1.7,0.8,2.5c0.8,1.5,2.1,2,3.5,1.1c1.1-0.7,2-1.6,3-2.5c0.4-0.3,0.6-0.7,0.9-1.1c0.7-0.9,1.5-1.1,2.6-0.6
		c1.4,0.6,2.2,1.7,3,2.9c1.4,2.2,1.5,4.7,1,7.2c-0.4,1.9-0.8,3.7-1.5,5.5c-0.9,2.2-2.4,3.9-4.8,4.5c-1,0.2-2,0.1-3-0.2
		c-0.2-0.1-0.4-0.1-0.9-0.3c2.1,3,2.5,6,0.6,9.1c0.1,0,0.1,0,0.2,0.1c0.1-0.2,0.3-0.3,0.4-0.5c1-1.2,1.5-2.6,1.9-4
		c0.4-1.5,1.1-2.9,2.3-3.9c0.6-0.5,0.9-0.5,1.5,0c0.7,0.7,1.2,1.5,0.8,2.6c-0.6,1.6-1.2,3.2-2,4.7c-0.3,0.7-1,1.3-1.5,1.9
		c-0.3,0.4-0.7,0.9-0.9,1.4c-0.3,0.8-0.4,1.7-0.5,2.6c-0.1,0.6,0.1,1.2,0.5,1.7c0.5,0.6,0.6,1.4,0.6,2.1c-0.1,1.8-0.7,3.5-1.5,5
		c-0.6,1.1-1.2,2.2-1.8,3.3c-0.9,1.6-2.4,2.2-4,2.5c-1,0.1-1.8-0.4-2.2-1.3c-0.9-1.8-1.2-3.7-1.4-5.6c-0.1-1-0.2-2.1-0.2-3.2
		c0.8,1,1.7,1.9,1.5,3.3c-0.1,1-0.3,2-0.3,3c-0.1,1.1,1,2,2.1,1.7c-1.4-1.5-1.1-3.2-0.2-4.8c0.2-0.4,0.7-0.7,1.1-0.9
		c0.7-0.2,1.3-0.6,1.6-1.3c0.4-0.9,0.8-1.9,1.2-2.8c0.1-0.2,0.1-0.6-0.1-0.8c-0.5-0.8-1.2-1.4-2.2-1.7c-0.2-0.1-0.6,0-0.8,0.1
		c-1.5,1.1-3,2.2-4.4,3.4c-1.9,1.6-3.7,3.4-5.5,5C354,170.7,350.2,174.2,346.5,177.6z"/>
</g>
<g id="XMLID_2_">
	<path id="XMLID_79_" class="st0" d="M591.1,64.3c0.3,0.5,0.6,0.4,1,0.1c3.2-2.9,6.3-5.7,9.5-8.5c2.8-2.5,5.5-4.9,8.3-7.4
		c4.5-4,9.1-8.1,13.6-12.1c3.3-2.9,6.5-5.7,9.9-8.5c2.6-2.2,5.4-4.3,8.1-6.5c0.7-0.5,1.4-0.6,2.2-0.4c1.8,0.5,2.8,1.8,3.4,3.4
		c0.8,2,0.1,3.8-1.4,4.9c-3.5,2.6-6.9,5.2-10.4,7.8c-3.9,2.9-7.8,5.8-11.8,8.7c-4.1,3-8.1,5.9-12.2,8.9c-2.9,2.1-5.8,4.3-8.7,6.4
		c-2.9,2.1-5.8,4.2-8.6,6.3c-0.2,0.1-0.4,0.4-0.4,0.6c0.3,0.9-0.5,1.6-0.6,2.4c0,0.1-0.2,0.3-0.3,0.4 M589.1,66.3
		c0.1-0.4,0.2-0.6,0.3-0.8c0,0.9,0.2,1.6,1,2.1c0.8,0.5,1.5,1.2,2.8,1c-0.2-0.4-0.3-0.7-0.6-0.8c-0.7-0.5-1-1.3-1.4-2.1
		c-0.4-0.8-1.2-1.6-1.9-2 M584.2,66.9c0.1-0.1,0.1-0.2,0.2-0.3 M619,41.8c0-0.1-0.1-0.1-0.1-0.2c-0.3,0.1-0.6,0.2-0.8,0.4
		c-1.8,1.6-3.6,3.1-5.4,4.7c-2.6,2.3-5.3,4.7-8,7.1c0.1,0.1,0.2,0.1,0.4,0.2c-0.7,1.1-1.8,2-2.2,3.3c0.1,0.1,0.1,0.1,0.2,0.2
		c0.7-0.5,1.5-1,2.1-1.5c5.2-4.4,10.2-9,15.1-13.8c0.5-0.5,1.1-1.1,1.5-1.8c-3.1,2.4-6,5-9,7.5c0,0-0.1-0.1-0.1-0.1
		C614.8,45.9,616.9,43.9,619,41.8z M639.9,30.3c-4.4,3-8.6,6.3-12.7,9.7c-2.2,1.9-4.4,3.7-6.6,5.6c-0.2,0.2-0.4,0.4-0.6,0.7
		c0.1,0,0.1,0.1,0.2,0.1c7.2-5.6,14.3-11.2,21.5-16.8c-0.1-0.1-0.1-0.2-0.2-0.2C641,29.7,640.5,30,639.9,30.3z M639.2,25.7
		c0-0.1-0.1-0.1-0.1-0.2c-0.2,0.1-0.4,0.1-0.8,0.3c0.9-0.8,1.6-1.5,2.5-2.3c-0.7-0.1-1.2,0-1.6,0.4c-2,2-4,4-6.1,6c-1,1-2,2-3,3.1
		c-0.1,0.1-0.2,0.2-0.3,0.4c0.1,0.1,0.1,0.1,0.2,0.2C633,31,636.1,28.3,639.2,25.7z M644.1,24.5c0,0-0.1,0.1-0.1,0.1
		c0.5,0.5,0.9,1,1.4,1.5c0.1,0.1,0.5-0.1,0.5-0.2c0.4-1.2-0.5-3.1-1.6-3.6c-0.2-0.1-0.4-0.1-0.7-0.1c0,1,0.7,1.5,1.1,2.3
		C644.4,24.5,644.3,24.5,644.1,24.5z M590.1,69.3c0.1,0,0.2,0.2,0.3,0.4c0.6,0.9,1.5,0.9,2,0c-0.6-0.3-1.3-0.6-1.9-1
		c-0.6-0.4-1.1-0.9-1.8-1.5C588.7,68.4,589.1,68.9,590.1,69.3z"/>
	<path id="XMLID_34_" class="st0" d="M597.7,65.8c-0.3,0-0.6,0-0.7,0c-1.2,1.6-2.3,3.2-3.6,4.5c-0.6,0.6-1.8,0.8-2.7,1
		c-1.5,0.3-3,0.6-4.5,0.5c-6.2-0.6-11.4,2.9-17.2,4.2c-4.7,1.1-9.3,1.4-13.9-0.3c-1.9-0.7-3.9-1.5-6.1-0.1c-2.8,1.8-3.4,2.4-2.8,5.7
		c0.2,1.2,0.3,2.3,0.3,3.5c0,1.6,1.2,3.2,1.9,4.8c0.6,1.3,1.4,2.7,2.2,3.9c0.9,1.5,1.7,3.1,3,4.2c6.2,5.6,11.6,11.9,16.1,19.1
		c-1.6,0.5-3.2,0.7-4.5,1.5c-1.6,0.9-3.1,2.1-4.3,3.5c-0.6,0.6-0.8,1.9-0.6,2.8c0.3,1.4,0.1,2.4-1.1,3.5c1.9-0.2,3.9-0.5,6.1-0.8
		c-1.1,1.4-2.1,2.6-3.1,3.8c0,0.1,0.1,0.2,0.1,0.3c1.1-0.7,2.3-1.4,3.9-2.4c-1.3,2.5-2.3,4.5-3.4,6.6c0.7,0.2,1.2,0.3,1.6,0.4
		c1-2.1,1.8-4.4,3.1-6.4c1.3-2,3.3-3.6,4.9-5.4c0.2,0.1,0.4,0.2,0.5,0.4c-0.6,1.1-1.2,2.2-1.9,3.3c-1,1.7-2.3,3.3-3.2,5.1
		c-0.9,1.8-1,3.8,0.5,5.6c-1.9,1.6-2.9,3.4-1.5,5.4c0.4-0.7,0.8-1.6,1.4-2.3c0.2-0.2,1.4,0.1,1.6,0.4c0.3,0.8,0.3,1.7,0.5,3
		c1,1.2,2.4,2.9,4.1,4.9c-1,0-1.4-0.1-2.1-0.1c1.8,3.9,5.1,5.6,8.9,7.1c-1.6,0.7-3.1,1.2-4.3,2.1c-1.3,1-2,2.4-1.2,3.7
		c2.2,0.2,4,0.4,6.1,0.6c-0.9,1-1.6,1.8-2.4,2.6c3.4-1.5,6.9-1.8,10.6-0.7c-2,1.5-3.9,3-5.9,4.5c0,0.2,0.1,0.4,0.1,0.5
		c0.6,0.1,1.3,0.5,1.8,0.4c2-0.7,4-1.4,5.9-2.5c0.9-0.5,1.4-0.6,2.1,0.1c0.8,0.7,1.5,1.5,2.2,2.3c0.9,1.1,1.7,2.4,2.5,3.5
		c-0.9,0.6-2.5,1.6-4.1,2.6c0.1,0.2,0.2,0.4,0.3,0.6c1.2-0.4,2.5-0.8,4.2-1.4c-0.9,1.1-1.5,1.9-2.6,3.2c2.2-0.3,4-0.2,5.5-0.7
		c1.3-0.5,2.4-0.8,3.7-0.5c1.2,0.3,2.5,0.3,3.8,0.3c1.3,0,1.9,0.8,1.5,2c-0.4,1.1-1,2.5-1.9,3c-1.8,0.9-3.8,1.5-5.7,1.6
		c-5.7,0.2-11.5,0.1-17-1.7c-1.1-0.3-2.4-0.1-3.5,0c-1.3,0.1-2.5,0.1-3.2-1.6c3.4-2,6.8,0.6,10.2-0.2c-2.4-0.7-4.9-1.5-7.4-2.3
		c0.6-0.3,1.2-0.6,2-1c-1.5-1.2-3.4-2-4.1-3.3c-0.7-1.3-0.1-3.2-0.1-4.9c-1.7,0.1-2.2-1.2-3-2.6c-3.7-6.4-5.9-13.6-10.8-19.4
		c-1.3-1.6-1.6-4.1-2.3-6.3c-0.2-0.6-0.3-1.4-0.7-1.9c-1.5-2-3-4-4.5-6c-0.7-0.9-1.5-1.8-2.5-2.3c-1.6-0.8-2.1-1.9-2.2-3.7
		c-0.2-3.9-0.5-7.8-1.2-11.6c-0.2-1.3-1.5-2.4-2.5-3.9c2.7-4.7-2.2-7.1-4-10.8c-1.1,0.6-2,1.2-2.9,1.7c-1.4-1.2-3.3-0.9-7.1,1.1
		c-0.1,2,0.8,2.9,2.8,3.1c1.7,0.2,3.4,0.9,4.9,1.8c-2.1-0.4-4.2-0.8-6.5-1.2c1,5.1,2.1,9.7,2.9,14.3c1.2,7.4,3.4,14.8,3,22.4
		c0,0.3,0.2,0.8,0.4,0.9c1.7,1.2,3.4,2.3,5.5,3.3c-0.4-1.2-0.6-2.7-1.4-3.7c-0.7-0.8-2-1.1-3.1-1.7c1-0.7,2.1-1.5,3.6-2.7
		c-1.4-0.2-2.4-0.4-3.4-0.5c0-0.1,0-0.2,0-0.3c1.8-0.4,3.5-0.8,5.3-1.1c1.1-0.2,1.6-0.6,1.8-1.8c0.3-2,0.7-3.9,1.4-5.9
		c-0.1,2.3-0.1,4.6-0.4,6.9c-0.4,3.6-0.8,7.1-1.4,10.7c-0.6,3.8-3.2,5.8-6.8,6.7c-7,1.9-14,3.7-21,5.6c-3.8,1.1-7.5,2.5-11.3,3.5
		c-2,0.6-4.2,1-6.3,1.2c-0.8,0.1-1.7-0.6-2.5-1c-0.7,1.6-1.2,3.6-3.6,3.6c-1.3,2.8-2.5,5.6-4.1,9.1c-1.2,0.8-3,0.8-4.7-1.2
		c-1.1-1.3-2.6-2.4-3.8-3.5c-0.1,1.9,2.8,4.9,6.9,6.9c1-1,2.8-0.7,6,1.5c-0.5,0.2-0.8,0.4-1.2,0.4c-3,0.1-6.1,0.4-8.7-1.5
		c-2.7-2-4.1-5-4.4-8.2c-0.3-2.7-0.9-5.3-2.3-7.7c-1.5-2.6-0.7-5.1,0.5-7.7c0.6,0.5,1.1,0.8,1.8,1.4c-0.4-1.7,0.3-2.4,1.7-2.5
		c2.2-0.3,4.3-0.7,6.6-1c-0.7,1.9-1.3,3.6-2,5.6c1,0,1.6,0,2.5,0c-1.8-3.3,1.7-5.2,2.1-7.8c0.6,0.4,1.4,0.8,2.4,1.5
		c-0.7,0.7-1.3,1.6-2.1,2.3c-1.6,1.3-1.6,2.6,0.2,3.9c-0.1-0.7-0.2-1.3-0.3-1.9c2.4-0.9,2.3,1.7,3.9,2.7c-0.5-1.2-0.8-2.1-1.1-3
		c14.4-1.7,27.5-7.4,41.3-10.8c0-0.2,0-0.4-0.1-0.6c-0.5-0.4-0.9-0.7-1.6-1.2c0.8,0,1.4-0.1,2-0.1c0.7-3.2-0.1-6.2-0.7-9.3
		c-1.3-7.1-2.7-14.2-4.2-21.3c-0.4-1.8-1.1-3.6-1.7-5.8c-1.8,1.1-3.4,2-5,3c0.2,0.1,0.4,0.2,0.5,0.3c-0.1,0.6-0.3,1.2-0.4,1.9
		c1.5-0.3,3-0.6,4.6-1c0,0.1,0.1,0.2,0.1,0.3c-1.6,1-3.3,2-5.4,3.2c1.7,0,2.8,0,3.9,0c0,0.1,0.1,0.2,0.1,0.3c-1,0.4-2.1,0.8-3.1,1.3
		c0,0.1,0,0.2,0,0.3c1.6,0.1,3.1,0.3,5.3,0.5c-1.8,0.5-3,0.8-4.3,1.1c0,0.1,0,0.2,0,0.4c1.6,0.1,3.2,0.3,4.8,0.4
		c0,0.1,0,0.2,0.1,0.3c-1.3,0.2-2.6,0.5-4.2,0.8c1.5,0.7,2.7,1.2,4.5,2c-2.8-0.1-5.1-0.3-7.6-0.4c0.5-3.2-2.2-4.7-4-6.7
		c-2-2.3-4.1-4.4-5.9-6.8c-0.8-1-1.3-2.3-1.7-3.6c-0.7-2,0.7-3.7,2.8-3.4c0.4,0.1,0.8,0.6,0.9,1.1c0.1,0.5-0.1,1.1-0.2,1.6
		c1.8-0.2,3.6-0.4,5.3-0.6c0.1,0.3,0.3,0.5,0.4,0.8c-1.1,1.3-2.2,2.6-3.2,4c-0.5,0.7-0.7,1.6-1.1,2.3c0.2,0.1,0.4,0.3,0.7,0.4
		c1.9-1.8,3.8-3.6,5.6-5.4c0.9-0.8,1.7-1.7,2.6-2.5c1.9-1.6,1.9-1.7,0.8-3.5c-2.1,0.3-3.9,0.6-5.8,1c-0.1-0.2-0.2-0.5-0.3-0.7
		c1.7-1.1,3.3-2.3,5.1-3.4c-0.5-3-4.8-6-7.8-5.1c-0.6,0.2-1.1,0.8-1.6,1.3c-2,2.2-4.7,3.9-4.6,7.4c0,0.2-0.2,0.3-0.3,0.5
		c-0.1,0.1-0.2,0.1-0.2,0.2c0-3-0.2-6.1,0.1-9.2c0.2-2.9-0.7-4.7-3.4-5.6c-1.7-0.6-2.6-1.9-3-3.8c-0.9-4-2.3-7.8-3-11.8
		c-0.8-4.9-1.9-9.7-0.5-14.8c1.4-5.1,1.8-10.5,2.8-16.5c0.4,0.7,0.8,1.3,1.1,1.9c0.1,0,0.1,0,0.2-0.1c-0.1-0.4-0.1-1-0.4-1.2
		c-1.4-1-1.2-2.3-0.5-3.5c1.7-2.8,3.5-5.6,5.3-8.4c0.3-0.5,1.1-0.8,1.8-1.3c-2,3-3.9,5.8-5.7,8.5c3,1.6,5.5,3,8,4.3
		c0.1-0.1,0.2-0.2,0.3-0.3c-1.8-2.1-3.5-4.2-5.4-6.5c2.9,0.4,5.4,1,7.2,3.5c1.1,1.5,2.7,2.5,4.4,4.1c-1-2.6-1.7-4.7-2.5-6.7
		c0.2-0.1,0.3-0.2,0.5-0.3c0.9,0.8,1.7,1.6,2.6,2.4c0.2-0.1,0.3-0.2,0.5-0.3c-0.3-0.7-0.4-1.5-0.9-2c-1.9-2.4-2-3.6-0.3-6.1
		c0.1-0.1,0.1-0.2,0.1-0.5c-0.6-0.5-1.3-1-2.2-1.6c1.6,0.2,3.3,1,4.2,0.5c0.9-0.5,1.2-2.3,1.8-3.5c0.3-0.6,0.8-1.1,1.4-1.5
		c-0.4,1.2-0.9,2.4-1.3,3.7c-0.7,2.3-0.5,2.8,2,4.1c-0.4-1.1-0.8-2.1-1.2-3.4c1.4,1,2.6,1.8,3.7,2.5c0.1-0.1,0.3-0.2,0.4-0.4
		c-1-1.1-2-2.1-3-3.3c1.8-0.2,3.3,0.4,3.9,2c0.5,1.3,1.4,1.4,2.5,1.5c1.1,0.1,2.2,0.4,3.4,0.6c0.8-1,1.7-2.3,2.9-3.4
		c0.5-0.5,1.5-0.6,2.3-0.9c0.5-0.2,1.3-0.2,1.5-0.6c0.2-0.4,0.3-1.4,0-1.7c-1.2-1-2.5-2-4-2.7c-1.4-0.7-3-1-4.4-1.7
		c3.7,0.1,7.1,1.1,9.6,3.9c0.7,0.8,0.9,2,1.3,3.1c0.1,0.2,0.1,0.4,0.1,0.6c0.2,4.1,1.5,7.6,5.3,9.7c0.4,0.2,0.7,0.7,1.1,1
		c0.9,0.9,0.7,1.6-0.3,2.3c-2.1,1.5-4.1,2-9,2.3c-0.5,1.1,0.6,3.8-2.9,2.8c0.5,1.1,0.6,1.9,1.1,2.2c1.4,1,2.8,2,4.3,2.5
		c5.8,2,11.7,3.8,17.6,5.7c1.2,0.4,2.4,1.1,3.5,1.8c2.2,1.4,2.1,1.5,3.8-0.8c0.2,0.7,0.3,1.2,0.5,1.7c0.1,0.5,0.3,1.1,0.5,1.9
		c0.6-0.6,1-1.1,1.2-1.3c2.1,1.3,4.3,2.4,6.3,3.9c2.5,2,5.4,0.8,8.1,1.3c0.5,0.1,1.3-0.9,2.1-1.6c0.1,0.1,0.4,0.4,0.7,0.7
		c-0.4,0.6-0.7,1.2-1,1.7c0.7,0.2,1.4-0.7,2.1-0.7 M530.7,53.8c-3.4-1-6.8-1.9-10.1-3c-1.1-0.4-2.2-1.1-3.2-1.8
		c-1.2-0.9-3.4-1.1-4.1,0c-1.2,2.1-2.2,4.3-3.3,6.5c1.2-1.3,2.1-2.8,3-4.2c0.8-1.2,2.9-1.8,3.7-1.1c2.6,2.2,3.1,5.3,3.3,8.5
		c0,0.5-0.4,0.9-0.9,1.8c-0.9-1.1-2.2-2.1-2.1-2.8c0.4-2-0.9-2.8-2.2-4.1c-0.5,1.4-2.8,1.8-1.6,3.7c3.3,4.7,7.3,8.6,12.7,11.2
		c-0.1-0.9-0.2-1.8-0.7-2.4c-1-1.1-2.1-2.2-3.3-3.1c-1.4-1-1.4-2-0.2-3.3c0.4,3.3,3.4,3.3,5.6,4.9c-0.1-2.7-2.7-2.7-3.4-4.5
		c2.4-0.2,4.7-0.3,7.4-0.5c-0.9,1.4-1.8,2.4-2.3,3.5c-0.8,1.8-1.3,3.7-1.8,5.6c-0.1,0.4,0.4,1,0.6,1.5c0.2,0,0.4-0.1,0.6-0.1
		c-1.2-4,1-6.4,3.7-8.6c0.8-0.7,1.7-1.3,2.6-1.9c3.1-1.9,6.2-3.8,9.3-5.8c0.7-0.4,1.2-1.1,1.9-1.6c0-0.3,0-0.5-0.1-0.8
		c-3.6,2.3-5.5,0.5-7.6-2.1c-2.1-2.7-4.6-5.3-8.5-5.9c0,0.4,0.1,0.7,0.1,1.1c-2.1-0.7-4.1-1.3-6.1-2c0,0.1-0.1,0.3-0.1,0.4
		c2.9,1.6,5.8,3.3,8.7,4.9c0,0.1-0.1,0.1-0.1,0.2c-4-1-8-2-12-3c0,0.1-0.1,0.3-0.1,0.4c2.5,1.5,5,2.9,7.4,4.4
		c-0.1,0.1-0.1,0.3-0.2,0.4c-4.5-1.9-9-3.8-13.9-5.9C518.7,49.3,525.4,50.3,530.7,53.8z M585.5,66c-0.2-0.9-0.6-1.6-1.9-1.3
		c-1.3,0.3-2.8,0.3-4.1,0.7c-2.9,0.7-4.6-1.6-6.8-2.7c-1.1-0.5-1.9-1.7-3.1-2c-3.5-1.1-7-2.2-10.5-2.8c-3.6-0.6-7.1-1.4-10.5-2.9
		c-0.8-0.4-2.1-0.5-2.8,0c-2.8,1.7-5.4,3.6-8,5.4c0.1,0.1,0.1,0.2,0.2,0.3c3.3-1.8,6.7-3.5,10.1-5.3c0.8,1.3,1.5,2.5,2,3.4
		c0.8,0.1,1.7-0.1,2,0.2c1.9,1.9,3.6,3.9,5.4,5.9c0.5,0.5,0.8,1.1,1.3,1.6c0.8,1,1.6,1.4,3,0.9c1.6-0.6,3.2-0.9,5.3-1.4
		c-0.2,1.5-0.4,2.6-0.5,3.4c1.4-0.2,2.9-0.8,4.2-0.5c2.8,0.5,5.5,0.4,8.1-0.7c1.6-0.7,3.3-1.3,4.9-1.9C584.2,66,584.8,66.1,585.5,66
		z"/>
</g>
<g id="XMLID_32_">
	<path id="XMLID_25_" class="st0" d="M457.9,111.7c-1,0.8-2,1.5-3,2.4c-1.5-1.8-2.9-3.6-3.4-5.9c-0.3-1.2-0.1-2.3,0.7-3.3
		c1.4-1.8,3.2-3.2,5.2-4.3c0.6-0.3,1-0.2,1.4,0.2c0.8,0.9,1.6,1.9,2.4,2.8c6.9-8,13.8-16.1,20.7-24.2c-0.1-0.1-0.1-0.2-0.2-0.2
		c-0.4,0.3-0.8,0.7-1.4,1.2c-0.1-0.9-0.3-1.6-0.4-2.4c0-1.3-0.1-2.7,0.1-4c0.3-2,1.9-3,3.5-3.9c1.3-0.7,2.6-0.9,4-0.3
		c0.8,0.3,1.6,0.5,2.5,0.7c0-0.1,0.1-0.2,0.1-0.2c-0.4-0.2-0.8-0.3-1.1-0.5c-1-0.5-2-1-2.9-1.6c-1.1-0.6-2.1-1.1-3.4-0.8
		c-0.2,0-0.4,0-0.7,0.1c0.5-2,1.4-3.6,2.8-5c0.9-0.9,1.9-1.7,2.8-2.5c0.2-0.2,0.4-0.6,0.4-0.8c0-1.6-0.1-3.2,0-4.7
		c0.2-2.4,1.7-3.9,3.7-5.1c0.2-0.1,0.4-0.1,0.6-0.3c0.5-0.3,0.7-0.8,0.5-1.4c-0.3-0.6-0.9-0.6-1.4-0.3c-1.4,0.8-2.1,2.2-2.9,3.5
		c-0.1,0.1-0.1,0.2-0.2,0.3c-0.1,0-0.1-0.1-0.2-0.1c0.7-1.5,1.5-3,2.2-4.5c-0.8-0.3-1.3,0.1-1.5,0.6c-0.4,0.7-0.7,1.5-1,2.3
		c-0.2,0.5-0.4,1.1-0.6,1.6c-1.1,2.5-1.9,2.7-4.8,2.5c-2.4-0.2-4.4-1.2-6-3.1c-1.3-1.6-3.1-2.4-4.7-2.4c0.8,0.7,1.6,1.3,2.3,2
		c0.7,0.8,1.4,1.7,2,2.6c0.7,1.1,0.2,2.2,0,3.3c-0.2,1.2,0,1.6,1.1,2.3c1.2,0.8,1.7,2.2,1.8,3.6c0.2,2-0.5,3.6-1.7,5.2
		c-1,1.2-1.9,2.6-1.5,4.3c0.1,0.6,0.5,1.3,0.9,1.7c0.9,1,1,2.1,0.5,3.3c-0.7,1.8-2.1,3.1-3.6,4.4c-1.6,1.4-3.3,2.8-4.8,4.3
		c-0.6,0.6-1,1.3-0.9,2.3c0.6-0.8,1-1.6,1.6-2.3c1.6-2.1,3.8-3.3,6.3-3.9c1.2-0.3,2.1,0.7,1.6,1.9c-0.4,1-1,1.9-1.7,2.7
		c-4.6,5.1-9.2,10.2-13.8,15.3c-0.1,0.1-0.3,0.3-0.5,0.4c-0.8-0.6-1.7-1.1-2.6-1.7c1.1-0.8,2.5-1.3,3.1-2.7
		c-0.4,0.2-0.7,0.5-1.1,0.7c-1.4,0.7-2.8,1.4-4.3,1.9c-1.9,0.7-3.8,1.7-5.1,3.3c-0.4,0.5-0.7,1.2-1.1,1.8c-1.5-1-2.7-2.2-3-4.1
		c-0.3-1.7,1.2-4.5,4-4.7c1.5-0.1,3,0.3,4.5,0.5c1.1,0.2,2.2,0.3,3.4-0.1c-0.3-0.2-0.4-0.3-0.6-0.4c-2.5-1.3-4.5-3-6.3-5
		c-2.2-2.5-4.8-4.5-8.2-5.1c-0.9-0.2-1.8-0.1-2.7,0c0.5,0.2,1.1,0.3,1.6,0.5c2,0.6,4.1,1.3,5.7,2.7c1.3,1.1,1.8,2.7,1.9,4.4
		c0,0.4-0.5,1-0.9,1.4c-1.4,1.2-2.9,2.4-3.4,4.4c-0.2,0.9-0.2,1.8-0.3,2.8c-1.5-0.5-3.1-1.1-4.7-1.7c-2.9-1.1-5.7-2.4-8.2-4.4
		c-1.2-0.9-2.2-2-2.8-3.4c-0.7-1.8-0.3-3.4,1.3-4.6c2.2-1.7,4.7-1.6,7.2-0.8c0.2,0.1,0.4,0.1,0.7,0.2c0,0,0,0,0.2-0.1
		c-0.2-0.2-0.3-0.3-0.5-0.4c-2.9-1.7-6-1.9-9.1-1.1c-0.4,0.1-0.7,0.2-1.1,0.2c-2,0.1-3-0.8-2.9-2.8c0.1-1.9,0.9-3.6,2.3-4.9
		c1.1-1,2.5-1,3.8-0.8c4.4,0.7,8.5,2,12.1,4.6c0.9,0.6,1.7,0.6,2.2,0c0.6-0.7,0.5-1.8-0.2-2.5c-0.4-0.4-0.9-0.6-1.4-0.9
		c0.6-0.2,1.4-0.3,2.1-0.6c0.7-0.3,1.2-0.7,1.2-1.6c0-0.8-0.5-1.4-1.3-1.6c-1.1-0.3-2.4-0.6-3.5-0.6c-2.8,0.1-5.6,0.4-8.4,0.8
		c-2.6,0.4-5.1,1-7.6,1.6c-0.7,0.2-1.2-0.2-1.4-0.8c-0.3-0.8-0.6-1.6-0.6-2.4c-0.1-4.7,1.2-9.1,2.5-13.5c0.1-0.2,0.4-0.4,0.7-0.4
		c4.3-0.1,8.5,0.1,12.4,2c0,0,0.1,0,0.4-0.1c-3.9-2.7-8.3-3-12.7-3.5c-0.5-1.9-0.1-3.8,0.8-5.5c0.8-1.5,1.8-2.8,2.8-4.1
		c0.1-0.2,0.6-0.3,0.8-0.2c3.4,1.9,6.6,3.9,9.1,6.9c0.2,0.3,0.5,0.6,0.7,0.8c-1.2-4.2-3.7-7.6-7.4-10.5c1.4-1.2,2.7-2.5,4.1-3.6
		c1.1-0.8,2.3-0.7,3.4,0.1c1.9,1.3,3.2,3.1,4,5.1c1.9,4.9,5.8,7.2,10.5,8.5c0.4,0.1,0.8,0.1,1.2,0.2c-0.5,0.3-1,0.6-1.5,0.9
		c0.9,1.7,4.6,4,6.2,3.4c0.5-2.2,0.8-4.4-0.1-6.7c-1,0.3-1.9,0.6-2.7,1c-1.3,0.6-2.5,0.5-3.9,0c-4.6-1.5-7.9-4.7-10.1-9.8
		c0.6,0.9,1.2,1.9,1.9,2.7c0.7,0.9,1.6,1.8,2.4,2.7c0.1,0.1,0.2,0.3,0.3,0.3c1.1,0,2.3,0.3,3.1-0.1c2.4-1.1,4-3,4.5-5.7
		c0.1-0.6,0.1-1.3-0.1-1.8c-0.2-0.5-0.7-0.9-1.2-1.4c0.6-0.5,1.3-1.1,2.1-1.7c0.8,3.3-0.7,7.4-3.8,10.6c0.9,1,1.9,1,2.7-0.1
		c1.3-1.9,2-4,2.4-6.3c0.2-1.4,0.2-2.9,0.3-4.4c0-0.5,0.1-0.9,0.6-1.3c1.3-1,1.2-3.7-0.1-4.7c-0.7-0.5-1.5-0.5-2.4,0
		c1.1,3.5-0.7,6.5-5.2,8.1c-1,0.4-2.1,0.5-2.9,0.7c1.6-0.7,3.4-1.5,5.1-2.5c1.5-0.9,2.5-2.2,2.4-4.1c-0.1-1.4-0.8-2.4-2.1-2.9
		c-2-0.7-4-0.4-5.8,0.3c-2.3,0.8-4.6,1.1-7,0.6c-1.2-0.3-1.9,0.4-1.9,1.6c0.1,1.1,0.4,2.2,0.6,3.1c-1.2-1.3-1.7-4.7-0.6-6.8
		c3.8,1.7,7.4,0.6,10.9-0.7c1.7-0.7,3.4-1.6,5-2.4c0.2-0.1,0.3-0.2,0.7-0.5c-0.4,0.1-0.5,0.1-0.7,0.1c-3.5,1.3-7.1,2.4-10.8,2.8
		c-1.2,0.1-2.4,0-3.6-0.2c-1.7-0.4-2.4-1.8-2-3.4c0.4-1.6,1.4-2.9,2.6-4.1c1-1,2.2-1.9,3.3-2.8c-1.2,1.6-2.2,3.4-2.5,5.4
		c1.4-3.1,3.4-5.7,6.6-7.1c3.2-1.4,8.1-0.8,9.4,1.2c-4.2,0.3-7.5,2.4-10.3,5.3c0,0.1,0.1,0.2,0.1,0.3c0.3-0.2,0.6-0.4,1-0.6
		c2.5-1.7,5.1-3,8.2-3.4c0.3,0,0.6-0.1,1-0.1c1.1,0,1.4-0.3,1.6-1.5c1.2,1.3,1.9,2.7,2.3,4.4c0.4,1.8-0.2,3.2-1.5,4.4
		c0.1,0.1,0.2,0.1,0.2,0.2c0.6-0.5,1.2-1,1.9-1.4c0.4,1.1,0.1,2.3-1.6,5.8c0.2-0.1,0.4-0.1,0.6-0.2c1.6-0.6,2.5-0.3,3,1.3
		c0.7,2.4,1.3,4.8,1.9,7.2c0.3,1,0.3,2.1,0.7,3.2c0.3-1,0.7-1.9,0.9-2.9c0.6-2.8,0.4-5.5-0.5-8.2c-0.5-1.4-1.4-2-2.9-2
		c1.8-1,3.6-1.4,5.5-1c1.8,0.4,3.5,1,5.2,1.5c0.2,0.1,0.6,0.2,0.7,0.1c0.9-0.6,1.6-0.3,2.3,0.1c-0.1,1.3-0.2,2.5-0.3,3.7
		c0,0.6,0.3,1.1,0.9,1c0.7,0,0.8-0.6,0.7-1.2c0-0.5-0.2-1-0.3-1.5c0.1,0,0.1,0,0.2-0.1c0.4,1.4,0.8,2.8,1.1,4.2
		c0.2,0.9,0,1.9,0.1,2.8c0.1,0.4,0.4,0.8,0.8,1.1c0.1,0.1,0.7-0.3,0.9-0.5c0.6-0.8,0.6-1.9,0.2-2.8c-0.9-2.1-2-4.1-3-6.2
		c-0.1-0.1-0.2-0.3-0.3-0.6c3.9,0.2,7.8,0,11.5,1.7c-1.5,1.4-2.3,2.9-2.7,4.8c-0.3,1.4-0.1,2.8,0.3,4.2c0.1,0.2,0.4,0.4,0.6,0.4
		c1.3,0,2.4,0.5,3.3,1.4c0.6,0.6,1.3,1.1,2,1.6c-0.8-1.6-1.9-2.9-3.6-3.7c-2-0.9-2.3-2.4-1.6-4.2c0.4-0.9,0.9-1.8,1.4-2.7
		c0.7-1.1,1.9-1.5,3.1-1.2c1.9,0.5,3.6,1.2,5.1,2.4c0.8,0.6,1.1,1.1,1.2,2c0.7,0.1,1.5-0.1,1.9,0.2c0.6,0.5,1,1.3,1.2,2
		c0.7,2.4,0.1,4.8-0.4,7.1c-0.2,0.9-0.5,1.9-0.8,2.8c1.4-1.6,2.4-3.5,3-5.6c0.5,1.1,0.2,3.8-0.2,5c-0.8,2.4-2.4,4.1-4.7,5.2
		c-0.5,0.3-1.1,0.5-1.6,0.8c-0.2,0.2-0.5,0.5-0.5,0.7c0,0.2,0.4,0.5,0.7,0.5c0.9,0,1.9-0.1,2.8-0.1c0.2,0,0.4-0.2,0.6-0.2
		c1.6-0.8,2.1-0.5,2.3,1.3c0.1,0.8,0.1,1.6,0,2.4c-0.1,1.1-0.5,1.3-1.6,0.9c-1.4-0.5-2.8-1.2-4.2-1.6c-3.4-0.8-6.7-0.5-10,0.5
		c-0.6,0.2-1.1,0.6-1.6,1c0,0.1,0.1,0.2,0.1,0.3c0.3-0.1,0.5-0.2,0.8-0.3c4-1.5,8-1.4,11.9,0.3c0.3,0.1,0.6,0.5,0.6,0.8
		c0.1,0.8-0.2,1-1,0.7c-1-0.4-2-0.9-3-1.1c-1.3-0.3-2.6-0.3-4-0.4c-0.3,0-0.7,0.2-1,0.5c3.4-0.6,6.1,1.6,9.3,2.1
		c0.2,0.8-0.1,1.4-1.1,1.4c-1.6,0-3-0.6-4.3-1.4c-2.3-1.3-4.5-1.3-6.8,0c-0.1,0-0.1,0.1-0.3,0.3c0.8-0.1,1.4-0.3,1.9-0.3
		c1.4-0.2,2.7,0.3,4,0.8c1.7,0.8,3.5,1.4,5.3,2c-0.4,1.5-1,3.1-2.3,4.4c-1.9,1.9-3.9,1.9-5.8-0.1c-1.7-1.7-4-2-6-0.7
		c-0.3,0.2-0.6,0.6-0.8,1c0.8-0.3,1.6-0.6,2.5-0.9c1.2-0.4,2.2,0,3,0.8c2,2.3,2.9,5,2,8.1c-0.9,2.8-3.5,4.1-6.3,3.2
		c-0.5-0.2-1.1-0.4-1.7-0.6c0.7-0.9,1.3-1.6,1.8-2.4c0.4-0.7,0.7-1.4,0.8-2.2c0.2-1.3-0.3-1.9-1.8-2.3c0.1,0.2,0.2,0.4,0.3,0.5
		c0.7,1.1,0.8,2.2,0,3.4c-0.7,1.1-1.5,2.2-2.3,3.2c-0.4,0.5-0.3,0.8,0.2,1.1c1.1,0.6,2.2,0.6,3.5,0.3c4.1,6.6,8.1,13.2,9.2,21.3
		c-0.8-0.6-1.4-1.1-2.1-1.6c-2.8-1.7-5.8-1.8-8.9-1.1c-2.8,0.6-5.2,1.9-7.6,3.5c-0.1,0.1-0.3,0.2-0.3,0.5c0.2-0.1,0.5-0.2,0.7-0.3
		c2.7-1.3,5.5-2.4,8.4-2.7c2.9-0.2,5.4,0.1,7.1,3.5c1.1,2.1,2,4.3,2,6.7c0,2.2-0.8,4.1-2.3,5.7c-0.5,0.5-1.1,1-1.5,1.5
		c2.6-1,4.2-3,5.2-5.6c0.9,0.4,1,1,0.7,1.7c-0.5,1.2-1,2.4-1.5,3.5c0.9-0.1,1.2-0.5,2.6-2.9c0.6,0.3,0.4,0.7,0.3,1.2
		c-0.8,2.3-2.5,3.8-4.5,5c-2,1.2-4.2,1.9-6.5,2.3c-0.3,0.1-0.6,0.4-0.8,0.6c0.3,0.2,0.5,0.5,0.8,0.6c2,0.4,3.7-0.3,5.4-1.2
		c2.9-1.5,5.1-3.7,6.4-7c1.1,1.3,2.2,2.5,2.3,4.3c0,0.3,0.2,0.5,0.4,0.7c1,1.3,1.9,2.6,1.7,4.4c-0.1,1.7-1.1,2.9-2.3,3.9
		c-1.1,1-2.4,1.8-3.6,2.6c-0.2,0.1-0.3,0.2-0.5,0.4c3.3-0.9,5.6-3.1,7-6.1c0.5,0.6,0.5,0.6-0.1,2.4c0.6-0.4,1-0.6,1.4-0.9
		c0,2.5-1,4.4-2.9,5.8c-1.7,1.3-3.8,2.2-5.5,3.2c3.2,0.1,6.8-2.3,9.3-6.3c0.7,2.1,1.4,4,2,6c0.2,0.7,0.3,1.5,0.4,2.3
		c0.3,1.8-0.7,2.8-2,3.7c-0.8,0.6-1.5,1.2-2.3,2c0.7-0.2,1.5-0.4,2.2-0.5c1.2-0.2,1.7,0,2.1,0.9c0.9,2.8,2.3,5.3,4.1,7.6
		c1,1.3,1.8,2.8,1.7,4.5c0,0.6-0.2,1.1-0.4,1.7c-0.2-0.2-0.2-0.2-0.2-0.2c1-1.9,0.5-2.9-1.3-3.8c-1.1-0.6-2.3-1-3.5-0.8
		c-0.6,0.1-1.2,0.5-1.7,0.8c-1.1,0.6-2.2,1.2-3.4,0.7c-0.6-0.3-1.2-0.7-1.5-1.3c-0.8-1.8-1.5-3.7-2.1-5.6c-0.2-0.5,0-1.1,0-1.8
		c-1.9-0.2-3.2-1.6-4.3-3.2c-3.3-4.8-6.6-9.7-9.9-14.5c-0.6-0.8-1.3-1.5-1.9-2.3c-0.8-1.1-1.4-2.3-1.5-3.8c-0.1-1,0.5-1.5,1.3-1.8
		c0.7-0.2,1.5-0.3,2.2-0.5c0.6-0.2,1.2-0.5,1.8-0.8c0-0.1-0.1-0.2-0.1-0.3c-0.7,0.2-1.5,0.5-2.2,0.7c-2.3,0.5-4.6,0.5-6.5-1.1
		c-1.3-1.1-2-2.6-2.1-4.4c0-1.2,0.8-2.1,1.6-2.8c0.2-0.2,0.5-0.2,0.6-0.4c-2,0.1-3.9,2.5-3.4,4.5c0.6,2.7,2.2,4.8,5,5.7
		c0,2.5,1.3,4.5,3.1,6.2c4,4,7.3,8.6,9.8,13.7c1.2,2.3,2.9,4.2,4.9,5.8c0.2,0.2,0.5,0.5,0.5,0.8c0.9,3.4,1.8,6.8,3.6,9.8
		c0.4,0.7,0.9,1.3,1.3,1.8c1.2,1.4,2.8,1.6,4.5,1.4c0.5-0.1,0.8,0,1,0.5c0.8,1.3,1.6,2.5,2.4,3.8c0.1,0.2,0.4,0.2,0.7,0.3
		c0-0.2,0.1-0.5,0.1-0.7c-0.5-1.5-1.1-2.9-1.7-4.5c0.4-0.2,0.8-0.5,1.2-0.8c0.1,0.8,0.1,1.6,0.2,2.3c0,0,0.1,0,0.1,0
		c0.1-0.5,0.2-1,0.3-1.6c0.2-1,0.8-1.2,1.6-0.6c0.8,0.6,1.4,1.3,2.3,2.1c-1.2,0.2-2.3-0.2-3.3,0.7c1.8,0.1,3.7-0.6,4.7,1.3
		c0.8,1.5,0.7,3.2-0.6,4.8c0.8,0.9,1.6,1.8,2.4,2.7c0.2,0.2,0.2,0.5,0.3,0.8c-0.3-0.1-0.6-0.1-0.8-0.2c-0.8-0.6-1.6-1.3-2.4-2
		c-0.4-0.4-0.7-0.5-1.2-0.1c-0.5,0.3-1.1,0.5-1.7,0.7c-2.7,0.9-3.8-1.2-4-3c-0.1-0.6,0-1.2-0.1-1.8c-0.4,0.8-0.9,1.6-1.4,2.4
		c-3.1-2.7-6.5-5.4-8.2-9.2c-1.5-3.4-4-5.2-7.2-6.6c-2-0.9-4.1-1.7-5.7-3.4c-2.9-3-5.2-6.3-5.9-10.5c-0.2-1.1-0.1-1.3,1-1.6
		c1.8-0.6,3.5-1.2,4.8-2.7c-0.9,0.4-1.8,0.8-2.8,1.2c-1.8,0.7-3.6,1-5.5,0.5c-2.3-0.6-4.3-3.5-4.1-5.7c0.1-1.4,1-2.3,2.1-3.1
		c0.6-0.5,1.4-0.9,2.1-1.4c-3.1,0.5-7.3,3.2-8,7c-6.5-5.7-12.8-11.5-17.5-18.9c1.2-1.4,2.4-2.8,3.6-4.2c0.1-0.2,0.6-0.1,0.8-0.1
		c1.7,0.3,3.3,0.8,5,1c1.3,0.2,1.9-0.6,1.8-1.9c0-0.3,0.1-0.6,0.2-0.8c1.1-1.4,1.3-3.4,0.5-5.2c0.3,0.1,0.6,0.2,0.7,0.3
		c0.3,0.4,0.6,0.7,1.1,0.3c0.5-0.4,1-0.9,0.7-1.7c-0.4-1.2-1.2-2-2.5-2.3c2-2.5,4.1-4.9,6.1-7.3c0-0.1-0.1-0.1-0.1-0.2
		c-0.1,0.1-0.3,0.1-0.4,0.3c-2.6,3-5.2,6-7.8,9c-0.1,0.2-0.1,0.6,0,0.8c0.3,0.6,0.7,1.1,1,1.7c0.7,1.5,0.4,3.4-0.8,4.6
		c-0.9,1-1.9,1.1-2.9,0.2c-0.8-0.7-1.6-1.4-2.4-2.1c-0.7-0.6-1.5-1-2.4-1c-0.7,0-1.5,0-2.2-0.1c-1.4-0.2-2.3-1-3.3-1.9
		c-0.4-0.4-0.8-0.7-1.4-1.2c0.8,1.8,2.8,4.1,4.7,3.8c0.7-0.1,1.5,0,2.2,0c0.9,0,1.3,0.6,1.6,1.2c0.4,0.7-0.1,1.1-0.4,1.5
		c-4,4.6-8,9.2-12.1,13.9c-3.1,3.6-6.2,7.1-9.3,10.7c-3,3.4-6,6.8-9,10.3c-3.6,4.2-7.3,8.4-10.9,12.6c-3.5,4-7,8.1-10.5,12.1
		c-0.1,0.1-0.3,0.2-0.4,0.4c-0.9,1.6-2.3,2.1-4,2.1c-2.9,0.1-5.9,0.3-8.8-0.4c-1.7-0.4-3.4-1-4.6-2.3c-0.6-0.7-0.7-1.4-0.2-2.2
		c1-1.7,2.8-2.5,4.6-3.3c0.2-0.1,0.6,0.1,0.9,0.2c2.6,0.9,5.2,1.7,7.9,1.8c2,0.1,3.5-0.6,4.9-2.1c3.3-3.7,6.7-7.2,10-10.9
		c4.2-4.7,8.4-9.5,12.6-14.2c3.1-3.5,6.2-7,9.3-10.6c3.3-3.8,6.6-7.6,9.9-11.4c2.1-2.4,4.2-4.9,6.4-7.3c0.2-0.2,0.3-0.4,0.5-0.6
		C458,111.8,457.9,111.8,457.9,111.7z"/>
	<path id="XMLID_24_" class="st0" d="M408.3,181.1c2.1,1.6,7.1,2.1,9.2,0.7c-0.8,0.1-1.6,0.3-2.4,0.3c-1.7-0.1-3.5-0.3-5.2-0.5
		c-0.3,0-0.6-0.2-0.9-0.4c-0.6-0.5-0.6-1.3,0.1-1.6c0.8-0.3,1.6-0.6,2.4-0.6c1.9,0,3.8,0,5.6,0.3c1.8,0.4,2.2,0.9,2.3,2.8
		c0,2.9-1.4,3.6-3.8,3.7c-1.5,0.1-3.1,0.1-4.6-0.3c-2.4-0.5-2.6-1-2.7-3.4C408.4,181.7,408.4,181.4,408.3,181.1z"/>
</g>
<path id="XMLID_35_" class="st2" d="M524.1,73.3c0.6-0.2,1.1-0.4,1.7-0.5c2.3-0.5,4.1,0.5,5.4,2.3c1,1.4,1.8,2.9,2.5,4.5
	c0.6,1.2,1.1,2.4,1.5,3.7c0.3,1.2,0.2,2.4,0.4,3.6c0.1,0.8,0.2,1.5,0.5,2.2c0.7,1.6,1,3.2,0.9,4.9c0,0.9,0.1,1.8,0.2,2.7
	c0,0.2,0.3,0.5,0.5,0.7c0.5,0.4,0.8,0.8,0.7,1.4c-0.1,0.6-0.2,1.2-0.3,1.8c0,0.3,0,0.7,0.1,0.9c0.7,0.9,1,1.9,1.2,3
	c0.2,1,0.9,1.7,1.6,2.4c0.6,0.6,1,1.2,1.2,2c0.2,0.9,0.7,1.8,1.1,2.7c0.7,1.7,1.4,3.3,2.1,5c0.5,1.1,0.9,2.1,1.5,3.1
	c0.2,0.4,0.7,0.6,1.1,0.8c0.5,0.2,0.7,0.6,0.8,1.1c0.2,1.9,0.6,3.7,1.3,5.4c0.1,0.3,0.3,0.6,0.5,0.8c1.2,0.9,1.4,2.1,1,3.4
	c-0.4,1.3-0.4,2.6-0.3,3.9c0.2,2,0.5,4,0.9,6c0.1,0.7,0.3,1.4,0.5,2.2c0,0.1,0.2,0.2,0.3,0.3c0.6,0.3,0.8,0.8,0.7,1.4
	c0,0.2,0,0.4,0,0.7c-0.1,0.6,0.3,1,0.8,1.2c1.5,0.7,2.7,1.8,3.6,3.2c0.5,0.8,0.9,1.6,1.4,2.4c0.8,1.4,1.6,2.9,2.3,4.4
	c0.9,1.9,1.8,3.8,2.4,5.8c1.1,3.1,2.4,6,4.4,8.5c1.1,1.5,1.8,3.2,2.3,4.9c0.5,1.7,1.6,3.1,2.8,4.4c0.5,0.5,1,1,1.3,1.6
	c0.2,0.3,0.3,0.7,0.2,1c-0.1,0.5,0,0.8,0.3,1.1c0.7,0.7,1.4,1.4,2.1,2c0.6,0.6,1.1,1.1,1.7,1.7c1,1,0.9,2.6,0,3.6
	c-1.3,1.5-2.9,2.7-4.8,3.2c-1.2,0.3-2.6,0.4-3.8-0.2c-1.3-0.6-2-1.9-2.6-3.2c-0.3-0.7-0.7-1.4-1-2.1c-0.1-0.1-0.4-0.2-0.5-0.2
	c-0.8,0.2-1.3-0.2-1.6-0.9c-0.1-0.2-0.3-0.5-0.5-0.6c-1.3-0.9-2.2-2-2.4-3.6c-0.2-1.2-0.7-1.9-1.9-2.2c-1.7-0.4-2.9-1.7-3.8-3.1
	c-1.6-2.3-2.6-4.8-3.5-7.4c-0.9-2.6-1.8-5.2-3.3-7.5c-1.2-1.9-2.5-3.7-3.8-5.5c-1.9-2.7-3.7-5.4-5.6-8.2c-2.1-3.2-4.2-6.4-6.4-9.6
	c-0.8-1.2-2-2.2-3-3.3c-1-1-2.1-1-3.4-0.4c-1.9,0.9-3.6,2.2-5.1,3.6c-3.8,3.5-7.4,7.3-10.6,11.3c-1.5,1.9-3.3,3.3-5.3,4.6
	c-1.2,0.8-2,1.9-2.6,3.1c-0.2,0.5-0.3,1-0.4,1.6c-0.1,0.5,0,0.9-0.2,1.4c0,0.2-0.4,0.5-0.5,0.4c-0.8-0.1-1.1,0.3-1.5,1
	c-2.9,5.6-5.7,11.1-9.1,16.4c-0.3,0.5-0.6,0.9-1,1.4c-0.7,1-1.9,1.3-3,1.5c-0.8,0.2-1.3,0.7-1.8,1.3c-1.1,1.3-1.1,2.9-1.4,4.5
	c-0.1,0.7-0.2,1.4-0.5,2c-0.4,1.3-1.3,1.8-2.8,1.8c-1.7,0-3.3-0.1-5-0.1c-1.7,0-3.5,0.1-5.2,0.2c-1.5,0.1-2.9,0.4-4.4,0.5
	c-1.3,0-2.5-0.4-3.4-1.3c-1.8-1.7-1.6-3.3,0.3-4.9c1.1-1,2.6-1.2,4-1.4c1.1-0.1,2.1-0.3,3.2-0.5c1.3-0.3,2.1-1.2,2.4-2.5
	c0.1-0.3,0.4-0.6,0.7-0.8c0.4-0.2,0.6-0.5,0.7-0.9c0.1-0.8,0.7-1.3,1.3-1.6c0.6-0.3,0.5-0.7,0.5-1.1c-0.1-0.9-0.3-1.7-0.2-2.6
	c0.2-1.3,1.3-1.9,2.3-2.4c0.5-0.3,1-0.4,1.5-0.6c0.8-0.2,1.4-0.7,1.8-1.4c1.6-3.5,3.1-6.9,4.7-10.4c1-2.2,1.9-4.4,2.8-6.5
	c0.8-1.7,2.1-3,3.8-4c1.3-0.8,2.2-1.8,2.2-3.4c0-1.3,0.8-2.2,1.7-3.1c0.5-0.5,0.8-1.1,0.8-1.7c0-1.4,0.5-2.6,1.1-3.8
	c1-2.1,2.1-4.2,3.1-6.3c0.4-0.9,0.7-1.9,1-2.9c0.4-1.4,1.2-2.6,2-3.8c0.8-1.2,1.7-2.5,2.4-3.7c0.2-0.3,0.4-0.8,0.4-1.2
	c0-1.2,0.5-2.1,1.1-3c0.4-0.6,0.6-1.1,0.6-1.8c0-1.8,0-3.6,0-5.4c0-0.9-0.2-1.7-0.7-2.5c-0.7-1.1-1.4-2.2-1.7-3.6
	c-0.4-1.9-1.8-3.2-3-4.5c-0.4-0.5-0.8-0.9-1.3-1.4c-0.1-0.1-0.2-0.3-0.4-0.3c-0.6,0-0.8-0.4-0.9-0.9c-0.1-0.5-0.5-0.5-0.8-0.4
	c-1.2,0.3-2.1,0-2.9-1c-0.3-0.4-1-0.6-1.5-0.8c-3.7-1.5-6.9-3.7-9.9-6.3c-1.4-1.2-2.6-2.6-3.9-3.9c-0.1-0.1-0.3-0.2-0.4-0.2
	c-0.8,0.1-1.5-0.3-2-0.8c-0.9-0.8-2-1.2-3-1.7c-1.8-0.8-3-2.1-3.6-3.9c-0.2-0.6-0.1-1.1,0.3-1.6c0.9-1.2,1.9-2.5,3.1-3.4
	c0.6-0.5,1.3-0.9,1.6-1.6c0.3-0.6,0.8-1.1,1.2-1.6c0.5-0.8,1.1-1.6,1.6-2.4c0.2-0.4,0.7-0.6,0.9-1.1c0-0.1,0.2-0.3,0.3-0.3
	c0.7-0.1,1.3-0.8,2.1-0.7c0.1,0,0.4-0.2,0.5-0.4c1.7-2.6,3.4-5.3,5.1-7.9c1.7-2.7,3.5-5.3,5.2-8c2.4-3.7,4.8-7.4,7.2-11.1
	c2.4-3.6,4.7-7.2,7.1-10.8c2.1-3.2,4.3-6.3,6.4-9.5c0.9-1.4,2.4-2,4.2-1.4c1.5,0.5,2.6,1.3,3.2,2.9c0.2,0.7,0.2,1.4-0.2,2
	c-1.8,2.5-3.5,5-5.3,7.4c-2.3,3.1-4.7,6.1-7,9.1c-3.3,4.2-6.6,8.4-9.9,12.5c-2,2.6-4.1,5.1-6.1,7.7c-2.3,2.9-4.7,5.8-7,8.7
	c-0.3,0.4-0.4,0.6,0.1,0.9c1.6,0.8,1.4,2.2,1.1,3.6c-0.2,0.7-0.2,1.5-0.3,2.3c0,0.6,0.2,1.1,0.7,1.5c0.5,0.4,0.7,0.9,0.9,1.5
	c0.3,0.7,0.9,1.2,1.4,1.8c0.7,0.8,1.4,1.6,2.2,2.3c0.1,0.1,0.2,0.1,0.3,0.2c0.5,0.1,0.9,0.3,1.4,0.3c0.4,0,0.9,0.2,1.2-0.3
	c0.1-0.1,0.2-0.1,0.3-0.2c1.3-0.1,1.9-1.2,2.4-2.2c1.2-2.2,2.5-4.3,4.3-6.1c0.9-0.8,1.8-1.5,3-1.8c0.4-0.1,0.5-0.3,0.3-0.6
	c-0.3-0.7-0.8-1.3-1-2.1c-0.3-0.8-0.4-1.7-0.2-2.6c0.1-0.4-0.1-0.9-0.1-1.4c0-0.8,0-1.6,0.1-2.4c0.2-2.1,0.9-4.1,2.4-5.8
	c1.3-1.4,2.9-2.2,4.7-2.6c1.8-0.4,3.7-0.4,5.5,0c2.4,0.6,4.2,1.9,5.3,4.1c0.7,1.3,1,2.7,1.2,4.2c0,0.2,0.2,0.4,0.4,0.5
	c0.7,0.4,1.5,0.7,2.2,1.1c0.4,0.2,0.7,0.7,1,1.1c0.3,0.5,0.1,0.9-0.4,1.1c-0.3,0.1-0.5,0.2-0.8,0.3c-1.6,0.6-2.3,2.1-3.1,3.4
	c-0.4,0.6-0.5,1.2-0.1,1.8c0.2,0.2,0.3,0.5,0.4,0.7c0.6,0.8,0.3,1.6-0.5,1.9c-0.2,0.1-0.2,0.4-0.4,0.6C524,73.2,524,73.2,524.1,73.3
	z M548.4,133.8c0-0.1-0.1-0.1-0.1-0.2c1.5-0.7,2.3-1.7,2-3.4c-0.8,0.4-1.6,0.9-2.4,1.2c-0.9,0.2-1.8,0.1-2.7-0.4
	c0.4-0.1,0.6-0.2,0.9-0.3c1-0.4,2-0.8,3-1.3c0.8-0.4,0.7-1.2-0.2-1.5c-1.1-0.4-2.3-0.3-3.5-0.2c-0.6,0.1-1.1,0.1-1.7,0.2
	c0,0,0-0.1,0-0.1c0.3-0.2,0.7-0.4,1-0.5c1.2-0.3,2.4-0.6,3.6-0.8c0.8-0.2,0.8-0.2,0.5-1c-0.1-0.3-0.4-0.5-0.6-0.7
	c-1.3-0.9-2.9-1.3-4.5-1.2c-0.3,0-0.6-0.1-1-0.1c-0.3,0.4-0.7,0.2-1.2,0.2c0,0-0.1-0.4,0-0.4c0.2-0.1,0.5-0.2,0.7-0.2
	c0.5,0.1,0.9-0.4,1.3,0c0,0,0.1-0.1,0.1-0.1c0.2,0,0.4-0.1,0.6-0.1c0.2,0,0.3,0.1,0.5,0.1c0.2,0,0.5,0,0.7,0c0.6,0,1.2,0.1,1.7,0.1
	c0.6,0,0.7-0.4,0.4-0.8c-0.5-0.6-1.1-1.1-1.6-1.7c-0.1-0.1-0.2-0.1-0.3-0.1c-0.2,0-0.4,0-0.7,0c-0.9-0.2-1.8-0.4-2.7-0.6
	c-0.4-0.1-0.8-0.2-1.2-0.3c0-0.1,0-0.1,0-0.2c1.4,0.2,2.9,0.1,4.3,0.7c0.5-0.5,0.9,0.1,1.5,0.1c-0.1-0.2-0.2-0.5-0.4-0.6
	c-1.7-0.7-3.5-1.3-5.4-1.5c-1.1-0.1-2.2-0.1-3.2-0.1c-1,0-2.1,0.2-3.2,0.4c0.1-0.1,0.1-0.1,0.2-0.1c1.5-0.8,3.2-1,4.9-1.2
	c1.6-0.1,3.1,0.3,4.5,0.8c0.2,0.1,0.5-0.1,0.7-0.1c-0.1-0.2-0.2-0.4-0.4-0.6c-1.4-0.9-2.9-1.5-4.5-1.3c-0.2,0-0.3,0-0.6,0
	c1.4-1,2.8-0.2,4.3-0.4c-0.1-0.3-0.3-0.6-0.5-0.8c-0.9-0.6-2-0.6-2.9-0.3c-2.2,0.7-4.4,1.4-6.5,2.3c-3,1.4-5.7,3.2-8.1,5.4
	c-1.4,1.2-2.9,1.9-4.8,1.7c-1.1-0.1-2.2-0.2-3.3-0.3c-0.4,0-0.8-0.1-1.2-0.1c0,0.1,0,0.1,0,0.2c1.1,0.3,2.2,0.6,3.2,0.9
	c1.3,0.3,2.6,0.4,3.8-0.1c2-0.8,3.8-2.1,5.5-3.5c0.1-0.1,0.2-0.1,0.3-0.2c0,0.1,0.1,0.1,0.1,0.2c-1.5,1.4-3.1,2.9-4.6,4.2
	c-0.4,0.3-0.9,0.6-1.4,0.6c-0.9,0.1-1.8-0.1-2.7-0.1c-0.3,0-0.6,0-0.9-0.1c0,0.1,0,0.1,0,0.2c1.6,0.3,3.1,1,4.7,0.6
	c1.6-0.4,2.9-1.5,4.3-2.3c0,0,0.1,0.1,0.1,0.1c-0.6,0.6-1.2,1.3-1.9,1.9c1.6-0.5,2.7-1.5,3.9-2.6c1-0.9,2-1.9,3-2.9
	c1.4-1.3,3.1-1.8,4.9-1.9c0.9-0.1,1.8,0,2.7,0c0,0.1,0,0.1,0,0.2c-1,0.2-2,0.3-3,0.5c-1.9,0.4-3.6,1.2-4.8,2.8c-0.7,1-1.4,2-2.2,2.9
	c-1.5,1.5-3.6,2-5.6,2.5c-1,0.3-1.3,0.3-1.3,1.2c0,1-0.1,2,0.1,2.9c0.2,1.3,1.1,1.5,2.1,0.7c1.1-0.9,2-2,3-3.1
	c0.2-0.2,0.4-0.4,0.6-0.6c-0.4,1.1-0.8,2.1-1.3,3.1c-0.4,0.9-0.2,1.2,0.8,1.1c0.9-0.1,1.9-0.3,2.8-0.4c0.8-0.1,1.5-0.3,2.2-0.5
	c-1,0.6-2.1,1.1-3.2,1.7c-0.3,0.2-0.6,0.4-0.8,0.6c0.3,0.2,0.6,0.4,1,0.5c0.9,0.2,1.8,0.3,2.7,0.5c-0.6,0.1-1.2,0.2-1.9,0.2
	c-0.3,0-0.6,0.2-1,0.3c0.2,0.3,0.4,0.6,0.6,0.8c2.6,1.8,5.2,3.6,7.9,5.4c0.8,0.5,1.6,1,2.4,1.6c0,0,0,0.1-0.1,0.1
	c-2.2-1.3-4.5-2.6-6.7-3.8c0,0-0.1,0.1-0.1,0.1c0.4,1.6,1.2,3,2,4.4c2.4,4.3,6.4,5.6,11,6c-2.1,0.2-4.1,0.4-6.3-0.3
	c0.2,0.6,0.3,1.1,0.5,1.5c1.3,2.4,2.8,4.6,4.7,6.5c2.1,2.1,3.9,4.4,5.3,7c0.4,0.8,0.8,1.6,1.2,2.5c-0.1,0-0.1,0.1-0.2,0.1
	c-0.7-0.8-1.5-1.6-2.2-2.4c-0.1,0.3,0,0.4,0.1,0.6c0.7,1.5,1.4,3,2.1,4.4c0.8,1.8,1.6,3.7,2.5,5.5c0.6,1.1,1.5,2.2,2.4,3.1
	c1.2,1.3,2.9,1.4,4.6,1.3c0.2,0,0.6-0.3,0.6-0.5c0.1-0.8,0.7-1,1.3-1.1c1.1-0.3,2-0.9,2.4-2c0.4-1,0.9-2,0.5-3.2
	c-0.3-0.9-0.9-1.4-1.6-1.9c-1.1-0.7-1.8-1.7-2.3-2.8c-0.5-1.3-1.1-2.6-1.6-3.9c-0.1,1-0.2,2.1-0.2,3.3c-0.1-0.1-0.2-0.2-0.2-0.2
	c-0.1-0.4-0.1-0.9-0.1-1.3c-0.2-1.8-0.4-3.7-0.7-5.5c-0.1-0.7-0.3-1.4-0.6-2c-1-1.9-2.5-3.4-4-5c-2-2.1-4.3-3.9-7-5
	c-0.7-0.3-1.3-0.8-2-1.2c0-0.1,0-0.2,0.1-0.2c0.4-0.1,0.9-0.3,1.3-0.4c0.2,0.8,0.5,1.1,1.4,1.5c1.3,0.6,2.6,1,3.8,1.6
	c1.6,0.9,2.9,2.2,4,3.6c0.5,0.7,1,1.3,1.6,2c0.1-0.2,0-0.4,0-0.5c-0.4-0.7-0.8-1.3-1.2-2c-1.1-1.7-2.4-3.1-4.1-4.2
	c-1.3-0.9-2.7-1.7-4.1-2.5c-0.5-0.3-0.9-0.6-1.3-0.9c0-0.1,0-0.1,0.1-0.2c0.9,0.1,1.9,0.3,2.8,0.4c0-0.1,0.1-0.1,0.1-0.2
	c-0.2-0.2-0.3-0.5-0.6-0.6c-0.7-0.3-1.4-0.5-2.1-0.7c-0.8-0.2-1.5-0.2-2.3-0.3c0-0.1,0-0.1,0-0.2c1.5-0.1,3.1-0.2,4.6-0.3
	c-0.1-0.3,0-0.6-0.2-0.8c-0.1-0.2-0.5-0.4-0.6-0.4c-0.9,0.4-1.8,0.2-2.6-0.2c-0.8-0.4-1.5-0.8-2.2-1.3c0,0,0-0.1,0.1-0.1
	c0.1,0,0.2,0,0.3,0.1c1,0.5,2,0.7,3.2,0.6c1.3-0.1,1.6-0.6,1.2-1.8c-0.4-1.3-0.7-2.7-1-4.1c-0.1-0.8,0-1.6,0-2.5
	C549.4,133.5,548.9,133.7,548.4,133.8z M516.3,133.3c0.2-0.2,0.2-0.3,0.2-0.3c1.7-0.5,3.4-1,5.3-0.9c0.5,0,0.9-0.3,1.1-0.7
	c0.7-1.5-0.1-3.2-1.7-3.6c-3-0.9-5.9-2.1-8.6-3.7c-1-0.6-2-1.2-3-1.7c-0.7-0.3-1.2,0-1.2,0.8c0,0.4,0.1,0.8,0.2,1.2
	c0.1,0.5,0.3,0.9,0.4,1.4c0,0-0.1,0-0.1,0.1c-0.5-0.7-0.9-1.4-1.4-2.2c-0.1,0.1-0.2,0.1-0.2,0.2c-0.4,0.9-1,1.9-1.2,2.9
	c-0.3,1-0.3,2,0.5,2.9c0.3,0.4,0.8,0.7,1.3,1.1c-1.6-0.2-2.5-1.1-2.9-2.6c-0.1,0-0.1,0-0.2,0.1c-0.3,1.2-0.6,2.4-0.9,3.7
	c-0.1-0.2-0.2-0.4-0.4-0.6c-0.2,0.3-0.3,0.4-0.4,0.6c-1,2.4-2,4.9-2.9,7.3c-0.3,0.9-0.7,1.9-0.2,2.8c0.2,0.4,0.5,0.8,0.8,1.1
	c-0.8,0.1-1.3-0.3-1.8-1.4c-0.5,1.7-1.1,3.2-1.5,4.8c-0.2,1,0.2,1.3,1.2,1.3c0.4,0,0.7,0,1.2,0c-0.2,0.1-0.2,0.2-0.3,0.2
	c-0.4,0.2-0.8,0.4-1.3,0.6c-0.9,0.4-1.1,0.3-1.7-0.4c-0.3,0.9-0.9,1.6-1.7,2.2c-2.2,1.6-4,3.5-5.5,5.8c-0.7,1.1-1.2,2.4-1.7,3.7
	c-1,2.4-2.2,4.7-2.7,7.2c-0.2,0.9-0.5,1.8-0.2,2.8c0.8,0.1,1.2-0.5,1.7-0.9c2.5-1.9,4.9-3.8,7.3-5.8c1.5-1.2,2.9-2.5,4.3-3.8
	c0.2-0.2,0.3-0.4,0.5-0.7c0,0-0.1-0.1-0.1-0.1c-2,0.5-3.6,1.7-5.5,2.4c0.1-0.2,0.3-0.4,0.5-0.5c1.3-1.2,2.6-2.5,3.9-3.7
	c0.1-0.1,0.3-0.5,0.2-0.6c-0.1-0.2-0.4-0.3-0.6-0.3c-1.6-0.1-3.1-0.1-4.7-0.1c-0.2,0-0.4-0.1-0.6-0.1c0,0,0-0.1,0-0.1
	c1.6-0.3,3.3-0.6,4.9-0.9c0-0.1,0-0.1,0-0.2c-1-0.3-2-0.6-3-0.9c2.6-0.2,5.2-0.8,7.5-2c2.9-1.4,5.4-3.4,7.9-5.3
	c2.8-2.2,5.5-4.4,8.2-6.6c0.4-0.3,0.7-0.7,1.1-1c0-0.1-0.1-0.1-0.1-0.2c-2.3,1.3-4.6,2.6-6.9,3.9c0,0-0.1-0.1-0.1-0.1
	c3.4-2.3,6.7-4.5,10.1-6.8c0,0,0-0.1-0.1-0.1c-2,0.6-4,1.2-6,1.9c0-0.1,0-0.1-0.1-0.2c2.8-1.2,5.5-2.5,8.3-3.7
	C521,132.8,518.7,133,516.3,133.3z M522.6,91.8C522.6,91.8,522.6,91.7,522.6,91.8c0.5-0.4,1-0.7,1.5-1c1.3-0.6,2.6-1.1,3.8-1.8
	c1.4-0.8,2.4-1.8,2.8-3.4c0.5-2.2,0.2-4.3-0.5-6.4c-0.3-0.9-0.9-1.8-1.2-2.6c1.9,1,4.4,5.6,3.7,11.2c0.2-0.2,0.3-0.4,0.5-0.6
	c0,0.6-0.2,1.1-0.3,1.6c-0.4,1.5-1,2.9-2.7,3.3c-0.4,0.1-0.8,0.3-1.1,0.5c-0.7,0.5-1.4,1-1.9,1.6c-0.4,0.4-0.3,0.9,0.2,1.3
	c0.4,0.3,0.8,0.5,1.2,0.7c0.8,0.4,1.7,0.7,2.5,1c-1.7-0.2-3.3-0.6-4.8-1.7c0.3,0.8,1.2,1.5,2,1.8c1.7,0.6,3.5,1.1,5.3,1.2
	c0.9,0,1.9,0,2.9,0c-0.4-0.8-0.9-1.4-1.1-2.2c-0.3-1.3-0.1-2.1,0.3-2.3c0.1,0.6,0.2,1.2,0.3,1.8c0.1-1.2,0.1-2.3,0.1-3.4
	c0-0.8-0.3-1.4-0.8-1.9c-0.1-0.1-0.3-0.3-0.4-0.2c-0.1,0-0.2,0.3-0.3,0.4c-0.1,0.2,0,0.4-0.1,0.6c-0.1,0-0.2,0-0.2,0
	c-0.1-0.8-0.3-1.6-0.3-2.4c0-0.8,0.2-1.6,0.2-2.4c0-1.2-0.1-2.4-0.3-3.5c-0.2-1.1-0.5-2.2-1.3-3.2c-0.8-1-1.3-2.2-2-3.3
	c-1.2-2-2.9-2.7-5.1-2.4c-0.5,0.1-1.1,0.1-1.5,0.8c0.8,0,1.5,0,2.1,0.5c-0.8,0.2-1.5,0.3-2.2,0.4c0,0.1,0,0.1,0,0.2
	c0.4,0.1,0.8,0.2,1.2,0.4c0.4,0.2,0.8,0.3,1.2,0.5c0.3,0.2,0.6,0.4,1,0.6c-1.6-0.3-3.1-0.8-4.8-0.6c0.9,0.3,1.8,0.6,2.5,1
	c0.8,0.4,1.5,0.9,2.3,1.4c0,0.1-0.1,0.1-0.1,0.2c-1.9-1-3.9-1.4-6-1.5c-1.4-0.1-2.9-0.1-4.2,0.4c-0.8,0.3-1.3,0.9-0.7,1.9
	c0.4,0.6,1,0.8,1.6,0.8c1.6,0.1,3.1-0.1,4.6-0.5c0.4-0.1,0.7-0.2,1.1-0.2c0,0.1,0.1,0.1,0.1,0.2c-0.4,0.2-0.7,0.5-1.1,0.7
	c-1.3,0.6-2.8,0.7-4.2,0.9c-1.2,0.1-2.4,0.3-3.6,0.5c-0.3,0-0.5,0.4-0.7,0.6c0.2,0.2,0.4,0.5,0.7,0.6c1.8,0.7,3.8,0.7,5.7,0.5
	c1.1-0.1,2.1-0.6,3-1.2c0.5-0.4,0.8-0.8,1.3-1.2c-0.1,1.9-1.8,3.2-3.7,3.5c-2.7,0.5-5.2,0-7.7-1.1c-0.7-0.3-1.4-0.6-2.1-0.8
	c-0.2-0.1-0.5,0.1-0.8,0.1c0,0.3,0,0.6,0.2,0.8c0.3,0.4,0.7,0.9,1.1,1.2c2.7,2.1,5.8,2.3,9,1.6c0.7-0.2,1.5-0.4,2.2-0.6
	c0,0.1,0,0.1,0.1,0.2c-1,0.4-2,0.8-3.1,1.1c-2.1,0.6-4.3,0.6-6.4-0.3c-1.6-0.6-3-1.6-4.1-2.8c-1-1-1.7-1.1-2.8-0.6
	c-0.4,0.2-0.6,0.5-0.4,0.9c0.4,1.2,0.7,2.3,1.3,3.4c1.4,3,3.7,5.3,6,7.7c1.4,1.5,3.5,1.3,4.6-0.4c-2-0.2-4-0.4-5.3-2.4
	c0.6,0.3,1,0.6,1.6,0.8c2.7,1,5.3,0.7,7.9-0.1c1.5-0.5,3-1.1,4.5-1.8c1.1-0.5,2.2-1,3.3-1.6c0.9-0.5,1.1-1.3,0.9-2.3
	c-0.1,0.2-0.2,0.3-0.3,0.5c-0.8,1.1-1.8,1.8-3.3,1.8c-0.5,0-1.1,0.1-1.6,0.3C524.5,91,523.6,91.4,522.6,91.8z M502.1,95.1
	c0.2,0,0.4,0,0.5,0c1.6-0.3,3.1-0.6,4.7-0.9c0.2,0,0.5-0.4,0.4-0.6c-0.2-0.6-0.4-1.3-0.7-1.8c-0.5-0.9-1.2-1.8-1.6-2.8
	c-0.4-0.8-0.5-1.8-0.7-2.7c-0.1-0.6-0.2-0.7-0.7-0.4c-0.5,0.3-1,0.7-1.5,1.1c-1.3,1-2.6,0.8-3.7-0.3c0.8,0.1,1.5,0.5,2.3,0.3
	c0-0.1,0-0.2-0.1-0.2c-0.1-0.1-0.3-0.2-0.4-0.3c-2-1.4-4.3-2.2-6.7-3c-2.4-0.8-4.8-1.8-6.8-3.4c-1-0.8-1-0.8-2,0c0,0,0,0,0,0
	c-1.2,1.1-1.5,2-0.5,3.2c0.9,1.1,2,2,3.1,3c0.5,0.5,1.1,0.9,1.7,1.3c0,0,0,0.1-0.1,0.1c-1-0.6-2-1.2-3-1.7c-0.1,0.1-0.1,0.1-0.2,0.2
	c0.4,0.3,0.7,0.7,1.1,1c3.2,2.9,6.7,5.2,10.7,6.9c0.2,0.1,0.4-0.1,0.6-0.2c0.2-0.1,0.4-0.3,0.8-0.5c0,0.4-0.1,0.6-0.1,0.8
	c-0.2,1.1,0.2,1.5,1.3,1.2c0.5-0.2,1-0.4,1.6-0.6C502.1,94.8,502.1,94.9,502.1,95.1z M496.1,169.9c0,0-0.1-0.1-0.1-0.1
	c-3.3,2.2-6.6,4.4-9.9,6.6c0-0.2,0.1-0.3,0.2-0.4c1.2-1.1,2.3-2.2,3.5-3.2c1-0.9,1.9-1.9,2.4-3.2c0.1-0.2,0.1-0.4,0-0.5
	c-0.1-0.1-0.4-0.1-0.5-0.1c-0.4,0.1-0.8,0.3-1.2,0.5c-1.3,0.6-2.7,1.2-4,1.9c-1.2,0.6-2.3,1.2-3.5,1.8c-0.6,0.3-1.4,0.4-2,0.6
	c-0.7,0.3-1,1-0.7,1.7c0.3,0.5,0.7,0.8,1.3,0.9c0.5,0.1,1,0.2,1.5,0.3c0,0.1,0,0.2-0.1,0.3c-0.8-0.1-1.5-0.3-2.3-0.3
	c-0.7-0.1-1.2-0.4-1.6-1c-0.5-0.8-0.7-0.8-1.1,0c-0.1,0.1-0.2,0.3-0.2,0.5c-0.5,1.2-0.2,2.4,0.4,3.5c-0.3,0-0.6,0-0.8,0.1
	c-0.2,0.1-0.4,0.2-0.7,0.3c0.1,0.2,0.2,0.4,0.3,0.5c0.3,0.3,0.5,0.5,0.8,0.8c-0.9-0.2-1.7,0-2.5,0.4c-0.5,0.3-0.5,0.5-0.2,0.9
	c0.5,0.6,0.9,1.3,1.4,1.9c0.4,0.5,0.8,1,1.3,1.4c0.5,0.5,1.2,0.9,1.8,1.4c0.7,0.5,1.4,0.8,2.3,0.7c0.3-0.1,0.8-0.3,0.9-0.6
	c0.1-0.3,0-0.9-0.2-1.1c-0.5-0.5-1.1-0.9-1.7-1.3c-0.4-0.3-0.9-0.7-1.3-1c-0.4-0.3-0.8-0.7-1.3-1c1.6,0.5,3,1.7,4.9,1.6
	c-1-1.5-2.7-2-4.3-3c2,0.3,3.8,0.8,5.6,0.6c0-0.1,0-0.1,0.1-0.2c-0.8-0.3-1.7-0.6-2.5-0.9c0.4-0.1,0.7,0,1-0.1
	c0.7-0.1,1.4-0.2,2.2-0.3c1.5-0.3,2.9-0.9,4-2c1.7-1.6,3.2-3.5,4.6-5.4C494.6,172.2,495.3,171,496.1,169.9z M510,105.7
	c0.6,2.4,2.2,4.1,4,5.5c0.9,0.7,1.9,1.1,2.8,1.7c1.1,0.6,2.1,1.4,3.3,1.9c1.7,0.7,3.5,1,5.3,0.9c1.7-0.1,3.4-0.3,5.1-0.5
	c1-0.2,1.9-0.6,2.8-0.9c0-0.1,0-0.1,0-0.2c-1.6-0.5-3.2-0.9-4.9-1.4c0-0.1,0-0.1,0-0.2c1.5,0.1,3,0.3,4.6-0.1
	c-0.3-0.2-0.4-0.4-0.6-0.5c-0.7-0.3-1.4-0.5-2.1-0.7c-3.3-0.9-6.5-1.8-9.8-2.8c-1.5-0.5-3.1-1-4.6-1.6c-2-0.7-3.8-1.7-5.2-3.3
	c-1.5-1.7-2.9-3.5-4.3-5.3c-0.3-0.3-0.5-0.8-0.9-0.8c-0.5-0.1-0.6-0.4-0.7-0.7c-0.1-0.3-0.2-0.6-0.3-0.9c-0.4,0-0.9,0-1.6,0
	c0.3,0.6,0.5,1.3,0.8,1.4c1.1,0.4,1.7,1.1,2.2,2c0.5,0.9,1,1.8,1.5,2.7c0.6,1.2,1.6,1.9,2.5,2.8c1.1,1,2.1,2,3.2,3.1
	c0,0,0,0.1-0.1,0.1C512.1,107.1,511.1,106.4,510,105.7z M525.1,99.7c0,0,0,0.1-0.1,0.1c-0.1-0.1-0.3-0.1-0.4-0.2
	c-1.5-0.7-2.9-1.3-4.4-2c-1.1-0.5-2.1-0.3-2.9,0.6c-0.5,0.5-0.4,0.7,0.1,1.1c1,0.7,1.9,1.4,2.9,2c2,1.4,4,2.9,6.3,3.7
	c2.9,1.1,5.8,2.1,8.8,3c1.3,0.4,2.7,0.8,4.1,0.7c0.2,0,0.5-0.2,0.7-0.3c-0.2-0.2-0.3-0.6-0.5-0.7c-1.2-0.7-2.5-1.5-3.7-2.2
	c-1.1-0.6-2.2-1.1-3.3-1.7c0.1-0.1,0.3,0,0.4,0c1.4,0.5,2.7,1.1,4.1,1.6c0.5,0.2,1,0.3,1.5,0.4c0-0.1,0.1-0.2,0.1-0.3
	c-2.3-2.5-5.7-3.3-8.7-5c0.2,0,0.4,0,0.5,0c1.3,0.4,2.6,0.9,3.9,1.3c0.8,0.2,1.7,0.3,2.5,0.4c0.2,0,0.5-0.1,0.6-0.2
	c0.1-0.1-0.1-0.4-0.2-0.6c-0.4-0.6-1.1-0.6-1.7-0.8c-0.9-0.2-1.8-0.2-2.7-0.5c-1.9-0.7-3.7-1.6-5.6-2.4c-0.6-0.2-1.1-0.8-1.8-0.6
	c0.1,0.2,0.2,0.4,0.3,0.6c-0.7-0.4-1.4-0.7-2-1.1c-0.9-0.5-1.8-1.1-3-0.7c-0.1,0-0.2,0.2-0.4,0.2c0.1,0.1,0.2,0.3,0.3,0.3
	c0.4,0.2,0.8,0.3,1.1,0.6C523.1,98.2,524.1,98.9,525.1,99.7z M521,103.6C521,103.6,520.9,103.6,521,103.6c-1.1-0.7-2.1-1.4-3.2-2.1
	c-1.4-1-2.8-1.9-4.3-2.9c-0.5-0.4-1-0.9-1.6-1.1c-0.5-0.2-0.9-0.4-1-0.9c-0.4-1-1.2-1.2-2.1-1c-0.9,0.1-1.8,0.1-2.9,0.2
	c0.3,0.7,0,1.5,1,1.7c0.1,0,0.2,0.2,0.3,0.3c0.5,0.6,0.9,1.1,1.4,1.7c1.4,1.7,2.8,3.5,4.6,4.9c0.2,0.2,0.4,0.3,0.7,0.4
	c0,0,0.1-0.1,0.1-0.1c-1.4-1.4-2.6-3-3.6-4.7c0.2,0,0.3,0.1,0.3,0.2c1.2,1.2,2.3,2.4,3.5,3.6c1.4,1.4,3.1,2.7,4.9,3.5
	c1.1,0.5,2.2,0.9,3.4,1.2c1.7,0.5,3.5,1,5.3,1.4c2.1,0.5,4.2,0.9,6.3,1.2c1.3,0.2,2.7,0.3,4,0.4c0.3,0,0.6-0.2,0.8-0.3
	c-0.2-0.2-0.4-0.5-0.6-0.6c-2.4-1-4.7-1.9-7.1-2.9c-1.7-0.7-3.4-1.3-5.1-2.1c-2.1-1-4-2.2-6-3.3c-0.2-0.1-0.4-0.2-0.7-0.3
	c0,0,0,0.1-0.1,0.1C520,102.6,520.5,103.1,521,103.6z M511,70.2c0.1,0.2,0.1,0.3,0.1,0.4c0.1,0.8,0.5,1.5,1.1,2.1
	c0.9,0.9,1.9,1.7,2.8,2.5c0.3,0.2,0.6,0.4,1,0.5c2,0.7,4,0.2,6,0.4c0.1,0,0.3-0.2,0.3-0.3c0-0.1-0.1-0.3-0.2-0.3
	c-0.2-0.1-0.3-0.2-0.6-0.4c0.4-0.1,0.7-0.2,1-0.3c0.1-0.1,0.2-0.2,0.2-0.3c0-0.1-0.2-0.2-0.3-0.2c-0.4-0.1-0.9-0.2-1.3-0.2
	c0-0.1,0-0.1,0-0.2c0.5-0.1,1.1-0.3,1.6-0.4c0.1,0,0.3-0.1,0.4-0.2c0-0.1,0-0.3-0.1-0.5c-0.2-0.2-0.4-0.4-0.7-0.8
	c0.7,0,1.2-0.1,1.7-0.1c0.7,0,0.7-0.1,0.6-0.8c-0.2,0.1-0.3,0.1-0.5,0.2c0-0.2-0.2-0.5-0.1-0.7c0.2-0.6,0-1-0.3-1.5
	c-0.5-0.7-0.4-1.1,0.2-1.8c0.2-0.2,0.4-0.5,0.6-0.9c-1.3,0.2-2.4,0.5-3.5,0.7c0.8,0.2,1.4,0.5,1.5,1.3c0.1,0.5-0.7,1.1-1.3,1.2
	c0.1-0.2,0.1-0.4,0.2-0.5c-0.4-0.1-0.9-0.1-1-0.3c-0.3-0.3-0.5-0.3-0.7-0.1c0,0.1,0.1,0.3,0.1,0.4c-1.2,0.1-1.7-0.2-2.3-1.5
	c-2,0.7-4,0.2-6-0.5c-0.1,0.8-0.1,1.5-0.2,2.1c0,0-0.1,0-0.1,0c-0.1-0.3-0.2-0.6-0.3-0.9c-0.2,0.2-0.3,0.4-0.4,0.6c0,0-0.1,0-0.1,0
	c0-0.3,0-0.5,0-0.8c-0.2,0.1-0.2,0.3-0.3,0.4c-0.2,0.3-0.3,0.5-0.5,0.8c-0.1-0.1-0.3-0.2-0.3-0.2c0.1-0.3,0.2-0.6,0.4-0.9
	c0.4-0.5,0.4-0.8,0-1.2c-0.3-0.3-0.7-0.7-1.2-0.5c-0.3,0.1-0.3,0.6-0.5,1c0,0-0.1,0-0.3-0.1c0.1,0.5,0.1,0.9,0.3,1.4
	c0.3,0.9,0.6,1.9,1.9,2.1C510.4,71,510.5,71,511,70.2z M503.8,75.8c-0.1,0-0.1,0-0.2-0.1c0.2-0.7,0.4-1.5,0.7-2.2
	c0.3-0.7,0.9-1.3,1.3-1.9c0,0-0.1-0.1-0.1-0.1c-0.2,0.1-0.3,0.2-0.5,0.4c-1.5,1.3-2.5,2.9-3.6,4.5c-0.8,1.2-1.3,2.5-1.4,3.9
	c-0.2,1.5-0.2,3,0.4,4.5c0.1,0.2,0.4,0.4,0.5,0.5c0.1-0.2,0.4-0.5,0.4-0.7c0.1-0.8,0.2-1.7,0.2-2.5c0-1.3,0.2-2.6,0.7-3.8
	c0.1-0.2,0.2-0.4,0.2-0.6c0,0,0.1,0,0.1,0c0,0.2-0.1,0.3-0.1,0.5c-0.3,1.7-0.4,3.5,0.1,5.2c0.1,0.3,0.4,0.6,0.6,1
	c0.1,0,0.2,0,0.2-0.1c0.1-0.2,0.1-0.5,0.2-0.7c0-0.7,0-1.4,0-2.1c-0.1-1.7,0.2-3.3,0.9-4.8c0.3-0.6,0.6-1.2,0.9-1.7
	c0.1,0,0.1,0.1,0.2,0.1c-0.2,0.4-0.3,0.8-0.5,1.2c-0.7,1.9-0.8,3.9-0.2,5.8c0.1,0.3,0.2,0.6,0.7,0.5c0-0.9,0.1-1.8,0.1-2.7
	c0.1,0,0.1,0,0.2,0c0,0.2,0,0.4,0.1,0.7c0.1,0.5,0.2,1,0.4,1.4c0.1,0.2,0.4,0.2,0.7,0.3c0-0.2,0.1-0.4,0.1-0.6
	c-0.1-0.6-0.1-1.1-0.2-1.7c0,0,0.1,0,0.1,0c0.1,0.1,0.2,0.3,0.4,0.5c0-0.6,0-1.1,0-1.6c0-0.4,0.1-0.9,0.3-1.3c0.6-1.7,1.3-3.3,1.9-5
	c0.1-0.3,0.1-0.8-0.1-0.9c-0.5-0.3-1.2-0.7-1.8-0.3c-1.6,0.8-2.8,1.9-3.3,3.7C504,75.3,503.9,75.6,503.8,75.8z M481.8,79.4
	c-0.1,0.3-0.3,0.6-0.3,0.9c-0.1,0.7-0.3,1.4,0.2,2.1c0.2,0.3,0.5,0.2,0.6-0.1c0.1-0.3,0.1-0.6,0.1-0.9c0.1-1.1,0.5-1.9,1.5-2.4
	c0.4-0.2,0.9-0.4,1.4-0.6c-0.2-0.2-0.4-0.3-0.5-0.5c-0.2-0.5-0.6-1-0.5-1.5c0.1-0.8,0.1-1.5-0.5-2c-0.8-0.7-1.6-1.4-2.4-2.1
	c-0.1-0.1-0.3-0.3-0.4-0.4c-0.2-0.1-0.4-0.3-0.6-0.3c-0.5,0-1,0.2-1.4,0.3c0,0.8,0,1.5,0,2.3c-0.2-0.2-0.2-0.4-0.4-0.5
	c-0.3-0.1-0.6-0.4-0.8-0.3c-0.7,0.2-1.2,0.6-1.3,1.4c0,0.3-0.1,0.7-0.2,1.2c-0.2-0.4-0.3-0.6-0.5-0.9c-0.1,0.1-0.2,0.1-0.3,0.2
	c-0.6,0.7-0.7,1.4-0.4,2.3c0.5,1.2,1.9,2.9,3.6,2.7c0.4-0.1,0.6-0.2,0.7-0.6c0.3-1.2,1.1-2,2-2.8c0.6-0.5,1.2-0.6,2-0.4
	c-0.3,0.1-0.5,0.2-0.7,0.2c-1.8,0.5-2.9,2.2-2.6,4c0.1,0.5,0.3,0.9,0.9,1.1C480.9,80.9,481,80,481.8,79.4z M510.6,65.6
	c0,0,0,0.1-0.1,0.1c0.2,0.1,0.4,0.2,0.6,0.3c0.6,0.2,1.2,0.3,1.8,0.5c1.3,0.4,2.6,0.5,3.9,0.4c2-0.3,3.9-0.6,5.8-1.2
	c1.5-0.5,2.8-1.2,4-2.2c0.1-0.1,0.2-0.5,0.1-0.5c-0.7-0.5-1.4-1.1-2.3-0.9c-0.4,0.1-0.8,0.2-1.2,0.4c-3.2,1.5-6.6,2.3-10.1,2.1
	c-0.6,0-1.3,0-1.9,0c-0.1,0-0.2,0.1-0.3,0.2c0.1,0.1,0.1,0.2,0.2,0.2c0.1,0.1,0.3,0.2,0.5,0.2c2,0.6,4,1,6.1,0.8
	c0.6-0.1,1.2-0.1,1.8-0.2c-1.5,0.5-3,0.8-4.5,0.6C513.6,66.3,512.1,65.9,510.6,65.6z M487.5,77.2c0.1,0.1,0.1,0.1,0.2,0.2
	c0.6-0.5,1.1-1,1.6-1.6c0.3-0.3,0.3-0.6-0.2-0.9c-0.3-0.2-0.6-0.4-0.7-0.7c-0.3-1.3-0.3-2.7,0.1-4c0.1-0.6,0.4-1.4,0.2-1.8
	c-0.4-0.7-1.1-1.3-1.9-1.6c-0.7-0.3-1.4-0.5-1.9-1.2c-0.2-0.2-0.4-0.3-0.8-0.4c-0.1,1.1,0.5,1.7,1,2.4c0.5,0.7,1.2,0.8,1.9,0.8
	c-0.2,0.1-0.4,0.2-0.7,0.3c0.3,0.3,0.6,0.6,0.9,0.9c-1.1-0.1-1.2,0.7-1.4,1.4c-0.2,0.8,0.1,1.4,0.5,1.9c-0.1,0.1-0.2,0.1-0.2,0.2
	c-0.3-0.4-0.5-0.7-0.8-1.1c-0.3,0.7-0.5,1.2-0.6,1.8c-0.1,0.2-0.1,0.6,0.1,0.7c0.1,0.1,0.4,0.1,0.7,0.1c0.2,0,0.4-0.1,0.6-0.2
	c-0.2,0.3-0.4,0.5-0.6,0.7c-0.3,0.3-0.4,1-0.1,1.3c0.3,0.4,0.7,0.1,1,0c0.1-0.1,0.2-0.2,0.4-0.2c0,0,0.1,0.1,0.1,0.1
	c-0.2,0.3-0.4,0.6-0.6,0.9c0,0.1,0.1,0.1,0.1,0.2c0.4-0.3,0.9-0.5,1.4-0.9C487.7,76.7,487.6,77,487.5,77.2z M501.5,47.1
	c0,0-0.1-0.1-0.1-0.1c2.1-2.7,4.3-5.4,6.2-8.2c-0.6,0.4-1,0.9-1.5,1.4c-4,4.5-7.7,9.1-11.4,13.9c-0.5,0.6-0.8,1.3-1.3,1.9
	c0.1,0.1,0.1,0.1,0.2,0.2c1.1-0.4,1.8-1.4,2.8-2.1c0.1,0.1,0.1,0.2,0.2,0.3c2-2.5,3.9-4.9,5.8-7.3c1.3-1.6,2.6-3.3,3.9-4.9
	c0.2-0.2,0.2-0.5,0.3-0.7c-0.1,0-0.1-0.1-0.2-0.1C504.9,43.3,503.2,45.2,501.5,47.1z M566.4,186c0.1,0,0.2,0.1,0.2,0.1
	c0.1-0.2,0.3-0.4,0.3-0.7c0.1-0.6,0.2-1.1,0.4-1.7c0.3-1.3,1.1-2,2.4-2.1c0.4-0.1,0.8-0.2,1.2-0.4c0.4-0.2,0.7-0.6,0.6-1.1
	c-0.1-0.5-0.4-0.8-0.9-1c-1.1-0.4-2.1-0.1-2.9,0.7c-1.3,1.3-2.3,2.8-3,4.5c0,0.1-0.1,0.1-0.2,0.3c0.2-1.9,0.7-3.6,1.8-5.1
	c-1.7,0.7-3.3,2.9-2.9,5c0.2,1.2,0.8,1.8,1.8,2.3c0.5-1,1-1.9,1.5-2.9c0.1,0,0.1,0.1,0.2,0.1C566.6,184.6,566.5,185.3,566.4,186z
	 M524.5,117.8c0-0.1,0-0.2,0.1-0.3c-0.2-0.1-0.3-0.3-0.5-0.4c-0.6-0.2-1.3-0.5-2-0.7c-2.2-0.5-4.2-1.4-6.1-2.5c-1-0.6-2-1.3-3-2
	c-0.4-0.2-0.9-0.4-1.4-0.4c-0.6,0-0.8,0.6-0.5,0.9c1.3,1.4,2.7,2.6,4.5,3.3c1.2,0.5,2.5,0.8,3.8,1.1c1.4,0.3,2.8,0.5,4.2,0.8
	C523.9,117.9,524.2,117.8,524.5,117.8z M511.1,72.4c0,0.1,0,0.2,0,0.2c0,2.8,0.1,5.6-0.3,8.3c0,0.1,0.1,0.3,0.2,0.3
	c0.4,0.1,0.8-0.3,0.8-0.7c0-0.8-0.1-1.5-0.1-2.3c0-0.2,0.1-0.4,0.1-0.6c0.2,0.7,0.3,1.4,0.4,2c0.2,0.7,0.8,0.9,1.3,0.3
	c0.7-0.8,1.3-1.7,1.9-2.6c0.3-0.4,0.2-0.7-0.2-0.9C513.7,75.3,512.2,74.2,511.1,72.4z M522.7,120.3c0-0.1,0-0.2,0.1-0.3
	c-0.2-0.1-0.4-0.3-0.7-0.4c-1.2-0.4-2.3-0.7-3.5-1.1c-1.8-0.7-3.5-1.6-5-2.7c-0.5-0.3-1-0.7-1.6-0.9c-0.4-0.2-0.8,0-1,0.3
	c-0.1,0.1,0,0.5,0.1,0.6c1,1.1,2.2,2,3.6,2.7c2.1,1,4.3,1.2,6.5,1.7C521.7,120.2,522.2,120.2,522.7,120.3z M516.4,20.9
	c-0.1,0-0.1-0.1-0.2-0.1c-4.6,6.5-9.1,13.1-13.7,19.6c0,0,0.1,0.1,0.1,0.1c0.2-0.2,0.4-0.3,0.6-0.5c1.5-2,3.1-4,4.6-6.1
	c2.8-3.7,5.5-7.6,7.9-11.6C515.9,21.9,516.2,21.4,516.4,20.9z M510.3,72.6c-0.6,1.5-1.2,2.9-1.8,4.4c-0.5,1.2-0.5,2.5-0.1,4
	c0-0.5,0.1-0.8,0.1-1.1c0,0,0.1,0,0.1,0c0.1,0.5,0.3,1,0.4,1.5c0.1,0,0.1,0,0.2,0c0.1-0.6,0.2-1.3,0.3-1.9c0.1-0.7,0.2-1.3,0.2-2
	c0.1,0,0.1,0,0.2,0c0,1.4,0,2.8,0,4.1c0.1,0,0.2,0,0.2,0C510.3,78.6,510.8,75.6,510.3,72.6z M490.7,81.2c0.6,0.4,1.9,0.3,2.3-0.2
	c0.5-0.6,0.5-0.9,0-1.5c-0.4-0.4-0.8-0.8-1.2-1.2c-1.3-1.1-2.9-0.7-3.4,1c0.5-0.1,0.9-0.2,1.4-0.3c-0.2,0.4-0.4,0.7-0.5,1
	c0,0.1,0.1,0.1,0.1,0.2c0.7-0.1,1.4-0.2,2.3-0.4c-0.4,0.3-0.7,0.5-1,0.8c0.4,0,0.7,0,1.2,0C491.3,80.8,491,81,490.7,81.2z
	 M513.3,31.3c0.1,0.1,0.1,0.1,0.2,0.2c0.1-0.1,0.2-0.2,0.3-0.3c0.9-0.9,1.7-1.9,2.5-2.8c1.7-1.9,3.3-3.7,5-5.6
	c0.4-0.4,0.5-0.8,0.3-1.5c-0.7,0.8-1.2,1.5-1.9,2.3c0.1-0.3,0.1-0.5,0.2-0.7c-0.1,0-0.1,0-0.2-0.1C517.6,25.7,515.4,28.5,513.3,31.3
	z M499.1,80.2c-0.1,0-0.1,0-0.2,0c-0.1,1-0.3,1.9-0.4,2.9c-0.1-0.7-0.1-1.4-0.1-2.1c0-0.2-0.2-0.4-0.3-0.6c-0.2,0.2-0.4,0.3-0.6,0.5
	c0,0,0,0.2,0,0.2c0,0.9,0,1.8,0,2.7c0,0.1,0.1,0.3,0.2,0.4c0.5,0.3,1,0.5,1.6,0.8c0-1.5,0-3,0-4.4C499.3,80.4,499.1,80.3,499.1,80.2
	z M475.4,190.8c0,0,0-0.1,0-0.1c-0.3,0-0.6-0.1-0.9-0.1c-1.7,0-3.3,0-5,0.1c-1.3,0.1-2.6,0.3-3.8,0.3c-0.9,0-1.7-0.4-2-1.3
	c-0.1-0.4-0.1-0.8-0.2-1.3c-0.8,0.9-0.2,2.8,1,2.9c1.1,0.2,2.4,0.3,3.5,0.1c2.3-0.4,4.6-0.8,7-0.6
	C475,190.9,475.2,190.9,475.4,190.8z M492.9,82.1c0.5,0.2,1,0.4,1.4,0.6c0.7,0.3,1.3,0.5,1.8-0.4c0.1,0.2,0.3,0.3,0.4,0.5
	c0-0.5,0-1,0-1.4c0-0.2-0.2-0.4-0.4-0.4c-0.6-0.2-1.3-0.3-1.9-0.4c-0.1,0-0.3,0-0.3,0.1C493.6,81.2,493.3,81.6,492.9,82.1z
	 M481.1,68.7c-0.7,0.7-0.7,0.6-0.1,1.4c0.3,0.4,0.8,0.8,1.2,1.1c0.4,0.4,0.9,0.7,1.4,1c0.1,0.1,0.4,0.1,0.5,0c0.2-0.2,0-1-0.2-1.2
	c-0.7-0.6-1.3-1.1-1.9-1.7C481.7,69.2,481.4,69,481.1,68.7z M572.4,193.7c0,0.1,0,0.2,0,0.2c0.6,0,1.2,0,1.7-0.1
	c1.6-0.4,2.8-1.3,3.8-2.6c0.6-0.8,0.9-1.7,0.6-2.7c-0.2-0.7-0.5-1.4-1.2-1.9c0,0.3,0.2,0.6,0.3,0.8c0.6,1,0.8,2.1,0.1,3.2
	c-0.4,0.5-0.8,1-1.3,1.4C575.2,193.1,573.9,193.8,572.4,193.7z M482.1,190.7c-0.4-0.6-0.9-0.5-1.4-0.5c-0.9,0-1.8,0.1-2.7,0.1
	c-2.3-0.1-4.6-0.3-6.9-0.4c-0.3,0-0.6,0.1-0.9,0.1c0.1,0.1,0.1,0.2,0.1,0.2c0.3,0,0.6,0,0.9-0.1c1.8-0.1,3.5,0.2,5.3,0.4
	c0.6,0.1,1.2,0.2,1.8,0.2C479.5,190.7,480.7,190.7,482.1,190.7z M520.5,17.9c0.7,0.3,1.3,0.9,2.1,0.8c0-0.2,0-0.4-0.1-0.6
	c-0.5-1-2.2-1.7-3.3-1.3c-0.1,0-0.2,0.4-0.1,0.5c0.4,0.4,0.9,0.8,1.4,1.1c0,0,0.1-0.1,0.1-0.1C520.5,18.3,520.5,18.2,520.5,17.9z
	 M525.3,118.7c0.3,0.5,0.6,0.9,0.9,1.3c0.7-0.6,1.2-1.1,1.9-1.7c-0.1-0.3-0.2-0.8-0.7-0.5C526.7,118.1,526.1,118.4,525.3,118.7z
	 M485.8,69.1c-0.5-0.6-1-1-1.4-1.5c-0.4-0.5-0.7-1.1-1-1.6c-0.8,0.5-0.7,1.3,0.1,1.7c0.1,0.1,0.3,0.2,0.3,0.3
	C484.2,68.9,484.7,69.2,485.8,69.1z M482.2,67.4c-0.6,0.6-0.6,0.6-0.1,1.1c0.6,0.5,1.2,1.1,1.8,1.6c0.1,0.1,0.2,0.2,0.4,0.3
	c0.1,0,0.4,0,0.5-0.1c0.1-0.1,0-0.3,0-0.4c-0.1-0.2-0.3-0.3-0.5-0.4C483.5,68.8,482.9,68.1,482.2,67.4z M473.7,184.1
	c-0.3,0.1-0.4,0.1-0.5,0.2c-0.1,0-0.1,0.2,0,0.3c0.4,0.4,0.8,0.9,1.3,1.3c0.3,0.3,0.6,0.3,0.8,0c0.1-0.2,0.2-0.6,0-0.7
	C474.7,184.7,474.1,184.4,473.7,184.1z M535.1,114.3c-0.5,0.2-1,0.4-1.4,0.5c-0.1,0-0.1,0.2-0.1,0.3c0.1,0.7,0.4,0.8,1,0.4
	c0.2-0.2,0.5-0.3,0.7-0.5c0.1-0.1,0.2-0.3,0.2-0.3C535.3,114.6,535.2,114.5,535.1,114.3z M472.1,185.3c0.2,0.3,0.5,0.5,0.6,0.8
	c0.3,0.5,0.7,0.6,1.2,0.3C473.5,185.6,472.7,184.8,472.1,185.3z M539.8,112.3c1-0.7,1-0.9,0.2-1.5
	C539.3,111.6,539.1,111.6,539.8,112.3z M514.2,120.6c-0.8-0.2-0.9,0.1-0.7,1.3c0.2,0.1,0.4,0.1,0.7,0.2
	C514.2,121.5,514.2,121,514.2,120.6z M472,186.8c0-0.1,0.1-0.2,0.1-0.2c-0.3-0.2-0.5-0.5-0.8-0.7c-0.1-0.1-0.4,0-0.5,0.1
	c0.1,0.2,0.1,0.5,0.3,0.6C471.3,186.7,471.7,186.7,472,186.8z"/>
</svg>
