<svg xmlns="http://www.w3.org/2000/svg" width="18" height="18" viewBox="0 0 18 18">
  <metadata><?xpacket begin="﻿" id="W5M0MpCehiHzreSzNTczkc9d"?>
<x:xmpmeta xmlns:x="adobe:ns:meta/" x:xmptk="Adobe XMP Core 5.6-c138 79.159824, 2016/09/14-01:09:01        ">
   <rdf:RDF xmlns:rdf="http://www.w3.org/1999/02/22-rdf-syntax-ns#">
      <rdf:Description rdf:about=""/>
   </rdf:RDF>
</x:xmpmeta>
                                                                                                    
                                                                                                    
                                                                                                    
                                                                                                    
                                                                                                    
                                                                                                    
                                                                                                    
                                                                                                    
                                                                                                    
                                                                                                    
                                                                                                    
                                                                                                    
                                                                                                    
                                                                                                    
                                                                                                    
                                                                                                    
                                                                                                    
                                                                                                    
                                                                                                    
                                                                                                    
                           
<?xpacket end="w"?></metadata>
<defs>
    <style>
      .cls-1 {
        fill: #fff;
        fill-rule: evenodd;
      }
    </style>
  </defs>
  <path id="Close-btn" class="cls-1" d="M1125.78,533l6.11-6.1a0.368,0.368,0,0,0,0-.53l-2.26-2.256a0.363,0.363,0,0,0-.26-0.11,0.386,0.386,0,0,0-.27.11l-6.1,6.1-6.11-6.1a0.385,0.385,0,0,0-.53,0l-2.26,2.256a0.387,0.387,0,0,0,0,.53l6.11,6.1-6.11,6.1a0.388,0.388,0,0,0,0,.531l2.26,2.255a0.386,0.386,0,0,0,.27.11,0.363,0.363,0,0,0,.26-0.11l6.11-6.1,6.1,6.1a0.382,0.382,0,0,0,.27.11,0.359,0.359,0,0,0,.26-0.11l2.26-2.255a0.37,0.37,0,0,0,0-.531Z" transform="translate(-1114 -524)"/>
</svg>
