<?xml version="1.0" encoding="utf-8"?>
<!-- Generator: Adobe Illustrator 19.0.0, SVG Export Plug-In . SVG Version: 6.00 Build 0)  -->
<svg version="1.1" id="Forma_1_1_" xmlns="http://www.w3.org/2000/svg" xmlns:xlink="http://www.w3.org/1999/xlink" x="0px" y="0px"
	 viewBox="0 0 29 29" style="enable-background:new 0 0 29 29;" xml:space="preserve">
<style type="text/css">
	.st0{fill-rule:evenodd;clip-rule:evenodd;fill:#FFFFFF;}
</style>
<g id="Forma_1">
	<g>
		<path class="st0" d="M19.3,14.2l8.4-8.3c1.3-1.3,1.3-3.5,0-4.8c-1.3-1.3-3.5-1.3-4.8,0l-8.4,8.3L6.1,1.1c-1.3-1.3-3.5-1.3-4.8,0
			c-1.3,1.3-1.3,3.5,0,4.8l8.4,8.3l-8.4,8.3c-1.3,1.3-1.3,3.5,0,4.8c0.7,0.7,1.5,1,2.4,1c0.9,0,1.7-0.3,2.4-1l8.4-8.3l8.4,8.3
			c0.7,0.7,1.5,1,2.4,1c0.9,0,1.7-0.3,2.4-1c1.3-1.3,1.3-3.5,0-4.8L19.3,14.2z"/>
	</g>
</g>
</svg>
