<svg id="curve-icon" xmlns="http://www.w3.org/2000/svg" width="41.94" height="42.22" viewBox="0 0 41.94 42.22">
  <metadata><?xpacket begin="﻿" id="W5M0MpCehiHzreSzNTczkc9d"?>
<x:xmpmeta xmlns:x="adobe:ns:meta/" x:xmptk="Adobe XMP Core 5.6-c138 79.159824, 2016/09/14-01:09:01        ">
   <rdf:RDF xmlns:rdf="http://www.w3.org/1999/02/22-rdf-syntax-ns#">
      <rdf:Description rdf:about=""/>
   </rdf:RDF>
</x:xmpmeta>
                                                                                                    
                                                                                                    
                                                                                                    
                                                                                                    
                                                                                                    
                                                                                                    
                                                                                                    
                                                                                                    
                                                                                                    
                                                                                                    
                                                                                                    
                                                                                                    
                                                                                                    
                                                                                                    
                                                                                                    
                                                                                                    
                                                                                                    
                                                                                                    
                                                                                                    
                                                                                                    
                           
<?xpacket end="w"?></metadata>
<defs>
    <style>
      .cls-1 {
        fill: #004833;
        opacity: 0.5;
      }

      .cls-1, .cls-2 {
        fill-rule: evenodd;
      }

      .cls-2 {
        fill: #fff;
      }
    </style>
  </defs>
  <path id="Base_2" data-name="Base 2" class="cls-1" d="M1252.04,1056.29a19.261,19.261,0,0,1,13.87,5.45,21.476,21.476,0,0,1,7.06,15.72,21.211,21.211,0,0,1-7.06,15.85,19.913,19.913,0,0,1-14,5.19c-6.65,0-11.74-3.08-15.71-7.81a21.046,21.046,0,0,1-5.18-13.64,21.565,21.565,0,0,1,9.2-17.68C1243.73,1056.9,1247.42,1056.29,1252.04,1056.29Z" transform="translate(-1231.03 -1056.28)"/>
  <path class="cls-2" d="M1245.85,1071.39c5.07-1.39,9.52,1.2,11.59,6.2a10.632,10.632,0,0,1-1.24,10.37l2.41,1.04a12.441,12.441,0,0,0,1.45-12.08c-2.17-5.26-8.55-9.23-13.92-8.57m-3.64-.6a1.75,1.75,0,1,1-1.75,1.75A1.746,1.746,0,0,1,1242.5,1067.75Z" transform="translate(-1231.03 -1056.28)"/>
</svg>
