<svg 
 xmlns="http://www.w3.org/2000/svg"
 xmlns:xlink="http://www.w3.org/1999/xlink"
 width="43px" height="43px">
<defs>
<linearGradient id="PSgrad_0" x1="0%" x2="100%" y1="0%" y2="0%">
  <stop offset="0%" stop-color="rgb(246,116,5)" stop-opacity="1" />
  <stop offset="27%" stop-color="rgb(242,99,3)" stop-opacity="1" />
  <stop offset="100%" stop-color="rgb(238,81,0)" stop-opacity="1" />
</linearGradient>
<linearGradient id="PSgrad_1" x1="0%" x2="100%" y1="0%" y2="0%">
  <stop offset="0%" stop-color="rgb(253,202,159)" stop-opacity="1" />
  <stop offset="27%" stop-color="rgb(254,183,125)" stop-opacity="1" />
  <stop offset="100%" stop-color="rgb(255,163,90)" stop-opacity="1" />
</linearGradient>
<linearGradient id="PSgrad_2" x1="0%" x2="0%" y1="100%" y2="0%">
  <stop offset="0%" stop-color="rgb(139,47,3)" stop-opacity="1" />
  <stop offset="4%" stop-color="rgb(189,66,2)" stop-opacity="1" />
  <stop offset="25%" stop-color="rgb(239,84,1)" stop-opacity="1" />
  <stop offset="56%" stop-color="rgb(244,97,1)" stop-opacity="1" />
  <stop offset="68%" stop-color="rgb(246,104,2)" stop-opacity="1" />
  <stop offset="100%" stop-color="rgb(248,110,3)" stop-opacity="1" />
</linearGradient>

</defs>
<path fill-rule="evenodd"  fill="rgb(25, 111, 56)"
 d="M21.500,0.500 C33.098,0.500 42.500,9.902 42.500,21.500 C42.500,33.098 33.098,42.500 21.500,42.500 C9.902,42.500 0.500,33.098 0.500,21.500 C0.500,9.902 9.902,0.500 21.500,0.500 Z"/>
<path fill-rule="evenodd"  fill="rgb(172, 58, 0)"
 d="M15.441,26.486 C15.441,26.486 11.364,27.518 11.289,28.278 L11.289,29.417 C11.289,29.417 11.154,29.824 11.859,30.395 L18.291,35.768 C18.291,35.768 19.422,36.523 21.955,35.768 L32.784,31.453 C32.784,31.453 34.006,30.838 32.865,29.173 L27.980,25.998 L22.199,8.411 C22.199,8.411 21.869,7.194 20.896,7.353 C20.896,7.353 19.939,7.195 19.594,8.574 L15.441,26.486 Z"/>
<path fill-rule="evenodd"  fill="rgb(199, 67, 0)"
 d="M15.523,26.568 L11.940,27.789 C11.940,27.789 10.866,28.426 11.777,29.255 L18.291,34.710 C18.291,34.710 19.601,35.528 21.873,34.791 L32.946,30.150 C32.946,30.150 33.521,29.774 32.702,29.092 L27.898,25.998 L18.047,27.626 L15.523,26.568 Z"/>
<path fill="url(#PSgrad_0)"
 d="M15.523,26.568 L11.940,27.789 C11.940,27.789 10.866,28.426 11.777,29.255 L18.291,34.710 C18.291,34.710 19.601,35.528 21.873,34.791 L32.946,30.150 C32.946,30.150 33.521,29.774 32.702,29.092 L27.898,25.998 L18.047,27.626 L15.523,26.568 Z"/>
<path fill-rule="evenodd"  fill="rgb(243, 132, 84)"
 d="M31.155,28.196 C31.155,28.196 32.510,29.258 30.422,31.046 C30.422,31.046 32.858,30.510 32.946,29.662 C32.946,29.662 33.006,29.061 31.155,28.196 Z"/>
<path fill-rule="evenodd"  fill="rgb(243, 132, 84)"
 d="M15.441,26.649 L12.347,27.708 C12.347,27.708 10.899,28.097 12.103,29.336 L15.930,32.593 C15.930,32.593 12.677,28.793 15.441,26.649 Z"/>
<path fill="url(#PSgrad_1)"
 d="M15.441,26.649 L12.347,27.708 C12.347,27.708 10.899,28.097 12.103,29.336 L15.930,32.593 C15.930,32.593 12.677,28.793 15.441,26.649 Z"/>
<path fill-rule="evenodd"  fill="rgb(212, 71, 0)"
 d="M28.463,28.591 C28.463,28.591 28.786,31.793 24.172,32.407 C24.172,32.407 15.735,33.749 15.034,29.227 L19.643,9.038 C19.643,9.038 19.915,7.445 20.835,7.607 C20.835,7.607 21.977,7.487 22.265,9.038 L28.463,28.591 Z"/>
<path fill-rule="evenodd"  fill="rgb(115, 184, 3)"
 d="M15.278,29.255 C15.278,29.255 15.575,32.345 21.792,32.349 C21.792,32.349 27.716,32.503 28.305,28.685 L22.036,8.737 C22.036,8.737 21.679,7.604 20.652,7.760 C20.652,7.760 20.056,8.008 19.756,9.225 L15.278,29.255 Z"/>
<path fill="url(#PSgrad_2)"
 d="M15.278,29.255 C15.278,29.255 15.575,32.345 21.792,32.349 C21.792,32.349 27.716,32.503 28.305,28.685 L22.036,8.737 C22.036,8.737 21.679,7.604 20.652,7.760 C20.652,7.760 20.056,8.008 19.756,9.225 L15.278,29.255 Z"/>
<path fill-rule="evenodd"  fill="rgb(219, 218, 216)"
 d="M15.604,27.056 C15.604,27.056 17.713,30.115 23.909,29.010 C23.909,29.010 26.901,28.473 27.736,26.568 L26.514,22.578 C26.514,22.578 21.517,26.705 16.581,22.660 L15.604,27.056 Z"/>
<path fill-rule="evenodd"  fill="rgb(227, 225, 226)"
 d="M17.558,18.507 C17.558,18.507 18.518,20.020 22.606,19.484 C22.606,19.484 24.808,19.096 25.212,18.263 L23.909,14.273 C23.909,14.273 20.943,15.918 18.454,14.436 L17.558,18.507 Z"/>
<path fill-rule="evenodd"  opacity="0.502" fill="rgb(255, 255, 255)"
 d="M19.756,8.655 L15.115,29.255 C15.115,29.255 15.359,30.316 16.500,30.964 L20.082,8.737 C20.082,8.737 20.175,8.182 20.652,7.923 C20.652,7.923 20.238,7.692 19.756,8.655 Z"/>
<path fill-rule="evenodd"  opacity="0.502" fill="rgb(255, 255, 255)"
 d="M21.303,7.841 C21.303,7.841 26.301,22.622 26.921,27.870 C26.921,27.870 27.636,30.035 26.189,31.372 C26.189,31.372 28.050,30.604 28.387,28.685 L22.118,8.900 C22.118,8.900 22.131,8.218 21.303,7.841 Z"/>
</svg>