<svg xmlns="http://www.w3.org/2000/svg" width="41.938" height="42.22" viewBox="0 0 41.938 42.22">
  <metadata><?xpacket begin="﻿" id="W5M0MpCehiHzreSzNTczkc9d"?>
<x:xmpmeta xmlns:x="adobe:ns:meta/" x:xmptk="Adobe XMP Core 5.6-c138 79.159824, 2016/09/14-01:09:01        ">
   <rdf:RDF xmlns:rdf="http://www.w3.org/1999/02/22-rdf-syntax-ns#">
      <rdf:Description rdf:about=""/>
   </rdf:RDF>
</x:xmpmeta>
                                                                                                    
                                                                                                    
                                                                                                    
                                                                                                    
                                                                                                    
                                                                                                    
                                                                                                    
                                                                                                    
                                                                                                    
                                                                                                    
                                                                                                    
                                                                                                    
                                                                                                    
                                                                                                    
                                                                                                    
                                                                                                    
                                                                                                    
                                                                                                    
                                                                                                    
                                                                                                    
                           
<?xpacket end="w"?></metadata>
<defs>
    <style>
      .cls-1 {
        fill: #0e4c40;
      }

      .cls-1, .cls-2 {
        fill-rule: evenodd;
      }

      .cls-2 {
        fill: #fff;
      }

      .cls-3 {
        fill: #43a03e;
      }
    </style>
  </defs>
  <path id="Base_2_copy_5" data-name="Base 2 copy 5" class="cls-1" d="M838.038,1217.29a19.249,19.249,0,0,1,13.867,5.45,21.467,21.467,0,0,1,7.07,15.72,21.2,21.2,0,0,1-7.066,15.85,19.9,19.9,0,0,1-13.994,5.19c-6.652,0-11.749-3.08-15.711-7.81a21.025,21.025,0,0,1-5.18-13.64,21.558,21.558,0,0,1,9.2-17.68C829.729,1217.9,833.422,1217.29,838.038,1217.29Z" transform="translate(-817.031 -1217.28)"/>
  <g id="pp_" data-name="pp ">
    <path id="Shape_1_copy" data-name="Shape 1 copy" class="cls-2" d="M822.714,1229.2l1.8,19.73,4.536-.43-0.54-6.01s8.728-.58,7.74-8.17C836.25,1234.32,835.935,1226.16,822.714,1229.2Zm4.9,3.46,0.5,5.8s3.834,0.1,3.564-3.53C831.678,1234.93,831.357,1232.08,827.61,1232.66Zm9.4-4.79,1.8,19.73,4.536-.43-0.54-6.01s8.728-.58,7.74-8.18C850.542,1232.98,850.227,1224.83,837.006,1227.87Zm4.9,3.46,0.5,5.79s3.834,0.11,3.564-3.52C845.97,1233.6,845.649,1230.75,841.9,1231.33Z" transform="translate(-817.031 -1217.28)"/>
    <circle class="cls-3" cx="34.516" cy="27.295" r="2.734"/>
  </g>
</svg>
