<?xml version="1.0" encoding="utf-8"?>
<!-- Generator: Adobe Illustrator 19.0.0, SVG Export Plug-In . SVG Version: 6.00 Build 0)  -->
<svg version="1.1" id="Layer_1" xmlns="http://www.w3.org/2000/svg" xmlns:xlink="http://www.w3.org/1999/xlink" x="0px" y="0px"
	 viewBox="0 0 60 60" style="enable-background:new 0 0 60 60;" xml:space="preserve">
<style type="text/css">
	.st0{opacity:0.5;}
	.st1{fill:#7BC074;}
	.st2{fill:#FE7200;stroke:#FFFFFF;stroke-width:2;stroke-miterlimit:10;}
	.st3{fill:url(#XMLID_10_);}
	.st4{fill:#FFF331;}
	.st5{enable-background:new    ;}
	.st6{fill:#FFFFFF;}
</style>
<g id="Shape_4_2_" class="st0">
	<g id="XMLID_14_">
		<path id="XMLID_15_" class="st1" d="M47,55.1c0,0-1.6-8-10.9-7.2c0,0-0.1,1.6-2.2,1.5c0,0-15-2.1-23.9,4.3c0,0,4.9,4.6,17.8,4.1
			c0,0,8.5,1.1,11.2,1.7C39,59.5,48.5,59.6,47,55.1z"/>
	</g>
</g>
<path id="XMLID_13_" class="st2" d="M51.6,29.3l-4.6,5.6c0,0-5.8-7.4-9.8-26.2l-2.6,4.6l-2.6-9.7c0,0-11.4,11.9-10.3,23.6
	c0,0-3.1-1.8-3.6-6.7c0,0-4.2,6.4-2.6,19l-6.2-2c0,0,10.8,21.4,26.2,17C35.7,54.4,52.4,47.7,51.6,29.3z"/>
<linearGradient id="XMLID_10_" gradientUnits="userSpaceOnUse" x1="16.9172" y1="33.4657" x2="49.5497" y2="33.4657">
	<stop  offset="0" style="stop-color:#FFFFFF;stop-opacity:0"/>
	<stop  offset="0.4877" style="stop-color:#FC8918"/>
</linearGradient>
<path id="XMLID_2_" class="st3" d="M49.5,33.4l-3.5,4c0,0-4.5-5.4-7.6-18.9l-2,3.3l-2-7c0,0-8.8,8.6-7.9,17c0,0-2.4-1.3-2.8-4.8
	c0,0-3.3,4.6-2,13.7l-4.8-1.5c0,0,8.4,15.4,20.3,12.3C37.2,51.6,50.1,46.8,49.5,33.4z"/>
<g id="Layer_2">
</g>
<g id="Shape_3_2_">
	<g id="XMLID_8_">
		<path id="XMLID_9_" class="st4" d="M39.3,32.1l-2.8,4.7c0,0-3.8-9-2.8-13.1c0,0-3.9,2.7-4.2,7l-4.2-5.1c0,0-3.5,6.3-0.9,15
			L20,37.2c0,0,0.1,7.8,8,11.7c0,0,8.5,2.6,12.2-8.4L35,43.8C35,43.8,43.3,38.5,39.3,32.1z"/>
	</g>
</g>
<g id="Shape_4_copy_2_1_" class="st5">
	<g id="Shape_4_copy_2_4_">
		<g id="XMLID_3_">
			<path id="XMLID_4_" class="st6" d="M46.7,19l-1.4,2.3l2.8,2.8l1.4-3.3L46.7,19z M9.3,29.3l2.8,2.8l1.4-3.3l-2.8-1.8L9.3,29.3z
				 M12.6,20.4l-2.8-1.8l-1.4,2.3l2.8,2.8L12.6,20.4z"/>
		</g>
	</g>
</g>
</svg>
