<?xml version="1.0" encoding="UTF-8"?>
<svg width="98px" height="24px" viewBox="0 0 98 24" version="1.1" xmlns="http://www.w3.org/2000/svg" xmlns:xlink="http://www.w3.org/1999/xlink">
    <!-- Generator: Sketch 61.2 (89653) - https://sketch.com -->
    <title>GC</title>
    <desc>Created with Sketch.</desc>
    <g id="Betfair-Footer-" stroke="none" stroke-width="1" fill="none" fill-rule="evenodd">
        <g id="2.1---Footer---Mini---RG---Revised" transform="translate(-146.000000, -260.000000)">
            <g id="Licencing" transform="translate(12.000000, 224.000000)">
                <g id="Logo/Common/Gambling-Commission" transform="translate(134.000000, 36.000000)">
                    <g id="logo-gambling-commission">
                        <path d="M77.5443655,1.9805 C76.6598782,1.5915 75.7564873,1.397 74.8341929,1.397 C73.6487411,1.397 72.4319492,1.874 71.7777868,2.529 C71.1236244,3.184 70.7967919,4.2455 70.7967919,5.413 C70.7967919,6.5615 71.2703756,7.6325 71.9195635,8.325 C72.5309442,8.971 73.460203,9.2935 74.4108528,9.2935 C74.8998579,9.2935 75.7644467,9.2505 76.1126701,9.165 C76.1410254,8.0545 76.1549543,7.5185 76.1549543,7.556 C76.1549543,6.9295 76.1410254,6.384 76.1126701,5.919 L78.0731675,5.919 C78.0164569,6.944 77.988599,7.5015 77.988599,7.8905 C77.988599,8.593 78.0164569,9.3715 78.0731675,10.2255 C76.9344772,10.615 75.7186802,10.8095 74.1287919,10.8095 C72.5946193,10.8095 71.4449848,10.209 70.3819086,9.307 C69.2621218,8.348 68.8507208,7.264 68.8507208,5.7545 C68.8507208,4.046 69.2760508,2.66 70.4241929,1.597 C71.5718376,0.534 72.905533,0.002 74.721269,0.002 C75.9350761,0.002 77.0643147,0.2065 78.1089848,0.6145 L77.5443655,1.9805 Z M65.1859188,10.653 C63.3035228,7.511 61.100264,4.634 59.7645787,2.6215 C59.7645787,5.6685 59.8018883,8.5455 59.8775025,10.653 L58.1353909,10.653 C58.2105076,8.935 58.2483147,7.2495 58.2483147,5.598 C58.2483147,3.576 58.2105076,1.7725 58.1353909,0.187 L60.2371675,0.187 C61.7613909,2.4085 63.9999695,5.3575 65.4679797,7.835 C65.4679797,5.044 65.4256954,2.095 65.3411269,0.187 L67.0971675,0.187 C67.0215533,1.7725 66.9842437,3.576 66.9842437,5.598 C66.9842437,7.2495 67.0215533,8.935 67.0971675,10.653 L65.1859188,10.653 Z M53.9293503,10.653 C54.004467,8.935 54.1910152,7.2495 54.1910152,5.598 C54.1910152,3.576 54.004467,1.7725 53.9293503,0.187 L56.0385888,0.187 C55.9724264,1.801 55.9395939,3.6045 55.9395939,5.598 C55.9395939,7.1645 55.9724264,8.8495 56.0385888,10.653 L53.9293503,10.653 Z M52.7289746,9.1585 L52.2708122,10.653 L46.1808832,10.653 C46.256,8.935 46.2938071,7.2495 46.2938071,5.598 C46.2938071,3.576 46.256,1.7725 46.1808832,0.187 L48.1413807,0.187 C48.0752183,1.801 48.0423858,3.6045 48.0423858,5.598 C48.0423858,7.0695 48.0518376,8.489 48.0707411,9.258 C49.933736,9.258 51.684802,9.225 52.7289746,9.1585 Z M44.4228528,7.5485 C44.4228528,9.6185 42.8468934,10.653 40.239198,10.653 L36.7529848,10.653 C36.8281015,8.935 36.8659086,7.2495 36.8659086,5.598 C36.8659086,3.576 36.8281015,1.7725 36.7529848,0.187 L40.2814822,0.187 C41.5704061,0.187 42.2847614,0.4055 43.0190152,0.842 C43.7527716,1.279 44.1198985,1.91 44.1198985,2.736 C44.1198985,3.2675 43.9030051,3.752 43.4702132,4.1885 C43.0374213,4.625 42.6091066,4.8195 42.2006904,5 C43.0289645,5.171 43.2349137,5.482 43.7099898,5.9325 C44.185066,6.3835 44.4228528,6.922 44.4228528,7.5485 Z M39.9004264,1.539 L38.7771574,1.539 C38.748802,2.1185 38.7348731,3.2865 38.7348731,4.4445 C38.8572487,4.454 39.0875736,4.459 39.4263452,4.459 C40.1979086,4.459 41.2012893,4.3545 41.5445381,4.1455 C41.8877868,3.937 42.0599086,3.2955 42.0599086,2.8205 C42.0599086,1.9665 41.3400812,1.539 39.9004264,1.539 Z M39.4686294,5.7965 L38.7348731,5.7965 C38.7348731,6.784 38.7537766,8.197 38.7910863,9.1365 C38.9229137,9.1465 39.167665,9.151 39.5253401,9.151 C40.4376853,9.151 41.532599,9.023 41.9186294,8.7665 C42.2668528,8.5385 42.5892081,8.0185 42.5892081,7.506 C42.5892081,6.5665 41.1530355,5.7965 39.4686294,5.7965 Z M32.744934,2.4505 C31.4649645,5.64 29.9014416,8.574 29.242802,10.653 L27.6215736,10.653 C26.8495127,7.9665 25.4959188,5.1825 24.4517462,2.6005 C24.1880914,5.486 23.9950761,8.1205 23.873198,10.503 L22.2156548,10.653 C22.6862538,7.074 22.9827411,3.5855 23.1051168,0.187 L25.5093503,0.337 C26.7137056,3.4225 28.0767513,6.216 28.707533,8.418 C29.563665,5.6555 31.1222132,2.7125 32.1952386,0.187 L34.3099492,0.187 C34.319401,3.282 34.502467,6.7705 34.8601421,10.653 L32.9707817,10.653 C32.9424264,7.454 32.8668122,4.52 32.744934,2.4505 Z M17.9673299,7.697 L13.6901523,7.697 C13.4737563,8.295 12.8569036,9.58 12.4335635,10.653 L10.7128426,10.653 C12.3126802,7.169 13.8130254,3.652 15.2153706,0.102 L17.2186497,0.102 C18.3667919,3.4435 19.7591878,6.9605 21.396335,10.653 L19.1114924,10.653 C18.7727208,9.7225 18.1931777,8.4375 17.9673299,7.697 Z M15.927736,2.0805 C15.3725685,3.6655 14.7253706,5.1775 14.2831269,6.3165 L17.5798071,6.3165 L15.927736,2.0805 Z M6.4928731,1.397 C5.30742132,1.397 4.09013198,1.874 3.43646701,2.529 C2.78230457,3.184 2.45547208,4.2455 2.45547208,5.413 C2.45547208,6.5615 2.92855838,7.6325 3.57824365,8.325 C4.18962437,8.971 5.11888325,9.2935 6.06953299,9.2935 C6.55853807,9.2935 7.4231269,9.2505 7.77135025,9.165 C7.79970558,8.0545 7.81363452,7.5185 7.81363452,7.556 C7.81363452,6.9295 7.79970558,6.384 7.77135025,5.919 L9.73184772,5.919 C9.67513706,6.944 9.64727919,7.5015 9.64727919,7.8905 C9.64727919,8.593 9.67513706,9.3715 9.73184772,10.2255 C8.59315736,10.615 7.37736041,10.8095 5.78747208,10.8095 C4.25329949,10.8095 3.10366497,10.209 2.04058883,9.307 C0.920304569,8.348 0.509401015,7.264 0.509401015,5.7545 C0.509401015,4.046 0.934730964,2.66 2.0828731,1.597 C3.23051777,0.534 4.56371574,0.002 6.37994924,0.002 C7.59375635,0.002 8.72299492,0.2065 9.76716751,0.6145 L9.20304569,1.9805 C8.31806091,1.5915 7.41516751,1.397 6.4928731,1.397 Z" id="Shape" fill="#A6ACB2"></path>
                        <path d="M97.9995025,23.6925 L96.0877563,23.6925 C94.2058579,20.5505 92.002599,17.6735 90.6669137,15.661 C90.6669137,18.7085 90.7042234,21.5855 90.7793401,23.6925 L89.0377259,23.6925 C89.1128426,21.9745 89.1506497,20.2895 89.1506497,18.638 C89.1506497,16.616 89.1128426,14.8125 89.0377259,13.227 L91.1390051,13.227 C92.6632284,15.4485 94.9023046,18.3975 96.3703147,20.875 C96.3703147,18.084 96.3280305,15.135 96.2429645,13.227 L97.9995025,13.227 C97.9238883,14.8125 97.8860812,16.616 97.8860812,18.638 C97.8860812,20.2895 97.9238883,21.9745 97.9995025,23.6925 Z M81.8508934,23.999 C80.1291777,23.999 78.753198,23.515 77.7224569,22.547 C76.6922132,21.5785 76.3255838,20.316 76.3255838,18.759 C76.3255838,17.155 76.7066396,15.826 77.7652386,14.7725 C78.8238376,13.7185 80.1853909,13.192 81.8508934,13.192 C83.5636548,13.192 84.9371472,13.683 85.9723655,14.6655 C87.0070863,15.648 87.376203,16.9225 87.376203,18.4885 C87.376203,20.074 86.9931574,21.3885 85.9300812,22.433 C84.8665076,23.477 83.5069442,23.999 81.8508934,23.999 Z M84.3357157,15.6545 C83.79,14.9425 82.763736,14.4365 81.8508934,14.4365 C80.9007411,14.4365 79.8600508,14.9425 79.3237868,15.6545 C78.8248325,16.3285 78.5761015,17.511 78.5761015,18.6025 C78.5761015,19.685 78.9830254,20.713 79.5008832,21.3865 C80.0371472,22.0985 80.9196447,22.4545 81.8508934,22.4545 C82.7915939,22.4545 83.8228325,22.1035 84.3501421,21.401 C84.8580508,20.7365 85.2604975,19.704 85.2604975,18.6025 C85.2604975,17.511 84.8530761,16.3285 84.3357157,15.6545 Z M72.6488426,23.6925 C72.7244569,21.9745 72.9105076,20.2895 72.9105076,18.638 C72.9105076,16.616 72.7244569,14.8125 72.6488426,13.227 L74.7580812,13.227 C74.6919188,14.841 74.6590863,16.6445 74.6590863,18.638 C74.6590863,20.204 74.6919188,21.889 74.7580812,23.6925 L72.6488426,23.6925 Z M67.7269543,17.378 L68.6019898,17.7485 C70.1640203,18.413 71.0937766,19.4475 71.0937766,20.8525 C71.0937766,21.773 70.5570152,22.528 69.7804772,23.1165 C69.0044365,23.705 68.0423452,23.8495 66.894203,23.8495 C65.464,23.8495 64.7431777,23.6355 63.8397868,23.2085 L64.418335,21.8565 C65.3122741,22.2745 65.7326294,22.5375 66.7389949,22.633 C67.2916751,22.685 67.9483249,22.615 68.2632183,22.4355 C68.7104365,22.1815 69.2039188,21.832 69.2039188,21.18 C69.2039188,20.509 68.6472589,20.132 68.4263858,19.9045 C68.2050152,19.6765 67.5011066,19.2895 66.9086294,19.0425 L65.8216751,18.587 C64.7287513,18.1205 64.150203,17.044 64.150203,16.089 C64.150203,15.254 64.424802,14.5925 65.1307005,13.939 C65.8465482,13.2765 66.5365279,13.042 67.6846701,13.042 C68.8606701,13.042 69.867533,13.3535 70.7052589,13.676 L70.2610254,15.028 C69.5740305,14.7145 68.6587005,14.408 67.8115228,14.408 C67.2941624,14.408 66.7454619,14.8075 66.463401,15.007 C66.1813401,15.2065 66.0400609,15.608 66.0400609,15.9115 C66.0400609,16.2155 66.2922741,16.4715 66.4992183,16.6805 C66.7061624,16.8895 67.1150761,17.122 67.7269543,17.378 Z M59.1099188,17.378 L59.9849543,17.7485 C61.5469848,18.413 62.4767411,19.4475 62.4767411,20.8525 C62.4767411,21.773 61.9399797,22.528 61.1634416,23.1165 C60.387401,23.705 59.4253096,23.8495 58.2771675,23.8495 C56.8469645,23.8495 56.1261421,23.6355 55.2227513,23.2085 L55.8012995,21.8565 C56.6952386,22.2745 57.1160914,22.5375 58.1219594,22.633 C58.6746396,22.685 59.3312893,22.615 59.6461827,22.4355 C60.093401,22.1815 60.5868832,21.832 60.5868832,21.18 C60.5868832,20.509 60.0302234,20.132 59.8093503,19.9045 C59.5884772,19.6765 58.8840711,19.2895 58.2915939,19.0425 L57.2046396,18.587 C56.1117157,18.1205 55.5331675,17.044 55.5331675,16.089 C55.5331675,15.254 55.8077665,14.5925 56.513665,13.939 C57.2295127,13.2765 57.9194924,13.042 59.0676345,13.042 C60.2436345,13.042 61.2504975,13.3535 62.0882234,13.676 L61.6439898,15.028 C60.9569949,14.7145 60.041665,14.408 59.1944873,14.408 C58.6771269,14.408 58.1289239,14.8075 57.8463655,15.007 C57.5643046,15.2065 57.4230254,15.608 57.4230254,15.9115 C57.4230254,16.2155 57.6752386,16.4715 57.8821827,16.6805 C58.0891269,16.8895 58.4985381,17.122 59.1099188,17.378 Z M51.5524772,23.6925 C51.6275939,21.9745 51.8136447,20.2895 51.8136447,18.638 C51.8136447,16.616 51.6275939,14.8125 51.5524772,13.227 L53.6612183,13.227 C53.5955533,14.841 53.5627208,16.6445 53.5627208,18.638 C53.5627208,20.204 53.5955533,21.889 53.6612183,23.6925 L51.5524772,23.6925 Z M47.6016345,15.4905 C46.321665,18.68 44.7581421,21.6135 44.1,23.6925 L42.4782741,23.6925 C41.7067107,21.0065 40.3531168,18.2225 39.3084467,15.64 C39.0447919,18.526 38.8517766,21.16 38.7298985,23.5425 L37.0723553,23.6925 C37.5429543,20.114 37.8394416,16.6255 37.9618173,13.227 L40.3660508,13.377 C41.5704061,16.462 42.9339492,19.2555 43.5642335,21.458 C44.4203655,18.6955 45.9794112,15.752 47.0519391,13.227 L49.1666497,13.227 C49.1761015,16.322 49.359665,19.8105 49.7173401,23.6925 L47.8274822,23.6925 C47.7991269,20.494 47.7235127,17.56 47.6016345,15.4905 Z M33.1906599,15.4905 C31.9106904,18.68 30.3471675,21.6135 29.6885279,23.6925 L28.0672995,23.6925 C27.2952386,21.0065 25.9416447,18.2225 24.8974721,15.64 C24.6338173,18.526 24.440802,21.16 24.3189239,23.5425 L22.6613807,23.6925 C23.1319797,20.114 23.428467,16.6255 23.5508426,13.227 L25.9550761,13.377 C27.1594315,16.462 28.5224772,19.2555 29.1532589,21.458 C30.0093909,18.6955 31.5679391,15.752 32.6409645,13.227 L34.7556751,13.227 C34.7651269,16.322 34.9481929,19.8105 35.305868,23.6925 L33.4165076,23.6925 C33.3881523,20.494 33.3125381,17.56 33.1906599,15.4905 Z M15.738203,23.999 C14.0164873,23.999 12.6400102,23.515 11.6097665,22.547 C10.5795228,21.5785 10.2128934,20.316 10.2128934,18.759 C10.2128934,17.155 10.5934518,15.826 11.6520508,14.7725 C12.7106497,13.7185 14.0727005,13.192 15.738203,13.192 C17.450467,13.192 18.8244569,13.683 19.8596751,14.6655 C20.8943959,15.648 21.2635127,16.9225 21.2635127,18.4885 C21.2635127,20.074 20.880467,21.3885 19.8168934,22.433 C18.7538173,23.477 17.3942538,23.999 15.738203,23.999 Z M18.2230254,15.6545 C17.6773096,14.9425 16.6505482,14.4365 15.738203,14.4365 C14.7875533,14.4365 13.7473604,14.9425 13.2110964,15.6545 C12.7121421,16.3285 12.4629137,17.511 12.4629137,18.6025 C12.4629137,19.685 12.870335,20.713 13.3876954,21.3865 C13.9239594,22.0985 14.8064569,22.4545 15.738203,22.4545 C16.6789036,22.4545 17.7101421,22.1035 18.2369543,21.401 C18.7453604,20.7365 19.1478071,19.704 19.1478071,18.6025 C19.1478071,17.511 18.7403858,16.3285 18.2230254,15.6545 Z M6.31030457,22.4545 C7.22264975,22.4545 8.05540102,22.072 8.80855838,21.607 L9.4433198,23.202 C8.41805076,23.7335 7.26493401,23.999 5.98546193,23.999 C4.3955736,23.999 3.08277157,23.5295 2.0475533,22.5895 C1.01283249,21.6495 0.495472081,20.43 0.495472081,18.93 C0.495472081,17.2215 1.05511675,15.831 2.17490355,14.758 C3.26633503,13.714 4.63982741,13.192 6.29587817,13.192 C7.37785787,13.192 8.40810152,13.382 9.3871066,13.7615 L8.83641624,14.992 C8.03649746,14.6215 7.23707614,14.4365 6.43715736,14.4365 C5.38353299,14.4365 4.2557868,14.762 3.64888325,15.412 C3.0419797,16.0625 2.44154315,17.4255 2.44154315,18.6025 C2.44154315,19.7415 3.06337056,20.953 3.71255838,21.636 C4.32393909,22.282 5.38801015,22.4545 6.31030457,22.4545 Z" id="Shape" fill="#63676B"></path>
                    </g>
                </g>
            </g>
        </g>
    </g>
</svg>