<?xml version="1.0" encoding="utf-8"?>
<!-- Generator: Adobe Illustrator 19.0.0, SVG Export Plug-In . SVG Version: 6.00 Build 0)  -->
<svg version="1.1" id="Layer_1" xmlns="http://www.w3.org/2000/svg" xmlns:xlink="http://www.w3.org/1999/xlink" x="0px" y="0px"
	 viewBox="-222 373 167 48" style="enable-background:new -222 373 167 48;" xml:space="preserve">
<style type="text/css">
	.st0{fill:#2E008B;}
</style>
<title>gamcare-desktop</title>
<desc>Created with Sketch.</desc>
<g id="Symbols">
	<g id="Logo-_x2F_-Common-_x2F_--Gamcare-_x2F_-Long">
		<g id="gamcare-desktop">
			<path id="Shape" class="st0" d="M-158.9,391.3c0.1,0.4,0,0.7-0.4,0.8l-3.2,0.9c-0.4,0.1-0.6,0-0.7-0.4c-0.5-1.6-1.6-2.5-3.5-2.5
				c-3,0-4,1.8-4,4.2v5.5c0,2.4,1,4.2,4,4.2c2.5,0,3.8-1.1,3.8-3.7v-0.7h-3.3c-0.3,0-0.4-0.1-0.4-0.5v-3c0-0.1,0-0.2,0.1-0.3
				s0.2-0.1,0.3-0.1h7.2c0.3,0,0.5,0.1,0.5,0.4v4.5c0,4.3-3.2,7.6-8.1,7.6c-5.9,0-8.6-3.5-8.6-8.2v-5.8c0-4.8,2.7-8.2,8.6-8.2
				C-161.9,385.9-159.8,388.6-158.9,391.3L-158.9,391.3z M-142.8,396.8v10.6c0,0.1,0,0.2-0.1,0.3s-0.2,0.1-0.3,0.1h-3.2
				c-0.1,0-0.2,0-0.3-0.1c-0.1-0.1-0.1-0.2-0.1-0.3v-1.7c-0.9,1.6-2.6,2.5-4.5,2.5c-3.1,0-5-2-5-5c0-2.9,1.9-4.7,6.4-5
				c1-0.1,2-0.1,2.9,0V397c0-1.6-0.8-2.2-2.2-2.2c-1.4,0-1.9,0.6-2.2,1.5c-0.1,0.4-0.3,0.4-0.6,0.3l-3.2-0.8
				c-0.3-0.1-0.4-0.3-0.3-0.5c0.4-2.3,2.7-4,6.5-4C-145.1,391.2-142.8,393.1-142.8,396.8L-142.8,396.8z M-147.1,402.3v-1.5
				c-0.9,0-1.7,0-2.6,0.1c-1.6,0.2-2.5,0.7-2.5,2c0,1.1,0.8,1.8,2,1.8C-148.8,404.6-147.6,403.8-147.1,402.3L-147.1,402.3z
				 M-131.1,391.2c2.1,0,3.4,1.2,4,2.9c1.2-1.8,2.7-2.9,4.7-2.9c2.9,0,4.5,2.3,4.5,5.7v10.6c0,0.3-0.2,0.4-0.5,0.4h-3.4
				c-0.3,0-0.5-0.2-0.5-0.4v-9.8c0-1.5-0.6-2.4-1.8-2.4s-2.1,1-2.5,2.5v9.6c0,0.1,0,0.2-0.1,0.3c-0.1,0.1-0.2,0.1-0.3,0.1h-3.7
				c-0.3,0-0.4-0.2-0.4-0.4v-9.8c0-1.5-0.7-2.4-1.8-2.4c-1.2,0-2.1,1.1-2.5,2.6v9.6c0,0.1,0,0.2-0.1,0.3s-0.2,0.1-0.3,0.1h-3.6
				c-0.1,0-0.2,0-0.3-0.1c-0.1-0.1-0.1-0.2-0.1-0.3v-15.5c0-0.1,0-0.2,0.1-0.3s0.2-0.1,0.3-0.1h3.4c0.1,0,0.2,0,0.3,0.1
				c0.1,0.1,0.1,0.2,0.1,0.3v1.9C-134.6,392.4-133.1,391.2-131.1,391.2L-131.1,391.2z M-99.3,391.5c0.1,0.4,0,0.7-0.4,0.8l-3.1,0.9
				c-0.4,0.1-0.6,0-0.7-0.4c-0.4-1.5-1.2-2.6-3.4-2.6c-2.7,0-3.5,1.8-3.5,4.2v5.5c0,2.4,1,4.2,3.5,4.2c2.3,0,3.2-1.3,3.5-2.9
				c0.1-0.4,0.3-0.5,0.7-0.4l3.1,1c0.4,0.1,0.5,0.4,0.4,0.8c-0.7,3.2-3,5.8-7.8,5.8c-5.4,0-8.1-3.5-8.1-8.2v-5.8
				c0-4.8,2.8-8.2,8.1-8.2C-102.3,385.9-100.1,388.4-99.3,391.5L-99.3,391.5z M-83.6,396.8v10.6c0,0.1,0,0.2-0.1,0.3
				s-0.2,0.1-0.3,0.1h-3.2c-0.1,0-0.2,0-0.3-0.1c-0.1-0.1-0.1-0.2-0.1-0.3v-1.7c-0.9,1.6-2.6,2.5-4.5,2.5c-3.1,0-5-2-5-5
				c0-2.9,1.9-4.7,6.4-5c1-0.1,2-0.1,2.9,0V397c0-1.6-0.8-2.2-2.2-2.2s-1.9,0.6-2.2,1.5c-0.1,0.4-0.3,0.4-0.6,0.3l-3.2-0.8
				c-0.3-0.1-0.4-0.3-0.3-0.5c0.4-2.3,2.7-4,6.5-4C-85.9,391.2-83.6,393.1-83.6,396.8L-83.6,396.8z M-88,402.3v-1.5
				c-0.9,0-1.7,0-2.6,0.1c-1.6,0.2-2.5,0.7-2.5,2c0,1.1,0.8,1.8,2,1.8C-89.6,404.6-88.5,403.8-88,402.3L-88,402.3z M-71,391.8v3.2
				c0,0.4-0.1,0.5-0.5,0.5H-72c-2.4,0-3.7,1.1-4.2,2.8v9.1c0,0.1,0,0.2-0.1,0.3s-0.2,0.1-0.3,0.1h-3.7c-0.1,0-0.2-0.1-0.3-0.1
				s-0.1-0.2-0.1-0.3v-15.5c0-0.1,0-0.2,0.1-0.3c0.1-0.1,0.2-0.1,0.3-0.1h3.4c0.4,0,0.4,0.2,0.4,0.5v2.2c0.8-1.4,2.2-2.9,4.7-2.9
				C-71.1,391.3-71,391.4-71,391.8L-71,391.8z M-65.2,401v0.6c0,1.7,0.9,2.9,3,2.9c2,0,2.6-0.8,3.1-1.7c0.3-0.4,0.4-0.5,0.9-0.3
				l2.3,1.2c0.5,0.2,0.5,0.5,0.3,0.9c-1,2.3-3.5,3.6-6.6,3.6c-4.7,0-7.2-2.8-7.2-6.6v-3.8c0-3.7,2.3-6.6,7.2-6.6
				c4.6,0,6.8,2.9,6.8,6.5v2.6c0,0.4-0.1,0.7-0.8,0.7H-65.2z M-65.2,397.6v0.6h5.7v-0.6c0-1.6-0.9-2.8-2.8-2.8
				C-64.3,394.8-65.2,396-65.2,397.6L-65.2,397.6z"/>
			<path id="Shape_1_" class="st0" d="M-201.2,373.1H-221c-0.3,0-0.6,0.3-0.6,0.6v28.7c0,4.9,2,9.6,5.4,13.1s8.2,5.4,13.1,5.4h1.8
				c10.3,0,18.6-8.3,18.6-18.6v-10.8c0-4.9-2-9.6-5.4-13.1C-191.6,375.1-196.3,373.1-201.2,373.1z M-188.6,402.8
				c0,7-5.1,12.3-13.1,12.3c-9.5,0-13.9-5.6-13.9-13.3v-9.3c0-7.7,4.4-13.3,13.9-13.3c7.7,0,11.1,4.4,12.5,8.7c0.2,0.7,0,1-0.6,1.2
				l-5.1,1.5c-0.6,0.2-1,0-1.1-0.6c-0.8-2.6-2.5-4-5.7-4c-4.9,0-6.5,2.9-6.5,6.7v8.8c0,3.9,1.6,6.7,6.5,6.7c4,0,6.1-1.9,6.1-5.9
				v-1.2h-5.3c-0.4,0-0.7-0.2-0.7-0.8v-4.9c0-0.5,0.3-0.8,0.7-0.8h11.6c0.5,0,0.8,0.2,0.8,0.7L-188.6,402.8L-188.6,402.8z"/>
		</g>
	</g>
</g>
</svg>
