<?xml version="1.0" encoding="UTF-8"?>
<svg width="28px" height="24px" viewBox="0 0 28 24" version="1.1" xmlns="http://www.w3.org/2000/svg" xmlns:xlink="http://www.w3.org/1999/xlink">
    <!-- Generator: Sketch 61.2 (89653) - https://sketch.com -->
    <title>Gaming Therapy</title>
    <desc>Created with Sketch.</desc>
    <g id="Betfair-Footer-" stroke="none" stroke-width="1" fill="none" fill-rule="evenodd">
        <g id="2.1---Footer---Mini---RG---Revised" transform="translate(-84.000000, -60.000000)">
            <g id="RG-logos" transform="translate(12.000000, 24.000000)">
                <g id="Logo/Common/Gaming-Therapy" transform="translate(72.000000, 36.000000)">
                    <g id="logo-gaming-therapy">
                        <polygon id="Shape" fill="#81818B" points="14.2488 8.95392 14.2488 19.8168 17.39664 18.22704 17.39664 10.01376"></polygon>
                        <path d="M25.26672,17.29968 C25.78272,17.29968 27.36528,17.29968 27.36528,17.29968 L27.36528,21.67152 C27.36528,21.67152 25.09824,21.67152 22.51248,21.67152 C19.92624,21.67152 18.17856,19.83552 18.18384,18.75696 C18.18912,17.6784 18.18384,9.0864 18.18384,9.0864 L14.37984,9.0864 C14.37984,9.0864 14.37984,15.2424 14.37984,18.22704 C14.37984,21.21168 12.50976,23.52576 7.03488,23.52576 C1.55952,23.52576 0.87408,20.65392 0.86976,20.34672 C0.86592,20.03904 0.73872,18.75696 0.73872,18.75696 L5.46048,19.28688 C5.46048,19.28688 5.66304,20.4792 7.29696,20.4792 C8.5464,20.4792 9.52704,19.87296 9.52704,18.75696 C9.52704,17.64096 9.52704,16.10736 9.52704,16.10736 C9.52704,16.10736 7.60608,17.96208 5.592,17.96208 C3.57744,17.96208 0.47664,16.16304 0.47664,11.736 C0.47664,7.30896 2.72544,5.50992 5.72304,5.50992 C8.72064,5.50992 9.78912,7.6296 9.78912,7.6296 L9.78912,5.77488 L18.18384,5.77488 L18.18384,0.47616 L24.47952,0.47616 L24.47952,5.77488 L27.36528,5.77488 L27.36528,9.0864 L24.47952,9.0864 C24.47952,9.0864 24.47952,14.91264 24.47952,15.8424 C24.47952,16.77264 24.75072,17.29968 25.26672,17.29968 Z M7.29696,9.0864 C6.13584,9.0864 5.1984,9.8856 5.1984,11.736 C5.1984,13.5864 6.16176,14.65056 7.428,14.65056 C8.69472,14.65056 9.52704,13.45824 9.52704,11.86848 C9.52704,10.27872 8.45808,9.0864 7.29696,9.0864 Z" id="Shape" fill="#7C4299"></path>
                    </g>
                </g>
            </g>
        </g>
    </g>
</svg>