<?xml version="1.0" encoding="UTF-8"?>
<svg width="132px" height="24px" viewBox="0 0 132 24" version="1.1" xmlns="http://www.w3.org/2000/svg" xmlns:xlink="http://www.w3.org/1999/xlink">
    <!-- Generator: Sketch 61.2 (89653) - https://sketch.com -->
    <title>GamStop</title>
    <desc>Created with Sketch.</desc>
    <g id="Betfair-Footer-" stroke="none" stroke-width="1" fill="none" fill-rule="evenodd">
        <g id="2.1---Footer---Mini---RG---Revised" transform="translate(-156.000000, -60.000000)">
            <g id="RG-logos" transform="translate(12.000000, 24.000000)">
                <g id="Logo/Common/GamStop" transform="translate(144.000000, 36.000000)">
                    <g id="gamstop-vector-logo">
                        <path d="M63.9741253,23.6477064 L1.51068263,23.6477064 C0.875758047,23.6477064 0.350303219,23.1192661 0.350303219,22.4807339 L0.350303219,11.6036697 C0.350303219,5.32844037 5.40780594,0.242201835 11.647582,0.242201835 L11.647582,0.242201835 L63.9522314,0.242201835 C64.587156,0.242201835 65.1126108,0.770642202 65.1126108,1.40917431 L65.1126108,22.546789 C65.1126108,23.1853211 64.587156,23.7137615 63.9522314,23.7137615 L63.9522314,23.6477064 L63.9741253,23.6477064 Z" id="Path" fill="#35A8E0" fill-rule="nonzero"></path>
                        <path d="M63.9741253,23.9119266 L1.53257658,23.9119266 C0.766288291,23.9119266 0.153257658,23.2954128 0.153257658,22.5247706 L0.153257658,22.5247706 L0.153257658,11.6477064 C0.153257658,5.21834862 5.34212409,4.26325641e-14 11.7351578,4.26325641e-14 L63.9741253,4.26325641e-14 C64.7404136,4.26325641e-14 65.3534443,0.616513761 65.3534443,1.38715596 C65.3534443,1.38715596 65.3534443,1.38715596 65.3534443,1.38715596 L65.3534443,22.5247706 C65.3534443,23.2954128 64.7404136,23.9119266 63.9741253,23.9119266 L63.9741253,23.9119266 Z M11.7132639,0.550458716 C5.62674545,0.550458716 0.678712486,5.5266055 0.678712486,11.6477064 L0.678712486,22.5247706 C0.678712486,22.987156 1.05090966,23.3834862 1.53257658,23.3834862 L63.9960193,23.3834862 C64.4557923,23.3834862 64.8498834,23.0091743 64.8498834,22.5247706 L64.8498834,22.5247706 L64.8498834,1.38715596 C64.8498834,0.924770642 64.4776862,0.528440367 63.9960193,0.528440367 L63.9960193,0.528440367 L11.7132639,0.550458716 Z" id="Shape" fill="#FFFFFF" fill-rule="nonzero"></path>
                        <path d="M22.2223604,11.1192661 L22.2223604,19.8385321 C22.2223604,19.9266055 22.1566786,19.9926606 22.0691028,19.9926606 L18.6536464,19.9926606 C18.5660706,19.9926606 18.5003887,19.9266055 18.5003887,19.8385321 L18.5003887,19.8385321 C18.5003887,19.7504587 18.4347069,19.6844037 18.3471311,19.6844037 C18.3252371,19.6844037 18.3033432,19.6844037 18.2814492,19.6844037 C17.931146,19.7944954 17.6027367,19.8825688 17.2305396,19.9266055 C16.8145545,19.9926606 16.3766755,20.0366972 15.9387965,20.0366972 C14.8878868,20.0146789 13.8588711,19.7944954 12.8955372,19.3981651 C11.8884155,19.0018349 10.9688695,18.3853211 10.2244752,17.6146789 C9.45818691,16.866055 8.86705023,15.9633028 8.4729591,14.9724771 C8.10076193,14.0036697 7.90371637,12.9688073 7.90371637,11.9119266 C7.90371637,10.8550459 8.10076193,9.82018349 8.4729591,8.85137615 C8.86705023,7.83853211 9.45818691,6.91376147 10.2244752,6.16513761 C10.9907635,5.39449541 11.8884155,4.77798165 12.8955372,4.38165138 C14.8440989,3.58899083 17.033494,3.58899083 18.9820557,4.38165138 C19.9234956,4.7559633 20.7992536,5.32844037 21.521754,6.05504587 C21.5874359,6.12110092 21.5874359,6.23119266 21.521754,6.27522936 C21.521754,6.27522936 21.521754,6.27522936 21.521754,6.27522936 L19.1134194,8.69724771 C19.0477375,8.76330275 18.9382678,8.76330275 18.8944799,8.69724771 C18.8944799,8.69724771 18.8944799,8.69724771 18.8944799,8.69724771 C18.5003887,8.32293578 18.0625097,8.03669725 17.5589488,7.83853211 C16.5080392,7.42018349 15.3257658,7.42018349 14.2748562,7.83853211 C13.7275074,8.0587156 13.2458405,8.36697248 12.8298554,8.7853211 C11.1221272,10.5027523 11.1221272,13.2770642 12.8079614,14.9724771 C12.8079614,14.9724771 12.8079614,14.9724771 12.8298554,14.9944954 C13.2020526,15.3688073 13.6399316,15.6770642 14.1215985,15.8972477 C14.5813715,16.1174312 15.0849324,16.2275229 15.5884932,16.2715596 C16.0920541,16.3155963 16.595615,16.2715596 17.0991759,16.1394495 C17.5589488,16.0073394 18.0187218,15.8091743 18.4128129,15.5229358 C18.4566008,15.5009174 18.4784948,15.4348624 18.4784948,15.3908257 L18.4784948,14.840367 C18.4784948,14.7522936 18.4128129,14.6862385 18.3252371,14.6862385 L15.4352356,14.6862385 C15.3476598,14.6862385 15.2819779,14.6201835 15.2819779,14.5321101 L15.2819779,11.1412844 C15.2819779,11.053211 15.3476598,10.987156 15.4352356,10.987156 L22.0472088,10.987156 C22.1347846,10.9431193 22.2223604,11.0091743 22.2223604,11.1192661 C22.2223604,11.0972477 22.2223604,11.1192661 22.2223604,11.1192661 Z" id="Path" fill="#FFFFFF" fill-rule="nonzero"></path>
                        <path d="M34.8989582,19.9045872 L34.3516094,18.2311927 C34.3297154,18.1651376 34.2640336,18.1211009 34.1983517,18.1211009 L29.3378946,18.1211009 C29.2722127,18.1211009 29.2065309,18.1651376 29.1846369,18.2311927 L28.6153942,19.9706422 C28.5935002,20.0366972 28.5278184,20.0807339 28.4621365,20.0807339 L24.8934225,20.0807339 C24.8058467,20.0807339 24.7401648,20.0146789 24.7401648,19.9266055 C24.7401648,19.9045872 24.7401648,19.8825688 24.7401648,19.8605505 L30.1041829,4.00733945 C30.1260768,3.9412844 30.1917587,3.89724771 30.2574405,3.89724771 L33.5196392,3.89724771 C33.5853211,3.89724771 33.651003,3.9412844 33.6728969,4.00733945 L38.7522936,19.8605505 C38.7741875,19.9486239 38.7522936,20.0366972 38.6647178,20.0807339 C38.6428238,20.0807339 38.6209299,20.1027523 38.5990359,20.0807339 L35.0522158,20.0807339 C34.96464,20.0807339 34.8989582,20.0146789 34.8989582,19.9045872 C34.8989582,19.9266055 34.8989582,19.9045872 34.8989582,19.9045872 Z M30.7391074,14.333945 L32.8847147,14.333945 C32.9722905,14.333945 33.0598663,14.2678899 33.0598663,14.1798165 C33.0598663,14.1577982 33.0598663,14.1357798 33.0598663,14.1137615 L32.0089566,10.8770642 C31.9870627,10.7889908 31.8994869,10.7449541 31.8119111,10.7669725 C31.7462292,10.7889908 31.7243353,10.8330275 31.7024413,10.8770642 L30.5420619,14.1137615 C30.498274,14.2018349 30.5420619,14.2899083 30.6296377,14.333945 C30.6734256,14.3559633 30.6953195,14.3559633 30.7391074,14.333945 Z" id="Shape" fill="#FFFFFF" fill-rule="nonzero"></path>
                        <path d="M52.9833618,3.80917431 L56.5301819,3.80917431 C56.6177577,3.80917431 56.6834396,3.87522936 56.6834396,3.96330275 L57.6029855,19.8385321 C57.6029855,19.9266055 57.5373037,20.0146789 57.4497279,20.0146789 C57.4497279,20.0146789 57.4497279,20.0146789 57.4278339,20.0146789 L54.0780594,20.0146789 C53.9904836,20.0146789 53.9248017,19.9486239 53.9248017,19.8605505 L53.5963925,14.2458716 C53.5963925,14.1577982 53.5307106,14.0917431 53.4431348,14.0917431 C53.355559,14.0917431 53.2898772,14.1577982 53.2898772,14.2458716 L51.3851034,19.9045872 C51.3632095,19.9706422 51.2975276,20.0146789 51.2318457,20.0146789 L47.7288136,20.0146789 C47.6631317,20.0146789 47.5974499,19.9706422 47.5755559,19.9045872 L45.4956305,13.9155963 C45.4956305,13.8275229 45.4299487,13.7614679 45.3423729,13.7614679 C45.2547971,13.7614679 45.1891152,13.8275229 45.1891152,13.9155963 L44.8169181,19.8165138 C44.8169181,19.9045872 44.7293422,19.9706422 44.6636604,19.9706422 L41.248204,19.9706422 C41.1606282,19.9706422 41.0949464,19.9045872 41.0949464,19.8165138 C41.0949464,19.8165138 41.0949464,19.8165138 41.0949464,19.7944954 L42.1239621,3.9853211 C42.1239621,3.89724771 42.2115379,3.83119266 42.2772197,3.83119266 L45.8240398,3.83119266 C45.8897217,3.83119266 45.9554035,3.87522936 45.9772975,3.9412844 L49.305178,13.5192661 C49.327072,13.6073394 49.4146478,13.6513761 49.5022236,13.6293578 C49.5679055,13.6073394 49.5897994,13.5633028 49.6116934,13.5192661 L52.8519981,3.9412844 C52.8519981,3.87522936 52.91768,3.83119266 52.9833618,3.80917431 Z" id="Path" fill="#FFFFFF" fill-rule="nonzero"></path>
                        <path d="M67.6742031,0.264220183 L130.137646,0.264220183 C130.77257,0.264220183 131.298025,0.79266055 131.298025,1.43119266 L131.298025,1.43119266 L131.298025,12.3082569 C131.298025,18.5834862 126.240522,23.6697248 120.000746,23.6697248 L120.000746,23.6697248 L67.6742031,23.6697248 C67.0392785,23.6697248 66.5138237,23.1412844 66.5138237,22.5027523 L66.5138237,1.36513761 C66.5357176,0.748623853 67.0392785,0.264220183 67.6742031,0.264220183 Z" id="Path" fill="#1D1D1B" fill-rule="nonzero"></path>
                        <path d="M119.935065,23.9119266 L67.6742031,23.9119266 C66.9079148,23.9119266 66.2948842,23.2954128 66.2948842,22.5247706 L66.2948842,22.5247706 L66.2948842,1.38715596 C66.2948842,0.616513761 66.9079148,0 67.6742031,0 L67.6742031,0 L130.137646,0 C130.903934,0 131.516965,0.616513761 131.516965,1.38715596 C131.516965,1.38715596 131.516965,1.38715596 131.516965,1.38715596 L131.516965,12.2642202 C131.516965,18.693578 126.328098,23.8899083 119.935065,23.9119266 Z M67.6742031,0.550458716 C67.2144301,0.550458716 66.820339,0.924770642 66.820339,1.40917431 C66.820339,1.40917431 66.820339,1.40917431 66.820339,1.40917431 L66.820339,22.5247706 C66.820339,22.987156 67.1925362,23.3834862 67.6742031,23.3834862 L67.6742031,23.3834862 L119.956958,23.3834862 C126.043477,23.3834862 130.99151,18.4073394 130.99151,12.2862385 L130.99151,1.40917431 C130.99151,0.946788991 130.619313,0.550458716 130.137646,0.550458716 L67.6742031,0.550458716 Z" id="Shape" fill="#FFFFFF" fill-rule="nonzero"></path>
                        <path d="M76.8477686,20.0366972 C76.3442077,20.0366972 75.8187529,19.9706422 75.337086,19.8165138 C74.8335251,19.6844037 74.3518582,19.4642202 73.8920852,19.1559633 C73.1257969,18.6495413 72.4908723,17.9669725 72.0529933,17.1743119 C71.6370082,16.4036697 71.4180687,15.5449541 71.3961748,14.6642202 C71.3961748,14.5761468 71.4618566,14.4880734 71.5494324,14.4880734 C71.5494324,14.4880734 71.5494324,14.4880734 71.5713264,14.4880734 L75.0086767,14.4880734 C75.0962525,14.4880734 75.1619344,14.5541284 75.1619344,14.6422018 C75.1619344,14.9504587 75.2714041,15.2587156 75.4465557,15.5009174 C75.5779195,15.6990826 75.7530711,15.8752294 75.9501166,16.0073394 C76.212844,16.1834862 76.4974654,16.293578 76.8039807,16.293578 C77.110496,16.3155963 77.4170114,16.2495413 77.7016327,16.1174312 C77.8986783,16.0513761 78.0519359,15.9412844 78.2051936,15.787156 C78.3146633,15.6770642 78.4241331,15.5449541 78.489815,15.412844 C78.5554968,15.3027523 78.5992847,15.1706422 78.5992847,15.0605505 C78.6211787,14.8623853 78.6211787,14.6862385 78.5992847,14.4880734 C78.5773908,14.3559633 78.5336029,14.2238532 78.489815,14.1137615 C78.4241331,13.9816514 78.3146633,13.8495413 78.2051936,13.7394495 C78.0519359,13.6073394 77.8986783,13.4972477 77.7016327,13.4091743 L77.1980718,13.2110092 L76.6288291,13.012844 L75.4684497,12.6165138 C75.0524646,12.4623853 74.6802675,12.2642202 74.3080703,12.0220183 C73.8045094,11.7137615 73.3666304,11.3174312 73.0163272,10.8550459 C72.3157207,9.90825688 71.9873115,8.7412844 72.0967812,7.55229358 C72.1405691,6.95779817 72.3157207,6.36330275 72.6003421,5.83486239 C72.8630695,5.35045872 73.1914788,4.91009174 73.5855699,4.53577982 C73.979661,4.18348624 74.41754,3.87522936 74.899207,3.65504587 C75.3808739,3.43486239 75.9063287,3.30275229 76.4536775,3.28073394 C77.0229202,3.23669725 77.592163,3.28073394 78.1395117,3.43486239 C78.6649666,3.56697248 79.1904214,3.76513761 79.6501944,4.0733945 C80.0880734,4.35963303 80.4821645,4.71192661 80.8105738,5.10825688 C81.1170891,5.50458716 81.3360286,5.94495413 81.5111802,6.40733945 C81.6644379,6.84770642 81.7520137,7.33211009 81.7739076,7.81651376 C81.7739076,7.90458716 81.7082258,7.99266055 81.62065,7.99266055 C81.62065,7.99266055 81.62065,7.99266055 81.598756,7.99266055 L78.2489815,7.99266055 C78.1614057,7.99266055 78.0957238,7.9266055 78.0957238,7.86055046 C78.0957238,7.64036697 77.9643601,7.42018349 77.7892085,7.31009174 C77.6140569,7.2 77.4389053,7.11192661 77.2418597,7.04587156 L77.2418597,7.04587156 L77.0667081,7.04587156 C76.9353444,7.02385321 76.8258747,7.02385321 76.694511,7.04587156 C76.5412533,7.06788991 76.3879956,7.11192661 76.2566319,7.2 C76.1033743,7.28807339 75.9720106,7.42018349 75.9063287,7.57431193 C75.796859,7.79449541 75.774965,8.0587156 75.8406469,8.30091743 C75.9063287,8.54311927 76.0595864,8.76330275 76.2785259,8.91743119 C76.4974654,9.04954128 76.7164049,9.13761468 76.9572384,9.22568807 L77.7454206,9.51192661 L78.489815,9.75412844 C78.7525424,9.84220183 78.9933758,9.93027523 79.2561032,10.0623853 C81.1170891,10.8770642 82.3212564,12.7266055 82.3431504,14.7743119 C82.3431504,15.787156 82.058529,16.7779817 81.5111802,17.6146789 C80.722998,18.8036697 79.4969367,19.640367 78.0957238,19.9486239 C77.6578448,19.9926606 77.2418597,20.0366972 76.8477686,20.0366972 Z" id="Path" fill="#FFFFFF" fill-rule="nonzero"></path>
                        <path d="M126.371886,10.6568807 C126.371886,11.559633 126.196735,12.440367 125.868325,13.2770642 C125.539916,14.0697248 125.058249,14.7963303 124.445218,15.412844 C123.832188,16.0293578 123.109687,16.5357798 122.321505,16.8880734 C121.555217,17.240367 120.745141,17.4165138 119.891277,17.4385321 C119.803701,17.4385321 119.738019,17.5045872 119.738019,17.5926606 L119.738019,19.8605505 C119.738019,19.9486239 119.672337,20.0146789 119.584761,20.0146789 L116.213093,20.0146789 C116.125517,20.0146789 116.059835,19.9486239 116.059835,19.8605505 L116.059835,4.00733945 C116.059835,3.91926606 116.125517,3.85321101 116.213093,3.85321101 L119.738019,3.85321101 C120.635671,3.85321101 121.511429,4.05137615 122.321505,4.42568807 C123.109687,4.77798165 123.832188,5.28440367 124.445218,5.90091743 C125.058249,6.51743119 125.539916,7.2440367 125.868325,8.03669725 C126.196735,8.8733945 126.371886,9.75412844 126.371886,10.6568807 Z M119.716125,13.5633028 C119.716125,13.6513761 119.781807,13.7174312 119.869383,13.7174312 C119.869383,13.7174312 119.869383,13.7174312 119.891277,13.7174312 C120.219686,13.6954128 120.548095,13.5853211 120.85461,13.453211 C121.204914,13.2990826 121.511429,13.0568807 121.774156,12.7926606 C122.036884,12.506422 122.255823,12.1761468 122.409081,11.8238532 C122.715596,11.0752294 122.715596,10.2385321 122.409081,9.48990826 C122.255823,9.13761468 122.058778,8.80733945 121.774156,8.52110092 C121.511429,8.23486239 121.18302,8.0146789 120.85461,7.86055046 C120.548095,7.70642202 120.219686,7.61834862 119.891277,7.59633028 C119.803701,7.59633028 119.738019,7.64036697 119.716125,7.72844037 L119.716125,13.5633028 L119.716125,13.5633028 Z" id="Shape" fill="#FFFFFF" fill-rule="nonzero"></path>
                        <path d="M104.543617,3.83119266 C105.61642,3.83119266 106.689224,4.05137615 107.674452,4.46972477 C108.637786,4.88807339 109.49165,5.46055046 110.236044,6.18715596 C110.958545,6.91376147 111.549681,7.79449541 111.965666,8.7412844 C112.81953,10.7669725 112.81953,13.0348624 111.965666,15.0385321 C111.549681,15.9853211 110.980439,16.866055 110.236044,17.5926606 C109.49165,18.3412844 108.637786,18.9357798 107.674452,19.3541284 C105.682102,20.212844 103.427025,20.212844 101.412782,19.3541284 C99.4861141,18.5394495 97.9535376,16.9981651 97.1434614,15.0605505 C96.3114912,13.0348624 96.3114912,10.7669725 97.1434614,8.76330275 C97.9535376,6.82568807 99.4861141,5.28440367 101.412782,4.46972477 C102.39801,4.05137615 103.470813,3.83119266 104.543617,3.83119266 Z M104.543617,16.293578 C105.134754,16.293578 105.703996,16.1834862 106.229451,15.9633028 C107.280361,15.5229358 108.112331,14.6862385 108.55021,13.6293578 C109.009983,12.5504587 109.009983,11.3174312 108.55021,10.2385321 C108.112331,9.18165138 107.280361,8.34495413 106.229451,7.90458716 C105.156647,7.44220183 103.930586,7.44220183 102.857783,7.90458716 C101.806873,8.34495413 100.974903,9.18165138 100.537024,10.2385321 C100.077251,11.3174312 100.077251,12.5504587 100.537024,13.6293578 C100.974903,14.6862385 101.806873,15.5229358 102.857783,15.9633028 C103.405131,16.1834862 103.974374,16.293578 104.543617,16.293578 L104.543617,16.293578 Z" id="Shape" fill="#FFFFFF" fill-rule="nonzero"></path>
                        <path d="M88.1450474,7.39816514 L91.5605038,7.39816514 C91.6480796,7.39816514 91.7137615,7.46422018 91.7137615,7.55229358 L91.7137615,19.8605505 C91.7137615,19.9486239 91.6480796,20.0146789 91.5605038,20.0146789 L88.1450474,20.0146789 C88.0574716,20.0146789 87.9917898,19.9486239 87.9917898,19.8605505 L87.9917898,7.55229358 C87.9917898,7.46422018 88.0574716,7.39816514 88.1450474,7.39816514 Z" id="Path" fill="#FFFFFF" fill-rule="nonzero"></path>
                        <path d="M85.0798943,3.83119266 L94.625657,3.83119266 C94.7132328,3.83119266 94.7789146,3.89724771 94.7789146,3.9853211 L94.7789146,7.42018349 C94.7789146,7.50825688 94.7132328,7.57431193 94.625657,7.57431193 L85.0798943,7.57431193 C84.9923185,7.57431193 84.9266366,7.50825688 84.9266366,7.42018349 L84.9266366,3.9853211 C84.9266366,3.91926606 84.9923185,3.83119266 85.0798943,3.83119266 Z" id="Path" fill="#FFFFFF" fill-rule="nonzero"></path>
                    </g>
                </g>
            </g>
        </g>
    </g>
</svg>