<?xml version="1.0" encoding="utf-8"?>
<!-- Generator: Adobe Illustrator 19.0.0, SVG Export Plug-In . SVG Version: 6.00 Build 0)  -->
<svg version="1.1" id="Layer_1" xmlns="http://www.w3.org/2000/svg" xmlns:xlink="http://www.w3.org/1999/xlink" x="0px" y="0px"
	 viewBox="0 0 393.5 30.6" style="enable-background:new 0 0 393.5 30.6;" xml:space="preserve">
<style type="text/css">
	.st0{fill:#AAABAC;}
	.st1{fill:url(#XMLID_124_);}
	.st2{fill:#FFCC0D;}
	.st3{fill:url(#SVGID_1_);}
	.st4{fill:url(#SVGID_2_);}
	.st5{fill:url(#XMLID_126_);}
	.st6{fill:#4191CE;}
	.st7{fill:#E22428;}
	.st8{fill-rule:evenodd;clip-rule:evenodd;fill:url(#XMLID_127_);}
	.st9{fill-rule:evenodd;clip-rule:evenodd;fill:url(#XMLID_128_);}
	.st10{fill-rule:evenodd;clip-rule:evenodd;fill:url(#XMLID_129_);}
	.st11{fill-rule:evenodd;clip-rule:evenodd;fill:url(#XMLID_130_);}
	.st12{fill-rule:evenodd;clip-rule:evenodd;fill:url(#XMLID_131_);}
	.st13{fill-rule:evenodd;clip-rule:evenodd;fill:url(#XMLID_132_);}
	.st14{fill:#99999A;}
</style>
<path id="XMLID_43_" class="st0" d="M0.2,21.9c0.3,0.1,1.9,3.7,7.9,5.7c3.5,1.2,8.3,1.9,14.9,0.9c0,0,16-2.4,18.6-13
	c0,0,1-3.8-2.3-7.2c0,0,7.6,4.2,3.3,11.9c0,0-4.6,8.4-19.7,10c-0.7,0.2-8.5,1-15.1-1.6C4.7,27.5,1.6,25.4,0.2,21.9z"/>
<linearGradient id="XMLID_124_" gradientUnits="userSpaceOnUse" x1="-100.3691" y1="426.1168" x2="-100.5018" y2="426.2362" gradientTransform="matrix(245.0005 0 0 -124.5083 24623.7168 53078.0625)">
	<stop  offset="0" style="stop-color:#DCDDDE"/>
	<stop  offset="0" style="stop-color:#DCDDDE"/>
	<stop  offset="0" style="stop-color:#DCDDDE"/>
	<stop  offset="0.18" style="stop-color:#BBBCBD"/>
	<stop  offset="0.51" style="stop-color:#999A9B"/>
</linearGradient>
<path id="XMLID_42_" class="st1" d="M0.2,21.9c0.3,0.1,1.9,3.7,7.9,5.7c3.5,1.2,8.3,1.9,14.9,0.9c0,0,16-2.4,18.6-13
	c0,0,1-3.8-2.3-7.2c0,0,7.6,4.2,3.3,11.9c0,0-4.6,8.4-19.7,10c-0.7,0.2-8.5,1-15.1-1.6C4.7,27.5,1.6,25.4,0.2,21.9z"/>
<path class="st2" d="M15.1,17.2l-3.5-5.4l-1.9,3H5.3v-4.4h9.8L15.1,17.2L15.1,17.2z M10,15.3l1.6-2.5l3.5,5.3l0-0.1v0.3h-0.5H14v0
	h-0.9v0h-0.8v0h-0.9v0h-0.2v0h0.2v0h0.3v0H12v0h0.3v0h0.3v0h0.3v0h0.3v0h0.3v0h0.3v0H14v0h0.3v0h0.3v0h0.5l0-0.2v9.1
	c-6.6-0.4-9.8-2.2-9.8-2.2v-10L10,15.3z"/>
<linearGradient id="SVGID_1_" gradientUnits="userSpaceOnUse" x1="-99.4143" y1="425.2553" x2="-99.4143" y2="425.4339" gradientTransform="matrix(55.05 0 0 -95.938 5482.9829 40825.6914)">
	<stop  offset="0" style="stop-color:#F15C28"/>
	<stop  offset="0.79" style="stop-color:#FFCD0E"/>
	<stop  offset="1" style="stop-color:#FFCC0D"/>
</linearGradient>
<path class="st3" d="M15.1,17.2l-3.5-5.4l-1.9,3H5.3v-4.4h9.8L15.1,17.2L15.1,17.2z M10,15.3l1.6-2.5l3.5,5.3l0-0.1v0.3h-0.5H14v0
	h-0.9v0h-0.8v0h-0.9v0h-0.2v0h0.2v0h0.3v0H12v0h0.3v0h0.3v0h0.3v0h0.3v0h0.3v0h0.3v0H14v0h0.3v0h0.3v0h0.5l0-0.2v9.1
	c-6.6-0.4-9.8-2.2-9.8-2.2v-10L10,15.3z"/>
<path class="st2" d="M23.8,22.6L20.7,6.1l-1,4.9h-1.9v0h0.1v0h0.1v0h0.1v0h0.1v0h0.1v0h0.1v0h0.1v0h0.1v0h0.1v0H19v0h0.1v0h0.1v0
	h0.1v0h0.1l0,0.1h-0.1h-0.7v0h-0.9v0H17v0h-0.9v0h-0.2v0h0.2v0h0.3v0h0.3v0H17v0h0.3v0h0.3v0h0.3v0h0.3v0h0.3v0h0.3v0h0.3v0h0.3v0
	h0.1L19,14.1l-1.4-1.4l-1.7,3.1V5.1h9.8v11.6L23.8,22.6z M17.7,13.5l1.6,1.4l1.3-6.3l3,16.7l2.1-6.8v7.9c-4.9,1.5-9.8,1.2-9.8,1.2
	V16.7L17.7,13.5z"/>
<linearGradient id="SVGID_2_" gradientUnits="userSpaceOnUse" x1="-100.2957" y1="425.9771" x2="-100.2957" y2="426.1556" gradientTransform="matrix(55.049 0 0 -126.2834 5541.9517 53821.4297)">
	<stop  offset="0.21" style="stop-color:#951B1F"/>
	<stop  offset="1" style="stop-color:#EB2629"/>
</linearGradient>
<path class="st4" d="M23.8,22.6L20.7,6.1l-1,4.9h-1.9v0h0.1v0h0.1v0h0.1v0h0.1v0h0.1v0h0.1v0h0.1v0h0.1v0h0.1v0H19v0h0.1v0h0.1v0
	h0.1v0h0.1l0,0.1h-0.1h-0.7v0h-0.9v0H17v0h-0.9v0h-0.2v0h0.2v0h0.3v0h0.3v0H17v0h0.3v0h0.3v0h0.3v0h0.3v0h0.3v0h0.3v0h0.3v0h0.3v0
	h0.1L19,14.1l-1.4-1.4l-1.7,3.1V5.1h9.8v11.6L23.8,22.6z M17.7,13.5l1.6,1.4l1.3-6.3l3,16.7l2.1-6.8v7.9c-4.9,1.5-9.8,1.2-9.8,1.2
	V16.7L17.7,13.5z"/>
<path id="XMLID_33_" class="st2" d="M35.8,20.1h-0.7v0h-0.9v0h-0.8v0h-0.9v0h-0.2v0h0.2v0h0.3v0h0.3v0h0.3v0h0.3v0H34v0h0.3v0h0.3v0
	h0.3v0h0.3v0h0.3v0h0.3v0h0.5c-4.2,4.2-9.8,5.6-9.8,5.6v-9.9l1.1-3.7l2.1,4.4l1-1.6h5.6l0-0.6h-5.9l-0.7,1.1l-2.1-4.7l-1.1,3.3V0.2
	h9.8v19.8H35.8z"/>
<linearGradient id="XMLID_126_" gradientUnits="userSpaceOnUse" x1="-101.1749" y1="426.2268" x2="-101.1749" y2="426.4053" gradientTransform="matrix(55.049 0 0 -145.145 5600.8667 61890.8516)">
	<stop  offset="0.38" style="stop-color:#204392"/>
	<stop  offset="0.8" style="stop-color:#3872B7"/>
	<stop  offset="1" style="stop-color:#48A2DA"/>
</linearGradient>
<path id="XMLID_32_" class="st5" d="M35.8,20.1h-0.7v0h-0.9v0h-0.8v0h-0.9v0h-0.2v0h0.2v0h0.3v0h0.3v0h0.3v0h0.3v0H34v0h0.3v0h0.3v0
	h0.3v0h0.3v0h0.3v0h0.3v0h0.5c-4.2,4.2-9.8,5.6-9.8,5.6v-9.9l1.1-3.7l2.1,4.4l1-1.6h5.6l0-0.6h-5.9l-0.7,1.1l-2.1-4.7l-1.1,3.3V0.2
	h9.8v19.8H35.8z"/>
<path id="XMLID_31_" class="st6" d="M26.4,2.3l-5.3,0.6l5.3,0L26.4,2.3z"/>
<path id="XMLID_30_" class="st7" d="M15.9,7.4L11.5,8H16L15.9,7.4z"/>
<path id="XMLID_29_" class="st2" d="M5.5,10.4H2.9l2.5,0.5L5.5,10.4z"/>
<linearGradient id="XMLID_127_" gradientUnits="userSpaceOnUse" x1="63.2218" y1="23.7793" x2="63.5604" y2="3.0341">
	<stop  offset="0.38" style="stop-color:#204392"/>
	<stop  offset="0.8" style="stop-color:#3872B7"/>
	<stop  offset="1" style="stop-color:#48A2DA"/>
</linearGradient>
<path id="XMLID_28_" class="st8" d="M73.9,1.1v5.1H61.7c-3.6-0.2-3.9,1.6-3.9,1.6v0.1h-4.7V7c-0.1-5.3,4.3-5.9,4.3-5.9H73.9z"/>
<linearGradient id="XMLID_128_" gradientUnits="userSpaceOnUse" x1="63.1719" y1="25.611" x2="63.826" y2="9.4317">
	<stop  offset="0.38" style="stop-color:#204392"/>
	<stop  offset="0.8" style="stop-color:#3872B7"/>
	<stop  offset="1" style="stop-color:#48A2DA"/>
</linearGradient>
<path id="XMLID_27_" class="st9" d="M66.1,10.5h7.9v14.9H59.8c-6.1,0-6.7-4.7-6.7-4.7V9.2h4.7v8.4c0.1,1.6,2.4,2.8,2.4,2.8h8.3V16
	H61L66.1,10.5z"/>
<linearGradient id="XMLID_129_" gradientUnits="userSpaceOnUse" x1="110.9463" y1="23.7793" x2="111.2849" y2="3.0341">
	<stop  offset="0.38" style="stop-color:#204392"/>
	<stop  offset="0.8" style="stop-color:#3872B7"/>
	<stop  offset="1" style="stop-color:#48A2DA"/>
</linearGradient>
<path id="XMLID_26_" class="st10" d="M121.7,1.1v5.1h-12.2c-3.6-0.2-3.9,1.6-3.9,1.6v0.1h-4.7V7c-0.1-5.3,4.3-5.9,4.3-5.9H121.7z"/>
<linearGradient id="XMLID_130_" gradientUnits="userSpaceOnUse" x1="110.8964" y1="25.611" x2="111.5505" y2="9.4317">
	<stop  offset="0.38" style="stop-color:#204392"/>
	<stop  offset="0.8" style="stop-color:#3872B7"/>
	<stop  offset="1" style="stop-color:#48A2DA"/>
</linearGradient>
<path id="XMLID_25_" class="st11" d="M113.8,10.5h7.9v14.9h-14.2c-6.1,0-6.7-4.7-6.7-4.7V9.2h4.7v8.4c0.1,1.6,2.4,2.8,2.4,2.8h8.3
	V16h-7.5L113.8,10.5z"/>
<linearGradient id="XMLID_131_" gradientUnits="userSpaceOnUse" x1="87.1644" y1="25.1031" x2="87.4514" y2="9.0641">
	<stop  offset="0.38" style="stop-color:#204392"/>
	<stop  offset="0.8" style="stop-color:#3872B7"/>
	<stop  offset="1" style="stop-color:#48A2DA"/>
</linearGradient>
<rect id="XMLID_24_" x="84.4" y="9.2" class="st12" width="5.9" height="16.3"/>
<linearGradient id="XMLID_132_" gradientUnits="userSpaceOnUse" x1="86.8567" y1="22.8282" x2="87.3356" y2="2.0432">
	<stop  offset="0.38" style="stop-color:#204392"/>
	<stop  offset="0.8" style="stop-color:#3872B7"/>
	<stop  offset="1" style="stop-color:#48A2DA"/>
</linearGradient>
<polygon id="XMLID_23_" class="st13" points="97.3,1.1 97.3,5.8 90.3,5.8 90.3,7.9 84.4,7.9 84.4,5.8 77.3,5.8 77.3,1.1 "/>
<g id="K_copy_6_4_">
	<g id="XMLID_166_">
		<path id="XMLID_167_" class="st14" d="M224.8,1.1h-6.1l-1.4,5.8h8.8L224.8,1.1z M137.9,1.1h-6.2v5.9h10L137.9,1.1z M146.9,15.1
			l-4.2-6.6h-11v16.8h6.2V10.8l9,14.4h6.2V8.5H147L146.9,15.1z M147.1,6.9h6V1.1h-5.9L147.1,6.9z M313.4,1.1l-7,0l-4.5,5.9h6.8
			L313.4,1.1z M298.2,1.1h-5.9v5.9h5.9V1.1z M161.7,13.6V10c0-0.6,0-1.1,0.2-1.6h-4.5v13.3c1.1,3.6,5.1,3.5,5.1,3.5h15.2v-5.1h-12.9
			c-3.3-0.5-3.1-4.7-3.1-4.7h16v-5.1h-12.5L161.7,13.6z M246.7,12l1.6-2.3h0.8l1.2,5.9l1.6-11.3h0.8l2,11.3l2.3-8.6h4.7
			C256.8-0.9,249,1.5,249,1.5c-6.1,1-7.8,5.5-7.8,5.5h4.3L246.7,12z M282.3,1.1h-15.7v5.8H288C287.5,2.4,282.3,1.1,282.3,1.1z
			 M229.9,13.2c-0.6,3-1,5.1-1.2,6.4c-0.1-0.9-0.4-2.4-0.7-4.3c-0.4-1.9-0.7-3.6-1.1-5.1l-0.4-1.7H217l-0.4,1.7
			c-0.3,1.3-0.7,2.9-1,4.8c-0.4,1.9-0.6,3.5-0.8,4.6c-0.2-1.6-0.6-3.7-1.2-6.4l-1-4.7h-6.1l4.2,16.8h7.8c1.4-6.3,2.2-10,2.4-10.8
			c0.2-0.9,0.4-1.9,0.6-2.9c0.2-1.1,0.3-2,0.4-2.7c0.1,0.9,0.3,2,0.5,3.3c0.2,1.3,0.4,2.2,0.5,2.6l2.3,10.5h7.8l4.1-16.8h-6.1
			L229.9,13.2z M258,8.5L254.5,21l-0.8,0.4l-1.6-10.9l-1.6,11.7l-0.8,0.4l-2-10.1l-2,2l-1.6-5.9h-4.3c-1.8,5.3,0,9.4,0,9.4
			c2.7,9.9,14.4,7.4,14.4,7.4c12.1-4.9,8.2-16.8,8.2-16.8H258z M288.4,8.5h-6c0,0,1.3,2.2-1.6,4l-8.1-0.4V8.5h-6v16.8h6V12.9
			l10.9,12.4h7.7l-7.3-8.4C283.9,16.9,289.3,13.8,288.4,8.5z M231.3,6.9h6.2l1.4-5.8h-6.3L231.3,6.9z M303.7,13.2l3.8-4.7h-6.8
			l-2.5,3.2V8.5h-5.9v16.8h5.9V20l2.3-2.9l5.8,8.2h7.8L303.7,13.2z M182,5.8h7v1.2h5.9V5.8h7V1.1H182V5.8z M210.9,1.1h-6.3l1.5,5.8
			h6.1L210.9,1.1z M189,25.3h5.9V8.5H189V25.3z M157.4,4.6v2.3h5.4c1.2-1.1,2.8-1.2,2.8-1.2h12.1V1.1h-14.8
			C158.7,1.1,157.4,4.6,157.4,4.6z"/>
	</g>
</g>
<g>
	<path class="st14" d="M329.4,14.5h-4.3v-0.1c0.4-1.8,1.8-2.9,4.3-3.3h10.4c2.5,0.4,3.9,1.5,4.3,3.3v0.2h-4.4
		c-0.3-0.1-0.7-0.2-1.1-0.2h-7.9C330.1,14.3,329.7,14.4,329.4,14.5z M339.8,26h-10.4c-2.5-0.3-4-1.4-4.3-3.2v-5.9h3.5V21
		c0,1.2,0.7,1.8,2,1.8h8c1.3,0,1.9-0.7,1.9-2.1h3.5v2.1C343.7,24.7,342.3,25.7,339.8,26z"/>
	<path class="st14" d="M361.6,26h-10.2c-2.7-0.2-4.2-1.7-4.5-4.3v-4.8h3.5v3.8c0,1.2,0.7,1.8,2.1,1.8h7.9c1.5,0,2.2-0.6,2.2-1.9
		v-3.7h3.4v4.8C365.7,24.3,364.3,25.7,361.6,26z M365.8,14.5h-18.7c0.5-2.1,2-3.3,4.4-3.5h10.1C363.9,11.3,365.3,12.5,365.8,14.5z"
		/>
	<path class="st14" d="M372.2,14.5h-3.3V11h5.4l2.7,3.5h-4.5l-0.2-0.3V14.5z M368.9,26v-9.2h3.3V26H368.9z M374.2,16.9h4.5l2.5,3.3
		l2.5-3.3h4.5l-7,9.1L374.2,16.9z M390,14.5h-4.5l2.7-3.5h5.4v3.5h-3.3v-0.3L390,14.5z M390.1,26v-9.2h3.3V26H390.1z"/>
</g>
<circle id="XMLID_1_" class="st14" cx="320.1" cy="23.3" r="1.9"/>
</svg>
