<svg xmlns="http://www.w3.org/2000/svg" width="21" height="20" viewBox="0 0 21 20">
  <metadata><?xpacket begin="﻿" id="W5M0MpCehiHzreSzNTczkc9d"?>
<x:xmpmeta xmlns:x="adobe:ns:meta/" x:xmptk="Adobe XMP Core 5.6-c138 79.159824, 2016/09/14-01:09:01        ">
   <rdf:RDF xmlns:rdf="http://www.w3.org/1999/02/22-rdf-syntax-ns#">
      <rdf:Description rdf:about=""/>
   </rdf:RDF>
</x:xmpmeta>
                                                                                                    
                                                                                                    
                                                                                                    
                                                                                                    
                                                                                                    
                                                                                                    
                                                                                                    
                                                                                                    
                                                                                                    
                                                                                                    
                                                                                                    
                                                                                                    
                                                                                                    
                                                                                                    
                                                                                                    
                                                                                                    
                                                                                                    
                                                                                                    
                                                                                                    
                                                                                                    
                           
<?xpacket end="w"?></metadata>
<defs>
    <style>
      .cls-1 {
        fill: #fff;
        fill-rule: evenodd;
      }
    </style>
  </defs>
  <path id="Haapy-event" class="cls-1" d="M75.8,277.414a1.525,1.525,0,0,1-.263-1.151l0.141-.824-0.6-.584-0.026-.027c-4.574,3.822-5.094,9.95-5.045,12.958a0.215,0.215,0,0,0,.425.039C71.695,281.669,74.081,278.76,75.8,277.414Zm-8.97-4.11-1.38.309-0.528,1.315c-0.01.024-.02,0.047-0.031,0.07,2.154,3.053,3.276,9.287,3.725,12.427a0.142,0.142,0,0,0,.282-0.019c0.055-6.773-.98-11.292-2.024-14.114Zm9.44,10.966-0.2-.27a1.531,1.531,0,0,1-.283-0.721,5.973,5.973,0,0,0-4.495,4.035,0.3,0.3,0,0,0,.533.25,6.582,6.582,0,0,1,4.326-2.97l0-.01ZM65.5,281.641a1.531,1.531,0,0,1-.541.469l-0.3.154-0.041.331a1.54,1.54,0,0,1-.064.288,17.187,17.187,0,0,1,2.759,4.807,0.2,0.2,0,0,0,.381-0.107A14.009,14.009,0,0,0,65.5,281.641Zm11.647-6.681L76.885,276.5a0.163,0.163,0,0,0,.065.159,0.159,0.159,0,0,0,.1.031,0.157,0.157,0,0,0,.076-0.019l1.376-.724,1.376,0.724a0.157,0.157,0,0,0,.076.019,0.16,0.16,0,0,0,.1-0.031,0.162,0.162,0,0,0,.065-0.159l-0.263-1.535,1.113-1.087a0.163,0.163,0,0,0-.09-0.278l-1.538-.224-0.688-1.4a0.163,0.163,0,0,0-.291,0l-0.688,1.4-1.538.224a0.163,0.163,0,0,0-.09.278Zm-10.619-3a0.163,0.163,0,0,0,.069-0.284l-1.637-1.372,0.2-2.129a0.162,0.162,0,0,0-.076-0.153A0.165,0.165,0,0,0,65,268a0.168,0.168,0,0,0-.086.025L63.1,269.163l-1.959-.849a0.163,0.163,0,0,0-.222.189l0.519,2.074-1.411,1.605a0.162,0.162,0,0,0,.111.269l2.129,0.147,1.087,1.84a0.164,0.164,0,0,0,.14.08h0.012a0.162,0.162,0,0,0,.139-0.1l0.8-1.984Zm14.156,11.661a0.162,0.162,0,0,0-.111-0.132l-1-.325-0.3-1.011a0.162,0.162,0,0,0-.128-0.114,0.127,0.127,0,0,0-.028,0,0.161,0.161,0,0,0-.132.067l-0.618.853-1.052-.027h0a0.163,0.163,0,0,0-.131.259l0.619,0.853-0.35.994a0.164,0.164,0,0,0,.037.168,0.166,0.166,0,0,0,.116.049,0.174,0.174,0,0,0,.05-0.008l1-.326,0.836,0.641a0.162,0.162,0,0,0,.1.033,0.153,0.153,0,0,0,.072-0.017,0.162,0.162,0,0,0,.091-0.146v-1.054l0.867-.6A0.162,0.162,0,0,0,80.685,283.626Zm-16.357-2.733a0.162,0.162,0,0,0-.006-0.291l-0.953-.447-0.173-1.04a0.163,0.163,0,0,0-.113-0.129,0.188,0.188,0,0,0-.047-0.007,0.16,0.16,0,0,0-.119.052l-0.719.77-1.041-.156-0.024,0a0.163,0.163,0,0,0-.142.242l0.509,0.922-0.47.944a0.162,0.162,0,0,0,.176.232l1.033-.2,0.75,0.739a0.16,0.16,0,0,0,.114.047,0.165,0.165,0,0,0,.053-0.009,0.162,0.162,0,0,0,.108-0.134l0.129-1.046Zm6.907-8.823-0.126-.309-0.325-.07a1.534,1.534,0,0,1-.646-0.311,14.5,14.5,0,0,0-.5,6.8,0.147,0.147,0,0,0,.292,0,17.939,17.939,0,0,1,1.449-5.849A1.51,1.51,0,0,1,71.235,272.07Zm0.463-3.734,0.106,1.049-0.8.682a0.163,0.163,0,0,0,.071.283l1.029,0.223,0.4,0.975a0.161,0.161,0,0,0,.139.1h0.011a0.162,0.162,0,0,0,.141-0.08l0.529-.912,1.049-.079a0.163,0.163,0,0,0,.109-0.271l-0.7-.786,0.249-1.024a0.163,0.163,0,0,0-.158-0.2,0.168,0.168,0,0,0-.066.014l-0.963.425-0.9-.553a0.163,0.163,0,0,0-.085-0.024,0.166,0.166,0,0,0-.086.024A0.164,0.164,0,0,0,71.7,268.336Z" transform="translate(-60 -268)"/>
</svg>
