<svg 
 xmlns="http://www.w3.org/2000/svg"
 xmlns:xlink="http://www.w3.org/1999/xlink"
 width="65px" height="63px">
<path fill-rule="evenodd"  fill="rgb(255, 255, 0)"
 d="M63.878,18.499 L60.538,21.924 L61.327,26.759 C61.358,26.952 61.283,27.146 61.133,27.261 C61.048,27.325 60.947,27.359 60.846,27.359 C60.769,27.359 60.691,27.339 60.619,27.300 L56.491,25.016 L52.363,27.300 C52.292,27.339 52.214,27.359 52.136,27.359 C52.035,27.359 51.934,27.325 51.849,27.261 C51.699,27.146 51.624,26.952 51.655,26.759 L52.444,21.924 L49.104,18.499 C48.971,18.363 48.923,18.159 48.981,17.973 C49.038,17.788 49.190,17.653 49.374,17.624 L53.990,16.919 L56.054,12.520 C56.136,12.345 56.306,12.234 56.491,12.234 C56.676,12.234 56.846,12.345 56.928,12.520 L58.992,16.919 L63.608,17.624 C63.792,17.653 63.944,17.788 64.001,17.973 C64.059,18.159 64.011,18.363 63.878,18.499 ZM32.300,62.450 C32.234,62.789 31.936,63.020 31.610,62.988 C31.282,62.957 31.030,62.671 31.025,62.326 C30.876,52.850 32.436,33.549 46.159,21.508 C46.185,21.536 46.210,21.566 46.237,21.594 L48.030,23.432 L47.607,26.029 C47.395,27.331 47.692,28.625 48.396,29.655 C43.244,33.894 36.085,43.059 32.300,62.450 ZM44.114,8.120 L40.966,8.371 L39.377,11.241 C39.289,11.399 39.128,11.496 38.956,11.496 C38.945,11.496 38.934,11.495 38.922,11.494 C38.737,11.481 38.575,11.358 38.505,11.178 L37.306,8.105 L34.219,7.403 C34.038,7.362 33.895,7.216 33.850,7.027 C33.805,6.837 33.866,6.638 34.007,6.511 L36.414,4.362 L36.095,1.058 C36.076,0.864 36.164,0.675 36.321,0.572 C36.400,0.520 36.490,0.494 36.580,0.494 C36.669,0.494 36.758,0.519 36.836,0.570 L39.523,2.314 L42.412,0.974 C42.475,0.945 42.542,0.930 42.609,0.930 C42.721,0.930 42.832,0.971 42.922,1.050 C43.064,1.175 43.126,1.375 43.083,1.564 L42.336,4.791 L44.440,7.267 C44.564,7.413 44.598,7.619 44.529,7.801 C44.460,7.982 44.299,8.105 44.114,8.120 ZM34.705,12.819 C34.819,13.112 34.960,13.387 35.120,13.645 C32.306,19.650 31.203,27.322 30.775,32.067 C30.725,32.619 29.962,32.625 29.900,32.075 C28.743,21.846 29.843,15.045 31.414,10.649 C31.965,11.120 32.622,11.461 33.351,11.627 L34.326,11.849 L34.705,12.819 ZM27.292,61.571 C27.069,61.587 26.873,61.420 26.841,61.188 C25.495,51.297 22.130,31.661 15.667,22.044 C15.699,21.971 15.731,21.898 15.760,21.823 L17.344,17.682 L21.485,16.707 C21.530,16.696 21.574,16.682 21.618,16.670 C24.750,25.559 27.853,39.794 27.689,61.128 C27.687,61.362 27.514,61.555 27.292,61.571 ZM20.588,12.490 L14.340,13.961 L11.949,20.210 C11.880,20.391 11.719,20.515 11.534,20.530 C11.522,20.530 11.509,20.531 11.497,20.531 C11.325,20.531 11.166,20.436 11.077,20.279 L7.816,14.483 L1.428,14.022 C1.243,14.009 1.081,13.886 1.011,13.706 C0.940,13.525 0.973,13.319 1.096,13.172 L5.329,8.118 L3.771,1.586 C3.726,1.396 3.786,1.197 3.928,1.070 C4.018,0.990 4.130,0.948 4.244,0.948 C4.309,0.948 4.375,0.962 4.437,0.990 L10.314,3.663 L15.740,0.086 C15.819,0.034 15.909,0.008 15.999,0.008 C16.087,0.008 16.176,0.033 16.254,0.084 C16.412,0.186 16.501,0.374 16.484,0.569 L15.883,7.274 L20.794,11.596 C20.937,11.722 20.999,11.921 20.955,12.110 C20.911,12.300 20.769,12.447 20.588,12.490 ZM4.400,36.677 C4.424,36.677 4.448,36.678 4.472,36.682 L7.594,37.175 L9.750,34.748 C9.843,34.642 9.973,34.585 10.106,34.585 C10.153,34.585 10.200,34.592 10.247,34.607 C10.424,34.663 10.556,34.821 10.586,35.013 L11.107,38.289 L13.966,39.695 C14.135,39.778 14.244,39.954 14.248,40.149 C14.251,40.344 14.150,40.525 13.985,40.615 L11.184,42.148 L10.796,45.444 C10.774,45.637 10.648,45.801 10.473,45.865 C10.421,45.884 10.367,45.893 10.313,45.893 C10.187,45.893 10.064,45.842 9.971,45.746 L7.720,43.417 L4.620,44.048 C4.589,44.054 4.558,44.057 4.527,44.057 C4.377,44.057 4.232,43.984 4.139,43.854 C4.027,43.699 4.009,43.490 4.091,43.315 L5.501,40.344 L3.973,37.437 C3.883,37.267 3.893,37.057 3.999,36.897 C4.091,36.758 4.241,36.677 4.400,36.677 ZM14.995,44.932 L15.881,44.448 C16.541,44.087 17.091,43.576 17.504,42.968 C19.987,46.579 22.603,52.396 24.098,61.685 C24.149,62.002 23.965,62.307 23.671,62.394 C23.378,62.481 23.069,62.322 22.955,62.024 C21.266,57.579 18.472,51.389 14.679,46.883 C14.769,46.591 14.836,46.287 14.873,45.974 L14.995,44.932 ZM48.370,48.128 C48.460,48.932 48.743,49.714 49.218,50.401 L49.805,51.250 L49.473,52.239 C49.470,52.250 49.467,52.261 49.464,52.271 C43.113,53.240 38.854,58.012 36.485,61.626 C36.237,62.005 35.765,62.139 35.369,61.944 C34.973,61.749 34.769,61.282 34.886,60.839 C37.058,52.638 43.852,49.395 48.370,48.128 ZM52.936,47.047 C52.940,47.047 52.944,47.047 52.948,47.047 L56.104,47.131 L57.959,44.443 C58.052,44.309 58.199,44.232 58.353,44.232 C58.381,44.232 58.409,44.234 58.436,44.239 C58.619,44.272 58.768,44.411 58.821,44.598 L59.720,47.782 L62.723,48.807 C62.900,48.867 63.028,49.027 63.055,49.221 C63.082,49.414 63.002,49.606 62.850,49.717 L60.249,51.601 L60.250,54.922 C60.251,55.117 60.145,55.295 59.979,55.381 C59.910,55.417 59.837,55.434 59.763,55.434 C59.658,55.434 59.553,55.398 59.467,55.329 L56.960,53.310 L53.957,54.337 C53.908,54.354 53.857,54.362 53.807,54.362 C53.677,54.362 53.551,54.308 53.458,54.207 C53.328,54.067 53.285,53.863 53.347,53.679 L54.398,50.547 L52.542,47.861 C52.433,47.703 52.418,47.494 52.505,47.321 C52.589,47.152 52.755,47.047 52.936,47.047 Z"/>
</svg>