<svg xmlns="http://www.w3.org/2000/svg" width="41.997" height="41.997" viewBox="0 0 128 128">
  <metadata><?xpacket begin="﻿" id="W5M0MpCehiHzreSzNTczkc9d"?>
<x:xmpmeta xmlns:x="adobe:ns:meta/" x:xmptk="Adobe XMP Core 5.6-c138 79.159824, 2016/09/14-01:09:01        ">
   <rdf:RDF xmlns:rdf="http://www.w3.org/1999/02/22-rdf-syntax-ns#">
      <rdf:Description rdf:about=""/>
   </rdf:RDF>
</x:xmpmeta>
                                                                                                    
                                                                                                    
                                                                                                    
                                                                                                    
                                                                                                    
                                                                                                    
                                                                                                    
                                                                                                    
                                                                                                    
                                                                                                    
                                                                                                    
                                                                                                    
                                                                                                    
                                                                                                    
                                                                                                    
                                                                                                    
                                                                                                    
                                                                                                    
                                                                                                    
                                                                                                    
                           
<?xpacket end="w"?></metadata>
<defs>
    <style>
      .cls-1 {
        fill: #444;
        opacity: 0.5;
      }

      .cls-2 {
        fill: #fff;
        fill-rule: evenodd;
      }
    </style>
  </defs>
  <circle class="cls-1" cx="64" cy="64" r="59.438"/>
  <path class="cls-2" d="M28.418,37h72.164a3.494,3.494,0,0,1,0,6.987H28.418A3.494,3.494,0,0,1,28.418,37ZM44.75,99l3.8-.759,3.038-4.554,3.8,3.036h6.837l3.038-3.8,2.279,3.036h7.6l3.038-3.036,3.038,5.313h3.8S82.938,55.78,96.4,42.831H91.087L78.173,56.494l-3.8-5.313,1.519-8.349H72.1l-2.279,8.349L64.5,56.494l-4.558-6.072-1.519-7.59H53.865l1.519,8.349-3.8,4.554-12.913-12.9H32.6S47.651,57.235,44.75,99Zm0.76-42.506,3.038,3.8-2.279,1.518Zm5.317,6.831,4.558,4.554-3.8,3.8-3.8-4.554Zm6.837,7.59,3.8,4.554-3.038,3.8-3.8-5.313Zm3.038-3.8,4.558,5.313,3.8-4.554L64.5,62.566Zm-3.038-3.036,4.558-3.8-3.8-4.554-4.558,3.8ZM51.587,78.506l-2.279,1.518v4.554l2.279,2.277,3.8-4.554Zm6.837,6.831-3.8,4.554,3.8,4.554,3.8-4.554Zm9.115,4.554,3.8,3.8,3.8-3.8-3.8-3.8Zm6.837-7.59,3.038,3.8,3.038-2.277v-3.8l-2.279-2.277Zm-3.8-3.036,4.558-4.554-3.8-3.8-3.8,4.554ZM64.5,78.506l-3.038,3.8,3.8,3.8,3.8-3.8Zm9.875-11.385,3.8,3.8,3.8-3.8-3.8-3.8ZM71.337,54.976l4.558,5.313-3.8,3.8L67.539,59.53ZM85.01,56.494l-3.8,3.036,2.279,2.277Z"/>
</svg>
