<svg xmlns="http://www.w3.org/2000/svg" width="41.938" height="42.22" viewBox="0 0 41.938 42.22">
  <metadata><?xpacket begin="﻿" id="W5M0MpCehiHzreSzNTczkc9d"?>
<x:xmpmeta xmlns:x="adobe:ns:meta/" x:xmptk="Adobe XMP Core 5.6-c138 79.159824, 2016/09/14-01:09:01        ">
   <rdf:RDF xmlns:rdf="http://www.w3.org/1999/02/22-rdf-syntax-ns#">
      <rdf:Description rdf:about=""/>
   </rdf:RDF>
</x:xmpmeta>
                                                                                                    
                                                                                                    
                                                                                                    
                                                                                                    
                                                                                                    
                                                                                                    
                                                                                                    
                                                                                                    
                                                                                                    
                                                                                                    
                                                                                                    
                                                                                                    
                                                                                                    
                                                                                                    
                                                                                                    
                                                                                                    
                                                                                                    
                                                                                                    
                                                                                                    
                                                                                                    
                           
<?xpacket end="w"?></metadata>
<defs>
    <style>
      .cls-1 {
        fill: #444;
        opacity: 0.5;
      }

      .cls-1, .cls-2 {
        fill-rule: evenodd;
      }

      .cls-2 {
        fill: #fff;
      }
    </style>
  </defs>
  <path id="Base_2_copy_5" data-name="Base 2 copy 5" class="cls-1" d="M838.038,1217.29a19.249,19.249,0,0,1,13.867,5.45,21.467,21.467,0,0,1,7.07,15.72,21.2,21.2,0,0,1-7.066,15.85,19.9,19.9,0,0,1-13.994,5.19c-6.652,0-11.749-3.08-15.711-7.81a21.025,21.025,0,0,1-5.18-13.64,21.558,21.558,0,0,1,9.2-17.68C829.729,1217.9,833.422,1217.29,838.038,1217.29Z" transform="translate(-817.031 -1217.28)"/>
  <path id="Forma_1" data-name="Forma 1" class="cls-2" d="M844.839,1225.96a11.122,11.122,0,0,0-6.658-1.91,9.289,9.289,0,0,0-5.142,1.35q-3.318,2.1-3.529,7.15h5.125a5.212,5.212,0,0,1,.857-2.83,3.17,3.17,0,0,1,2.911-1.37,3.3,3.3,0,0,1,2.874,1.11,4.125,4.125,0,0,1,.787,2.45,3.745,3.745,0,0,1-.862,2.14,4.53,4.53,0,0,1-1.025,1.05,23.189,23.189,0,0,0-4,3.21c-0.707.83-.771,2.08-0.833,3.86a0.39,0.39,0,0,0,.488.39h3.986a0.441,0.441,0,0,0,.483-0.42,4.735,4.735,0,0,1,.219-1.36,4.176,4.176,0,0,1,1.517-1.86l1.411-.97a15.145,15.145,0,0,0,2.738-2.45,6.479,6.479,0,0,0,1.3-3.87A6.555,6.555,0,0,0,844.839,1225.96Zm-6.74,19.67a3.085,3.085,0,0,0-3.28,3.09A3.209,3.209,0,1,0,838.1,1245.63Z" transform="translate(-817.031 -1217.28)"/>
</svg>
