<?xml version="1.0" encoding="utf-8"?>
<!-- Generator: Adobe Illustrator 19.0.0, SVG Export Plug-In . SVG Version: 6.00 Build 0)  -->
<svg version="1.1" xmlns="http://www.w3.org/2000/svg" xmlns:xlink="http://www.w3.org/1999/xlink" x="0px" y="0px"
	 viewBox="0 0 52 52" enable-background="new 0 0 52 52" xml:space="preserve">
<g id="Ellipse_2_1_" enable-background="new    ">
	<g id="Ellipse_2">
		<g>
			<ellipse fill-rule="evenodd" clip-rule="evenodd" fill="#004833" cx="26.1" cy="26" rx="25.9" ry="26"/>
		</g>
	</g>
</g>
<g id="Forma_1_1_" enable-background="new    ">
	<g id="Forma_1">
		<g>
			<path fill-rule="evenodd" clip-rule="evenodd" fill="#FFFF00" d="M17.9,32.3c0,0,9.8,0,11.5,0c0.5-1.6,3.5-10.9,3.5-10.9
				s3,9.4,3.5,10.9h6.1L33,2.5l-7.8,24H0l25.3,18.5c0.8-2.5,1.7-5.1,1.9-5.9C25.9,38.1,17.9,32.3,17.9,32.3z M43.2,33.8h-7.8
				L33,26.4l-2.4,7.5h-7.8l6.3,4.6l-2.4,7.5l6.3-4.6l6.3,4.6l-2.4-7.5L43.2,33.8z"/>
		</g>
	</g>
</g>
</svg>
