<svg xmlns="http://www.w3.org/2000/svg" xmlns:xlink="http://www.w3.org/1999/xlink" width="16" height="16" viewBox="0 0 16 16">
    <defs>
        <circle id="a" cx="8" cy="8" r="8"/>
    </defs>
    <g fill="none" fill-rule="evenodd">
        <g>
            <use fill="#FFF" xlink:href="#a"/>
            <circle cx="8" cy="8" r="7.5" stroke="#009dda"/>
        </g>
        <path fill="#009dda" d="M4.405 5.467H3.59a1.86 1.86 0 0 1-.632.837c-.255.21-.544.375-.854.487v.911a3.457 3.457 0 0 0 1.296-.76v3.781h1.004V5.467zM6.1 8.447c-.14.236-.213.506-.21.78-.02.472.189.924.56 1.214.342.259.762.391 1.19.376.454.021.898-.143 1.23-.454.312-.311.48-.739.462-1.179a1.35 1.35 0 0 0-.226-.775 1.4 1.4 0 0 0-.663-.51c.216-.09.402-.24.533-.434.128-.192.194-.418.19-.648.01-.368-.141-.721-.413-.968a1.954 1.954 0 0 0-2.321 0c-.27.248-.42.601-.409.968-.01.482.288.918.743 1.082a1.357 1.357 0 0 0-.666.548zm1.043-2.013a.623.623 0 0 1 .46-.171.584.584 0 0 1 .619.621.633.633 0 0 1-.172.47.698.698 0 0 1-.909 0 .63.63 0 0 1-.17-.467.616.616 0 0 1 .172-.453zM7.06 8.581a.629.629 0 0 1 .548-.254c.2-.005.391.076.525.224a.833.833 0 0 1 .208.59.923.923 0 0 1-.204.645.667.667 0 0 1-.514.223.69.69 0 0 1-.534-.232 1.012 1.012 0 0 1-.029-1.196zm5.191 1.389V8.61h1.375v-.94h-1.375V6.31h-.914v1.36H9.965v.94h1.372v1.36h.914z"/>
    </g>
</svg>
