<svg xmlns="http://www.w3.org/2000/svg" width="28.82" height="28.812" viewBox="0 0 28.82 28.812">
  <metadata><?xpacket begin="﻿" id="W5M0MpCehiHzreSzNTczkc9d"?>
<x:xmpmeta xmlns:x="adobe:ns:meta/" x:xmptk="Adobe XMP Core 5.6-c138 79.159824, 2016/09/14-01:09:01        ">
   <rdf:RDF xmlns:rdf="http://www.w3.org/1999/02/22-rdf-syntax-ns#">
      <rdf:Description rdf:about=""/>
   </rdf:RDF>
</x:xmpmeta>
                                                                                                    
                                                                                                    
                                                                                                    
                                                                                                    
                                                                                                    
                                                                                                    
                                                                                                    
                                                                                                    
                                                                                                    
                                                                                                    
                                                                                                    
                                                                                                    
                                                                                                    
                                                                                                    
                                                                                                    
                                                                                                    
                                                                                                    
                                                                                                    
                                                                                                    
                                                                                                    
                           
<?xpacket end="w"?></metadata>
<defs>
    <style>
      .cls-1 {
        fill-rule: evenodd;
      }
    </style>
  </defs>
  <path id="info-small" class="cls-1" d="M1377,492.8a1.8,1.8,0,1,0,1.8,1.8A1.8,1.8,0,0,0,1377,492.8Zm0,5.4a1.8,1.8,0,0,0-1.8,1.8v5.4a1.8,1.8,0,0,0,3.6,0V500A1.8,1.8,0,0,0,1377,498.2Zm0-12.6a14.4,14.4,0,1,0,14.4,14.4A14.417,14.417,0,0,0,1377,485.6Zm0,26.1a11.7,11.7,0,1,1,11.7-11.7A11.714,11.714,0,0,1,1377,511.7Z" transform="translate(-1362.59 -485.594)"/>
</svg>
