<svg 
 xmlns="http://www.w3.org/2000/svg"
 xmlns:xlink="http://www.w3.org/1999/xlink"
 width="45px" height="45px">
<path fill-rule="evenodd"  fill="rgb(25, 111, 56)"
 d="M22.500,0.666 C34.559,0.666 44.334,10.441 44.334,22.500 C44.334,34.559 34.559,44.334 22.500,44.334 C10.441,44.334 0.666,34.559 0.666,22.500 C0.666,10.441 10.441,0.666 22.500,0.666 Z"/>
<path fill-rule="evenodd"  fill="rgb(229, 223, 63)"
 d="M22.504,9.612 C29.630,9.612 35.408,15.389 35.408,22.515 C35.408,29.641 29.630,35.419 22.504,35.419 C15.378,35.419 9.601,29.641 9.601,22.515 C9.601,15.389 15.378,9.612 22.504,9.612 Z"/>
<path fill-rule="evenodd"  fill="rgb(73, 73, 73)"
 d="M33.666,28.003 C31.810,30.510 28.882,29.190 28.882,29.190 C29.090,27.934 28.660,23.591 28.660,23.591 C30.263,22.587 32.442,20.402 32.442,20.402 C34.558,21.678 34.815,23.591 34.815,23.591 C34.607,25.575 33.666,28.003 33.666,28.003 ZM30.959,14.802 C29.189,13.336 25.767,12.392 25.767,12.392 L24.358,10.241 C24.790,10.155 25.137,9.833 25.137,9.833 C30.280,11.220 31.626,13.393 31.626,13.393 C31.749,14.234 30.959,14.802 30.959,14.802 ZM16.571,34.047 L15.199,32.045 C17.640,31.339 18.462,30.339 18.462,30.339 C19.221,31.393 23.691,32.712 23.691,32.712 C23.850,34.192 23.209,35.012 23.209,35.012 C20.904,36.281 16.571,34.047 16.571,34.047 ZM13.531,20.698 C13.531,20.698 14.760,16.600 15.867,15.284 C15.867,15.284 17.878,14.572 21.763,15.396 L23.023,21.292 L17.832,24.814 C17.832,24.814 14.024,22.205 13.531,20.698 ZM15.125,12.800 C15.125,12.800 13.435,13.463 12.937,13.838 C12.937,13.838 14.621,12.051 16.979,10.872 C16.979,10.872 15.814,11.862 15.125,12.800 ZM10.824,27.929 C10.824,27.929 9.390,25.558 9.637,21.588 C9.637,21.588 10.011,23.014 11.157,23.257 C11.157,23.257 9.508,25.241 10.824,27.929 Z"/>
<path fill-rule="evenodd"  fill="rgb(255, 255, 255)"
 d="M27.337,11.634 L28.366,12.121 C28.366,12.121 28.576,11.390 28.865,11.446 C28.865,11.446 29.147,11.453 29.088,11.829 C29.088,11.829 29.097,12.061 28.831,12.307 L29.228,12.494 C29.228,12.494 29.747,11.989 29.456,11.264 C29.456,11.264 29.254,10.915 28.863,10.904 C28.863,10.904 28.343,10.893 28.161,11.511 L27.891,11.363 L28.135,10.679 L27.722,10.503 L27.337,11.634 Z"/>
<path fill-rule="evenodd"  fill="rgb(73, 73, 73)"
 d="M33.443,29.338 C33.641,28.742 33.666,27.966 33.666,27.966 C33.887,28.549 33.443,29.338 33.443,29.338 ZM30.794,14.648 L31.119,14.638 C32.752,17.184 32.405,20.365 32.405,20.365 C32.464,17.133 30.794,14.648 30.794,14.648 ZM23.637,33.028 L23.419,32.686 C26.232,31.686 28.956,29.079 28.956,29.079 C27.301,31.267 23.637,33.028 23.637,33.028 ZM22.735,21.415 L22.933,20.993 L28.831,23.617 L28.697,23.949 L22.735,21.415 ZM21.511,15.379 C21.511,15.379 25.270,12.593 25.895,12.198 C25.895,12.198 22.823,14.857 21.800,15.651 L21.511,15.379 ZM18.040,24.619 C18.049,28.944 18.499,30.543 18.499,30.543 C17.898,29.129 17.661,24.612 17.661,24.612 L18.040,24.619 ZM14.989,12.767 L15.214,12.613 L15.978,15.274 L15.850,15.375 C15.673,15.203 14.989,12.767 14.989,12.767 ZM11.083,23.331 C12.091,21.596 13.648,20.490 13.648,20.490 L13.749,20.849 C12.446,21.658 11.083,23.331 11.083,23.331 Z"/>
<path fill-rule="evenodd"  fill="rgb(255, 255, 255)"
 d="M17.388,17.285 L16.825,19.507 C16.825,19.507 18.350,19.638 18.351,20.230 C18.351,20.230 18.448,20.790 17.682,20.819 C17.682,20.819 17.227,20.928 16.638,20.498 L16.424,21.355 C16.424,21.355 17.622,22.184 18.941,21.328 C18.941,21.328 19.552,20.792 19.422,20.016 C19.422,20.016 19.242,18.986 17.950,18.865 L18.137,18.275 L19.583,18.490 L19.771,17.606 L17.388,17.285 Z"/>
<path fill-rule="evenodd"  fill="rgb(255, 255, 255)"
 d="M18.476,33.943 L19.861,34.233 C19.861,34.233 19.902,33.290 20.268,33.274 C20.268,33.274 20.610,33.200 20.648,33.672 C20.648,33.672 20.727,33.949 20.476,34.324 L21.010,34.434 C21.010,34.434 21.491,33.674 20.929,32.883 C20.929,32.883 20.583,32.519 20.108,32.619 C20.108,32.619 19.477,32.757 19.436,33.556 L19.068,33.456 L19.163,32.559 L18.613,32.466 L18.476,33.943 Z"/>
<path fill-rule="evenodd"  fill="rgb(255, 255, 255)"
 d="M31.032,23.542 L30.788,25.337 C30.788,25.337 31.997,25.304 32.051,25.769 C32.051,25.769 32.176,26.200 31.577,26.291 C31.577,26.291 31.230,26.417 30.729,26.132 L30.637,26.824 C30.637,26.824 31.652,27.369 32.611,26.579 C32.611,26.579 33.044,26.103 32.873,25.505 C32.873,25.505 32.639,24.712 31.614,24.732 L31.708,24.253 L32.863,24.293 L32.932,23.582 L31.032,23.542 Z"/>
</svg>