<svg xmlns="http://www.w3.org/2000/svg" width="41.997" height="41.997" viewBox="0 0 128 128">
  <metadata><?xpacket begin="﻿" id="W5M0MpCehiHzreSzNTczkc9d"?>
<x:xmpmeta xmlns:x="adobe:ns:meta/" x:xmptk="Adobe XMP Core 5.6-c138 79.159824, 2016/09/14-01:09:01        ">
   <rdf:RDF xmlns:rdf="http://www.w3.org/1999/02/22-rdf-syntax-ns#">
      <rdf:Description rdf:about=""/>
   </rdf:RDF>
</x:xmpmeta>
                                                                                                    
                                                                                                    
                                                                                                    
                                                                                                    
                                                                                                    
                                                                                                    
                                                                                                    
                                                                                                    
                                                                                                    
                                                                                                    
                                                                                                    
                                                                                                    
                                                                                                    
                                                                                                    
                                                                                                    
                                                                                                    
                                                                                                    
                                                                                                    
                                                                                                    
                                                                                                    
                           
<?xpacket end="w"?></metadata>
<defs>
    <style>
      .cls-1 {
        fill: #444;
        opacity: 0.5;
      }

      .cls-2 {
        fill: #fff;
        fill-rule: evenodd;
      }
    </style>
  </defs>
  <circle class="cls-1" cx="64" cy="64" r="59.313"/>
  <path id="Rounded_Rectangle_1_copy" data-name="Rounded Rectangle 1 copy" class="cls-2" d="M36.6,51.215H51.543a2.5,2.5,0,0,1,2.491,2.509V91.358a2.5,2.5,0,0,1-2.491,2.509H36.6a2.5,2.5,0,0,1-2.491-2.509V53.724A2.5,2.5,0,0,1,36.6,51.215ZM82.146,68.248H97.09a2.527,2.527,0,0,1,2.491,2.562V91.3a2.527,2.527,0,0,1-2.491,2.562H82.146A2.527,2.527,0,0,1,79.655,91.3V70.81A2.527,2.527,0,0,1,82.146,68.248ZM59.372,31.289H74.317a2.5,2.5,0,0,1,2.491,2.5V91.364a2.5,2.5,0,0,1-2.491,2.5H59.372a2.5,2.5,0,0,1-2.491-2.5V33.792A2.5,2.5,0,0,1,59.372,31.289Z"/>
</svg>
