<?xml version="1.0" encoding="utf-8"?>
<!-- Generator: Adobe Illustrator 19.0.0, SVG Export Plug-In . SVG Version: 6.00 Build 0)  -->
<svg version="1.1" id="heart_1_" xmlns="http://www.w3.org/2000/svg" xmlns:xlink="http://www.w3.org/1999/xlink" x="0px" y="0px"
	 viewBox="0 0 65 65" style="enable-background:new 0 0 65 65;" xml:space="preserve">
<style type="text/css">
	.st0{fill-rule:evenodd;clip-rule:evenodd;fill:#7FC878;}
	.st1{fill-rule:evenodd;clip-rule:evenodd;fill:#D52217;}
	.st2{fill-rule:evenodd;clip-rule:evenodd;fill:#EA5448;}
	.st3{fill-rule:evenodd;clip-rule:evenodd;fill:#FD8A79;}
	.st4{fill-rule:evenodd;clip-rule:evenodd;fill:#FFBDAD;}
</style>
<g id="Ellipse_2">
	<g>
		<ellipse class="st0" cx="31.5" cy="49.5" rx="24.2" ry="7.5"/>
	</g>
</g>
<g id="Shape_1">
	<g>
		<path class="st1" d="M55.9,16.8C51.9,6.1,41.4,8.8,41.4,8.8c-7.7,2.1-9.9,7.9-9.9,7.9c-4.4-9.1-13.1-7.9-13.1-7.9
			C7,10,6.6,20,6.6,20c-0.8,9.1,6.6,14.9,6.6,14.9l16,14c2.9,3,6.1-0.5,6.1-0.5l17.4-15.9C58.6,24.9,55.9,16.8,55.9,16.8z"/>
	</g>
</g>
<g id="Shape_2">
	<g>
		<path class="st2" d="M43.2,8.4c0,0-10.4,1.3-11.7,7.5c0,0-7.8-11.2-18.3-7c0,0-9.8,5.3-6.1,14.5c0,0,1.7,5.9,5.6,8.9l15,13.1
			c0,0,2.9,3.5,7,0.5l17.4-14.9c0,0,4.5-3.8,4.7-11.7C56.9,19.1,54.8,7.3,43.2,8.4z"/>
	</g>
</g>
<g id="Shape_3">
	<g>
		<path class="st3" d="M43.7,10.7c0,0-8.1-0.6-12.2,7.5c0,0-4.6-8.1-11.3-7.5c0,0-11.3-0.4-11.7,11.2c0,0-0.3,3.1,5.2,5.1
			c0,0,9.4,3.6,23.9,2.3c0,0,15.7-1.4,17.4-7v-2.8C55,19.6,53.8,10.5,43.7,10.7z"/>
	</g>
</g>
<g id="Ellipse_1">
	<g>
		<ellipse class="st4" cx="19.3" cy="15.4" rx="5.2" ry="2.8"/>
	</g>
</g>
<g id="Ellipse_1_copy">
	<g>
		<ellipse class="st4" cx="44.2" cy="15.4" rx="5.2" ry="2.8"/>
	</g>
</g>
</svg>
