<?xml version="1.0" encoding="utf-8"?>
<!-- Generator: Adobe Illustrator 19.0.0, SVG Export Plug-In . SVG Version: 6.00 Build 0)  -->
<svg version="1.1" id="Layer_1" xmlns="http://www.w3.org/2000/svg" xmlns:xlink="http://www.w3.org/1999/xlink" x="0px" y="0px"
	 viewBox="-115 355.1 379.9 82.9" style="enable-background:new -115 355.1 379.9 82.9;" xml:space="preserve">
<style type="text/css">
	.st0{fill:#FFFFFF;}
</style>
<g id="XMLID_1_">
	<path class="st0" d="M6.9,425c-0.5-0.1-0.9-0.1-1.4-0.1h-6.9v12.7h6.5c1.9,0,4.3,0,6.1-2.4c0.9-1.2,1.2-2.6,1.2-4.1
		C12.4,427.9,10.6,425.3,6.9,425 M8.5,434.1c-0.8,1.2-2.1,1.2-3.3,1.2H1.7v-8.2h3.7c1.1,0,2.4,0,3.3,1.3c0.4,0.6,0.6,1.4,0.6,2.6
		C9.2,432.7,8.8,433.6,8.5,434.1"/>
	<path class="st0" d="M-20.8,424.9l-6.1,12.7h3.5l1.1-2.4h6.5l1.1,2.4h3.6l-6.1-12.7H-20.8z M-21.3,433l1.9-4.2
		c0.1-0.2,0.1-0.3,0.2-0.5c0-0.1,0.1-0.3,0.1-0.4c0,0.2,0.1,0.3,0.1,0.5c0.1,0.2,0.1,0.3,0.2,0.5l1.9,4.1H-21.3z"/>
	<path class="st0" d="M30.6,435.7c-2.4,0-4.6-1.7-4.6-4.4c0-2.4,1.6-4.4,4.5-4.4c2.5,0,3.4,1.5,3.8,2l3.5-0.4c-1.6-3.6-5.8-4-7.3-4
		c-4,0-7.8,1.9-7.8,6.7c0,4.4,3.1,6.8,7.6,6.8c3.2,0,4.9-1.1,5.9-2c1.1-1,1.4-2,1.7-2.7h-3.3C34.2,434.1,33.3,435.7,30.6,435.7"/>
	<path class="st0" d="M52.2,424.9L46,437.6h3.5l1.1-2.4h6.5l1.1,2.4h3.6l-6.1-12.7H52.2z M51.6,433l1.9-4.2c0.1-0.2,0.1-0.3,0.2-0.5
		c0-0.1,0.1-0.3,0.1-0.4c0,0.2,0.1,0.3,0.1,0.5c0.1,0.2,0.1,0.3,0.2,0.5L56,433H51.6z"/>
	<path class="st0" d="M-44,424.5c-4.2,0.2-7.3,2.4-7.3,6.8c0,4,2.7,6.7,7.8,6.7s7.7-2.8,7.7-6.9c0-2.1-0.8-3.5-1.4-4.1
		C-38.7,425.1-41.5,424.4-44,424.5 M-43.5,435.8c-2.5,0-3.4-1.3-3.7-1.7c-0.2-0.3-0.8-1.1-0.8-2.7c0-3.1,2.3-4.5,4.4-4.5
		c2.5-0.1,4.7,1.7,4.7,4.5C-39,433.7-40.6,435.8-43.5,435.8"/>
	<path class="st0" d="M56.4,398.5c-3.1,2-6.4,3-10,3c-5.8,0-9.8-3-12-9c-1.2-3.2-1.7-7.3-1.7-12.3c0-6.8,1-12.2,2.9-16.2
		c2-4,5.3-6,9.9-6c4.1,0,7.8,1.9,11.1,5.6c1.7,2,3.5,4.8,5.1,8.4h1.8v-16.4h-1.9c-0.1,0.7-0.5,1.5-1,2.1c-0.5,0.7-1.2,1-2.1,1
		c-0.3,0-2-0.5-5-1.6s-5.9-1.6-8.8-1.6c-6.7,0-12.4,2.2-17,6.6c-4.9,4.7-7.4,10.8-7.4,18.4s2.6,13.7,7.7,18.2
		c4.6,4.1,10.4,6.1,17.3,6.1c4.5,0,8.6-1.2,12.2-3.6c2.1-1.4,4.5-3.6,7.2-6.6l-2.1-1.7C60.3,395.4,58.2,397.3,56.4,398.5"/>
	<path class="st0" d="M-20.8,401.7c-2.9-0.1-4.8-0.9-5.7-2.3c-0.6-0.9-0.9-2.4-0.9-4.5v-27.4h0.5l30.6,37.2h1.9v-41
		c0-2.1,0.4-3.5,1.1-4.1s2.2-1.1,4.4-1.5v-1.7h-15v1.8c2.6,0.2,4.3,0.8,5.1,1.8c0.9,1,1.3,2.7,1.3,5v20.5H2.2l-23.9-29.1h-14.7v1.8
		c0.9,0.1,1.5,0.4,2,0.8s1.8,1.8,3.9,4.2v33c0,1.8-0.4,3.1-1.1,4.1c-0.8,0.9-2.4,1.4-5,1.5v1.8h15.8
		C-20.8,403.6-20.8,401.7-20.8,401.7z"/>
	<path class="st0" d="M-46.3,401.7c-2.2,0-3.8-0.3-4.9-1c-1.1-0.7-1.6-2-1.6-3.9v-33.7c0-2.1,0.7-3.5,2-4.2c0.8-0.4,2.3-0.7,4.5-0.7
		v-1.8h-24.3v1.8c2.1,0.1,3.5,0.3,4.4,0.8c1.3,0.7,2,2.1,2,4.1v33.7c0,2.1-0.7,3.5-2.1,4.2c-0.9,0.4-2.3,0.7-4.2,0.7v1.8h24.3v-1.8
		H-46.3z"/>
	<path class="st0" d="M77.3,426.8c0.6,0,1.7,0.1,2.5,0.5c0.8,0.4,1,0.8,1.1,1l3-0.8c-0.3-0.4-0.8-1.3-2.1-2s-2.7-1-4.6-1
		c-2,0-4.3,0.4-5.4,2.2c-0.3,0.5-0.5,1.2-0.5,1.8c0,2.9,2.9,3.4,4.1,3.6c0.6,0.1,3.2,0.5,3.7,0.6c0.7,0.1,1.6,0.3,1.6,1.3
		c0,1.5-2.4,1.7-3.2,1.7c-1.7,0-3.5-0.5-4.3-2l-2.9,0.8c1.6,3.2,4.8,3.6,6.9,3.6c1.6,0,6.4-0.1,6.4-4.2c0-2.8-2.5-3.3-4-3.6
		c-0.6-0.1-3.2-0.6-3.7-0.7c-1-0.2-1.7-0.4-1.7-1.3C74.5,427.1,75.9,426.8,77.3,426.8"/>
	<path class="st0" d="M207,401.7c-2.2,0-3.8-0.3-4.9-1c-1.1-0.7-1.6-2-1.6-3.9v-33.7c0-2.1,0.7-3.5,2-4.2c0.8-0.4,2.3-0.7,4.5-0.7
		v-1.8h-24.3v1.8c2.1,0.1,3.5,0.3,4.4,0.8c1.3,0.7,2,2.1,2,4.1v33.7c0,2.1-0.7,3.5-2.1,4.2c-0.9,0.4-2.3,0.7-4.2,0.7v1.8H207V401.7z
		"/>
	<path class="st0" d="M-62.6,431.5c0.9-0.7,1.2-1.8,1.2-2.8c0-0.7-0.2-1.7-0.8-2.4c-1.1-1.2-2.4-1.3-3.8-1.3h-8.7v12.7h3.2v-5.1h3.5
		l3.4,5.1h3.7l-3.8-5.3C-64.2,432.2-63.3,432-62.6,431.5 M-66.5,430.3h-5.1v-3.1h4.9c1.3,0,1.6,0.3,1.8,0.6c0.2,0.3,0.3,0.7,0.3,1
		C-64.6,430.2-65.8,430.3-66.5,430.3"/>
	<path class="st0" d="M-88.8,430.7c0.4-0.1,1.1-0.3,1.6-1c0.5-0.6,0.5-1.3,0.5-1.7s-0.1-1.1-0.5-1.8c-0.9-1.2-2.5-1.3-3.8-1.3h-8.2
		v12.7h8.7c1.2,0,2.9,0,3.9-1.5c0.4-0.6,0.6-1.4,0.6-2.1C-86.1,431.4-88,430.9-88.8,430.7 M-96.1,427.1h4.8c0.5,0,1.5,0,1.5,1.4
		c0,0.1,0,1-0.8,1.3c-0.3,0.1-0.6,0.1-1,0.1h-4.5C-96.1,429.9-96.1,427.1-96.1,427.1z M-91.3,435.4h-4.8v-3.3h5.2
		c0.5,0,1.7,0,1.7,1.5C-89.2,435.4-90.6,435.4-91.3,435.4"/>
	<path class="st0" d="M-91.5,376.4l-5.1-2.6c-4.3-2.2-7.1-3.8-8.3-4.9c-1.3-1.1-1.9-2.7-1.9-4.9c0-1.8,0.7-3.4,2-4.7
		c1.3-1.3,3.2-1.9,5.5-1.9c3.3,0,6.1,1.3,8.4,3.8s3.9,5.6,4.8,9.1h1.9v-15.2h-2.1c-0.2,0.7-0.4,1.3-0.7,1.8
		c-0.3,0.4-0.8,0.7-1.6,0.7c-0.3,0-1.7-0.4-4-1.2c-2.4-0.8-4.8-1.2-7.3-1.2c-4.9,0-8.6,1.5-11,4.4c-2.4,2.9-3.6,6.1-3.6,9.5
		c0,3.2,0.9,5.9,2.7,8.1c1.8,2.2,4.9,4.4,9.3,6.6l4.4,2.2c2.8,1.4,4.6,2.5,5.5,3.4c1.4,1.3,2,3,2,5.1c0,1.8-0.7,3.5-2,5.1
		c-1.2,1.7-3.4,2.5-6.5,2.5c-3.2,0-6-1.2-8.5-3.5c-2.5-2.4-4.3-6.2-5.4-11.4h-2v17.2h2c0.2-0.8,0.4-1.4,0.7-1.8
		c0.3-0.4,0.8-0.6,1.5-0.6c0.2,0,0.4,0,0.7,0.1c0.3,0.1,0.6,0.1,0.9,0.2l1.3,0.5c1.4,0.5,2.8,0.9,4.2,1.2c1.4,0.3,2.8,0.4,4.2,0.4
		c6,0,10.4-1.6,13.1-4.7s4.1-6.4,4.1-9.9c0-3.8-1.3-7-3.8-9.6C-87.4,378.8-89.2,377.6-91.5,376.4"/>
	<path class="st0" d="M187.6,424.5c-4.2,0.2-7.3,2.4-7.3,6.8c0,4,2.7,6.7,7.8,6.7c5.1,0,7.7-2.8,7.7-6.9c0-2.1-0.8-3.5-1.4-4.1
		C192.9,425.1,190.1,424.4,187.6,424.5 M188.1,435.8c-2.5,0-3.4-1.3-3.7-1.7c-0.2-0.3-0.8-1.1-0.8-2.7c0-3.1,2.3-4.5,4.4-4.5
		c2.5-0.1,4.7,1.7,4.7,4.5C192.6,433.7,191,435.8,188.1,435.8"/>
	<path class="st0" d="M263.3,401.5c-0.4-0.2-0.8-0.5-1.2-1.1l-14.8-19.8c2.5-0.5,4.9-1.5,7.1-3.1c2.9-2.2,4.4-5.2,4.4-8.9
		c0-5.1-2.8-8.7-8.4-10.6c-2.9-1-6.6-1.5-11.3-1.5h-22.4v1.8c2.4,0.2,3.9,0.6,4.6,1.1c1,0.8,1.5,2.6,1.5,5.2v30.8
		c0,2.6-0.4,4.3-1.3,5c-0.9,0.8-2.5,1.2-4.8,1.3v1.8h23.5v-1.8c-2.4-0.1-4.1-0.6-4.9-1.4c-0.8-0.8-1.2-2.5-1.2-4.9v-13.7l0,0
		l16.2,21.8h14.5v-1.7C264.3,401.7,263.8,401.6,263.3,401.5 M243.9,377.5c-2,1.2-5.2,1.9-9.8,1.9v-17.7c0-1.1,0.3-1.8,0.9-2.3
		s1.8-0.7,3.7-0.7c3.4,0,5.8,1.3,7.1,4c0.7,1.6,1.1,3.7,1.1,6.4C246.9,373.5,245.9,376.3,243.9,377.5"/>
	<polygon class="st0" points="92.9,427.2 97.6,427.2 97.6,437.6 100.7,437.6 100.7,427.2 105.5,427.2 105.5,424.9 92.9,424.9 	"/>
	<path class="st0" d="M169.3,400c-0.9-1.2-2.2-3.8-3.9-7.9l-15.6-36.7h-1.9l-15.5,38.1c-1.2,3-2.2,5-2.8,5.8c-1,1.4-2.4,2.2-4,2.3
		v1.8h14.2v-1.8c-1.6,0-2.8-0.2-3.6-0.4c-1.3-0.5-2-1.2-2-2.2c0-0.8,0.3-2.1,0.9-3.9c0.3-0.8,1-2.6,2-5.4h15.6l1.8,4.2
		c0.4,0.9,0.7,1.7,0.9,2.4c0.4,1.1,0.5,1.9,0.5,2.5c0,1.2-0.4,2-1.1,2.2c-0.7,0.3-2.2,0.5-4.5,0.6v1.8H173v-1.8
		C171.4,401.7,170.1,401.2,169.3,400 M138.1,387l6.3-16.1h0.6l6.7,16.1H138.1z"/>
	<path class="st0" d="M240.2,424.9h-7.8v12.7h3.1v-4.8h4.4c1.6,0,3.2-0.1,4.2-1.3c0.5-0.6,0.9-1.4,0.9-2.6c0-1-0.3-1.8-0.7-2.5
		C243.3,425,241.5,424.9,240.2,424.9 M239.4,430.6h-3.9v-3.5h3.6c1.3,0,1.8,0,2.2,0.4c0.3,0.3,0.5,0.7,0.5,1.4
		C241.8,430.6,240.4,430.6,239.4,430.6"/>
	<path class="st0" d="M217.3,432.4c0,1.3-0.2,1.7-0.5,2c-0.5,0.6-1.3,0.9-2.5,1c-0.9,0-1.8,0.1-2.9-0.4c-1.2-0.6-1.4-1.5-1.4-2.7
		v-7.5h-3.2v7.4c0,1.5,0,3.2,2,4.5c0.8,0.5,1.6,0.8,2.2,0.9c0.9,0.2,1.8,0.3,2.7,0.3c1.9,0,4.4-0.5,5.7-1.9c1.1-1.2,1.1-2.5,1.1-3.8
		v-7.4h-3.2L217.3,432.4L217.3,432.4z"/>
	<path class="st0" d="M169,431.5c0.9-0.7,1.2-1.8,1.2-2.8c0-0.7-0.2-1.7-0.8-2.4c-1.1-1.2-2.4-1.3-3.8-1.3h-8.7v12.7h3.2v-5.1h3.6
		l3.4,5.1h3.7l-3.8-5.3C167.4,432.2,168.3,432,169,431.5 M165.1,430.3H160v-3.1h4.9c1.3,0,1.6,0.3,1.8,0.6c0.2,0.3,0.3,0.7,0.3,1
		C167,430.2,165.8,430.3,165.1,430.3"/>
	<path class="st0" d="M137.9,426.8c2.4,0,3.3,1.1,3.8,1.7l3.5-0.5c-0.3-0.6-0.9-1.5-2.2-2.4c-1.7-1.1-3.7-1.2-5-1.2
		c-1,0-4.3,0-6.4,2.2c-1.1,1.2-1.7,2.8-1.7,4.5c0,3,1.7,6.8,7.7,6.8c1.9,0,3.9-0.5,5.2-1.8v1.5h2.4v-6.8h-6.8v2.3h4.2
		c-0.1,0.4-0.3,0.9-1,1.5c-0.8,0.6-2,1.1-3.6,1.1c-3.1,0-4.8-1.9-4.8-4.4C133.2,428.4,135.2,426.8,137.9,426.8"/>
	<path class="st0" d="M109.4,398.5c-2.8,1.8-6.4,2.8-10.6,2.8c-2.3,0-3.9-0.3-4.7-0.8s-1.2-1.5-1.2-3.1v-32.9c0-2.8,0.5-4.5,1.4-5.2
		c0.9-0.7,2.8-1.1,5.7-1.2v-1.7H75.7v1.8c2,0.1,3.4,0.4,4.2,0.8c1.3,0.7,2,2.1,2,4.1v33.7c0,2-0.7,3.4-2.1,4.2
		c-0.8,0.4-2.2,0.7-4.1,0.8v1.8H116l2.8-15.8h-2C114.7,393,112.2,396.6,109.4,398.5"/>
</g>
</svg>
