<svg id="top_logo" data-name="top logo" xmlns="http://www.w3.org/2000/svg" width="195.688" height="78" viewBox="0 0 195.688 78">
  <metadata><?xpacket begin="﻿" id="W5M0MpCehiHzreSzNTczkc9d"?>
<x:xmpmeta xmlns:x="adobe:ns:meta/" x:xmptk="Adobe XMP Core 5.6-c138 79.159824, 2016/09/14-01:09:01        ">
   <rdf:RDF xmlns:rdf="http://www.w3.org/1999/02/22-rdf-syntax-ns#">
      <rdf:Description rdf:about=""/>
   </rdf:RDF>
</x:xmpmeta>
                                                                                                    
                                                                                                    
                                                                                                    
                                                                                                    
                                                                                                    
                                                                                                    
                                                                                                    
                                                                                                    
                                                                                                    
                                                                                                    
                                                                                                    
                                                                                                    
                                                                                                    
                                                                                                    
                                                                                                    
                                                                                                    
                                                                                                    
                                                                                                    
                                                                                                    
                                                                                                    
                           
<?xpacket end="w"?></metadata>
<defs>
    <style>
      .cls-1 {
        fill: #fff;
      }

      .cls-1, .cls-2, .cls-3, .cls-4 {
        fill-rule: evenodd;
      }

      .cls-2, .cls-5 {
        fill: #42a03f;
      }

      .cls-3 {
        fill: #0d2c23;
      }

      .cls-4 {
        fill: #ff0;
      }
    </style>
  </defs>
  <path id="SKILL_" data-name="SKILL " class="cls-1" d="M178.118,48.835a6.514,6.514,0,0,0-1.962-5.994c-1.041-1.151-1.907-1.949-2.311-2.51a2.133,2.133,0,0,1-.511-1.8c0.224-1.27,1.481-2.008,3.051-2.008a6.219,6.219,0,0,1,1.4.148,7.745,7.745,0,0,1,1.093.354h0.059c0.508-2.539.627-3.041,1-4.842a11.71,11.71,0,0,0-3.216-.413c-5.629,0-8.53,3.337-9.141,6.791a6.615,6.615,0,0,0,1.615,5.61,22.255,22.255,0,0,0,1.945,2.067,2.629,2.629,0,0,1,1.1,2.3,2.552,2.552,0,0,1-2.809,1.978,7.613,7.613,0,0,1-2.54-.384,6.944,6.944,0,0,1-1.1-.5h-0.059c-0.543,2.569-.677,3.159-1.01,4.872a11.14,11.14,0,0,0,4.481.8c4.5,0,8.221-2.6,8.9-6.437Zm4.1-4.222L180.4,54.859l-0.016.089H185.9l0.01-.059,1.316-7.441L187.657,45h0.059l3.155,5.108c1.979,3.218,2.835,4.577,2.971,4.813l-0.006.029H200.8l0.015-.089c-0.184-.3-0.92-1.329-3.451-5.108l-4.8-7.2,6.151-5.964c3.12-3.071,4.387-4.37,4.636-4.606l0.011-.059h-6.548l-0.01.059c-0.3.325-1.352,1.447-3.947,4.222l-4.42,4.724h-0.06l0.288-1.624L189.955,32l0.015-.089h-5.51l-0.021.118-1.7,9.626Zm27.87-2.953L211.792,32l0.016-.089H206.3l-0.021.118-1.7,9.626-0.522,2.953-1.813,10.246-0.016.089h5.511l0.01-.059,1.818-10.276Zm3.8,2.953-1.8,10.187-0.026.148h12.325l0.815-4.606h-6.726c-0.118,0-.113-0.029-0.092-0.148l0.987-5.581,0.522-2.953,1.7-9.626,0.021-.118h-5.481l-0.021.118-1.7,9.626Zm15.052,0-1.8,10.187-0.026.148h12.325l0.815-4.606h-6.726c-0.118,0-.113-0.029-0.092-0.148l0.987-5.581,0.522-2.953,1.7-9.626,0.021-.118h-5.481l-0.021.118-1.7,9.626Z" transform="translate(-89.156 -24)"/>
  <path id="ZONE" class="cls-1" d="M212.979,68.551c2.317-3.218,4.64-6.466,6.868-9.685l0.01-.059H202.348l-0.8,4.518H210.5l-0.021.118c-1.275,1.683-2.556,3.4-3.777,5.108L204.576,71.5c-2.437,3.4-4.939,6.821-7.447,10.275l-0.01.059h18.665l0.814-4.606H206.555l0.021-.118c1.45-1.831,3.105-3.986,4.281-5.61Zm30.23,1.624c1.17-6.614-2.914-11.663-9.847-11.663a14.783,14.783,0,0,0-14.448,11.84c-1.176,6.644,3.179,11.84,10.052,11.84A14.613,14.613,0,0,0,243.2,70.2Zm-5.626.148a7.939,7.939,0,0,1-7.64,6.85c-3.941,0-6.109-2.982-5.43-6.821a8.072,8.072,0,0,1,7.843-6.821c3.733,0,5.9,2.982,5.233,6.762Zm28.936-1.772,1.713-9.685,0.011-.059h-5.1l-0.01.059-1.609,9.094c-0.162.915-.319,1.8-0.555,3.307h-0.06c-1.239-1.535-2.353-2.775-3.467-4.016-1.656-1.86-4.169-4.4-8.453-8.651h-0.711L246,71.5l-1.817,10.275-0.011.059h5.1l0.01-.059,1.687-9.537c0.131-.738.267-1.506,0.422-2.716h0.059c1.508,1.86,2.426,2.864,3.721,4.252,1.667,1.8,4.126,4.311,8.24,8.356h0.711ZM270.3,71.5l-1.818,10.275-0.01.059H280.94l0.815-4.606h-6.992l0.105-.59,0.736-4.163h6.014l0.418-2.362,0.392-2.215h-6.014l0.8-4.518h6.814l0.809-4.577h-12.3l-0.01.059-1.713,9.685Z" transform="translate(-89.156 -24)"/>
  <path class="cls-2" d="M241,28l-72-4L133,58l45,25s18.167,6.667,22-11c0,0,1-12.333-11-15l-43,1,25-29Z" transform="translate(-89.156 -24)"/>
  <path id="Shape_1_copy_4" data-name="Shape 1 copy 4" class="cls-3" d="M197,78.5L182,57.026,167.014,57l9.648,12.759-9.923.077L197,102l-8.918-23.473Z" transform="translate(-89.156 -24)"/>
  <path class="cls-4" d="M193,76.5L180,58.026,171.014,58l9.648,13.759-8.923.077L192.973,95l-7.891-18.473Z" transform="translate(-89.156 -24)"/>
  <ellipse class="cls-5" cx="35.594" cy="35.344" rx="3.25" ry="3.313"/>
  <path id="PP" class="cls-1" d="M90.929,54.3l1.45,11.04L92.386,65.4l2.57-.337,2.982-.392-0.008-.063L97.06,57.978l-0.121-.92a17.862,17.862,0,0,0,3.376-.831,11.057,11.057,0,0,0,2.631-1.346,8.05,8.05,0,0,0,2.733-3.522,9.112,9.112,0,0,0,.48-4.452,7.7,7.7,0,0,0-4.914-6.455,11.927,11.927,0,0,0-4.485-.734,34.121,34.121,0,0,0-3.479.3c-1.428.188-3.319,0.533-4.131,0.736l0.008,0.063,1.354,10.311Zm9.561-6.58a4.14,4.14,0,0,1-.144,1.858,3.212,3.212,0,0,1-.916,1.379,4.751,4.751,0,0,1-2.129.99c-0.25.065-.852,0.144-1.011,0.165l-0.95-7.233c0.376-.082.694-0.123,0.948-0.157a4.142,4.142,0,0,1,2.368.335,3.384,3.384,0,0,1,1.83,2.632Zm7.667,5.056,1.449,11.04,0.009,0.063,2.569-.337,2.982-.392-0.008-.063-0.87-6.631-0.121-.92a17.849,17.849,0,0,0,3.376-.831,11.042,11.042,0,0,0,2.631-1.346,8.05,8.05,0,0,0,2.733-3.521,9.112,9.112,0,0,0,.48-4.452,7.7,7.7,0,0,0-4.914-6.455,11.927,11.927,0,0,0-4.485-.734,34.1,34.1,0,0,0-3.479.3c-1.428.188-3.319,0.533-4.131,0.736l0.008,0.064L107.739,49.6Zm9.56-6.58a4.14,4.14,0,0,1-.144,1.858,3.212,3.212,0,0,1-.916,1.379,4.752,4.752,0,0,1-2.129.99c-0.25.065-.852,0.144-1.011,0.165l-0.95-7.233c0.377-.082.694-0.123,0.948-0.157a4.14,4.14,0,0,1,2.367.335,3.383,3.383,0,0,1,1.83,2.632Z" transform="translate(-89.156 -24)"/>
</svg>
