<svg xmlns="http://www.w3.org/2000/svg" width="16" height="22" viewBox="0 0 16 22">
  <metadata><?xpacket begin="﻿" id="W5M0MpCehiHzreSzNTczkc9d"?>
<x:xmpmeta xmlns:x="adobe:ns:meta/" x:xmptk="Adobe XMP Core 5.6-c138 79.159824, 2016/09/14-01:09:01        ">
   <rdf:RDF xmlns:rdf="http://www.w3.org/1999/02/22-rdf-syntax-ns#">
      <rdf:Description rdf:about=""/>
   </rdf:RDF>
</x:xmpmeta>
                                                                                                    
                                                                                                    
                                                                                                    
                                                                                                    
                                                                                                    
                                                                                                    
                                                                                                    
                                                                                                    
                                                                                                    
                                                                                                    
                                                                                                    
                                                                                                    
                                                                                                    
                                                                                                    
                                                                                                    
                                                                                                    
                                                                                                    
                                                                                                    
                                                                                                    
                                                                                                    
                           
<?xpacket end="w"?></metadata>
<defs>
    <style>
      .cls-1 {
        fill: #fff;
        fill-rule: evenodd;
      }
    </style>
  </defs>
  <path id="Forma_1" data-name="Forma 1" class="cls-1" d="M18.354,8.822H17.248V6.137a6.249,6.249,0,0,0-12.5,0V8.822H3.646A0.641,0.641,0,0,0,3,9.457V21.365A0.641,0.641,0,0,0,3.646,22H18.354A0.641,0.641,0,0,0,19,21.365V9.457A0.641,0.641,0,0,0,18.354,8.822Zm-6.346,7.247V18.6a0.4,0.4,0,0,1-.408.4H10.4a0.4,0.4,0,0,1-.408-0.4V16.069a1.7,1.7,0,0,1-.737-1.4,1.745,1.745,0,0,1,3.49,0A1.7,1.7,0,0,1,12.008,16.069Zm2.257-7.247H7.735V6.137a3.266,3.266,0,0,1,6.53,0V8.822Z" transform="translate(-3)"/>
</svg>
