<?xml version="1.0" encoding="utf-8"?>
<!-- Generator: Adobe Illustrator 19.0.0, SVG Export Plug-In . SVG Version: 6.00 Build 0)  -->
<svg version="1.1" id="Layer_1" xmlns="http://www.w3.org/2000/svg" xmlns:xlink="http://www.w3.org/1999/xlink" x="0px" y="0px"
	 viewBox="0 0 60 60" style="enable-background:new 0 0 60 60;" xml:space="preserve">
<style type="text/css">
	.st0{opacity:0.5;fill:#7FC878;}
	.st1{fill:#00507F;}
	.st2{fill:url(#XMLID_13_);}
	.st3{fill:url(#XMLID_14_);}
</style>
<g>
	<path id="XMLID_11_" class="st0" d="M33.8,52.1c12.8,0,23.2,1.4,23.2,3.1s-10.4,3.1-23.2,3.1s-23.2-1.4-23.2-3.1
		S20.9,52.1,33.8,52.1z"/>
	<path class="st1" d="M44.2,28.8h-3.4c-1.3,0.2-2.3,1.4-2.1,2.7c0,0.2,0.1,0.4,0.2,0.6l7.1,12.4c1,1,2.6,1,3.5,0
		c0.1-0.1,0.1-0.1,0.2-0.2l8.8-12.2c0,0,1.2-3-1.9-3.3H44.2z M18.3,10.2l2.5,4.4c0,0,0.8,1.9,3.4,0.7c0,0,7.2-3.2,13.1,1
		c0,0,6.2,3.1,6.9,12.5h8.9c0,0,0.8-11.4-8.7-18.6C39.3,6,32.6,4.1,26,5.1c0,0-4.9,1-7,2.3C19,7.4,17.5,7.9,18.3,10.2L18.3,10.2z
		 M39.1,32.6l1-2.6c-0.8-1-0.9-2.4-0.2-3.5C39.9,26.5,38.1,30.9,39.1,32.6L39.1,32.6z M59.1,26.4c0.5,0.9,0.5,1.9,0,2.8l-0.7,0.9
		l-0.5,2.9C59.4,31.1,59.9,28.6,59.1,26.4L59.1,26.4z"/>
	<linearGradient id="XMLID_13_" gradientUnits="userSpaceOnUse" x1="18.7442" y1="21.9672" x2="59.5156" y2="21.9672">
		<stop  offset="0" style="stop-color:#2287C1"/>
		<stop  offset="1" style="stop-color:#47BCFF"/>
	</linearGradient>
	<path id="XMLID_6_" class="st2" d="M57.4,25.7h-3.5c0,0,0.8-11.4-8.7-18.6C40,2.9,33.3,1,26.7,2c0,0-4.9,1-7,2.3
		c0,0-1.5,0.5-0.7,2.8h0l2.5,4.4c0,0,0.8,1.9,3.4,0.7c0,0,7.2-3.2,13.1,1c0,0,6.2,3.1,6.9,12.5h-3.4c-1.3,0.2-2.3,1.4-2.1,2.8
		c0,0.2,0.1,0.4,0.2,0.6l7.1,12.4c1,1,2.5,1,3.5,0c0.1-0.1,0.1-0.2,0.2-0.2L59.3,29C59.3,29,60.5,26,57.4,25.7z"/>
	<path id="Shape_9_copy" class="st1" d="M15.7,26.7l3.4-0.1c1.3-0.2,2.2-1.5,2-2.8c0-0.2-0.1-0.4-0.2-0.6L13.5,11
		c-1-0.9-2.6-0.9-3.5,0.1c-0.1,0.1-0.1,0.1-0.2,0.2L1.3,23.8c0,0-1.1,3.1,2,3.3L15.7,26.7z M42.1,44.6l-2.6-4.3c0,0-0.9-1.8-3.4-0.6
		c0,0-7.1,3.4-13.1-0.7c0,0-6.2-2.9-7.2-12.3L6.8,27c0,0-0.5,11.5,9.2,18.4c5.3,4.1,12,5.7,18.6,4.5c0,0,4.9-1.1,7-2.5
		C41.5,47.4,43.1,46.8,42.1,44.6L42.1,44.6z M20.7,22.8l-0.9,2.7c0.8,1,1,2.3,0.3,3.4C20.1,28.9,21.8,24.4,20.7,22.8z M1,29.6
		c-0.5-0.8-0.5-1.9-0.1-2.8l0.7-0.9L1.9,23C0.5,24.9,0.1,27.3,1,29.6L1,29.6z"/>
	<linearGradient id="XMLID_14_" gradientUnits="userSpaceOnUse" x1="0.4844" y1="33.417" x2="41.8494" y2="33.417">
		<stop  offset="0" style="stop-color:#2287C1"/>
		<stop  offset="1" style="stop-color:#47BCFF"/>
	</linearGradient>
	<path id="XMLID_1_" class="st3" d="M41.6,47.7l-2.6-4.3c0,0-0.9-1.8-3.4-0.6c0,0-7.1,3.4-13.1-0.7c0,0-6.2-2.9-7.2-12.3l3.4-0.1
		c1.3-0.2,2.2-1.5,2-2.8c0-0.2-0.1-0.4-0.2-0.6l-7.5-12.2c-1-0.9-2.6-0.9-3.5,0.1c-0.1,0.1-0.1,0.2-0.2,0.2L0.7,26.9
		c0,0-1.1,3.1,2,3.3l3.5-0.1c0,0-0.5,11.5,9.2,18.4c5.3,4.1,12,5.7,18.6,4.5c0,0,4.9-1.1,7-2.5C41,50.5,42.5,50,41.6,47.7z"/>
</g>
</svg>
