<?xml version="1.0" encoding="utf-8"?>
<!-- Generator: Adobe Illustrator 19.0.0, SVG Export Plug-In . SVG Version: 6.00 Build 0)  -->
<svg version="1.1" xmlns="http://www.w3.org/2000/svg" xmlns:xlink="http://www.w3.org/1999/xlink" x="0px" y="0px"
	 viewBox="0 0 42 15" style="enable-background:new 0 0 42 15;" xml:space="preserve">
<style type="text/css">
	.st0{enable-background:new    ;}
	.st1{fill:#FFF600;}
</style>
<g id="Shape_1_copy_1_" class="st0">
	<g id="Shape_1_copy">
		<g>
			<path class="st1" d="M6,15V0L0,8L6,15z M36,0L36,0L6,0v15h30v0l6-7L36,0z"/>
		</g>
	</g>
</g>
<g id="NEW_x21__1_" class="st0">
	<g id="NEW_x21_">
		<g>
			<path d="M15.1,8.5L12,3.4h-1.2v7.1H12v-5l3.2,5h1.2V3.4h-1.2V8.5z M19.1,7.3H22v-1h-2.9v-2h3.4v-1h-4.6v7.1h4.6v-1h-3.4V7.3z
				 M29.1,8.7l-1.3-5.4h-1l-1.4,5.3l-1.1-5.3H23l1.6,7.1h1.2l1.4-5.2l1.4,5.2h1.2l1.6-7.1h-1.2L29.1,8.7z M33.4,8.4l0.1-5h-1.3
				l0.1,5H33.4z M33.4,9.5c-0.1-0.1-0.3-0.2-0.5-0.2c-0.2,0-0.4,0.1-0.5,0.2c-0.1,0.1-0.2,0.3-0.2,0.5c0,0.2,0.1,0.3,0.2,0.4
				s0.3,0.2,0.5,0.2s0.4-0.1,0.5-0.2s0.2-0.3,0.2-0.4C33.6,9.8,33.5,9.6,33.4,9.5z"/>
		</g>
	</g>
</g>
</svg>
