<?xml version="1.0" encoding="utf-8"?>
<!-- Generator: Adobe Illustrator 19.0.0, SVG Export Plug-In . SVG Version: 6.00 Build 0)  -->
<svg version="1.1" xmlns="http://www.w3.org/2000/svg" xmlns:xlink="http://www.w3.org/1999/xlink" x="0px" y="0px"
	 viewBox="0 0 302 56" style="enable-background:new 0 0 302 56;" xml:space="preserve">
<style type="text/css">
	.st0{enable-background:new    ;}
	.st1{fill:#FFFFFF;}
	.st2{fill-rule:evenodd;clip-rule:evenodd;fill:#5FBB46;}
</style>
<g id="PADDYPOWER_1_" class="st0">
	<g id="PADDYPOWER">
		<g>
			<path class="st1" d="M22.1,33.1c-0.4-4.5-3-7.2-5.9-8.5c-1.8-0.8-3.9-1.1-5.7-1.2c-1.5,0-3.2,0.1-4.5,0.2
				c-1.8,0.2-4.3,0.5-5.3,0.7l0,0.1l1.2,13.3l0.4,4.1l1.2,14.2l0,0.1l3.3-0.3l3.8-0.3l0-0.1l-0.7-8.5l-0.1-1.2
				c1.5-0.2,3-0.4,4.4-0.9c1.2-0.4,2.4-0.9,3.4-1.6c1.5-1,2.8-2.5,3.7-4.4C21.9,37.2,22.3,35.2,22.1,33.1z M14.5,36.2
				c-0.3,0.7-0.7,1.3-1.2,1.7c-0.7,0.6-1.7,1-2.8,1.1c-0.3,0.1-1.1,0.1-1.3,0.2l-0.8-9.3c0.5-0.1,0.9-0.1,1.2-0.1
				c1.1-0.1,2.1,0.1,3,0.6c1.2,0.7,2.1,1.9,2.2,3.5l0,0C14.9,34.7,14.8,35.4,14.5,36.2z M42.7,38.1l-9.5-17.4l-1.1,0.1l-6.4,18.8
				c-4.3,12.6-5,14.5-5.1,14.7l0,0.1l4-0.3l3.8-0.3l0-0.1c0.1-0.3,0.7-2.2,1.4-4.6l9.7-0.8c1.1,2.3,2,4,2.1,4.3l0,0.1l4.6-0.4
				l3.9-0.3l0-0.1C50,51.5,49.1,49.7,42.7,38.1z M31.6,42.8L31.6,42.8c1.3-4.3,1.8-6.3,2-7.4l0,0c0.4,1,1.2,2.9,3.1,6.8l0,0.1
				L31.6,42.8z M77.9,32.8c-0.4-4.7-2.4-9.7-7.6-12.3c-2.8-1.4-6.4-2.1-11.3-1.6c-1.5,0.1-3.1,0.3-5,0.6c-1.9,0.2-2.9,0.5-3.7,0.6
				l0,0.3l1.1,13l0.4,4.1l1.2,14.1l0,0c0.9,0,2.1,0,3-0.1c1.3-0.1,3.3-0.2,5.3-0.4c4.2-0.4,7.9-1.6,10.6-3.7
				C76.3,43.9,78.4,38.9,77.9,32.8L77.9,32.8z M67,42c-1.4,1.2-3.2,1.9-5,2c-0.6,0.1-1.3,0.1-1.9,0c0,0-0.1,0-0.1-0.1l-1.6-18.2
				c0.5-0.1,1.3-0.2,2.1-0.3c2.4-0.2,4.4,0.3,5.9,1.2c2.2,1.5,3.4,4,3.6,6.9l0,0C70.4,37.5,69.1,40.2,67,42z M108.3,30.1
				c-0.4-4.7-2.4-9.7-7.6-12.3c-2.8-1.4-6.4-2.1-11.3-1.6c-1.5,0.1-3.1,0.3-5,0.6c-1.9,0.2-2.9,0.5-3.7,0.6l0,0.3l1.1,13l0.4,4.1
				l1.2,14.1l0,0c0.9,0,2.1,0,3-0.1c1.3-0.1,3.3-0.2,5.3-0.4c4.2-0.4,7.9-1.6,10.6-3.7C106.6,41.2,108.8,36.2,108.3,30.1L108.3,30.1
				z M97.4,39.4c-1.4,1.2-3.2,1.9-5,2c-0.6,0.1-1.3,0.1-1.9,0c0,0-0.1,0-0.1-0.1l-1.6-18.2c0.5-0.1,1.3-0.2,2.1-0.3
				c2.4-0.2,4.4,0.3,5.9,1.2c2.2,1.5,3.4,4,3.6,6.9l0,0C100.8,34.8,99.4,37.6,97.4,39.4z M131.4,12.7l-4.4,0.4l0,0.1
				c-0.1,0.3-1.1,2.3-2.5,5.3c-1.1,2.4-2.1,4.5-2.7,6.2l-0.1,0c-0.9-1.6-2.4-3.7-3.8-5.8c-1.7-2.6-2.9-4.3-3.2-4.6l0-0.1l-3.8,0.3
				l-4.7,0.4l0,0.1c0.3,0.4,1.5,2.1,8.9,12.7l3.5,5l0.1,0.7l1.1,12.3l0,0.1l3.9-0.3l3.7-0.3l0-0.1l-1.1-12.5l-0.1-0.9l2.4-5.1
				c5.5-11.8,6.4-13.6,6.5-14l0-0.1L131.4,12.7z M152.7,12.6c-1.8-0.8-3.9-1.1-5.7-1.2c-1.5,0-3.2,0.1-4.5,0.2
				c-1.8,0.2-4.3,0.5-5.3,0.7l0,0.1l1.2,13.3l0.4,4.1l1.2,14.2l0,0.1l3.3-0.3l3.8-0.3l0-0.1l-0.7-8.5l-0.1-1.2
				c1.5-0.2,3-0.4,4.4-0.9c1.2-0.4,2.4-0.9,3.4-1.6c1.5-1,2.8-2.5,3.7-4.4c0.7-1.6,1-3.5,0.9-5.7C158.3,16.6,155.7,13.9,152.7,12.6z
				 M151.1,24.2c-0.3,0.7-0.7,1.3-1.2,1.7c-0.7,0.6-1.7,1-2.8,1.1c-0.3,0.1-1.1,0.1-1.3,0.2l-0.8-9.3c0.5-0.1,0.9-0.1,1.2-0.1
				c1.1-0.1,2.1,0.1,3,0.6c1.2,0.7,2.1,1.9,2.2,3.5l0,0C151.4,22.7,151.3,23.5,151.1,24.2z M195.6,22.9c-0.8-9.1-8.3-15.5-17.8-14.7
				c-9.7,0.8-16.4,8.7-15.6,17.8c0.8,9.2,8.7,15.7,18.2,14.9C190,40.1,196.4,32.3,195.6,22.9L195.6,22.9z M179.8,34
				c-5.4,0.5-9.5-3.3-10-8.6c-0.5-5.4,3-9.8,8.3-10.2c5.1-0.4,9.2,3.3,9.7,8.6l0,0C188.3,29.1,185.2,33.6,179.8,34z M231.9,3.9
				l-3.5,0.3l0,0.1c-0.1,0.4-0.7,2-2.2,10.3c-0.4,2-0.5,3.1-0.8,5l-0.1,0c-0.9-1.7-2.1-3.9-3-5.2c-3.2-4.8-5.1-7.4-6.1-8.9l-1.1,0.1
				c-0.8,1.7-2.3,4.8-4.2,9.5c-0.9,2-1.6,4.2-2.2,6l-0.1,0c-0.6-1.6-1.1-3.3-1.9-5.3c-2.9-7.3-3.7-8.8-3.8-9.3l0-0.1l-3.6,0.3
				l-4.1,0.4l0,0.1c0.2,0.4,0.8,2.1,5,12.3l7.8,19.1l1-0.1c6.5-15.5,7.2-17.6,7.8-19.7l0,0c0.9,1.9,1.9,3.9,11,18.1l1-0.1l4.2-20.2
				c2.3-10.8,2.6-12.4,2.7-13l0-0.1L231.9,3.9z M257.4,27.3l-3.1,0.3l-6.4,0.6l-0.1-0.8l-0.5-5.8l4.8-0.4l3.4-0.3l0.1,0l-0.3-3.3
				l-0.3-3.1l-0.1,0l-3.5,0.3l-4.7,0.4L246.2,9l4.4-0.4l4.9-0.4l0.1,0l-0.6-6.3l-8,0.7l-8.9,0.8l0,0.1l1.2,13.4l0.4,4.1l1.2,14.2
				l0,0.1l9.4-0.8l7.8-0.7L257.4,27.3L257.4,27.3z M287,31.1c-0.2-0.3-1.7-2-2.6-3.2c-6.8-8.4-7.4-9.2-7.7-9.6l0-0.1
				c0.5-0.3,1.3-0.9,2-1.7c1.2-1.1,2.6-3.8,2.3-7.3c-0.5-5.9-4.5-7.9-7.3-8.4c-1.9-0.3-3.9-0.4-6.6-0.2c-1.1,0.1-3.1,0.3-3.9,0.4
				c-1.1,0.1-2.2,0.3-2.9,0.5l0,0.1l1.2,13.3l0.4,4.1l1.2,14.2l0,0.1l3.6-0.3l3.5-0.3l0-0.1l-0.9-10.2l-0.2-2l0.7-0.1
				c3,4,6.1,8.1,8.7,11.6l1.3-0.1l3-0.3L287,31.1L287,31.1z M272.4,14c-0.7,0.6-1.6,1-2.6,1.1c-0.4,0-0.8,0.1-1.1,0.1L268,7
				c0.4-0.1,0.7-0.1,1.4-0.2c2.4-0.2,4.1,1.1,4.3,3.6l0,0C273.8,12.2,273,13.5,272.4,14z"/>
		</g>
	</g>
</g>
<g id="Ellipse_2_1_" class="st0">
	<g id="Ellipse_2">
		<g>
			<circle class="st2" cx="296.6" cy="25.7" r="5"/>
		</g>
	</g>
</g>
</svg>
