<?xml version="1.0" encoding="utf-8"?>
<!-- Generator: Adobe Illustrator 22.1.0, SVG Export Plug-In . SVG Version: 6.00 Build 0)  -->
<svg version="1.1" id="Layer_1" xmlns="http://www.w3.org/2000/svg" xmlns:xlink="http://www.w3.org/1999/xlink" x="0px" y="0px"
	 viewBox="0 0 563.1 109.4" style="enable-background:new 0 0 563.1 109.4;" xml:space="preserve">
<style type="text/css">
	.st0{display:none;enable-background:new    ;}
	.st1{display:inline;fill:#004834;}
	.st2{display:none;fill:#62BA47;}
	.st3{fill:#FFFFFE;}
</style>
<g class="st0">
	<path class="st1" d="M3.3,71.1L1,43.8v-0.2c2-0.4,6.5-1.1,10-1.3c2.4-0.2,5.5-0.4,8.4-0.3c3.3,0.1,7.2,0.8,10.7,2.6
		c5.6,2.8,10.4,8.4,11.2,17.7c0.4,4.5-0.3,8.4-1.6,11.6c-1.6,3.9-4.1,6.9-6.9,8.9c-1.9,1.3-4.1,2.4-6.4,3.2
		c-2.6,0.9-5.4,1.4-8.2,1.7l0.2,2.4l1.5,17.6v0.2l-7.2,0.6L6.5,109v-0.2L4.1,79.6L3.3,71.1z M27.6,63.5c-0.3-3.2-1.9-5.8-4.1-7.2
		c-1.6-1-3.5-1.4-5.7-1.2c-0.6,0.1-1.4,0.1-2.3,0.3l1.6,19.2c0.4,0,1.8-0.2,2.4-0.3c2.1-0.3,3.9-1.2,5.2-2.3c0.9-0.8,1.8-2,2.3-3.5
		S27.8,65.4,27.6,63.5L27.6,63.5z"/>
	<path class="st1" d="M56,95.3c-1.4,5-2.5,8.8-2.7,9.4v0.3l-7,0.6l-7.5,0.6v-0.3c0.2-0.6,1.4-4.4,9.4-30.2l11.9-38.5l2-0.2l18,36
		c12,24.1,13.8,27.7,14.1,28.3v0.3l-7.4,0.6l-8.6,0.7v-0.3c-0.2-0.6-1.9-4.2-4.1-8.9L56,95.3z M69,81.7v-0.2c-3.8-8.2-5.2-12-6-14.1
		h-0.1c-0.4,2.2-1.3,6.2-3.7,14.9v0.2L69,81.7z"/>
	<path class="st1" d="M146.1,63c1,12.5-3,22.8-11.2,29.7c-5,4.3-11.9,6.7-19.8,7.4c-3.8,0.3-7.5,0.5-10,0.7c-1.6,0.1-3.9,0.1-5.5,0
		v-0.1l-2.4-29l-0.7-8.4l-2.2-26.7l-0.1-0.7c1.5-0.3,3.4-0.7,6.9-1.2c3.7-0.5,6.6-0.8,9.4-1c9.1-0.8,15.9,0.7,21.2,3.6
		C141.5,42.9,145.3,53.4,146.1,63L146.1,63z M131.4,64.6c-0.5-6-2.8-11.2-6.9-14.2c-2.9-2-6.6-3.1-11.2-2.7
		c-1.5,0.1-2.9,0.4-3.9,0.6l3.1,37.5c0,0.2,0.1,0.2,0.2,0.2c1.2,0.1,2.4,0.1,3.5,0c3.4-0.3,6.7-1.7,9.4-4.1
		C129.5,78.1,132.1,72.5,131.4,64.6L131.4,64.6z"/>
	<path class="st1" d="M203.1,58.3c1,12.5-3,22.8-11.2,29.7c-5,4.3-11.9,6.7-19.8,7.4c-3.8,0.3-7.5,0.5-10,0.7
		c-1.6,0.1-3.9,0.1-5.5,0V96l-2.4-29l-0.7-8.4l-2.2-26.7l-0.1-0.7c1.5-0.3,3.4-0.7,6.9-1.2c3.7-0.5,6.6-0.8,9.4-1
		c9.1-0.8,15.9,0.7,21.2,3.6C198.5,38.2,202.3,48.6,203.1,58.3L203.1,58.3z M188.4,59.8c-0.5-6-2.8-11.2-6.9-14.2
		c-2.9-2-6.6-3.1-11.2-2.7c-1.5,0.1-2.9,0.4-3.9,0.6l3.1,37.5c0,0.2,0.1,0.2,0.2,0.2c1.2,0.1,2.4,0.1,3.5,0c3.4-0.3,6.7-1.7,9.4-4.1
		C186.5,73.3,189.1,67.7,188.4,59.8L188.4,59.8z"/>
	<path class="st1" d="M236.6,61.7l0.2,1.9l2.1,25.7v0.2l-6.9,0.6l-7.3,0.6v-0.3L222.6,65l-0.1-1.3l-6.6-10.4
		c-14-22.1-16.2-25.5-16.8-26.3v-0.2l8.8-0.7l7.1-0.6v0.2c0.4,0.7,2.7,4.3,6,9.6c2.7,4.3,5.4,8.8,7.2,12.1h0.2c1.2-3.6,3-8,5.1-12.8
		c2.6-6.1,4.4-10.3,4.7-10.8v-0.2l8.3-0.7l6.7-0.6v0.3c-0.3,0.9-1.9,4.5-12.2,28.7L236.6,61.7z"/>
	<path class="st1" d="M259.7,49.7l-2.3-27.3v-0.2c2-0.4,6.5-1.1,10-1.3c2.4-0.2,5.5-0.4,8.4-0.3c3.3,0.1,7.2,0.8,10.7,2.6
		c5.6,2.8,10.4,8.4,11.2,17.7c0.4,4.5-0.3,8.4-1.6,11.6c-1.6,3.9-4.1,6.9-6.9,8.9c-1.9,1.3-4.1,2.4-6.4,3.2
		c-2.6,0.9-5.4,1.4-8.2,1.7l0.2,2.4l1.5,17.6v0.2l-7.2,0.6l-6.2,0.5v-0.2l-2.4-29.2L259.7,49.7z M283.9,42.1
		c-0.3-3.2-1.9-5.8-4.1-7.2c-1.6-1-3.5-1.4-5.7-1.2c-0.6,0.1-1.4,0.1-2.3,0.3l1.6,19.2c0.4,0,1.8-0.2,2.4-0.3
		c2.1-0.3,3.9-1.2,5.2-2.3c0.9-0.8,1.8-2,2.3-3.5C283.9,45.6,284.1,44.1,283.9,42.1L283.9,42.1z"/>
	<path class="st1" d="M367,45.5c1.6,19.3-10.4,35.2-28.5,36.7c-17.8,1.5-32.6-12.2-34.2-31.1s10.9-34.8,29.1-36.4
		C351.3,13.3,365.4,26.6,367,45.5L367,45.5z M352.5,47c-0.9-10.8-8.6-18.7-18.2-17.9c-10,0.8-16.5,9.7-15.5,20.8
		c0.9,10.9,8.6,18.8,18.8,18C347.6,67.1,353.4,58,352.5,47L352.5,47z"/>
	<path class="st1" d="M429.2,74.9l-1.9,0.2c-17-29.4-19-33.4-20.7-37.4h-0.1c-1,4.3-2.4,8.7-14.4,40.4l-1.9,0.2l-14.7-39.5
		c-7.9-21.2-9.2-24.6-9.5-25.5v-0.2l7.7-0.6l6.8-0.6v0.2c0.3,0.9,1.8,4.2,7.2,19.2c1.5,4.2,2.6,7.6,3.7,10.9h0.2
		c1.1-3.6,2.6-8.2,4.1-12.3c3.7-9.7,6.4-16.1,7.9-19.5l2-0.2c1.9,3.1,5.4,8.5,11.5,18.4c1.6,2.7,4,7.2,5.7,10.7h0.2
		c0.5-3.8,0.8-6.2,1.5-10.2c2.8-16.9,3.9-20.2,4-21.1V7.8l6.5-0.5l6.9-0.6v0.2c-0.1,1.1-0.8,4.5-4.9,26.6L429.2,74.9z"/>
	<path class="st1" d="M449.1,33.9l-2.3-27.6V6.1l16.7-1.4l15.1-1.3l1.1,13h-0.2l-9.3,0.8l-8.2,0.7l1.1,12.9l8.9-0.7l6.5-0.5h0.2
		l0.5,6.3l0.6,6.7h-0.2l-6.4,0.5l-9,0.8l1,11.8l0.1,1.7l12.1-1l5.8-0.5h0.2l1.1,13.1l-14.6,1.2l-17.7,1.5v-0.2l-2.4-29.2L449.1,33.9
		z"/>
	<path class="st1" d="M490.7,30.5l-2.3-27.3V3c1.3-0.3,3.4-0.6,5.4-0.9c1.7-0.2,5.3-0.6,7.4-0.8c4.9-0.4,8.8-0.2,12.3,0.5
		c5.3,1.1,12.7,5.3,13.7,17.4c0.6,7.2-2.1,12.7-4.3,15c-1.3,1.5-2.8,2.9-3.7,3.4v0.3c0.6,0.8,1.7,2.5,14.6,19.8
		c1.8,2.5,4.5,6.1,5,6.7v0.2l-7.9,0.7l-5.7,0.5l-2.4,0.2c-4.9-7.2-10.7-15.8-16.4-24l-1.4,0.1l0.3,4.1l1.7,20.9v0.2l-6.7,0.6
		l-6.7,0.6v-0.2l-2.4-29.2L490.7,30.5z M513.6,21.5c-0.4-5.1-3.5-7.9-8.1-7.5c-1.3,0.1-2,0.3-2.7,0.4l1.4,16.7c0.5,0,1.3,0,2-0.1
		c2-0.2,3.7-1,4.9-2.1C512.4,27.8,513.9,25.2,513.6,21.5L513.6,21.5z"/>
</g>
<circle class="st2" cx="554" cy="51.8" r="8.7"/>
<g id="Logo">
	<g id="Group" transform="translate(-322.000000, -522.000000)">
		<g id="Combined-Shape" transform="translate(322.253313, 522.450000)">
			<path class="st3" d="M234.6,79c4.6,0,7.3,2.8,7.4,7.5l-4.9,1.1c0-2.3-0.8-4-2.4-4c-1.4,0-2.2,0.9-2.2,2.4c0,4.1,9.7,5.1,9.7,13
				c0,4.5-3.4,7.5-7.9,7.5c-4.6,0-7.8-3-7.9-7.9l4.9-1.4c-0.1,2.8,1.1,4.7,2.9,4.7c1.4,0,2.3-0.9,2.3-2.4c0-4.4-9.7-5.3-9.7-12.9
				C226.9,82.1,230,79,234.6,79z M270.3,79c5.7,0,8.9,4.8,8.9,13.7s-3.2,13.7-8.9,13.7c-5.7,0-8.9-4.8-8.9-13.7S264.6,79,270.3,79z
				 M323.7,79c4.6,0,7.3,2.8,7.4,7.5l-4.9,1.1c0-2.3-0.8-4-2.4-4c-1.4,0-2.2,0.9-2.2,2.4c0,4.1,9.7,5.1,9.7,13
				c0,4.5-3.4,7.5-7.9,7.5c-4.6,0-7.8-3-7.9-7.9l4.9-1.4c-0.1,2.8,1.1,4.7,2.9,4.7c1.4,0,2.3-0.9,2.3-2.4c0-4.4-9.7-5.3-9.7-12.9
				C315.9,82.1,319.1,79,323.7,79z M251.6,79.3c5.5,0,8.4,2.9,8.4,8.7c0,5.8-2.9,8.7-8.4,8.7h-1.7v9.3h-5.7V79.3H251.6z M289.7,79.3
				c5.6,0,8.2,2.8,8.2,7.8c0,3.7-2.1,5.9-4.4,6.5v0.1c1.8,0.4,3,1.8,3.4,4.2l0.7,5.3c0.2,1.2,0.5,2.2,1,3h-6
				c-0.4-0.7-0.6-1.6-0.8-2.9l-0.6-4.9c-0.3-1.8-1-2.4-2.4-2.4h-1.5v10.2h-5.7V79.3H289.7z M315,79.3v4.8h-5v22h-5.8v-22h-5.1v-4.8
				H315z M270.3,83.8c-2.1,0-2.9,2.8-2.9,8.9c0,6.1,0.8,8.9,2.9,8.9c2.1,0,2.9-2.8,2.9-8.9C273.2,86.6,272.4,83.8,270.3,83.8z
				 M251.3,84h-1.4v8.2h1.4c2.1,0,3-1.2,3-4.1S253.4,84,251.3,84z M289,84h-1.7v7.5h1.8c2.3,0,3-1.3,3-3.8C292,85.3,291.3,84,289,84
				z M324.5,3.3c6,0,6.6,7,2.2,16.2c-5.2,10.9-12.9,22-27.3,35.4c0.6,4.8,2.7,7.9,6.3,7.9c3.3,0,6.2-1.1,10.7-4.9
				c-0.1-5,1.5-11.4,4.8-18.7c6.5-14.2,17.6-25.3,24.9-25.3c5,0,5.5,6.8,1.5,15.3c-3.8,8.1-11.8,18.5-22.3,27.6c0.2,3.8,1.6,6,4.2,6
				c5.4,0,10.8-6.6,16.3-17.2c2.3-4.5,4.5-8.5,7.2-13.2c0.6-1.1,1.9-1.6,6.4-1.6c1.2,0,1.6,0.3,1.6,0.9c0,0.6-0.5,1.7-3,7.2
				c-2.4,5.2-4.4,9.5-6.2,13.4c-2.2,4.7-1.6,7,0.2,7c3.2,0,10.8-9.4,20.8-27.1c0.6-1.1,1.9-1.6,6.4-1.6c1.2,0,1.6,0.3,1.6,0.9
				c0,0.6-0.4,1.7-3,7.2c-2.7,5.9-5.7,12.2-8.7,18.5l-1.1,2.2c-4.6,9.7-9.2,19.3-13.2,27.5c-1,2.1-2.8,2.9-7.1,2.9
				c-1.1,0-1.8-0.5-1.8-1.2c0,0,0-0.1,0-0.1l0-0.1c0-0.4,0.2-1,1-2.7l0.1-0.3c0.5-1.2,1.3-2.9,2.4-5.3c3.1-6.7,6.6-14.2,10.1-21.7
				c-6.3,5.7-10.1,8.2-13.2,8.2c-3.7,0-5.5-3.6-5.3-8.1c-5.8,7-10.5,9.6-15.2,9.6c-4.7,0-7.6-2.3-8.8-6.3c-5.5,4.8-9.8,6.3-14.9,6.3
				c-5.6,0-9.3-3.2-10.9-8.5c-6.1,6.1-10.3,8-14.2,8c-4.2,0-7-2.5-7.5-5.9c-5.4,4.5-9.1,6.4-12.1,6.4c-6.5,0-8.2-8.5-4.2-17.2
				c6-13,18.2-20.9,27.2-20.9c4.7,0,7.3,2.4,7.3,4.8c0,1.9-1.7,3.7-4.2,3.7c-2.6,0-4.7-2.2-5.2-4.6c-5.6,0.6-11.1,7-15.3,15.8
				c-4.5,9.6-3.5,12.3-1.2,12.3c4.5,0,9-9,14.9-17.9c0.7-1.1,2.1-1.6,6.5-1.6c1.2,0,1.6,0.3,1.6,0.8c0,0.5-0.5,1.6-2.7,6.1l-0.2,0.5
				c-0.1,0.2-0.3,0.5-0.4,0.8c-2.8,5.6-3.5,7.2-3.5,8.8c0,1.4,0.6,2.2,2.1,2.2c2.4,0,5.3-1.3,10.4-6.2c-0.5-6,1-13.7,4.8-22
				C302.7,18.2,316.6,3.3,324.5,3.3z M243.8,1.5c19.3,0,27.3,11.4,22.2,22.3c-3.2,7.1-12.6,12.7-25.6,15.3
				c6.9,5.6,9.2,13.2,5.9,20.1c-2.8,6-8.9,9.5-16.9,9.5c-6.1,0-10.1-3.1-10.1-7.5c0-2.3,1.9-4.3,4.3-4.3c2.4,0,4.4,2.3,4.4,4.9
				c0,1-0.3,2-0.6,3c4.3,0.2,8.1-2.7,10.6-8c2.8-5.9,0.6-13.8-4.9-17.9c-0.6-0.5-0.8-0.9-0.8-1.3c0-0.6,0.4-1,1.6-1.2
				c9.4-1.3,19.4-8,22.5-14.9c4.2-8.9-2-15.6-16.6-15.6c-16.6,0-36.3,13.4-47.7,38c-6.3,13.4-5.5,25.2,2.9,25.2
				c15.5,0,17.5-56.4,46.1-55.9c0.9,0,1.1,1.3,0.3,1.6c-21.6,7.6-19.3,58.9-45.1,58.9c-13,0-18.4-15.9-9.1-35.7
				C196.8,17.1,219.4,1.5,243.8,1.5z M344.9,18.4c-3.1,0-10,8.5-14.4,18c-2.5,5.6-4.2,10.8-4.8,15.1c6.3-6.1,14.6-17.4,17.8-24.4
				C346.1,21.7,346.7,18.4,344.9,18.4z M324,7.9c-4.2,0-14.5,12.7-19.8,24.4c-2.9,6.2-4.5,12.5-4.8,17.7c8.4-8.8,18.3-22.5,23-32.5
				C325.2,11.3,325.7,7.9,324,7.9z"/>
		</g>
	</g>
</g>
</svg>
