<svg xmlns="http://www.w3.org/2000/svg" width="41.938" height="42.22" viewBox="0 0 41.938 42.22">
  <metadata><?xpacket begin="﻿" id="W5M0MpCehiHzreSzNTczkc9d"?>
<x:xmpmeta xmlns:x="adobe:ns:meta/" x:xmptk="Adobe XMP Core 5.6-c138 79.159824, 2016/09/14-01:09:01        ">
   <rdf:RDF xmlns:rdf="http://www.w3.org/1999/02/22-rdf-syntax-ns#">
      <rdf:Description rdf:about=""/>
   </rdf:RDF>
</x:xmpmeta>
                                                                                                    
                                                                                                    
                                                                                                    
                                                                                                    
                                                                                                    
                                                                                                    
                                                                                                    
                                                                                                    
                                                                                                    
                                                                                                    
                                                                                                    
                                                                                                    
                                                                                                    
                                                                                                    
                                                                                                    
                                                                                                    
                                                                                                    
                                                                                                    
                                                                                                    
                                                                                                    
                           
<?xpacket end="w"?></metadata>
<defs>
    <style>
      .cls-1 {
        fill: #444;
        opacity: 0.5;
      }

      .cls-1, .cls-2 {
        fill-rule: evenodd;
      }

      .cls-2 {
        fill: #fff;
      }
    </style>
  </defs>
  <path id="Base_2_copy_5" data-name="Base 2 copy 5" class="cls-1" d="M838.038,1217.29a19.249,19.249,0,0,1,13.867,5.45,21.467,21.467,0,0,1,7.07,15.72,21.2,21.2,0,0,1-7.066,15.85,19.9,19.9,0,0,1-13.994,5.19c-6.652,0-11.749-3.08-15.711-7.81a21.025,21.025,0,0,1-5.18-13.64,21.558,21.558,0,0,1,9.2-17.68C829.729,1217.9,833.422,1217.29,838.038,1217.29Z" transform="translate(-817.031 -1217.28)"/>
  <path class="cls-2" d="M831.991,1225.55l9.454,16.85-0.788.62s-1.978,6.12-4.227,7.05a1.912,1.912,0,0,0,.072,2.67l0.68,0.83a1.313,1.313,0,0,0,1.54-.03l10.818-8.17s2.35-2.81-2.149-5.6l-0.9-1.13-0.716.58-6.3-17.22Zm-0.772,12.04a5.41,5.41,0,1,1-5.406,5.41A5.406,5.406,0,0,1,831.219,1237.59Z" transform="translate(-817.031 -1217.28)"/>
</svg>
