<svg xmlns="http://www.w3.org/2000/svg" width="13" height="18" viewBox="0 0 13 18">
  <metadata><?xpacket begin="﻿" id="W5M0MpCehiHzreSzNTczkc9d"?>
<x:xmpmeta xmlns:x="adobe:ns:meta/" x:xmptk="Adobe XMP Core 5.6-c138 79.159824, 2016/09/14-01:09:01        ">
   <rdf:RDF xmlns:rdf="http://www.w3.org/1999/02/22-rdf-syntax-ns#">
      <rdf:Description rdf:about=""/>
   </rdf:RDF>
</x:xmpmeta>
                                                                                                    
                                                                                                    
                                                                                                    
                                                                                                    
                                                                                                    
                                                                                                    
                                                                                                    
                                                                                                    
                                                                                                    
                                                                                                    
                                                                                                    
                                                                                                    
                                                                                                    
                                                                                                    
                                                                                                    
                                                                                                    
                                                                                                    
                                                                                                    
                                                                                                    
                                                                                                    
                           
<?xpacket end="w"?></metadata>
<defs>
    <style>
      .cls-1 {
        fill: #ededed;
        fill-rule: evenodd;
      }
    </style>
  </defs>
  <path id="question-gray" class="cls-1" d="M62.989,25.5H59.613a0.577,0.577,0,0,0-.563.563v3.374a0.577,0.577,0,0,0,.563.562h3.377a0.577,0.577,0,0,0,.563-0.562V26.061A0.577,0.577,0,0,0,62.989,25.5Zm4.432-10.1a5.828,5.828,0,0,0-1.491-1.793,7.631,7.631,0,0,0-2.054-1.167A6.308,6.308,0,0,0,61.611,12a7.187,7.187,0,0,0-6.528,3.74,0.554,0.554,0,0,0-.077.394,0.546,0.546,0,0,0,.218.351l2.307,1.758a0.675,0.675,0,0,0,.352.112,0.547,0.547,0,0,0,.436-0.225,9.592,9.592,0,0,1,1.505-1.617,2.661,2.661,0,0,1,1.519-.408,2.606,2.606,0,0,1,1.513.45,1.271,1.271,0,0,1,.654,1.04,1.578,1.578,0,0,1-.352,1.069,3.472,3.472,0,0,1-1.182.787,5.94,5.94,0,0,0-2.012,1.525,3.274,3.274,0,0,0-.915,2.2v0.633a1.054,1.054,0,0,0,.148.527,0.423,0.423,0,0,0,.359.26h3.377a0.49,0.49,0,0,0,.394-0.218,0.735,0.735,0,0,0,.169-0.457,1.916,1.916,0,0,1,.387-0.942,2.759,2.759,0,0,1,.964-0.914q0.548-.309.858-0.5a7.092,7.092,0,0,0,.809-0.612,4.053,4.053,0,0,0,.774-0.836,4.744,4.744,0,0,0,.711-2.5A4.6,4.6,0,0,0,67.421,15.4Z" transform="translate(-55 -12)"/>
</svg>
