<?xml version="1.0" encoding="utf-8"?>
<!-- Generator: Adobe Illustrator 19.0.0, SVG Export Plug-In . SVG Version: 6.00 Build 0)  -->
<svg version="1.1" xmlns="http://www.w3.org/2000/svg" xmlns:xlink="http://www.w3.org/1999/xlink" x="0px" y="0px"
	 viewBox="-289 364.5 65 65" style="enable-background:new -289 364.5 65 65;" xml:space="preserve">
<style type="text/css">
	.st0{opacity:0.5;}
	.st1{fill:#7BC074;}
	.st2{fill:#FFFFFF;}
	.st3{clip-path:url(#SVGID_2_);}
	.st4{fill:#FFF331;}
	.st5{enable-background:new    ;}
	.st6{display:none;}
	.st7{display:inline;}
	.st8{opacity:0.5;fill:#7FC878;}
	.st9{fill:#D52217;}
	.st10{fill:#EA5448;}
	.st11{fill:#FD8A79;}
	.st12{fill:#FFBDAD;}
	.st13{fill:#00507F;}
	.st14{fill:url(#SVGID_3_);}
	.st15{fill:url(#SVGID_4_);}
</style>
<g id="Fire">
	<g>
		<g id="Shape_4" class="st0">
			<g>
				<path class="st1" d="M-238,422.6c0,0-1.7-8.7-11.9-7.9c0,0-0.1,1.7-2.4,1.6c0,0-16.3-2.3-26.1,4.7c0,0,5.3,5,19.4,4.5
					c0,0,9.3,1.2,12.2,1.9C-246.7,427.4-236.3,427.6-238,422.6z"/>
			</g>
		</g>
		<path class="st2" d="M-232.9,394.5l-5,6.1c0,0-6.3-8.1-10.7-28.5l-2.8,5l-2.8-10.6c0,0-12.4,13-11.2,25.7c0,0-3.4-2-3.9-7.3
			c0,0-4.6,7-2.8,20.7l-6.8-2.2c0,0,11.8,23.3,28.6,18.5C-250.3,421.9-232.1,414.6-232.9,394.5z"/>
		<g>
			<defs>
				<path id="SVGID_1_" d="M-235.2,394.5l-4.6,5.6c0,0-5.8-7.4-9.7-26l-2.5,4.6l-2.6-9.7c0,0-11.2,11.8-10.2,23.5
					c0,0-3.1-1.8-3.6-6.6c0,0-4.1,6.4-2.5,18.9l-6.1-2c0,0,10.7,21.3,26,16.9C-251,419.5-234.5,412.9-235.2,394.5z"/>
			</defs>
			<clipPath id="SVGID_2_">
				<use xlink:href="#SVGID_1_"  style="overflow:visible;"/>
			</clipPath>
			<g class="st3">
				
					<image style="overflow:visible;enable-background:new    ;" width="43" height="52" id="Shape_1_copy__x2B__Shape_2_xA0_Image" xlink:href="FE051D44.png"  transform="matrix(1 0 0 1 -277.9128 368.5494)">
				</image>
			</g>
		</g>
		<g id="Shape_3">
			<g>
				<path class="st4" d="M-246.4,397.6l-3.1,5.1c0,0-4.1-9.8-3.1-14.3c0,0-4.2,2.9-4.6,7.6l-4.6-5.6c0,0-3.8,6.9-1,16.3l-4.6-3.6
					c0,0,0.1,8.5,8.7,12.8c0,0,9.3,2.8,13.3-9.2l-5.6,3.6C-251,410.3-242,404.6-246.4,397.6z"/>
			</g>
		</g>
		<g id="Shape_4_copy_2_1_" class="st5">
			<g id="Shape_4_copy_2">
				<g>
					<path class="st2" d="M-238.3,383.3l-1.5,2.5l3.1,3.1l1.5-3.6L-238.3,383.3z M-279.1,394.5l3.1,3l1.5-3.6l-3.1-2L-279.1,394.5z
						 M-275.5,384.8l-3.1-2l-1.5,2.5l3.1,3.1L-275.5,384.8z"/>
				</g>
			</g>
		</g>
	</g>
</g>
<g id="Heart" class="st6">
	<g class="st7">
		<ellipse class="st8" cx="-256.6" cy="416.5" rx="27.6" ry="8.6"/>
		<path class="st9" d="M-245.3,370c0,0,12-3.1,16.6,9.1c1.7,6.3,0.3,13-3.8,18.1l-19.9,18.1c0,0-3.6,4-7,0.5l-18.3-16
			c0,0-8.4-6.6-7.5-17.1c0,0,0.5-11.5,13.4-12.8c0,0,10-1.3,15,9.1C-256.6,379-254.1,372.3-245.3,370z"/>
		<path class="st10" d="M-260.9,411.5c2.1,2.3,5.7,2.6,8,0.5L-233,395c0,0,5.2-4.3,5.4-13.3c0,0-2.4-13.5-15.6-12.3
			c0,0-11.9,1.5-13.4,8.5c0,0-8.9-12.8-20.9-8c0,0-11.2,6.1-7,16.5c0,0,2,6.7,6.4,10.1L-260.9,411.5z"/>
		<path class="st11" d="M-282.9,384.9c0,0-0.4,3.5,5.9,5.9c0,0,10.7,4.1,27.4,2.7c0,0,17.9-1.6,19.9-8v-3.2c0,0-1.3-10.4-12.9-10.1
			c-5.9-0.1-11.4,3.2-14,8.5c0,0-5.2-9.2-12.9-8.5C-269.4,372.1-282.4,371.6-282.9,384.9z"/>
		<path class="st12" d="M-270.5,374.2c3.3,0,5.9,1.4,5.9,3.2s-2.6,3.2-5.9,3.2c-3.3,0-5.9-1.4-5.9-3.2S-273.8,374.2-270.5,374.2z"/>
		<ellipse id="Ellipse_1_copy" class="st12" cx="-242.1" cy="377.4" rx="5.9" ry="3.2"/>
	</g>
</g>
<g id="Layer_3" class="st6">
	<g class="st7">
		<path class="st8" d="M-252.7,419.1c12.8,0,23.2,1.4,23.2,3.1c0,1.7-10.4,3.1-23.2,3.1s-23.2-1.4-23.2-3.1
			C-276,420.4-265.6,419.1-252.7,419.1z"/>
		<path class="st13" d="M-242.3,395.8h-3.4c-1.3,0.2-2.3,1.4-2.1,2.7c0,0.2,0.1,0.4,0.2,0.6l7.1,12.4c1,1,2.6,1,3.5,0
			c0.1-0.1,0.1-0.1,0.2-0.2l8.8-12.2c0,0,1.2-3-1.9-3.3H-242.3z M-268.2,377.2l2.5,4.4c0,0,0.8,1.9,3.4,0.7c0,0,7.2-3.2,13.1,1
			c0,0,6.2,3.1,6.9,12.5h8.9c0,0,0.8-11.4-8.7-18.6c-5.2-4.2-11.9-6.1-18.4-5.1c0,0-4.9,1-7,2.3C-267.5,374.4-269,374.9-268.2,377.2
			L-268.2,377.2z M-247.4,399.6l1-2.6c-0.8-1-0.9-2.4-0.2-3.5C-246.6,393.5-248.4,397.9-247.4,399.6L-247.4,399.6z M-227.4,393.4
			c0.5,0.9,0.5,1.9,0,2.8l-0.7,0.9l-0.5,2.9C-227.1,398.1-226.6,395.6-227.4,393.4L-227.4,393.4z"/>
		<linearGradient id="SVGID_3_" gradientUnits="userSpaceOnUse" x1="-267.7559" y1="388.9672" x2="-226.9844" y2="388.9672">
			<stop  offset="0" style="stop-color:#2287C1"/>
			<stop  offset="1" style="stop-color:#47BCFF"/>
		</linearGradient>
		<path class="st14" d="M-229.1,392.7h-3.5c0,0,0.8-11.4-8.7-18.6c-5.2-4.2-11.9-6-18.5-5.1c0,0-4.9,1-7,2.3c0,0-1.5,0.5-0.7,2.8h0
			l2.5,4.4c0,0,0.8,1.9,3.4,0.7c0,0,7.2-3.2,13.1,1c0,0,6.2,3.1,6.9,12.5h-3.4c-1.3,0.2-2.3,1.4-2.1,2.8c0,0.2,0.1,0.4,0.2,0.6
			l7.1,12.4c1,1,2.5,1,3.5,0c0.1-0.1,0.1-0.2,0.2-0.2l8.8-12.2C-227.2,396-226,393-229.1,392.7z"/>
		<path id="Shape_9_copy" class="st13" d="M-270.8,393.7l3.4-0.1c1.3-0.2,2.2-1.5,2-2.8c0-0.2-0.1-0.4-0.2-0.6L-273,378
			c-1-0.9-2.6-0.9-3.5,0.1c-0.1,0.1-0.1,0.1-0.2,0.2l-8.5,12.4c0,0-1.1,3.1,2,3.3L-270.8,393.7z M-244.4,411.6l-2.6-4.3
			c0,0-0.9-1.8-3.4-0.6c0,0-7.1,3.4-13.1-0.7c0,0-6.2-2.9-7.2-12.3l-8.9,0.3c0,0-0.5,11.5,9.2,18.4c5.3,4.1,12,5.7,18.6,4.5
			c0,0,4.9-1.1,7-2.5C-245,414.4-243.4,413.8-244.4,411.6L-244.4,411.6z M-265.8,389.8l-0.9,2.7c0.8,1,1,2.3,0.3,3.4
			C-266.4,395.9-264.7,391.4-265.8,389.8z M-285.5,396.6c-0.5-0.8-0.5-1.9-0.1-2.8l0.7-0.9l0.4-2.9
			C-286,391.9-286.4,394.3-285.5,396.6L-285.5,396.6z"/>
		<linearGradient id="SVGID_4_" gradientUnits="userSpaceOnUse" x1="-286.0156" y1="400.417" x2="-244.6506" y2="400.417">
			<stop  offset="0" style="stop-color:#2287C1"/>
			<stop  offset="1" style="stop-color:#47BCFF"/>
		</linearGradient>
		<path class="st15" d="M-244.9,414.7l-2.6-4.3c0,0-0.9-1.8-3.4-0.6c0,0-7.1,3.4-13.1-0.7c0,0-6.2-2.9-7.2-12.3l3.4-0.1
			c1.3-0.2,2.2-1.5,2-2.8c0-0.2-0.1-0.4-0.2-0.6l-7.5-12.2c-1-0.9-2.6-0.9-3.5,0.1c-0.1,0.1-0.1,0.2-0.2,0.2l-8.5,12.4
			c0,0-1.1,3.1,2,3.3l3.5-0.1c0,0-0.5,11.5,9.2,18.4c5.3,4.1,12,5.7,18.6,4.5c0,0,4.9-1.1,7-2.5C-245.5,417.5-244,417-244.9,414.7z"
			/>
	</g>
</g>
</svg>
