<?xml version="1.0" encoding="UTF-8"?>
<svg width="142px" height="24px" viewBox="0 0 142 24" version="1.1" xmlns="http://www.w3.org/2000/svg" xmlns:xlink="http://www.w3.org/1999/xlink">
    <!-- Generator: Sketch 61.2 (89653) - https://sketch.com -->
    <title>FUN Color</title>
    <desc>Created with Sketch.</desc>
    <g id="Betfair-Footer-" stroke="none" stroke-width="1" fill="none" fill-rule="evenodd">
        <g id="2.1---Footer---Mini---RG---Revised" transform="translate(-12.000000, -96.000000)">
            <g id="RG-logos" transform="translate(12.000000, 24.000000)">
                <g id="Logo/Common/FUN-Color" transform="translate(0.000000, 72.000000)">
                    <rect id="Rectangle" fill="#FCED00" x="0" y="0" width="142" height="24"></rect>
                    <g id="logo_static_2" stroke-width="1" transform="translate(4.034091, 1.500000)">
                        <path d="M0.821487603,6.81818182 L1.775,12.6545455 L1.78966942,12.6545455 L2.99256198,6.81818182 L3.69669421,6.81818182 L4.94359504,12.6545455 L4.95826446,12.6545455 L5.85309917,6.81818182 L6.64524793,6.81818182 L5.35433884,14.25 L4.62086777,14.25 L3.35929752,8.41363636 L3.3446281,8.41363636 L2.08305785,14.25 L1.34958678,14.25 L0.0146694215,6.81818182 L0.821487603,6.81818182 Z M8.17086777,6.81818182 L8.17086777,10.0090909 L10.5766529,10.0090909 L10.5766529,6.81818182 L11.3688017,6.81818182 L11.3688017,14.25 L10.5766529,14.25 L10.5766529,10.7454545 L8.17086777,10.7454545 L8.17086777,14.25 L7.37871901,14.25 L7.37871901,6.81818182 L8.17086777,6.81818182 Z M15.7696281,6.81818182 L15.7696281,7.56818182 L13.0264463,7.56818182 L13.0264463,10.0090909 L15.0801653,10.0090909 L15.0801653,10.7454545 L13.0264463,10.7454545 L13.0264463,13.6090909 L15.872314,13.6090909 L15.872314,14.25 L12.1022727,14.25 L12.1022727,6.81818182 L15.7696281,6.81818182 Z M17.8966942,6.81818182 L19.9650826,12.3409091 L20.0384298,12.3409091 L20.0384298,6.81818182 L20.8305785,6.81818182 L20.8305785,14.25 L19.9210744,14.25 L17.4419421,7.77272727 L17.4126033,7.77272727 L17.4126033,14.25 L16.4884298,14.25 L16.4884298,6.81818182 L17.8966942,6.81818182 Z M28.2533058,6.81818182 L28.2533058,7.56818182 L26.6543388,7.56818182 L26.6543388,14.25 L25.7448347,14.25 L25.7448347,7.56818182 L24.1458678,7.56818182 L24.1458678,6.81818182 L28.2533058,6.81818182 Z M29.9109504,6.81818182 L29.9109504,10.0090909 L32.3020661,10.0090909 L32.3020661,6.81818182 L33.1088843,6.81818182 L33.1088843,14.25 L32.3020661,14.25 L32.3020661,10.7454545 L29.9109504,10.7454545 L29.9109504,14.25 L28.9867769,14.25 L28.9867769,6.81818182 L29.9109504,6.81818182 Z M37.4950413,6.81818182 L37.4950413,7.56818182 L34.7518595,7.56818182 L34.7518595,10.0090909 L36.8055785,10.0090909 L36.8055785,10.7454545 L34.7518595,10.7454545 L34.7518595,13.6090909 L37.5977273,13.6090909 L37.5977273,14.25 L33.8423554,14.25 L33.8423554,6.81818182 L37.4950413,6.81818182 Z M88.5006198,8.72727273 C88.4272727,7.99090909 88.1045455,7.40454545 87.2683884,7.40454545 C86.6082645,7.40454545 86.1681818,7.82727273 86.1681818,8.38636364 C86.1681818,10.0636364 89.3807851,10.0909091 89.3807851,12.4772727 C89.3807851,13.6636364 88.647314,14.3590909 87.3270661,14.3590909 C86.0801653,14.3590909 85.3173554,13.5136364 85.302686,12.2318182 L86.0948347,12.2318182 C86.1095041,13.1863636 86.5642562,13.6772727 87.4150826,13.6772727 C88.1338843,13.6772727 88.6033058,13.2545455 88.6033058,12.4636364 C88.6033058,10.7727273 85.3907025,10.5818182 85.3907025,8.46818182 C85.3907025,7.41818182 86.1681818,6.73636364 87.3123967,6.73636364 C88.471281,6.73636364 89.2194215,7.47272727 89.2780992,8.74090909 L88.5006198,8.74090909 L88.5006198,8.72727273 Z M93.8842975,6.81818182 L93.8842975,7.56818182 L92.2853306,7.56818182 L92.2853306,14.25 L91.3758264,14.25 L91.3758264,7.56818182 L89.7768595,7.56818182 L89.7768595,6.81818182 L93.8842975,6.81818182 Z M96.407438,14.3727273 C95.0578512,14.3727273 94.1483471,13.3227273 94.1483471,10.5545455 C94.1483471,7.78636364 95.0578512,6.73636364 96.407438,6.73636364 C97.7570248,6.73636364 98.6665289,7.78636364 98.6665289,10.5545455 C98.6811983,13.3227273 97.7716942,14.3727273 96.407438,14.3727273 L96.407438,14.3727273 Z M96.407438,7.41818182 C95.6299587,7.41818182 95.013843,8.03181818 95.013843,10.5545455 C95.013843,13.0772727 95.6299587,13.6909091 96.407438,13.6909091 C97.1849174,13.6909091 97.8010331,13.0772727 97.8010331,10.5545455 C97.8157025,8.03181818 97.1849174,7.41818182 96.407438,7.41818182 L96.407438,7.41818182 Z" id="Shape" fill="#221F1F" fill-rule="nonzero"></path>
                        <path d="M99.5320248,6.81818182 L101.42438,6.81818182 C102.715289,6.81818182 103.551446,7.65 103.551446,8.89090909 C103.551446,10.1318182 102.715289,10.9636364 101.42438,10.9636364 L100.441529,10.9636364 L100.441529,14.25 L99.5320248,14.25 L99.5320248,6.81818182 L99.5320248,6.81818182 Z M100.456198,10.2136364 L101.321694,10.2136364 C102.18719,10.2136364 102.70062,9.81818182 102.70062,8.89090909 C102.70062,7.96363636 102.18719,7.56818182 101.321694,7.56818182 L100.456198,7.56818182 L100.456198,10.2136364 L100.456198,10.2136364 Z M107.380165,8.72727273 C107.306818,7.99090909 106.984091,7.40454545 106.147934,7.40454545 C105.48781,7.40454545 105.047727,7.82727273 105.047727,8.38636364 C105.047727,10.0636364 108.260331,10.0909091 108.260331,12.4772727 C108.260331,13.6636364 107.52686,14.3590909 106.206612,14.3590909 C104.959711,14.3590909 104.196901,13.5136364 104.182231,12.2318182 L104.97438,12.2318182 C105.003719,13.1863636 105.443802,13.6772727 106.294628,13.6772727 C107.01343,13.6772727 107.482851,13.2545455 107.482851,12.4636364 C107.482851,10.7727273 104.270248,10.5818182 104.270248,8.46818182 C104.270248,7.41818182 105.047727,6.73636364 106.191942,6.73636364 C107.350826,6.73636364 108.098967,7.47272727 108.157645,8.74090909 L107.380165,8.74090909 L107.380165,8.72727273 Z M88.5006198,8.72727273 C88.4272727,7.99090909 88.1045455,7.40454545 87.2683884,7.40454545 C86.6082645,7.40454545 86.1681818,7.82727273 86.1681818,8.38636364 C86.1681818,10.0636364 89.3807851,10.0909091 89.3807851,12.4772727 C89.3807851,13.6636364 88.647314,14.3590909 87.3270661,14.3590909 C86.0801653,14.3590909 85.3173554,13.5136364 85.302686,12.2318182 L86.0948347,12.2318182 C86.1095041,13.1863636 86.5642562,13.6772727 87.4150826,13.6772727 C88.1338843,13.6772727 88.6033058,13.2545455 88.6033058,12.4636364 C88.6033058,10.7727273 85.3907025,10.5818182 85.3907025,8.46818182 C85.3907025,7.41818182 86.1681818,6.73636364 87.3123967,6.73636364 C88.471281,6.73636364 89.2194215,7.47272727 89.2780992,8.74090909 L88.5006198,8.74090909 L88.5006198,8.72727273 Z M93.8842975,6.81818182 L93.8842975,7.56818182 L92.2853306,7.56818182 L92.2853306,14.25 L91.3758264,14.25 L91.3758264,7.56818182 L89.7768595,7.56818182 L89.7768595,6.81818182 L93.8842975,6.81818182 Z M96.407438,14.3727273 C95.0578512,14.3727273 94.1483471,13.3227273 94.1483471,10.5545455 C94.1483471,7.78636364 95.0578512,6.73636364 96.407438,6.73636364 C97.7570248,6.73636364 98.6665289,7.78636364 98.6665289,10.5545455 C98.6811983,13.3227273 97.7716942,14.3727273 96.407438,14.3727273 L96.407438,14.3727273 Z M96.407438,7.41818182 C95.6299587,7.41818182 95.013843,8.03181818 95.013843,10.5545455 C95.013843,13.0772727 95.6299587,13.6909091 96.407438,13.6909091 C97.1849174,13.6909091 97.8010331,13.0772727 97.8010331,10.5545455 C97.8157025,8.03181818 97.1849174,7.41818182 96.407438,7.41818182 L96.407438,7.41818182 Z" id="Shape" fill="#221F1F" fill-rule="nonzero"></path>
                        <path d="M99.5320248,6.81818182 L101.42438,6.81818182 C102.715289,6.81818182 103.551446,7.65 103.551446,8.89090909 C103.551446,10.1318182 102.715289,10.9636364 101.42438,10.9636364 L100.441529,10.9636364 L100.441529,14.25 L99.5320248,14.25 L99.5320248,6.81818182 L99.5320248,6.81818182 Z M100.456198,10.2136364 L101.321694,10.2136364 C102.18719,10.2136364 102.70062,9.81818182 102.70062,8.89090909 C102.70062,7.96363636 102.18719,7.56818182 101.321694,7.56818182 L100.456198,7.56818182 L100.456198,10.2136364 L100.456198,10.2136364 Z M107.380165,8.72727273 C107.306818,7.99090909 106.984091,7.40454545 106.147934,7.40454545 C105.48781,7.40454545 105.047727,7.82727273 105.047727,8.38636364 C105.047727,10.0636364 108.260331,10.0909091 108.260331,12.4772727 C108.260331,13.6636364 107.52686,14.3590909 106.206612,14.3590909 C104.959711,14.3590909 104.196901,13.5136364 104.182231,12.2318182 L104.97438,12.2318182 C105.003719,13.1863636 105.443802,13.6772727 106.294628,13.6772727 C107.01343,13.6772727 107.482851,13.2545455 107.482851,12.4636364 C107.482851,10.7727273 104.270248,10.5818182 104.270248,8.46818182 C104.270248,7.41818182 105.047727,6.73636364 106.191942,6.73636364 C107.350826,6.73636364 108.098967,7.47272727 108.157645,8.74090909 L107.380165,8.74090909 L107.380165,8.72727273 Z M129.83905,7.88181818 L129.31095,7.88181818 L129.31095,10.1727273 L129.83905,10.1727273 C130.733884,10.1727273 131.012603,9.91363636 131.012603,9.02727273 C131.012603,8.14090909 130.733884,7.88181818 129.83905,7.88181818 L129.83905,7.88181818 Z M124.924793,7.84090909 C124.367355,7.84090909 124.191322,8.11363636 124.191322,8.65909091 L124.191322,12.4363636 C124.191322,12.9954545 124.367355,13.2545455 124.924793,13.2545455 C125.482231,13.2545455 125.658264,12.9818182 125.658264,12.4363636 L125.658264,8.65909091 C125.658264,8.1 125.482231,7.84090909 124.924793,7.84090909 L124.924793,7.84090909 Z M127.477273,0.0681818182 L118.147521,0.0681818182 L111.590289,6.19090909 L111.590289,14.8636364 L118.147521,20.9318182 L127.477273,20.9318182 L133.183678,15.6409091 L134.019835,14.8636364 L134.019835,6.19090909 L127.477273,0.0681818182 L127.477273,0.0681818182 Z M115.404339,14.3727273 C114.128099,14.3727273 113.394628,13.4181818 113.33595,12.3136364 L114.641529,12.1363636 C114.700207,12.8863636 115.022934,13.2545455 115.463017,13.2545455 C115.947107,13.2545455 116.255165,13.0227273 116.255165,12.5727273 C116.255165,11.1 113.467975,10.7045455 113.467975,8.57727273 C113.467975,7.39090909 114.245455,6.72272727 115.595041,6.72272727 C116.709917,6.72272727 117.384711,7.47272727 117.502066,8.52272727 L116.196488,8.65909091 C116.13781,8.01818182 115.771074,7.82727273 115.463017,7.82727273 C115.022934,7.82727273 114.773554,8.1 114.773554,8.56363636 C114.773554,9.83181818 117.560744,10.4454545 117.560744,12.4636364 C117.575413,13.6909091 116.695248,14.3727273 115.404339,14.3727273 L115.404339,14.3727273 Z M122.122934,7.93636364 L120.788017,7.93636364 L120.788017,14.2636364 L119.409091,14.2636364 L119.409091,7.93636364 L118.088843,7.93636364 L118.088843,6.81818182 L122.122934,6.81818182 L122.122934,7.93636364 L122.122934,7.93636364 Z M127.03719,12.4636364 C127.03719,13.5136364 126.377066,14.3727273 124.924793,14.3727273 C123.48719,14.3727273 122.812397,13.5136364 122.812397,12.4636364 L122.812397,8.63181818 C122.812397,7.58181818 123.472521,6.72272727 124.924793,6.72272727 C126.362397,6.72272727 127.03719,7.58181818 127.03719,8.63181818 L127.03719,12.4636364 Z M129.912397,11.2090909 L129.31095,11.2090909 L129.31095,14.2636364 L127.932025,14.2636364 L127.932025,6.81818182 L129.912397,6.81818182 C131.61405,6.81818182 132.391529,7.43181818 132.391529,9.01363636 C132.391529,10.6090909 131.59938,11.2090909 129.912397,11.2090909 L129.912397,11.2090909 Z" id="Shape" fill="#221F1F" fill-rule="nonzero"></path>
                        <path d="M132.772934,0.0818181818 L132.772934,0.218181818 L132.450207,0.218181818 L132.450207,1.56818182 L132.274174,1.56818182 L132.274174,0.218181818 L131.951446,0.218181818 L131.951446,0.0818181818 L132.772934,0.0818181818 L132.772934,0.0818181818 Z M133.198347,0.0818181818 L133.477066,1.2 L133.755785,0.0818181818 L134.034504,0.0818181818 L134.034504,1.56818182 L133.87314,1.56818182 L133.87314,0.204545455 L133.535744,1.56818182 L133.418388,1.56818182 L133.080992,0.204545455 L133.080992,1.56818182 L132.919628,1.56818182 L132.919628,0.0818181818 L133.198347,0.0818181818 L133.198347,0.0818181818 Z M59.5578512,13.0909091 C60.4086777,13.0909091 60.5260331,12.6 60.5260331,12.3 L60.5260331,3.49090909 L66.3791322,3.49090909 L66.3791322,12.3 C66.3791322,15.3272727 63.8413223,18.4636364 59.6018595,18.4636364 L59.5285124,18.4636364 C55.2890496,18.4636364 52.7512397,15.3272727 52.7512397,12.3 L52.7512397,3.49090909 L58.6043388,3.49090909 L58.6043388,12.3 C58.5896694,12.6 58.7216942,13.0909091 59.5578512,13.0909091 Z" id="Shape" fill="#221F1F" fill-rule="nonzero"></path>
                        <path d="M59.6018595,18.1090909 L59.5285124,18.1090909 C55.5237603,18.1090909 53.1326446,15.15 53.1326446,12.3 L53.1326446,3.84545455 L58.2082645,3.84545455 L58.2082645,12.3 C58.2082645,12.5727273 58.3109504,13.4454545 59.5578512,13.4454545 C60.8194215,13.4454545 60.907438,12.5590909 60.907438,12.3 L60.907438,3.84545455 L65.983125,3.84545455 L65.983125,12.3 C65.9977273,15.1636364 63.6066116,18.1090909 59.6018595,18.1090909 L59.6018595,18.1090909 Z M53.3673554,4.07727273 L53.3673554,12.3 C53.3673554,15.0409091 55.6704545,17.8909091 59.5285124,17.8909091 L59.6018595,17.8909091 C63.4599174,17.8909091 65.7630165,15.0545455 65.7630165,12.3 L65.7630165,4.07727273 L61.1714876,4.07727273 L61.1714876,12.3 C61.1714876,12.6681818 61.0394628,12.9954545 60.8047521,13.2409091 C60.5260331,13.5272727 60.1006198,13.6772727 59.5725207,13.6772727 C59.0444215,13.6772727 58.6190083,13.5272727 58.3402893,13.2409091 C58.1055785,12.9954545 57.9735537,12.6681818 57.9735537,12.3 L57.9735537,4.07727273 L53.3673554,4.07727273 L53.3673554,4.07727273 Z" id="Shape" fill="#FCED00" fill-rule="nonzero"></path>
                        <polygon id="Path" fill="#221F1F" fill-rule="nonzero" points="75.8849174 3.49090909 75.8849174 8.05909091 72.9510331 3.88636364 72.7016529 3.49090909 67.2006198 3.49090909 67.2006198 18.3 72.9657025 18.3 72.9657025 13.7318182 75.943595 17.9181818 76.2369835 18.3 81.6206612 18.3 81.6206612 3.49090909"></polygon>
                        <path d="M81.2392562,17.9454545 L76.427686,17.9454545 L76.2663223,17.7272727 L72.5842975,12.5454545 L72.5842975,17.9454545 L67.5820248,17.9454545 L67.5820248,3.85909091 L72.4816116,3.85909091 L72.6283058,4.09090909 L76.2809917,9.27272727 L76.2809917,3.87272727 L81.2392562,3.87272727 L81.2392562,17.9454545 L81.2392562,17.9454545 Z M76.5597107,17.7136364 L81.0045455,17.7136364 L81.0045455,4.07727273 L76.5303719,4.07727273 L76.5303719,10.0090909 L72.4376033,4.2 L72.3642562,4.07727273 L67.8460744,4.07727273 L67.8460744,17.7136364 L72.3642562,17.7136364 L72.3642562,11.7818182 L76.4863636,17.5909091 L76.5597107,17.7136364 Z" id="Shape" fill="#FCED00" fill-rule="nonzero"></path>
                        <polygon id="Path" fill="#221F1F" fill-rule="nonzero" points="51.8417355 8.55 51.8417355 3.49090909 41.206405 3.49090909 41.206405 18.3 46.986157 18.3 46.986157 14.3727273 51.8417355 14.3727273 51.8417355 9.34090909 46.986157 9.34090909 46.986157 8.55"></polygon>
                        <path d="M46.6047521,17.9454545 L41.5878099,17.9454545 L41.5878099,3.85909091 L51.4603306,3.85909091 L51.4603306,8.20909091 L46.6047521,8.20909091 L46.6047521,9.70909091 L51.4603306,9.70909091 L51.4603306,14.0181818 L46.6047521,14.0181818 L46.6047521,17.9454545 Z M41.8371901,17.7136364 L46.3553719,17.7136364 L46.3553719,13.7863636 L51.2109504,13.7863636 L51.2109504,9.92727273 L46.3553719,9.92727273 L46.3553719,7.97727273 L51.2109504,7.97727273 L51.2109504,4.07727273 L41.8225207,4.07727273 L41.8225207,17.7136364 L41.8371901,17.7136364 Z" id="Shape" fill="#FCED00" fill-rule="nonzero"></path>
                        <ellipse id="Oval" fill="#FFFFFF" fill-rule="nonzero" cx="45.2991736" cy="16.7181818" rx="1" ry="1"></ellipse>
                        <ellipse id="Oval" fill="#FFFFFF" fill-rule="nonzero" cx="44.0816116" cy="16.7181818" rx="1" ry="1"></ellipse>
                        <ellipse id="Oval" fill="#FFFFFF" fill-rule="nonzero" cx="42.8640496" cy="16.7181818" rx="1" ry="1"></ellipse>
                        <ellipse id="Oval" fill="#FFFFFF" fill-rule="nonzero" cx="45.2991736" cy="15.75" rx="1" ry="1"></ellipse>
                        <ellipse id="Oval" fill="#FFFFFF" fill-rule="nonzero" cx="44.0816116" cy="15.75" rx="1" ry="1"></ellipse>
                        <ellipse id="Oval" fill="#FFFFFF" fill-rule="nonzero" cx="42.8640496" cy="15.75" rx="1" ry="1"></ellipse>
                        <ellipse id="Oval" fill="#FFFFFF" fill-rule="nonzero" cx="45.2991736" cy="14.7681818" rx="1" ry="1"></ellipse>
                        <ellipse id="Oval" fill="#FFFFFF" fill-rule="nonzero" cx="44.0816116" cy="14.7681818" rx="1" ry="1"></ellipse>
                        <ellipse id="Oval" fill="#FFFFFF" fill-rule="nonzero" cx="42.8640496" cy="14.7681818" rx="1" ry="1"></ellipse>
                        <ellipse id="Oval" fill="#FFFFFF" fill-rule="nonzero" cx="45.2991736" cy="13.8" rx="1" ry="1"></ellipse>
                        <ellipse id="Oval" fill="#FFFFFF" fill-rule="nonzero" cx="44.0816116" cy="13.8" rx="1" ry="1"></ellipse>
                        <ellipse id="Oval" fill="#FFFFFF" fill-rule="nonzero" cx="42.8640496" cy="13.8" rx="1" ry="1"></ellipse>
                        <ellipse id="Oval" fill="#FFFFFF" fill-rule="nonzero" cx="50.1547521" cy="12.8318182" rx="1" ry="1"></ellipse>
                        <ellipse id="Oval" fill="#FFFFFF" fill-rule="nonzero" cx="48.9371901" cy="12.8318182" rx="1" ry="1"></ellipse>
                        <ellipse id="Oval" fill="#FFFFFF" fill-rule="nonzero" cx="47.7196281" cy="12.8318182" rx="1" ry="1"></ellipse>
                        <ellipse id="Oval" fill="#FFFFFF" fill-rule="nonzero" cx="46.5020661" cy="12.8318182" rx="1" ry="1"></ellipse>
                        <ellipse id="Oval" fill="#FFFFFF" fill-rule="nonzero" cx="45.2991736" cy="12.8318182" rx="1" ry="1"></ellipse>
                        <ellipse id="Oval" fill="#FFFFFF" fill-rule="nonzero" cx="44.0816116" cy="12.8318182" rx="1" ry="1"></ellipse>
                        <ellipse id="Oval" fill="#FFFFFF" fill-rule="nonzero" cx="42.8640496" cy="12.8318182" rx="1" ry="1"></ellipse>
                        <ellipse id="Oval" fill="#FFFFFF" fill-rule="nonzero" cx="50.1547521" cy="11.85" rx="1" ry="1"></ellipse>
                        <ellipse id="Oval" fill="#FFFFFF" fill-rule="nonzero" cx="48.9371901" cy="11.85" rx="1" ry="1"></ellipse>
                        <ellipse id="Oval" fill="#FFFFFF" fill-rule="nonzero" cx="47.7196281" cy="11.85" rx="1" ry="1"></ellipse>
                        <ellipse id="Oval" fill="#FFFFFF" fill-rule="nonzero" cx="46.5020661" cy="11.85" rx="1" ry="1"></ellipse>
                        <ellipse id="Oval" fill="#FFFFFF" fill-rule="nonzero" cx="45.2991736" cy="11.85" rx="1" ry="1"></ellipse>
                        <ellipse id="Oval" fill="#FFFFFF" fill-rule="nonzero" cx="44.0816116" cy="11.85" rx="1" ry="1"></ellipse>
                        <ellipse id="Oval" fill="#FFFFFF" fill-rule="nonzero" cx="42.8640496" cy="11.85" rx="1" ry="1"></ellipse>
                        <ellipse id="Oval" fill="#FFFFFF" fill-rule="nonzero" cx="50.1547521" cy="10.8818182" rx="1" ry="1"></ellipse>
                        <ellipse id="Oval" fill="#FFFFFF" fill-rule="nonzero" cx="48.9371901" cy="10.8818182" rx="1" ry="1"></ellipse>
                        <ellipse id="Oval" fill="#FFFFFF" fill-rule="nonzero" cx="47.7196281" cy="10.8818182" rx="1" ry="1"></ellipse>
                        <ellipse id="Oval" fill="#FFFFFF" fill-rule="nonzero" cx="46.5020661" cy="10.8818182" rx="1" ry="1"></ellipse>
                        <ellipse id="Oval" fill="#FFFFFF" fill-rule="nonzero" cx="45.2991736" cy="10.8818182" rx="1" ry="1"></ellipse>
                        <ellipse id="Oval" fill="#FFFFFF" fill-rule="nonzero" cx="44.0816116" cy="10.8818182" rx="1" ry="1"></ellipse>
                        <ellipse id="Oval" fill="#FFFFFF" fill-rule="nonzero" cx="42.8640496" cy="10.8818182" rx="1" ry="1"></ellipse>
                        <ellipse id="Oval" fill="#FFFFFF" fill-rule="nonzero" cx="45.2991736" cy="9.91363636" rx="1" ry="1"></ellipse>
                        <ellipse id="Oval" fill="#FFFFFF" fill-rule="nonzero" cx="44.0816116" cy="9.91363636" rx="1" ry="1"></ellipse>
                        <ellipse id="Oval" fill="#FFFFFF" fill-rule="nonzero" cx="42.8640496" cy="9.91363636" rx="1" ry="1"></ellipse>
                        <ellipse id="Oval" fill="#FFFFFF" fill-rule="nonzero" cx="45.2991736" cy="8.93181818" rx="1" ry="1"></ellipse>
                        <ellipse id="Oval" fill="#FFFFFF" fill-rule="nonzero" cx="44.0816116" cy="8.93181818" rx="1" ry="1"></ellipse>
                        <ellipse id="Oval" fill="#FFFFFF" fill-rule="nonzero" cx="42.8640496" cy="8.93181818" rx="1" ry="1"></ellipse>
                        <ellipse id="Oval" fill="#FFFFFF" fill-rule="nonzero" cx="45.2991736" cy="7.96363636" rx="1" ry="1"></ellipse>
                        <ellipse id="Oval" fill="#FFFFFF" fill-rule="nonzero" cx="44.0816116" cy="7.96363636" rx="1" ry="1"></ellipse>
                        <ellipse id="Oval" fill="#FFFFFF" fill-rule="nonzero" cx="42.8640496" cy="7.96363636" rx="1" ry="1"></ellipse>
                        <ellipse id="Oval" fill="#FFFFFF" fill-rule="nonzero" cx="50.1547521" cy="6.99545455" rx="1" ry="1"></ellipse>
                        <ellipse id="Oval" fill="#FFFFFF" fill-rule="nonzero" cx="48.9371901" cy="6.99545455" rx="1" ry="1"></ellipse>
                        <ellipse id="Oval" fill="#FFFFFF" fill-rule="nonzero" cx="47.7196281" cy="6.99545455" rx="1" ry="1"></ellipse>
                        <ellipse id="Oval" fill="#FFFFFF" fill-rule="nonzero" cx="46.5020661" cy="6.99545455" rx="1" ry="1"></ellipse>
                        <ellipse id="Oval" fill="#FFFFFF" fill-rule="nonzero" cx="45.2991736" cy="6.99545455" rx="1" ry="1"></ellipse>
                        <ellipse id="Oval" fill="#FFFFFF" fill-rule="nonzero" cx="44.0816116" cy="6.99545455" rx="1" ry="1"></ellipse>
                        <ellipse id="Oval" fill="#FFFFFF" fill-rule="nonzero" cx="42.8640496" cy="6.99545455" rx="1" ry="1"></ellipse>
                        <ellipse id="Oval" fill="#FFFFFF" fill-rule="nonzero" cx="50.1547521" cy="6.01363636" rx="1" ry="1"></ellipse>
                        <ellipse id="Oval" fill="#FFFFFF" fill-rule="nonzero" cx="48.9371901" cy="6.01363636" rx="1" ry="1"></ellipse>
                        <ellipse id="Oval" fill="#FFFFFF" fill-rule="nonzero" cx="47.7196281" cy="6.01363636" rx="1" ry="1"></ellipse>
                        <ellipse id="Oval" fill="#FFFFFF" fill-rule="nonzero" cx="46.5020661" cy="6.01363636" rx="1" ry="1"></ellipse>
                        <ellipse id="Oval" fill="#FFFFFF" fill-rule="nonzero" cx="45.2991736" cy="6.01363636" rx="1" ry="1"></ellipse>
                        <ellipse id="Oval" fill="#FFFFFF" fill-rule="nonzero" cx="44.0816116" cy="6.01363636" rx="1" ry="1"></ellipse>
                        <ellipse id="Oval" fill="#FFFFFF" fill-rule="nonzero" cx="42.8640496" cy="6.01363636" rx="1" ry="1"></ellipse>
                        <ellipse id="Oval" fill="#FFFFFF" fill-rule="nonzero" cx="50.1547521" cy="5.04545455" rx="1" ry="1"></ellipse>
                        <ellipse id="Oval" fill="#FFFFFF" fill-rule="nonzero" cx="48.9371901" cy="5.04545455" rx="1" ry="1"></ellipse>
                        <ellipse id="Oval" fill="#FFFFFF" fill-rule="nonzero" cx="47.7196281" cy="5.04545455" rx="1" ry="1"></ellipse>
                        <ellipse id="Oval" fill="#FFFFFF" fill-rule="nonzero" cx="46.5020661" cy="5.04545455" rx="1" ry="1"></ellipse>
                        <ellipse id="Oval" fill="#FFFFFF" fill-rule="nonzero" cx="45.2991736" cy="5.04545455" rx="1" ry="1"></ellipse>
                        <ellipse id="Oval" fill="#FFFFFF" fill-rule="nonzero" cx="44.0816116" cy="5.04545455" rx="1" ry="1"></ellipse>
                        <ellipse id="Oval" fill="#FFFFFF" fill-rule="nonzero" cx="42.8640496" cy="5.04545455" rx="1" ry="1"></ellipse>
                        <ellipse id="Oval" fill="#FFFFFF" fill-rule="nonzero" cx="79.9630165" cy="16.7454545" rx="1" ry="1"></ellipse>
                        <ellipse id="Oval" fill="#FFFFFF" fill-rule="nonzero" cx="78.7307851" cy="16.7454545" rx="1" ry="1"></ellipse>
                        <ellipse id="Oval" fill="#FFFFFF" fill-rule="nonzero" cx="77.4985537" cy="16.7454545" rx="1" ry="1"></ellipse>
                        <ellipse id="Oval" fill="#FFFFFF" fill-rule="nonzero" cx="71.3080579" cy="16.7454545" rx="1" ry="1"></ellipse>
                        <ellipse id="Oval" fill="#FFFFFF" fill-rule="nonzero" cx="70.0758264" cy="16.7454545" rx="1" ry="1"></ellipse>
                        <ellipse id="Oval" fill="#FFFFFF" fill-rule="nonzero" cx="68.843595" cy="16.7454545" rx="1" ry="1"></ellipse>
                        <ellipse id="Oval" fill="#FFFFFF" fill-rule="nonzero" cx="79.9630165" cy="15.7636364" rx="1" ry="1"></ellipse>
                        <ellipse id="Oval" fill="#FFFFFF" fill-rule="nonzero" cx="78.7307851" cy="15.7636364" rx="1" ry="1"></ellipse>
                        <ellipse id="Oval" fill="#FFFFFF" fill-rule="nonzero" cx="77.4985537" cy="15.7636364" rx="1" ry="1"></ellipse>
                        <ellipse id="Oval" fill="#FFFFFF" fill-rule="nonzero" cx="76.2516529" cy="15.7636364" rx="1" ry="1"></ellipse>
                        <ellipse id="Oval" fill="#FFFFFF" fill-rule="nonzero" cx="71.3080579" cy="15.7636364" rx="1" ry="1"></ellipse>
                        <ellipse id="Oval" fill="#FFFFFF" fill-rule="nonzero" cx="70.0758264" cy="15.7636364" rx="1" ry="1"></ellipse>
                        <ellipse id="Oval" fill="#FFFFFF" fill-rule="nonzero" cx="68.843595" cy="15.7636364" rx="1" ry="1"></ellipse>
                        <ellipse id="Oval" fill="#FFFFFF" fill-rule="nonzero" cx="79.9630165" cy="14.7954545" rx="1" ry="1"></ellipse>
                        <ellipse id="Oval" fill="#FFFFFF" fill-rule="nonzero" cx="78.7307851" cy="14.7954545" rx="1" ry="1"></ellipse>
                        <ellipse id="Oval" fill="#FFFFFF" fill-rule="nonzero" cx="77.4985537" cy="14.7954545" rx="1" ry="1"></ellipse>
                        <ellipse id="Oval" fill="#FFFFFF" fill-rule="nonzero" cx="76.2516529" cy="14.7954545" rx="1" ry="1"></ellipse>
                        <ellipse id="Oval" fill="#FFFFFF" fill-rule="nonzero" cx="71.3080579" cy="14.7954545" rx="1" ry="1"></ellipse>
                        <ellipse id="Oval" fill="#FFFFFF" fill-rule="nonzero" cx="70.0758264" cy="14.7954545" rx="1" ry="1"></ellipse>
                        <ellipse id="Oval" fill="#FFFFFF" fill-rule="nonzero" cx="68.843595" cy="14.7954545" rx="1" ry="1"></ellipse>
                        <ellipse id="Oval" fill="#FFFFFF" fill-rule="nonzero" cx="79.9630165" cy="13.8136364" rx="1" ry="1"></ellipse>
                        <ellipse id="Oval" fill="#FFFFFF" fill-rule="nonzero" cx="78.7307851" cy="13.8136364" rx="1" ry="1"></ellipse>
                        <ellipse id="Oval" fill="#FFFFFF" fill-rule="nonzero" cx="77.4985537" cy="13.8136364" rx="1" ry="1"></ellipse>
                        <ellipse id="Oval" fill="#FFFFFF" fill-rule="nonzero" cx="76.2516529" cy="13.8136364" rx="1" ry="1"></ellipse>
                        <ellipse id="Oval" fill="#FFFFFF" fill-rule="nonzero" cx="75.0194215" cy="13.8136364" rx="1" ry="1"></ellipse>
                        <ellipse id="Oval" fill="#FFFFFF" fill-rule="nonzero" cx="71.3080579" cy="13.8136364" rx="1" ry="1"></ellipse>
                        <ellipse id="Oval" fill="#FFFFFF" fill-rule="nonzero" cx="70.0758264" cy="13.8136364" rx="1" ry="1"></ellipse>
                        <ellipse id="Oval" fill="#FFFFFF" fill-rule="nonzero" cx="68.843595" cy="13.8136364" rx="1" ry="1"></ellipse>
                        <ellipse id="Oval" fill="#FFFFFF" fill-rule="nonzero" cx="79.9630165" cy="12.8454545" rx="1" ry="1"></ellipse>
                        <ellipse id="Oval" fill="#FFFFFF" fill-rule="nonzero" cx="78.7307851" cy="12.8454545" rx="1" ry="1"></ellipse>
                        <ellipse id="Oval" fill="#FFFFFF" fill-rule="nonzero" cx="77.4985537" cy="12.8454545" rx="1" ry="1"></ellipse>
                        <ellipse id="Oval" fill="#FFFFFF" fill-rule="nonzero" cx="76.2516529" cy="12.8454545" rx="1" ry="1"></ellipse>
                        <ellipse id="Oval" fill="#FFFFFF" fill-rule="nonzero" cx="75.0194215" cy="12.8454545" rx="1" ry="1"></ellipse>
                        <ellipse id="Oval" fill="#FFFFFF" fill-rule="nonzero" cx="71.3080579" cy="12.8454545" rx="1" ry="1"></ellipse>
                        <ellipse id="Oval" fill="#FFFFFF" fill-rule="nonzero" cx="70.0758264" cy="12.8454545" rx="1" ry="1"></ellipse>
                        <ellipse id="Oval" fill="#FFFFFF" fill-rule="nonzero" cx="68.843595" cy="12.8454545" rx="1" ry="1"></ellipse>
                        <ellipse id="Oval" fill="#FFFFFF" fill-rule="nonzero" cx="79.9630165" cy="11.8636364" rx="1" ry="1"></ellipse>
                        <ellipse id="Oval" fill="#FFFFFF" fill-rule="nonzero" cx="78.7307851" cy="11.8636364" rx="1" ry="1"></ellipse>
                        <ellipse id="Oval" fill="#FFFFFF" fill-rule="nonzero" cx="77.4985537" cy="11.8636364" rx="1" ry="1"></ellipse>
                        <ellipse id="Oval" fill="#FFFFFF" fill-rule="nonzero" cx="76.2516529" cy="11.8636364" rx="1" ry="1"></ellipse>
                        <ellipse id="Oval" fill="#FFFFFF" fill-rule="nonzero" cx="75.0194215" cy="11.8636364" rx="1" ry="1"></ellipse>
                        <ellipse id="Oval" fill="#FFFFFF" fill-rule="nonzero" cx="73.7871901" cy="11.8636364" rx="1" ry="1"></ellipse>
                        <ellipse id="Oval" fill="#FFFFFF" fill-rule="nonzero" cx="71.3080579" cy="11.8636364" rx="1" ry="1"></ellipse>
                        <ellipse id="Oval" fill="#FFFFFF" fill-rule="nonzero" cx="70.0758264" cy="11.8636364" rx="1" ry="1"></ellipse>
                        <ellipse id="Oval" fill="#FFFFFF" fill-rule="nonzero" cx="68.843595" cy="11.8636364" rx="1" ry="1"></ellipse>
                        <ellipse id="Oval" fill="#FFFFFF" fill-rule="nonzero" cx="79.9630165" cy="10.8954545" rx="1" ry="1"></ellipse>
                        <ellipse id="Oval" fill="#FFFFFF" fill-rule="nonzero" cx="78.7307851" cy="10.8954545" rx="1" ry="1"></ellipse>
                        <ellipse id="Oval" fill="#FFFFFF" fill-rule="nonzero" cx="77.4985537" cy="10.8954545" rx="1" ry="1"></ellipse>
                        <ellipse id="Oval" fill="#FFFFFF" fill-rule="nonzero" cx="76.2516529" cy="10.8954545" rx="1" ry="1"></ellipse>
                        <ellipse id="Oval" fill="#FFFFFF" fill-rule="nonzero" cx="75.0194215" cy="10.8954545" rx="1" ry="1"></ellipse>
                        <ellipse id="Oval" fill="#FFFFFF" fill-rule="nonzero" cx="73.7871901" cy="10.8954545" rx="1" ry="1"></ellipse>
                        <ellipse id="Oval" fill="#FFFFFF" fill-rule="nonzero" cx="72.5402893" cy="10.8954545" rx="1" ry="1"></ellipse>
                        <ellipse id="Oval" fill="#FFFFFF" fill-rule="nonzero" cx="71.3080579" cy="10.8954545" rx="1" ry="1"></ellipse>
                        <ellipse id="Oval" fill="#FFFFFF" fill-rule="nonzero" cx="70.0758264" cy="10.8954545" rx="1" ry="1"></ellipse>
                        <ellipse id="Oval" fill="#FFFFFF" fill-rule="nonzero" cx="68.843595" cy="10.8954545" rx="1" ry="1"></ellipse>
                        <ellipse id="Oval" fill="#FFFFFF" fill-rule="nonzero" cx="79.9630165" cy="9.91363636" rx="1" ry="1"></ellipse>
                        <ellipse id="Oval" fill="#FFFFFF" fill-rule="nonzero" cx="78.7307851" cy="9.91363636" rx="1" ry="1"></ellipse>
                        <ellipse id="Oval" fill="#FFFFFF" fill-rule="nonzero" cx="77.4985537" cy="9.91363636" rx="1" ry="1"></ellipse>
                        <ellipse id="Oval" fill="#FFFFFF" fill-rule="nonzero" cx="75.0194215" cy="9.91363636" rx="1" ry="1"></ellipse>
                        <ellipse id="Oval" fill="#FFFFFF" fill-rule="nonzero" cx="73.7871901" cy="9.91363636" rx="1" ry="1"></ellipse>
                        <ellipse id="Oval" fill="#FFFFFF" fill-rule="nonzero" cx="72.5402893" cy="9.91363636" rx="1" ry="1"></ellipse>
                        <ellipse id="Oval" fill="#FFFFFF" fill-rule="nonzero" cx="71.3080579" cy="9.91363636" rx="1" ry="1"></ellipse>
                        <ellipse id="Oval" fill="#FFFFFF" fill-rule="nonzero" cx="70.0758264" cy="9.91363636" rx="1" ry="1"></ellipse>
                        <ellipse id="Oval" fill="#FFFFFF" fill-rule="nonzero" cx="68.843595" cy="9.91363636" rx="1" ry="1"></ellipse>
                        <ellipse id="Oval" fill="#FFFFFF" fill-rule="nonzero" cx="79.9630165" cy="8.94545455" rx="1" ry="1"></ellipse>
                        <ellipse id="Oval" fill="#FFFFFF" fill-rule="nonzero" cx="78.7307851" cy="8.94545455" rx="1" ry="1"></ellipse>
                        <ellipse id="Oval" fill="#FFFFFF" fill-rule="nonzero" cx="77.4985537" cy="8.94545455" rx="1" ry="1"></ellipse>
                        <ellipse id="Oval" fill="#FFFFFF" fill-rule="nonzero" cx="73.7871901" cy="8.94545455" rx="1" ry="1"></ellipse>
                        <ellipse id="Oval" fill="#FFFFFF" fill-rule="nonzero" cx="72.5402893" cy="8.94545455" rx="1" ry="1"></ellipse>
                        <ellipse id="Oval" fill="#FFFFFF" fill-rule="nonzero" cx="71.3080579" cy="8.94545455" rx="1" ry="1"></ellipse>
                        <ellipse id="Oval" fill="#FFFFFF" fill-rule="nonzero" cx="70.0758264" cy="8.94545455" rx="1" ry="1"></ellipse>
                        <ellipse id="Oval" fill="#FFFFFF" fill-rule="nonzero" cx="68.843595" cy="8.94545455" rx="1" ry="1"></ellipse>
                        <ellipse id="Oval" fill="#FFFFFF" fill-rule="nonzero" cx="79.9630165" cy="7.96363636" rx="1" ry="1"></ellipse>
                        <ellipse id="Oval" fill="#FFFFFF" fill-rule="nonzero" cx="78.7307851" cy="7.96363636" rx="1" ry="1"></ellipse>
                        <ellipse id="Oval" fill="#FFFFFF" fill-rule="nonzero" cx="77.4985537" cy="7.96363636" rx="1" ry="1"></ellipse>
                        <ellipse id="Oval" fill="#FFFFFF" fill-rule="nonzero" cx="73.7871901" cy="7.96363636" rx="1" ry="1"></ellipse>
                        <ellipse id="Oval" fill="#FFFFFF" fill-rule="nonzero" cx="72.5402893" cy="7.96363636" rx="1" ry="1"></ellipse>
                        <ellipse id="Oval" fill="#FFFFFF" fill-rule="nonzero" cx="71.3080579" cy="7.96363636" rx="1" ry="1"></ellipse>
                        <ellipse id="Oval" fill="#FFFFFF" fill-rule="nonzero" cx="70.0758264" cy="7.96363636" rx="1" ry="1"></ellipse>
                        <ellipse id="Oval" fill="#FFFFFF" fill-rule="nonzero" cx="68.843595" cy="7.96363636" rx="1" ry="1"></ellipse>
                        <ellipse id="Oval" fill="#FFFFFF" fill-rule="nonzero" cx="79.9630165" cy="6.99545455" rx="1" ry="1"></ellipse>
                        <ellipse id="Oval" fill="#FFFFFF" fill-rule="nonzero" cx="78.7307851" cy="6.99545455" rx="1" ry="1"></ellipse>
                        <ellipse id="Oval" fill="#FFFFFF" fill-rule="nonzero" cx="77.4985537" cy="6.99545455" rx="1" ry="1"></ellipse>
                        <ellipse id="Oval" fill="#FFFFFF" fill-rule="nonzero" cx="72.5402893" cy="6.99545455" rx="1" ry="1"></ellipse>
                        <ellipse id="Oval" fill="#FFFFFF" fill-rule="nonzero" cx="71.3080579" cy="6.99545455" rx="1" ry="1"></ellipse>
                        <ellipse id="Oval" fill="#FFFFFF" fill-rule="nonzero" cx="70.0758264" cy="6.99545455" rx="1" ry="1"></ellipse>
                        <ellipse id="Oval" fill="#FFFFFF" fill-rule="nonzero" cx="68.843595" cy="6.99545455" rx="1" ry="1"></ellipse>
                        <ellipse id="Oval" fill="#FFFFFF" fill-rule="nonzero" cx="79.9630165" cy="6.01363636" rx="1" ry="1"></ellipse>
                        <ellipse id="Oval" fill="#FFFFFF" fill-rule="nonzero" cx="78.7307851" cy="6.01363636" rx="1" ry="1"></ellipse>
                        <ellipse id="Oval" fill="#FFFFFF" fill-rule="nonzero" cx="77.4985537" cy="6.01363636" rx="1" ry="1"></ellipse>
                        <ellipse id="Oval" fill="#FFFFFF" fill-rule="nonzero" cx="72.5402893" cy="6.01363636" rx="1" ry="1"></ellipse>
                        <ellipse id="Oval" fill="#FFFFFF" fill-rule="nonzero" cx="71.3080579" cy="6.01363636" rx="1" ry="1"></ellipse>
                        <ellipse id="Oval" fill="#FFFFFF" fill-rule="nonzero" cx="70.0758264" cy="6.01363636" rx="1" ry="1"></ellipse>
                        <ellipse id="Oval" fill="#FFFFFF" fill-rule="nonzero" cx="68.843595" cy="6.01363636" rx="1" ry="1"></ellipse>
                        <ellipse id="Oval" fill="#FFFFFF" fill-rule="nonzero" cx="79.9630165" cy="5.04545455" rx="1" ry="1"></ellipse>
                        <ellipse id="Oval" fill="#FFFFFF" fill-rule="nonzero" cx="78.7307851" cy="5.04545455" rx="1" ry="1"></ellipse>
                        <ellipse id="Oval" fill="#FFFFFF" fill-rule="nonzero" cx="77.4985537" cy="5.04545455" rx="1" ry="1"></ellipse>
                        <ellipse id="Oval" fill="#FFFFFF" fill-rule="nonzero" cx="71.3080579" cy="5.04545455" rx="1" ry="1"></ellipse>
                        <ellipse id="Oval" fill="#FFFFFF" fill-rule="nonzero" cx="70.0758264" cy="5.04545455" rx="1" ry="1"></ellipse>
                        <ellipse id="Oval" fill="#FFFFFF" fill-rule="nonzero" cx="68.843595" cy="5.04545455" rx="1" ry="1"></ellipse>
                        <ellipse id="Oval" fill="#FFFFFF" fill-rule="nonzero" cx="62.1396694" cy="16.7181818" rx="1" ry="1"></ellipse>
                        <ellipse id="Oval" fill="#FFFFFF" fill-rule="nonzero" cx="60.8340909" cy="16.7181818" rx="1" ry="1"></ellipse>
                        <ellipse id="Oval" fill="#FFFFFF" fill-rule="nonzero" cx="59.5285124" cy="16.7181818" rx="1" ry="1"></ellipse>
                        <ellipse id="Oval" fill="#FFFFFF" fill-rule="nonzero" cx="58.2376033" cy="16.7181818" rx="1" ry="1"></ellipse>
                        <ellipse id="Oval" fill="#FFFFFF" fill-rule="nonzero" cx="56.9320248" cy="16.7181818" rx="1" ry="1"></ellipse>
                        <ellipse id="Oval" fill="#FFFFFF" fill-rule="nonzero" cx="63.4452479" cy="15.7363636" rx="1" ry="1"></ellipse>
                        <ellipse id="Oval" fill="#FFFFFF" fill-rule="nonzero" cx="62.1396694" cy="15.7363636" rx="1" ry="1"></ellipse>
                        <ellipse id="Oval" fill="#FFFFFF" fill-rule="nonzero" cx="60.8340909" cy="15.7363636" rx="1" ry="1"></ellipse>
                        <ellipse id="Oval" fill="#FFFFFF" fill-rule="nonzero" cx="59.5285124" cy="15.7363636" rx="1" ry="1"></ellipse>
                        <ellipse id="Oval" fill="#FFFFFF" fill-rule="nonzero" cx="58.2376033" cy="15.7363636" rx="1" ry="1"></ellipse>
                        <ellipse id="Oval" fill="#FFFFFF" fill-rule="nonzero" cx="56.9320248" cy="15.7363636" rx="1" ry="1"></ellipse>
                        <ellipse id="Oval" fill="#FFFFFF" fill-rule="nonzero" cx="55.6264463" cy="15.7363636" rx="1" ry="1"></ellipse>
                        <ellipse id="Oval" fill="#FFFFFF" fill-rule="nonzero" cx="63.4452479" cy="14.7681818" rx="1" ry="1"></ellipse>
                        <ellipse id="Oval" fill="#FFFFFF" fill-rule="nonzero" cx="62.1396694" cy="14.7681818" rx="1" ry="1"></ellipse>
                        <ellipse id="Oval" fill="#FFFFFF" fill-rule="nonzero" cx="60.8340909" cy="14.7681818" rx="1" ry="1"></ellipse>
                        <ellipse id="Oval" fill="#FFFFFF" fill-rule="nonzero" cx="59.5285124" cy="14.7681818" rx="1" ry="1"></ellipse>
                        <ellipse id="Oval" fill="#FFFFFF" fill-rule="nonzero" cx="58.2376033" cy="14.7681818" rx="1" ry="1"></ellipse>
                        <ellipse id="Oval" fill="#FFFFFF" fill-rule="nonzero" cx="56.9320248" cy="14.7681818" rx="1" ry="1"></ellipse>
                        <ellipse id="Oval" fill="#FFFFFF" fill-rule="nonzero" cx="55.6264463" cy="14.7681818" rx="1" ry="1"></ellipse>
                        <ellipse id="Oval" fill="#FFFFFF" fill-rule="nonzero" cx="64.7508264" cy="13.8" rx="1" ry="1"></ellipse>
                        <ellipse id="Oval" fill="#FFFFFF" fill-rule="nonzero" cx="63.4452479" cy="13.8" rx="1" ry="1"></ellipse>
                        <ellipse id="Oval" fill="#FFFFFF" fill-rule="nonzero" cx="62.1396694" cy="13.8" rx="1" ry="1"></ellipse>
                        <ellipse id="Oval" fill="#FFFFFF" fill-rule="nonzero" cx="56.9320248" cy="13.8" rx="1" ry="1"></ellipse>
                        <ellipse id="Oval" fill="#FFFFFF" fill-rule="nonzero" cx="55.6264463" cy="13.8" rx="1" ry="1"></ellipse>
                        <ellipse id="Oval" fill="#FFFFFF" fill-rule="nonzero" cx="54.3208678" cy="13.8" rx="1" ry="1"></ellipse>
                        <ellipse id="Oval" fill="#FFFFFF" fill-rule="nonzero" cx="64.7508264" cy="12.8181818" rx="1" ry="1"></ellipse>
                        <ellipse id="Oval" fill="#FFFFFF" fill-rule="nonzero" cx="63.4452479" cy="12.8181818" rx="1" ry="1"></ellipse>
                        <ellipse id="Oval" fill="#FFFFFF" fill-rule="nonzero" cx="62.1396694" cy="12.8181818" rx="1" ry="1"></ellipse>
                        <ellipse id="Oval" fill="#FFFFFF" fill-rule="nonzero" cx="56.9320248" cy="12.8181818" rx="1" ry="1"></ellipse>
                        <ellipse id="Oval" fill="#FFFFFF" fill-rule="nonzero" cx="55.6264463" cy="12.8181818" rx="1" ry="1"></ellipse>
                        <ellipse id="Oval" fill="#FFFFFF" fill-rule="nonzero" cx="54.3208678" cy="12.8181818" rx="1" ry="1"></ellipse>
                        <ellipse id="Oval" fill="#FFFFFF" fill-rule="nonzero" cx="64.7508264" cy="11.85" rx="1" ry="1"></ellipse>
                        <ellipse id="Oval" fill="#FFFFFF" fill-rule="nonzero" cx="63.4452479" cy="11.85" rx="1" ry="1"></ellipse>
                        <ellipse id="Oval" fill="#FFFFFF" fill-rule="nonzero" cx="62.1396694" cy="11.85" rx="1" ry="1"></ellipse>
                        <ellipse id="Oval" fill="#FFFFFF" fill-rule="nonzero" cx="56.9320248" cy="11.85" rx="1" ry="1"></ellipse>
                        <ellipse id="Oval" fill="#FFFFFF" fill-rule="nonzero" cx="55.6264463" cy="11.85" rx="1" ry="1"></ellipse>
                        <ellipse id="Oval" fill="#FFFFFF" fill-rule="nonzero" cx="54.3208678" cy="11.85" rx="1" ry="1"></ellipse>
                        <ellipse id="Oval" fill="#FFFFFF" fill-rule="nonzero" cx="64.7508264" cy="10.8818182" rx="1" ry="1"></ellipse>
                        <ellipse id="Oval" fill="#FFFFFF" fill-rule="nonzero" cx="63.4452479" cy="10.8818182" rx="1" ry="1"></ellipse>
                        <ellipse id="Oval" fill="#FFFFFF" fill-rule="nonzero" cx="62.1396694" cy="10.8818182" rx="1" ry="1"></ellipse>
                        <ellipse id="Oval" fill="#FFFFFF" fill-rule="nonzero" cx="56.9320248" cy="10.8818182" rx="1" ry="1"></ellipse>
                        <ellipse id="Oval" fill="#FFFFFF" fill-rule="nonzero" cx="55.6264463" cy="10.8818182" rx="1" ry="1"></ellipse>
                        <ellipse id="Oval" fill="#FFFFFF" fill-rule="nonzero" cx="54.3208678" cy="10.8818182" rx="1" ry="1"></ellipse>
                        <ellipse id="Oval" fill="#FFFFFF" fill-rule="nonzero" cx="64.7508264" cy="9.9" rx="1" ry="1"></ellipse>
                        <ellipse id="Oval" fill="#FFFFFF" fill-rule="nonzero" cx="63.4452479" cy="9.9" rx="1" ry="1"></ellipse>
                        <ellipse id="Oval" fill="#FFFFFF" fill-rule="nonzero" cx="62.1396694" cy="9.9" rx="1" ry="1"></ellipse>
                        <ellipse id="Oval" fill="#FFFFFF" fill-rule="nonzero" cx="56.9320248" cy="9.9" rx="1" ry="1"></ellipse>
                        <ellipse id="Oval" fill="#FFFFFF" fill-rule="nonzero" cx="55.6264463" cy="9.9" rx="1" ry="1"></ellipse>
                        <ellipse id="Oval" fill="#FFFFFF" fill-rule="nonzero" cx="54.3208678" cy="9.9" rx="1" ry="1"></ellipse>
                        <ellipse id="Oval" fill="#FFFFFF" fill-rule="nonzero" cx="64.7508264" cy="8.93181818" rx="1" ry="1"></ellipse>
                        <ellipse id="Oval" fill="#FFFFFF" fill-rule="nonzero" cx="63.4452479" cy="8.93181818" rx="1" ry="1"></ellipse>
                        <ellipse id="Oval" fill="#FFFFFF" fill-rule="nonzero" cx="62.1396694" cy="8.93181818" rx="1" ry="1"></ellipse>
                        <ellipse id="Oval" fill="#FFFFFF" fill-rule="nonzero" cx="56.9320248" cy="8.93181818" rx="1" ry="1"></ellipse>
                        <ellipse id="Oval" fill="#FFFFFF" fill-rule="nonzero" cx="55.6264463" cy="8.93181818" rx="1" ry="1"></ellipse>
                        <ellipse id="Oval" fill="#FFFFFF" fill-rule="nonzero" cx="54.3208678" cy="8.93181818" rx="1" ry="1"></ellipse>
                        <ellipse id="Oval" fill="#FFFFFF" fill-rule="nonzero" cx="64.7508264" cy="7.96363636" rx="1" ry="1"></ellipse>
                        <ellipse id="Oval" fill="#FFFFFF" fill-rule="nonzero" cx="63.4452479" cy="7.96363636" rx="1" ry="1"></ellipse>
                        <ellipse id="Oval" fill="#FFFFFF" fill-rule="nonzero" cx="62.1396694" cy="7.96363636" rx="1" ry="1"></ellipse>
                        <ellipse id="Oval" fill="#FFFFFF" fill-rule="nonzero" cx="56.9320248" cy="7.96363636" rx="1" ry="1"></ellipse>
                        <ellipse id="Oval" fill="#FFFFFF" fill-rule="nonzero" cx="55.6264463" cy="7.96363636" rx="1" ry="1"></ellipse>
                        <ellipse id="Oval" fill="#FFFFFF" fill-rule="nonzero" cx="54.3208678" cy="7.96363636" rx="1" ry="1"></ellipse>
                        <ellipse id="Oval" fill="#FFFFFF" fill-rule="nonzero" cx="64.7508264" cy="6.98181818" rx="1" ry="1"></ellipse>
                        <ellipse id="Oval" fill="#FFFFFF" fill-rule="nonzero" cx="63.4452479" cy="6.98181818" rx="1" ry="1"></ellipse>
                        <ellipse id="Oval" fill="#FFFFFF" fill-rule="nonzero" cx="62.1396694" cy="6.98181818" rx="1" ry="1"></ellipse>
                        <ellipse id="Oval" fill="#FFFFFF" fill-rule="nonzero" cx="56.9320248" cy="6.98181818" rx="1" ry="1"></ellipse>
                        <ellipse id="Oval" fill="#FFFFFF" fill-rule="nonzero" cx="55.6264463" cy="6.98181818" rx="1" ry="1"></ellipse>
                        <ellipse id="Oval" fill="#FFFFFF" fill-rule="nonzero" cx="54.3208678" cy="6.98181818" rx="1" ry="1"></ellipse>
                        <ellipse id="Oval" fill="#FFFFFF" fill-rule="nonzero" cx="64.7508264" cy="6.01363636" rx="1" ry="1"></ellipse>
                        <ellipse id="Oval" fill="#FFFFFF" fill-rule="nonzero" cx="63.4452479" cy="6.01363636" rx="1" ry="1"></ellipse>
                        <ellipse id="Oval" fill="#FFFFFF" fill-rule="nonzero" cx="62.1396694" cy="6.01363636" rx="1" ry="1"></ellipse>
                        <ellipse id="Oval" fill="#FFFFFF" fill-rule="nonzero" cx="56.9320248" cy="6.01363636" rx="1" ry="1"></ellipse>
                        <ellipse id="Oval" fill="#FFFFFF" fill-rule="nonzero" cx="55.6264463" cy="6.01363636" rx="1" ry="1"></ellipse>
                        <ellipse id="Oval" fill="#FFFFFF" fill-rule="nonzero" cx="54.3208678" cy="6.01363636" rx="1" ry="1"></ellipse>
                        <ellipse id="Oval" fill="#FFFFFF" fill-rule="nonzero" cx="64.7508264" cy="5.04545455" rx="1" ry="1"></ellipse>
                        <ellipse id="Oval" fill="#FFFFFF" fill-rule="nonzero" cx="63.4452479" cy="5.04545455" rx="1" ry="1"></ellipse>
                        <ellipse id="Oval" fill="#FFFFFF" fill-rule="nonzero" cx="62.1396694" cy="5.04545455" rx="1" ry="1"></ellipse>
                        <ellipse id="Oval" fill="#FFFFFF" fill-rule="nonzero" cx="56.9320248" cy="5.04545455" rx="1" ry="1"></ellipse>
                        <ellipse id="Oval" fill="#FFFFFF" fill-rule="nonzero" cx="55.6264463" cy="5.04545455" rx="1" ry="1"></ellipse>
                        <ellipse id="Oval" fill="#FFFFFF" fill-rule="nonzero" cx="54.3208678" cy="5.04545455" rx="1" ry="1"></ellipse>
                    </g>
                </g>
            </g>
        </g>
    </g>
</svg>